<?xml version="1.0" encoding="UTF-8" standalone="no"?>
<svg width="126px" height="42px" viewBox="0 0 126 42" version="1.1" xmlns="http://www.w3.org/2000/svg" xmlns:xlink="http://www.w3.org/1999/xlink" xmlns:sketch="http://www.bohemiancoding.com/sketch/ns">
    <!-- Generator: Sketch 3.3 (11970) - http://www.bohemiancoding.com/sketch -->
    <title>richtext-icons</title>
    <desc>Created with Sketch.</desc>
    <defs></defs>
    <g id="Page-1" stroke="none" stroke-width="1" fill="none" fill-rule="evenodd" sketch:type="MSPage">
        <g id="richtext-icons" sketch:type="MSArtboardGroup">
            <path d="M8,7.07910156 L8,9.45947266 L10.9838867,9.45947266 C11.4575219,9.45947266 11.8420395,9.37036222 12.1374512,9.19213867 C12.4328628,9.01391512 12.5805664,8.69775618 12.5805664,8.24365234 C12.5805664,7.74072014 12.390627,7.24023518 12,7.07910156 C11.5,7.07910156 11.5063503,7.07910156 10.9838867,7.07910156 L8,7.07910156 Z M8,11.4296875 L8,13.9345703 L10.9838867,13.9345703 C11.4575219,13.9345703 11.8261706,14.0615241 12.0898438,13.9345703 C12.5683618,13.7001941 12.8076172,13.2509799 12.8076172,12.5869141 C12.8076172,12.0253878 12.5537133,11.6396495 12.0898438,11.4296875 C12.0898438,11.4296875 11.4526391,11.4345703 10.9838867,11.4296875 L8,11.4296875 Z M14.7338867,8.00195312 C14.7338867,8.66113611 14.5678728,9.19091597 14.2358398,9.59130859 C14.050292,9.81591909 13.7768573,10.0209952 13.4155273,10.206543 C13.9672879,10.4067393 14.3835435,10.7241189 14.6643066,11.1586914 C14.9450698,11.5932639 15.0854492,12.1206024 15.0854492,12.7407227 C15.0854492,13.3803743 14.924318,13.954099 14.6020508,14.4619141 C14.3969716,14.7988298 14.1406265,15.0820301 13.8330078,15.3115234 C13.4863264,15.5751966 13.0773949,15.7558589 12.6062012,15.8535156 C12.1350074,15.9511724 11.6235379,16 11.0717773,16 L6,16 L6,5 L11.5,5 C12.8232488,5.01953135 13.6840793,5.60692986 14.2358398,6.35400391 C14.5678728,6.81299058 14.7338867,7.36230149 14.7338867,8.00195312 Z" id="Bold" fill="#000000" sketch:type="MSShapeGroup"></path>
            <path d="M29.3636364,14 L27,14 L27,16 L33,16 L33,14 L31.3636364,14 L32.6363636,7 L35,7 L35,5 L29,5 L29,7 L30.6363636,7 L29.3636364,14 Z" id="Italic" fill="#000000" sketch:type="MSShapeGroup"></path>
            <path d="M48,18 L57,18 L57,20 L48,20 L48,18 Z M57,5 L57,13 C57,14.5 54.0602081,16 52.5,16 C50.9397919,16 48,14.5 48,13 L48,5 L50,5 L50,12 L50.0500091,12 C50.2816442,13.1411202 51.290521,14 52.5,14 C53.709479,14 54.7183558,13.1411202 54.9499909,12 L55,12 L55,5 L57,5 Z" id="Underline" fill="#000000" sketch:type="MSShapeGroup"></path>
            <path d="M76,5 L76,7 L73,7 L73,16 L71,16 L71,7 L68,7 L68,5 L76,5 Z M75,9 L77,9 L77,11 L75,11 L75,9 Z M77,9 L79,9 L79,16 L77,16 L77,9 Z" id="Title-1" fill="#000000" sketch:type="MSShapeGroup"></path>
            <path d="M97,5 L97,7 L94,7 L94,16 L92,16 L92,7 L89,7 L89,5 L97,5 Z M96,9 L98,9 L98,11 L96,11 L96,9 Z M98,14 L100,14 L100,16 L98,16 L98,14 L98,14 Z M98,9 L100,9 L100,12 C100,12.5 99.5,13 99,13 L98,13 L98,9 L98,9 Z M96,13 C96,12.5 96.5,12 97,12 C97.5,12 98,12 98,12 C98,10.6577962 98,16 98,16 L96,16 L96,13 L96,13 Z" id="Title-2" fill="#000000" sketch:type="MSShapeGroup"></path>
            <path d="M116,5 L116,10 L112,10 L116,5 Z M114,15 L114,10 L118,10 L114,15 Z" id="Path" fill="#000000" sketch:type="MSShapeGroup"></path>
            <path d="M116,26 L116,31 L112,31 L116,26 Z M114,36 L114,31 L118,31 L114,36 Z" id="Path" fill="#005AB8" sketch:type="MSShapeGroup"></path>
            <path d="M8,28.0791016 L8,30.4594727 L10.9838867,30.4594727 C11.4575219,30.4594727 11.8420395,30.3703622 12.1374512,30.1921387 C12.4328628,30.0139151 12.5805664,29.6977562 12.5805664,29.2436523 C12.5805664,28.7407201 12.390627,28.2402352 12,28.0791016 C11.5,28.0791016 11.5063503,28.0791016 10.9838867,28.0791016 L8,28.0791016 Z M8,32.4296875 L8,34.9345703 L10.9838867,34.9345703 C11.4575219,34.9345703 11.8261706,35.0615241 12.0898438,34.9345703 C12.5683618,34.7001941 12.8076172,34.2509799 12.8076172,33.5869141 C12.8076172,33.0253878 12.5537133,32.6396495 12.0898438,32.4296875 C12.0898438,32.4296875 11.4526391,32.4345703 10.9838867,32.4296875 L8,32.4296875 Z M14.7338867,29.0019531 C14.7338867,29.6611361 14.5678728,30.190916 14.2358398,30.5913086 C14.050292,30.8159191 13.7768573,31.0209952 13.4155273,31.206543 C13.9672879,31.4067393 14.3835435,31.7241189 14.6643066,32.1586914 C14.9450698,32.5932639 15.0854492,33.1206024 15.0854492,33.7407227 C15.0854492,34.3803743 14.924318,34.954099 14.6020508,35.4619141 C14.3969716,35.7988298 14.1406265,36.0820301 13.8330078,36.3115234 C13.4863264,36.5751966 13.0773949,36.7558589 12.6062012,36.8535156 C12.1350074,36.9511724 11.6235379,37 11.0717773,37 L6,37 L6,26 L11.5,26 C12.8232488,26.0195313 13.6840793,26.6069299 14.2358398,27.3540039 C14.5678728,27.8129906 14.7338867,28.3623015 14.7338867,29.0019531 Z" id="Bold" fill="#005AB8" sketch:type="MSShapeGroup"></path>
            <path d="M29.3636364,35 L27,35 L27,37 L33,37 L33,35 L31.3636364,35 L32.6363636,28 L35,28 L35,26 L29,26 L29,28 L30.6363636,28 L29.3636364,35 Z" id="Italic" fill="#005AB8" sketch:type="MSShapeGroup"></path>
            <path d="M48,39 L57,39 L57,41 L48,41 L48,39 Z M57,26 L57,34 C57,35.5 54.0602081,37 52.5,37 C50.9397919,37 48,35.5 48,34 L48,26 L50,26 L50,33 L50.0500091,33 C50.2816442,34.1411202 51.290521,35 52.5,35 C53.709479,35 54.7183558,34.1411202 54.9499909,33 L55,33 L55,26 L57,26 Z" id="Underline" fill="#005AB8" sketch:type="MSShapeGroup"></path>
            <path d="M76,26 L76,28 L73,28 L73,37 L71,37 L71,28 L68,28 L68,26 L76,26 Z M75,30 L77,30 L77,32 L75,32 L75,30 Z M77,30 L79,30 L79,37 L77,37 L77,30 Z" id="Title-1" fill="#005AB8" sketch:type="MSShapeGroup"></path>
            <path d="M97,26 L97,28 L94,28 L94,37 L92,37 L92,28 L89,28 L89,26 L97,26 Z M96,30 L98,30 L98,32 L96,32 L96,30 Z M98,35 L100,35 L100,37 L98,37 L98,35 L98,35 Z M98,30 L100,30 L100,33 C100,33.5 99.5,34 99,34 L98,34 L98,30 L98,30 Z M96,34 C96,33.5 96.5,33 97,33 C97.5,33 98,33 98,33 C98,31.6577962 98,37 98,37 L96,37 L96,34 L96,34 Z" id="Title-2" fill="#005AB8" sketch:type="MSShapeGroup"></path>
        </g>
    </g>
</svg>