<?xml version="1.0" encoding="UTF-8" standalone="no"?>
<svg width="176px" height="132px" viewBox="0 0 176 132" version="1.1" xmlns="http://www.w3.org/2000/svg" xmlns:xlink="http://www.w3.org/1999/xlink" xmlns:sketch="http://www.bohemiancoding.com/sketch/ns">
    <!-- Generator: Sketch 3.3 (11970) - http://www.bohemiancoding.com/sketch -->
    <title>report designer</title>
    <desc>Created with Sketch.</desc>
    <defs></defs>
    <g id="Page-1" stroke="none" stroke-width="1" fill="none" fill-rule="evenodd" sketch:type="MSPage">
        <g id="report-designer" sketch:type="MSArtboardGroup">
            <path d="M146,12 L162,12 C163.104569,12 164,12.8954305 164,14 L164,26 C164,27.1045695 163.104569,28 162,28 L158,28 L154,32 L150,28 L146,28 C144.895431,28 144,27.1045695 144,26 L144,14 C144,12.8954305 144.895431,12 146,12 L146,12 Z M155,15 L155,20 L151,20 L155,15 Z M153,25 L153,20 L157,20 L153,25 Z" id="Shape" fill="#000000" sketch:type="MSShapeGroup"></path>
            <path d="M146,56 L162,56 C163.104569,56 164,56.8954305 164,58 L164,70 C164,71.1045695 163.104569,72 162,72 L158,72 L154,76 L150,72 L146,72 C144.895431,72 144,71.1045695 144,70 L144,58 C144,56.8954305 144.895431,56 146,56 L146,56 Z M155,59 L155,64 L151,64 L155,59 Z M153,69 L153,64 L157,64 L153,69 Z" id="Shape" fill="#FFFFFF" sketch:type="MSShapeGroup"></path>
            <path d="M146,100 L162,100 C163.104569,100 164,100.895431 164,102 L164,114 C164,115.104569 163.104569,116 162,116 L158,116 L154,120 L150,116 L146,116 C144.895431,116 144,115.104569 144,114 L144,102 C144,100.895431 144.895431,100 146,100 L146,100 Z M155,103 L155,108 L151,108 L155,103 Z M153,113 L153,108 L157,108 L153,113 Z" id="Shape" fill="#0D5CB5" sketch:type="MSShapeGroup"></path>
            <path d="M66,13 C61.58,13 58,14.79 58,17 C58,19.21 61.58,21 66,21 C70.42,21 74,19.21 74,17 C74,14.79 70.42,13 66,13 L66,13 Z M58,19 L58,22 C58,24.21 61.58,26 66,26 C70.42,26 74,24.21 74,22 L74,19 C74,21.21 70.42,23 66,23 C61.58,23 58,21.21 58,19 L58,19 Z M58,24 L58,27 C58,29.21 61.58,31 66,31 C70.42,31 74,29.21 74,27 L74,24 C74,26.21 70.42,28 66,28 C61.58,28 58,26.21 58,24 L58,24 Z" id="Shape" fill="#000000" sketch:type="MSShapeGroup"></path>
            <path d="M110,13 C105.03,13 101,17.03 101,22 C101,26.97 105.03,31 110,31 C110.83,31 111.5,30.33 111.5,29.5 C111.5,29.11 111.35,28.76 111.11,28.49 C110.88,28.23 110.73,27.88 110.73,27.5 C110.73,26.67 111.4,26 112.23,26 L114,26 C116.76,26 119,23.76 119,21 C119,16.58 114.97,13 110,13 L110,13 Z M104.5,22 C103.67,22 103,21.33 103,20.5 C103,19.67 103.67,19 104.5,19 C105.33,19 106,19.67 106,20.5 C106,21.33 105.33,22 104.5,22 L104.5,22 Z M107.5,18 C106.67,18 106,17.33 106,16.5 C106,15.67 106.67,15 107.5,15 C108.33,15 109,15.67 109,16.5 C109,17.33 108.33,18 107.5,18 L107.5,18 Z M112.5,18 C111.67,18 111,17.33 111,16.5 C111,15.67 111.67,15 112.5,15 C113.33,15 114,15.67 114,16.5 C114,17.33 113.33,18 112.5,18 L112.5,18 Z M115.5,22 C114.67,22 114,21.33 114,20.5 C114,19.67 114.67,19 115.5,19 C116.33,19 117,19.67 117,20.5 C117,21.33 116.33,22 115.5,22 L115.5,22 Z" id="Shape" fill="#000000" sketch:type="MSShapeGroup"></path>
            <path d="M14,12 C12.89,12 12,12.89 12,14 L12,25 C12,26.11 12.89,27 14,27 L25,27 C26.11,27 27,26.11 27,25 L27,14 C27,12.89 26.11,12 25,12 L14,12 Z M15,15 L24,15 L24,17 L15,17 L15,15 Z M15,19 L22,19 L22,21 L15,21 L15,19 Z M30,32 C31.11,32 32,31.11 32,30 L32,28 L30,28 L30,30 L28,30 L28,32 L30,32 Z M28,32 L28,30 L21,30 L21,32 L28,32 L28,32 Z M21,32 L21,30 L19,30 L19,28 L17,28 L17,30 C17,31.11 17.89,32 19,32 L21,32 L21,32 Z M32,28 L32,21 L30,21 L30,28 L32,28 L32,28 Z M32,21 L32,19 C32,17.89 31.11,17 30,17 L28,17 L28,19 L30,19 L30,21 L32,21 L32,21 Z" id="Shape" fill="#000000" sketch:type="MSShapeGroup"></path>
            <path d="M14,56 C12.89,56 12,56.89 12,58 L12,69 C12,70.11 12.89,71 14,71 L25,71 C26.11,71 27,70.11 27,69 L27,58 C27,56.89 26.11,56 25,56 L14,56 Z M15,59 L24,59 L24,61 L15,61 L15,59 Z M15,63 L22,63 L22,65 L15,65 L15,63 Z M30,76 C31.11,76 32,75.11 32,74 L32,72 L30,72 L30,74 L28,74 L28,76 L30,76 Z M28,76 L28,74 L21,74 L21,76 L28,76 L28,76 Z M21,76 L21,74 L19,74 L19,72 L17,72 L17,74 C17,75.11 17.89,76 19,76 L21,76 L21,76 Z M32,72 L32,65 L30,65 L30,72 L32,72 L32,72 Z M32,65 L32,63 C32,61.89 31.11,61 30,61 L28,61 L28,63 L30,63 L30,65 L32,65 L32,65 Z" id="Shape" fill="#FFFFFF" sketch:type="MSShapeGroup"></path>
            <path d="M14,100 C12.89,100 12,100.89 12,102 L12,113 C12,114.11 12.89,115 14,115 L25,115 C26.11,115 27,114.11 27,113 L27,102 C27,100.89 26.11,100 25,100 L14,100 Z M15,103 L24,103 L24,105 L15,105 L15,103 Z M15,107 L22,107 L22,109 L15,109 L15,107 Z M30,120 C31.11,120 32,119.11 32,118 L32,116 L30,116 L30,118 L28,118 L28,120 L30,120 Z M28,120 L28,118 L21,118 L21,120 L28,120 L28,120 Z M21,120 L21,118 L19,118 L19,116 L17,116 L17,118 C17,119.11 17.89,120 19,120 L21,120 L21,120 Z M32,116 L32,109 L30,109 L30,116 L32,116 L32,116 Z M32,109 L32,107 C32,105.89 31.11,105 30,105 L28,105 L28,107 L30,107 L30,109 L32,109 L32,109 Z" id="Shape" fill="#0D5CB5" sketch:type="MSShapeGroup"></path>
            <path d="M66,101 C61.58,101 58,102.79 58,105 C58,107.21 61.58,109 66,109 C70.42,109 74,107.21 74,105 C74,102.79 70.42,101 66,101 L66,101 Z M58,107 L58,110 C58,112.21 61.58,114 66,114 C70.42,114 74,112.21 74,110 L74,107 C74,109.21 70.42,111 66,111 C61.58,111 58,109.21 58,107 L58,107 Z M58,112 L58,115 C58,117.21 61.58,119 66,119 C70.42,119 74,117.21 74,115 L74,112 C74,114.21 70.42,116 66,116 C61.58,116 58,114.21 58,112 L58,112 Z" id="Shape" fill="#0D5CB5" sketch:type="MSShapeGroup"></path>
            <path d="M110,101 C105.03,101 101,105.03 101,110 C101,114.97 105.03,119 110,119 C110.83,119 111.5,118.33 111.5,117.5 C111.5,117.11 111.35,116.76 111.11,116.49 C110.88,116.23 110.73,115.88 110.73,115.5 C110.73,114.67 111.4,114 112.23,114 L114,114 C116.76,114 119,111.76 119,109 C119,104.58 114.97,101 110,101 L110,101 Z M104.5,110 C103.67,110 103,109.33 103,108.5 C103,107.67 103.67,107 104.5,107 C105.33,107 106,107.67 106,108.5 C106,109.33 105.33,110 104.5,110 L104.5,110 Z M107.5,106 C106.67,106 106,105.33 106,104.5 C106,103.67 106.67,103 107.5,103 C108.33,103 109,103.67 109,104.5 C109,105.33 108.33,106 107.5,106 L107.5,106 Z M112.5,106 C111.67,106 111,105.33 111,104.5 C111,103.67 111.67,103 112.5,103 C113.33,103 114,103.67 114,104.5 C114,105.33 113.33,106 112.5,106 L112.5,106 Z M115.5,110 C114.67,110 114,109.33 114,108.5 C114,107.67 114.67,107 115.5,107 C116.33,107 117,107.67 117,108.5 C117,109.33 116.33,110 115.5,110 L115.5,110 Z" id="Shape" fill="#0D5CB5" sketch:type="MSShapeGroup"></path>
            <path d="M66,57 C61.58,57 58,58.79 58,61 C58,63.21 61.58,65 66,65 C70.42,65 74,63.21 74,61 C74,58.79 70.42,57 66,57 L66,57 Z M58,63 L58,66 C58,68.21 61.58,70 66,70 C70.42,70 74,68.21 74,66 L74,63 C74,65.21 70.42,67 66,67 C61.58,67 58,65.21 58,63 L58,63 Z M58,68 L58,71 C58,73.21 61.58,75 66,75 C70.42,75 74,73.21 74,71 L74,68 C74,70.21 70.42,72 66,72 C61.58,72 58,70.21 58,68 L58,68 Z" id="Shape" fill="#FFFFFF" sketch:type="MSShapeGroup"></path>
            <path d="M110,57 C105.03,57 101,61.03 101,66 C101,70.97 105.03,75 110,75 C110.83,75 111.5,74.33 111.5,73.5 C111.5,73.11 111.35,72.76 111.11,72.49 C110.88,72.23 110.73,71.88 110.73,71.5 C110.73,70.67 111.4,70 112.23,70 L114,70 C116.76,70 119,67.76 119,65 C119,60.58 114.97,57 110,57 L110,57 Z M104.5,66 C103.67,66 103,65.33 103,64.5 C103,63.67 103.67,63 104.5,63 C105.33,63 106,63.67 106,64.5 C106,65.33 105.33,66 104.5,66 L104.5,66 Z M107.5,62 C106.67,62 106,61.33 106,60.5 C106,59.67 106.67,59 107.5,59 C108.33,59 109,59.67 109,60.5 C109,61.33 108.33,62 107.5,62 L107.5,62 Z M112.5,62 C111.67,62 111,61.33 111,60.5 C111,59.67 111.67,59 112.5,59 C113.33,59 114,59.67 114,60.5 C114,61.33 113.33,62 112.5,62 L112.5,62 Z M115.5,66 C114.67,66 114,65.33 114,64.5 C114,63.67 114.67,63 115.5,63 C116.33,63 117,63.67 117,64.5 C117,65.33 116.33,66 115.5,66 L115.5,66 Z" id="Shape" fill="#FFFFFF" sketch:type="MSShapeGroup"></path>
        </g>
    </g>
</svg>