<?xml version="1.0" encoding="utf-8"?>
<!-- Generator: Adobe Illustrator 17.0.2, SVG Export Plug-In . SVG Version: 6.00 Build 0)  -->
<!DOCTYPE svg PUBLIC "-//W3C//DTD SVG 1.1//EN" "http://www.w3.org/Graphics/SVG/1.1/DTD/svg11.dtd">
<svg version="1.1" id="Layer_1" xmlns="http://www.w3.org/2000/svg" xmlns:xlink="http://www.w3.org/1999/xlink" x="0px" y="0px"
	 width="18px" height="18px" viewBox="0 0 18 18" enable-background="new 0 0 18 18" xml:space="preserve">
<g>
	<path fill="#005AB8" d="M9,17c-4.411,0-8-3.589-8-8s3.589-8,8-8s8,3.589,8,8S13.411,17,9,17z"/>
	<path fill="#FFFFFF" d="M9,2c3.86,0,7,3.14,7,7s-3.14,7-7,7s-7-3.14-7-7S5.14,2,9,2 M9,0C4.029,0,0,4.029,0,9s4.029,9,9,9
		s9-4.029,9-9S13.971,0,9,0L9,0z"/>
</g>
<polygon fill="#FFFFFF" points="13,8 10,8 10,5 8,5 8,8 5,8 5,10 8,10 8,13 10,13 10,10 13,10 "/>
</svg>
