<?xml version="1.0" encoding="UTF-8" standalone="no"?>
<svg width="15px" height="11px" viewBox="0 0 15 11" version="1.1" xmlns="http://www.w3.org/2000/svg" xmlns:xlink="http://www.w3.org/1999/xlink" xmlns:sketch="http://www.bohemiancoding.com/sketch/ns">
    <title>arrow-reorder</title>
    <description>Created with Sketch (http://www.bohemiancoding.com/sketch)</description>
    <defs></defs>
    <g id="Page-1" stroke="none" stroke-width="1" fill="none" fill-rule="evenodd" sketch:type="MSPage">
        <g id="arrow-reorder" sketch:type="MSArtboardGroup">
            <path d="M2,2 L2,1 L3,1 L3,2 L4,2 L4,3 L3,3 L3,9 L2,9 L2,3 L1,3 L1,2 L2,2 Z" id="Rectangle-1" fill="#929497" sketch:type="MSShapeGroup"></path>
            <path d="M0,2 L0,3 L1,3 L1,2 L0,2 Z M1,1 L1,2 L2,2 L2,1 L1,1 Z M2,0 L2,1 L3,1 L3,0 L2,0 Z M3,1 L3,2 L4,2 L4,1 L3,1 Z M4,2 L4,3 L5,3 L5,2 L4,2 Z M1,3 L1,10 L2,10 L2,3 L1,3 Z M2,9 L2,10 L3,10 L3,9 L2,9 Z M3,3 L3,10 L4,10 L4,3 L3,3 Z" id="Rectangle-3" fill-opacity="0.73" fill="#E0E3E5" sketch:type="MSShapeGroup"></path>
            <path d="M12,3 L12,2 L13,2 L13,3 L14,3 L14,4 L13,4 L13,10 L12,10 L12,4 L11,4 L11,3 L12,3 Z" id="Rectangle-1" fill="#929497" sketch:type="MSShapeGroup" transform="translate(12.500000, 6.000000) rotate(-180.000000) translate(-12.500000, -6.000000) "></path>
            <path d="M10,3 L10,4 L11,4 L11,3 L10,3 Z M11,2 L11,3 L12,3 L12,2 L11,2 Z M12,1 L12,2 L13,2 L13,1 L12,1 Z M13,2 L13,3 L14,3 L14,2 L13,2 Z M14,3 L14,4 L15,4 L15,3 L14,3 Z M11,4 L11,11 L12,11 L12,4 L11,4 Z M12,10 L12,11 L13,11 L13,10 L12,10 Z M13,4 L13,11 L14,11 L14,4 L13,4 Z" id="Rectangle-3" fill-opacity="0.73" fill="#E0E3E5" sketch:type="MSShapeGroup" transform="translate(12.500000, 6.000000) rotate(-180.000000) translate(-12.500000, -6.000000) "></path>
        </g>
    </g>
</svg>