<?xml version="1.0" encoding="UTF-8" standalone="no"?>
<svg width="140px" height="160px" viewBox="0 0 140 160" version="1.1" xmlns="http://www.w3.org/2000/svg" xmlns:xlink="http://www.w3.org/1999/xlink" xmlns:sketch="http://www.bohemiancoding.com/sketch/ns">
    <title>Artboard 1</title>
    <description>Created with Sketch (http://www.bohemiancoding.com/sketch)</description>
    <defs></defs>
    <g id="Page-1" stroke="none" stroke-width="1" fill="none" fill-rule="evenodd" sketch:type="MSPage">
        <g id="Artboard-1" sketch:type="MSArtboardGroup">
            <rect id="Rectangle-19" fill="#888888" sketch:type="MSShapeGroup" x="0" y="21" width="35" height="11" rx="2"></rect>
            <rect id="Rectangle-39" fill="#888888" sketch:type="MSShapeGroup" x="41" y="21" width="37" height="11" rx="2"></rect>
            <path d="M4,28 L4,29 L7,29 L7,28 L4,28 Z M3,24 L3,29 L4,29 L4,24 L3,24 Z M4,24 L4,25 L7,25 L7,24 L4,24 Z M7,25 L7,28 L8,28 L8,25 L7,25 Z M9,24 L9,29 L10,29 L10,24 L9,24 Z M10,24 L10,25 L13,25 L13,24 L10,24 Z M13,25 L13,26 L14,26 L14,25 L13,25 Z M10,26 L10,27 L13,27 L13,26 L10,26 Z M12,27 L12,28 L13,28 L13,27 L12,27 Z M13,28 L13,29 L14,29 L14,28 L13,28 Z M15,25 L15,29 L16,29 L16,25 L15,25 Z M16,24 L16,25 L19,25 L19,24 L16,24 Z M19,25 L19,29 L20,29 L20,25 L19,25 Z M16,26 L16,27 L19,27 L19,26 L16,26 Z M21,24 L21,29 L22,29 L22,24 L21,24 Z M22,24 L22,25 L26,25 L26,24 L22,24 Z M22,26 L22,27 L25,27 L25,26 L22,26 Z M27,24 L27,25 L32,25 L32,24 L27,24 Z M29,25 L29,29 L30,29 L30,25 L29,25 Z" id="Rectangle-23" fill="#BBBBBB" sketch:type="MSShapeGroup"></path>
            <path d="M44,24 L44,29 L45,29 L45,24 L44,24 Z M45,24 L45,25 L49,25 L49,24 L45,24 Z M50,24 L50,25 L53,25 L53,24 L50,24 Z M51,25 L51,28 L52,28 L52,25 L51,25 Z M50,28 L50,29 L53,29 L53,28 L50,28 Z M54,24 L54,29 L55,29 L55,24 L54,24 Z M55,28 L55,29 L58,29 L58,28 L55,28 Z M58,24 L58,25 L63,25 L63,24 L58,24 Z M60,25 L60,29 L61,29 L61,25 L60,25 Z M64,24 L64,29 L65,29 L65,24 L64,24 Z M65,24 L65,25 L69,25 L69,24 L65,24 Z M65,26 L65,27 L68,27 L68,26 L65,26 Z M65,28 L65,29 L69,29 L69,28 L65,28 Z M70,24 L70,29 L71,29 L71,24 L70,24 Z M71,24 L71,25 L74,25 L74,24 L71,24 Z M71,26 L71,27 L74,27 L74,26 L71,26 Z M74,25 L74,26 L75,26 L75,25 L74,25 Z M73,27 L73,28 L74,28 L74,27 L73,27 Z M74,28 L74,29 L75,29 L75,28 L74,28 Z M45,26 L45,27 L48,27 L48,26 L45,26 Z" id="Rectangle-40" fill="#BBBBBB" sketch:type="MSShapeGroup"></path>
            <rect id="Rectangle-1" fill="#888888" sketch:type="MSShapeGroup" x="3" y="5" width="12" height="2"></rect>
            <rect id="Rectangle-2" fill="#888888" sketch:type="MSShapeGroup" x="22" y="5" width="12" height="2"></rect>
            <rect id="Rectangle-3" fill="#888888" sketch:type="MSShapeGroup" x="22" y="8" width="12" height="2"></rect>
            <rect id="Rectangle-4" fill="#888888" sketch:type="MSShapeGroup" x="41" y="5" width="12" height="2"></rect>
            <rect id="Rectangle-7" fill="#888888" sketch:type="MSShapeGroup" x="61" y="5" width="6" height="2"></rect>
            <rect id="Rectangle-8" fill="#888888" sketch:type="MSShapeGroup" x="68" y="5" width="10" height="2"></rect>
            <rect id="Rectangle-9" fill="#888888" sketch:type="MSShapeGroup" x="68" y="8" width="10" height="2"></rect>
            <rect id="Rectangle-10" fill="#888888" sketch:type="MSShapeGroup" x="68" y="11" width="10" height="2"></rect>
            <rect id="Rectangle-5" fill="#888888" sketch:type="MSShapeGroup" x="41" y="8" width="12" height="2"></rect>
            <rect id="Rectangle-6" fill="#888888" sketch:type="MSShapeGroup" x="41" y="11" width="12" height="2"></rect>
            <path d="M118.039312,4 L118.039312,4.98877096 L119.03418,4.98877096 C119.054459,4.98877096 119.055778,3.96999227 119.055778,3.96999227 L121.023508,3.96999227 L121.023508,14.0012511 L111.047141,13.9889027 L111.018466,3.98135653 L113,3.98135653 L113,3.98135653 L113,3 L114,3 L114,4 L113.004909,4 L113.004909,5.06340217 L114.018821,5.06340217 C114.022473,5.06340217 114.029777,3.98473872 114.029777,3.98473872 L118,3.98473872 L118,3 L119,3 L119,4 L118.039312,4 Z M112,8 L112,10 L114,10 L114,8 L112,8 Z M115,8 L115,10 L117,10 L117,8 L115,8 Z M118,8 L118,10 L120,10 L120,8 L118,8 Z M112,11 L112,13 L114,13 L114,11 L112,11 Z M115,11 L115,13 L117,13 L117,11 L115,11 Z M118,11 L118,13 L120,13 L120,11 L118,11 Z" id="Path-1" fill="#757575" sketch:type="MSShapeGroup"></path>
            <path d="M110.980287,25.9651351 L116.034306,24.0240483 L121.021286,25.9651351" id="Path-2" stroke="#757474" sketch:type="MSShapeGroup"></path>
            <path d="M110.980287,28.9651351 L116.034306,27.0240483 L121.021286,28.9651351" id="Path-2" stroke="#757474" sketch:type="MSShapeGroup"></path>
            <path d="M129.980287,28.9651351 L135.034306,27.0240483 L140.021286,28.9651351" id="Path-2" stroke="#757474" sketch:type="MSShapeGroup"></path>
            <rect id="Rectangle-60" fill-opacity="0.33" fill="#888888" sketch:type="MSShapeGroup" x="18" y="2" width="1" height="14"></rect>
            <rect id="Rectangle-60" fill-opacity="0.33" fill="#888888" sketch:type="MSShapeGroup" x="37" y="2" width="1" height="14"></rect>
            <rect id="Rectangle-60" fill-opacity="0.33" fill="#888888" sketch:type="MSShapeGroup" x="57" y="2" width="1" height="14"></rect>
            <rect id="Rectangle-60" fill-opacity="0.33" fill="#888888" sketch:type="MSShapeGroup" x="99" y="0" width="1" height="34"></rect>
            <rect id="Rectangle-19" fill="#555555" sketch:type="MSShapeGroup" x="0" y="63" width="35" height="11" rx="2"></rect>
            <rect id="Rectangle-39" fill="#555555" sketch:type="MSShapeGroup" x="41" y="63" width="37" height="11" rx="2"></rect>
            <path d="M4,70 L4,71 L7,71 L7,70 L4,70 Z M3,66 L3,71 L4,71 L4,66 L3,66 Z M4,66 L4,67 L7,67 L7,66 L4,66 Z M7,67 L7,70 L8,70 L8,67 L7,67 Z M9,66 L9,71 L10,71 L10,66 L9,66 Z M10,66 L10,67 L13,67 L13,66 L10,66 Z M13,67 L13,68 L14,68 L14,67 L13,67 Z M10,68 L10,69 L13,69 L13,68 L10,68 Z M12,69 L12,70 L13,70 L13,69 L12,69 Z M13,70 L13,71 L14,71 L14,70 L13,70 Z M15,67 L15,71 L16,71 L16,67 L15,67 Z M16,66 L16,67 L19,67 L19,66 L16,66 Z M19,67 L19,71 L20,71 L20,67 L19,67 Z M16,68 L16,69 L19,69 L19,68 L16,68 Z M21,66 L21,71 L22,71 L22,66 L21,66 Z M22,66 L22,67 L26,67 L26,66 L22,66 Z M22,68 L22,69 L25,69 L25,68 L22,68 Z M27,66 L27,67 L32,67 L32,66 L27,66 Z M29,67 L29,71 L30,71 L30,67 L29,67 Z" id="Rectangle-23" fill="#BBBBBB" sketch:type="MSShapeGroup"></path>
            <path d="M44,66 L44,71 L45,71 L45,66 L44,66 Z M45,66 L45,67 L49,67 L49,66 L45,66 Z M50,66 L50,67 L53,67 L53,66 L50,66 Z M51,67 L51,70 L52,70 L52,67 L51,67 Z M50,70 L50,71 L53,71 L53,70 L50,70 Z M54,66 L54,71 L55,71 L55,66 L54,66 Z M55,70 L55,71 L58,71 L58,70 L55,70 Z M58,66 L58,67 L63,67 L63,66 L58,66 Z M60,67 L60,71 L61,71 L61,67 L60,67 Z M64,66 L64,71 L65,71 L65,66 L64,66 Z M65,66 L65,67 L69,67 L69,66 L65,66 Z M65,68 L65,69 L68,69 L68,68 L65,68 Z M65,70 L65,71 L69,71 L69,70 L65,70 Z M70,66 L70,71 L71,71 L71,66 L70,66 Z M71,66 L71,67 L74,67 L74,66 L71,66 Z M71,68 L71,69 L74,69 L74,68 L71,68 Z M74,67 L74,68 L75,68 L75,67 L74,67 Z M73,69 L73,70 L74,70 L74,69 L73,69 Z M74,70 L74,71 L75,71 L75,70 L74,70 Z M45,68 L45,69 L48,69 L48,68 L45,68 Z" id="Rectangle-40" fill="#BBBBBB" sketch:type="MSShapeGroup"></path>
            <rect id="Rectangle-1" fill="#555555" sketch:type="MSShapeGroup" x="3" y="47" width="12" height="2"></rect>
            <rect id="Rectangle-2" fill="#555555" sketch:type="MSShapeGroup" x="22" y="47" width="12" height="2"></rect>
            <rect id="Rectangle-3" fill="#555555" sketch:type="MSShapeGroup" x="22" y="50" width="12" height="2"></rect>
            <rect id="Rectangle-4" fill="#555555" sketch:type="MSShapeGroup" x="41" y="47" width="12" height="2"></rect>
            <rect id="Rectangle-7" fill="#555555" sketch:type="MSShapeGroup" x="61" y="47" width="6" height="2"></rect>
            <rect id="Rectangle-8" fill="#555555" sketch:type="MSShapeGroup" x="68" y="47" width="10" height="2"></rect>
            <rect id="Rectangle-9" fill="#555555" sketch:type="MSShapeGroup" x="68" y="50" width="10" height="2"></rect>
            <rect id="Rectangle-10" fill="#555555" sketch:type="MSShapeGroup" x="68" y="53" width="10" height="2"></rect>
            <rect id="Rectangle-5" fill="#555555" sketch:type="MSShapeGroup" x="41" y="50" width="12" height="2"></rect>
            <rect id="Rectangle-6" fill="#555555" sketch:type="MSShapeGroup" x="41" y="53" width="12" height="2"></rect>
            <path d="M118.039312,46 L118.039312,46.988771 L119.03418,46.988771 C119.054459,46.988771 119.055778,45.9699923 119.055778,45.9699923 L121.023508,45.9699923 L121.023508,56.0012511 L111.047141,55.9889027 L111.018466,45.9813565 L113,45.9813565 L113,45.9813565 L113,45 L114,45 L114,46 L113.004909,46 L113.004909,47.0634022 L114.018821,47.0634022 C114.022473,47.0634022 114.029777,45.9847387 114.029777,45.9847387 L118,45.9847387 L118,45 L119,45 L119,46 L118.039312,46 Z M112,50 L112,52 L114,52 L114,50 L112,50 Z M115,50 L115,52 L117,52 L117,50 L115,50 Z M118,50 L118,52 L120,52 L120,50 L118,50 Z M112,53 L112,55 L114,55 L114,53 L112,53 Z M115,53 L115,55 L117,55 L117,53 L115,53 Z M118,53 L118,55 L120,55 L120,53 L118,53 Z" id="Path-1" fill="#555555" sketch:type="MSShapeGroup"></path>
            <path d="M110.980287,67.9651351 L116.034306,66.0240483 L121.021286,67.9651351" id="Path-2" stroke="#555555" sketch:type="MSShapeGroup"></path>
            <path d="M110.980287,70.9651351 L116.034306,69.0240483 L121.021286,70.9651351" id="Path-2" stroke="#555555" sketch:type="MSShapeGroup"></path>
            <path d="M129.980287,70.9651351 L135.034306,69.0240483 L140.021286,70.9651351" id="Path-2" stroke="#555555" sketch:type="MSShapeGroup"></path>
            <rect id="Rectangle-60" fill-opacity="0.33" fill="#888888" sketch:type="MSShapeGroup" x="18" y="44" width="1" height="14"></rect>
            <rect id="Rectangle-60" fill-opacity="0.33" fill="#888888" sketch:type="MSShapeGroup" x="37" y="44" width="1" height="14"></rect>
            <rect id="Rectangle-60" fill-opacity="0.33" fill="#888888" sketch:type="MSShapeGroup" x="57" y="44" width="1" height="14"></rect>
            <rect id="Rectangle-60" fill-opacity="0.33" fill="#888888" sketch:type="MSShapeGroup" x="99" y="42" width="1" height="34"></rect>
            <rect id="Rectangle-19" fill="#FC0D1B" sketch:type="MSShapeGroup" x="0" y="105" width="35" height="11" rx="2"></rect>
            <rect id="Rectangle-39" fill="#FC0D1B" sketch:type="MSShapeGroup" x="41" y="105" width="49" height="11" rx="2"></rect>
            <path d="M4,112 L4,113 L7,113 L7,112 L4,112 Z M3,108 L3,113 L4,113 L4,108 L3,108 Z M4,108 L4,109 L7,109 L7,108 L4,108 Z M7,109 L7,112 L8,112 L8,109 L7,109 Z M9,108 L9,113 L10,113 L10,108 L9,108 Z M10,108 L10,109 L13,109 L13,108 L10,108 Z M13,109 L13,110 L14,110 L14,109 L13,109 Z M10,110 L10,111 L13,111 L13,110 L10,110 Z M12,111 L12,112 L13,112 L13,111 L12,111 Z M13,112 L13,113 L14,113 L14,112 L13,112 Z M15,109 L15,113 L16,113 L16,109 L15,109 Z M16,108 L16,109 L19,109 L19,108 L16,108 Z M19,109 L19,113 L20,113 L20,109 L19,109 Z M16,110 L16,111 L19,111 L19,110 L16,110 Z M21,108 L21,113 L22,113 L22,108 L21,108 Z M22,108 L22,109 L26,109 L26,108 L22,108 Z M22,110 L22,111 L25,111 L25,110 L22,110 Z M27,108 L27,109 L32,109 L32,108 L27,108 Z M29,109 L29,113 L30,113 L30,109 L29,109 Z" id="Rectangle-23" fill="#FFFFFF" sketch:type="MSShapeGroup"></path>
            <path d="M44,108 L44,113 L45,113 L45,108 L44,108 Z M45,108 L45,109 L49,109 L49,108 L45,108 Z M50,108 L50,109 L53,109 L53,108 L50,108 Z M51,109 L51,112 L52,112 L52,109 L51,109 Z M50,112 L50,113 L53,113 L53,112 L50,112 Z M54,108 L54,113 L55,113 L55,108 L54,108 Z M55,112 L55,113 L58,113 L58,112 L55,112 Z M58,108 L58,109 L63,109 L63,108 L58,108 Z M60,109 L60,113 L61,113 L61,109 L60,109 Z M64,108 L64,113 L65,113 L65,108 L64,108 Z M65,108 L65,109 L69,109 L69,108 L65,108 Z M65,110 L65,111 L68,111 L68,110 L65,110 Z M65,112 L65,113 L69,113 L69,112 L65,112 Z M70,108 L70,113 L71,113 L71,108 L70,108 Z M71,108 L71,109 L74,109 L74,108 L71,108 Z M71,110 L71,111 L74,111 L74,110 L71,110 Z M74,109 L74,110 L75,110 L75,109 L74,109 Z M73,111 L73,112 L74,112 L74,111 L73,111 Z M74,112 L74,113 L75,113 L75,112 L74,112 Z M45,110 L45,111 L48,111 L48,110 L45,110 Z M76,108 L76,113 L77,113 L77,108 L76,108 Z M77,108 L77,109 L81,109 L81,108 L77,108 Z M77,110 L77,111 L80,111 L80,110 L77,110 Z M77,112 L77,113 L81,113 L81,112 L77,112 Z M82,108 L82,113 L83,113 L83,108 L82,108 Z M83,108 L83,109 L86,109 L86,108 L83,108 Z M86,109 L86,112 L87,112 L87,109 L86,109 Z M83,112 L83,113 L86,113 L86,112 L83,112 Z" id="Rectangle-40" fill="#FFFFFF" sketch:type="MSShapeGroup"></path>
            <rect id="Rectangle-1" fill="#0E63C1" sketch:type="MSShapeGroup" x="3" y="89" width="12" height="2"></rect>
            <rect id="Rectangle-2" fill="#0E63C1" sketch:type="MSShapeGroup" x="22" y="89" width="12" height="2"></rect>
            <rect id="Rectangle-3" fill="#0E63C1" sketch:type="MSShapeGroup" x="22" y="92" width="12" height="2"></rect>
            <rect id="Rectangle-4" fill="#0E63C1" sketch:type="MSShapeGroup" x="41" y="89" width="12" height="2"></rect>
            <rect id="Rectangle-7" fill="#0E63C1" sketch:type="MSShapeGroup" x="61" y="89" width="6" height="2"></rect>
            <rect id="Rectangle-8" fill="#0E63C1" sketch:type="MSShapeGroup" x="68" y="89" width="10" height="2"></rect>
            <rect id="Rectangle-9" fill="#0E63C1" sketch:type="MSShapeGroup" x="68" y="92" width="10" height="2"></rect>
            <rect id="Rectangle-10" fill="#0E63C1" sketch:type="MSShapeGroup" x="68" y="95" width="10" height="2"></rect>
            <rect id="Rectangle-5" fill="#0E63C1" sketch:type="MSShapeGroup" x="41" y="92" width="12" height="2"></rect>
            <rect id="Rectangle-6" fill="#0E63C1" sketch:type="MSShapeGroup" x="41" y="95" width="12" height="2"></rect>
            <path d="M118.039312,88 L118.039312,88.988771 L119.03418,88.988771 C119.054459,88.988771 119.055778,87.9699923 119.055778,87.9699923 L121.023508,87.9699923 L121.023508,98.0012511 L111.047141,97.9889027 L111.018466,87.9813565 L113,87.9813565 L113,87.9813565 L113,87 L114,87 L114,88 L113.004909,88 L113.004909,89.0634022 L114.018821,89.0634022 C114.022473,89.0634022 114.029777,87.9847387 114.029777,87.9847387 L118,87.9847387 L118,87 L119,87 L119,88 L118.039312,88 Z M112,92 L112,94 L114,94 L114,92 L112,92 Z M115,92 L115,94 L117,94 L117,92 L115,92 Z M118,92 L118,94 L120,94 L120,92 L118,92 Z M112,95 L112,97 L114,97 L114,95 L112,95 Z M115,95 L115,97 L117,97 L117,95 L115,95 Z M118,95 L118,97 L120,97 L120,95 L118,95 Z" id="Path-1" fill="#0E63C1" sketch:type="MSShapeGroup"></path>
            <path d="M110.980287,109.965135 L116.034306,108.024048 L121.021286,109.965135" id="Path-2" stroke="#0E63C1" sketch:type="MSShapeGroup"></path>
            <path d="M110.980287,112.965135 L116.034306,111.024048 L121.021286,112.965135" id="Path-2" stroke="#0E63C1" sketch:type="MSShapeGroup"></path>
            <path d="M129.980287,112.965135 L135.034306,111.024048 L140.021286,112.965135" id="Path-2" stroke="#0E63C1" sketch:type="MSShapeGroup"></path>
            <rect id="Rectangle-60" fill-opacity="0.33" fill="#888888" sketch:type="MSShapeGroup" x="18" y="86" width="1" height="14"></rect>
            <rect id="Rectangle-60" fill-opacity="0.33" fill="#888888" sketch:type="MSShapeGroup" x="37" y="86" width="1" height="14"></rect>
            <rect id="Rectangle-60" fill-opacity="0.33" fill="#888888" sketch:type="MSShapeGroup" x="57" y="86" width="1" height="14"></rect>
            <rect id="Rectangle-60" fill-opacity="0.33" fill="#888888" sketch:type="MSShapeGroup" x="99" y="84" width="1" height="34"></rect>
            <rect id="Rectangle-19" fill="#FC0D1B" sketch:type="MSShapeGroup" x="0" y="147" width="35" height="11" rx="2"></rect>
            <rect id="Rectangle-39" fill="#FC0D1B" sketch:type="MSShapeGroup" x="41" y="147" width="49" height="11" rx="2"></rect>
            <path d="M4,154 L4,155 L7,155 L7,154 L4,154 Z M3,150 L3,155 L4,155 L4,150 L3,150 Z M4,150 L4,151 L7,151 L7,150 L4,150 Z M7,151 L7,154 L8,154 L8,151 L7,151 Z M9,150 L9,155 L10,155 L10,150 L9,150 Z M10,150 L10,151 L13,151 L13,150 L10,150 Z M13,151 L13,152 L14,152 L14,151 L13,151 Z M10,152 L10,153 L13,153 L13,152 L10,152 Z M12,153 L12,154 L13,154 L13,153 L12,153 Z M13,154 L13,155 L14,155 L14,154 L13,154 Z M15,151 L15,155 L16,155 L16,151 L15,151 Z M16,150 L16,151 L19,151 L19,150 L16,150 Z M19,151 L19,155 L20,155 L20,151 L19,151 Z M16,152 L16,153 L19,153 L19,152 L16,152 Z M21,150 L21,155 L22,155 L22,150 L21,150 Z M22,150 L22,151 L26,151 L26,150 L22,150 Z M22,152 L22,153 L25,153 L25,152 L22,152 Z M27,150 L27,151 L32,151 L32,150 L27,150 Z M29,151 L29,155 L30,155 L30,151 L29,151 Z" id="Rectangle-23" fill="#FFFFFF" sketch:type="MSShapeGroup"></path>
            <path d="M44,150 L44,155 L45,155 L45,150 L44,150 Z M45,150 L45,151 L49,151 L49,150 L45,150 Z M50,150 L50,151 L53,151 L53,150 L50,150 Z M51,151 L51,154 L52,154 L52,151 L51,151 Z M50,154 L50,155 L53,155 L53,154 L50,154 Z M54,150 L54,155 L55,155 L55,150 L54,150 Z M55,154 L55,155 L58,155 L58,154 L55,154 Z M58,150 L58,151 L63,151 L63,150 L58,150 Z M60,151 L60,155 L61,155 L61,151 L60,151 Z M64,150 L64,155 L65,155 L65,150 L64,150 Z M65,150 L65,151 L69,151 L69,150 L65,150 Z M65,152 L65,153 L68,153 L68,152 L65,152 Z M65,154 L65,155 L69,155 L69,154 L65,154 Z M70,150 L70,155 L71,155 L71,150 L70,150 Z M71,150 L71,151 L74,151 L74,150 L71,150 Z M71,152 L71,153 L74,153 L74,152 L71,152 Z M74,151 L74,152 L75,152 L75,151 L74,151 Z M73,153 L73,154 L74,154 L74,153 L73,153 Z M74,154 L74,155 L75,155 L75,154 L74,154 Z M45,152 L45,153 L48,153 L48,152 L45,152 Z M76,150 L76,155 L77,155 L77,150 L76,150 Z M77,150 L77,151 L81,151 L81,150 L77,150 Z M77,152 L77,153 L80,153 L80,152 L77,152 Z M77,154 L77,155 L81,155 L81,154 L77,154 Z M82,150 L82,155 L83,155 L83,150 L82,150 Z M83,150 L83,151 L86,151 L86,150 L83,150 Z M86,151 L86,154 L87,154 L87,151 L86,151 Z M83,154 L83,155 L86,155 L86,154 L83,154 Z" id="Rectangle-40" fill="#FFFFFF" sketch:type="MSShapeGroup"></path>
            <rect id="Rectangle-1" fill="#0E63C1" sketch:type="MSShapeGroup" x="3" y="131" width="12" height="2"></rect>
            <rect id="Rectangle-2" fill="#0E63C1" sketch:type="MSShapeGroup" x="22" y="131" width="12" height="2"></rect>
            <rect id="Rectangle-3" fill="#0E63C1" sketch:type="MSShapeGroup" x="22" y="134" width="12" height="2"></rect>
            <rect id="Rectangle-4" fill="#0E63C1" sketch:type="MSShapeGroup" x="41" y="131" width="12" height="2"></rect>
            <rect id="Rectangle-7" fill="#0E63C1" sketch:type="MSShapeGroup" x="61" y="131" width="6" height="2"></rect>
            <rect id="Rectangle-8" fill="#0E63C1" sketch:type="MSShapeGroup" x="68" y="131" width="10" height="2"></rect>
            <rect id="Rectangle-9" fill="#0E63C1" sketch:type="MSShapeGroup" x="68" y="134" width="10" height="2"></rect>
            <rect id="Rectangle-10" fill="#0E63C1" sketch:type="MSShapeGroup" x="68" y="137" width="10" height="2"></rect>
            <rect id="Rectangle-5" fill="#0E63C1" sketch:type="MSShapeGroup" x="41" y="134" width="12" height="2"></rect>
            <rect id="Rectangle-6" fill="#0E63C1" sketch:type="MSShapeGroup" x="41" y="137" width="12" height="2"></rect>
            <path d="M118.039312,130 L118.039312,130.988771 L119.03418,130.988771 C119.054459,130.988771 119.055778,129.969992 119.055778,129.969992 L121.023508,129.969992 L121.023508,140.001251 L111.047141,139.988903 L111.018466,129.981357 L113,129.981357 L113,129.981357 L113,129 L114,129 L114,130 L113.004909,130 L113.004909,131.063402 L114.018821,131.063402 C114.022473,131.063402 114.029777,129.984739 114.029777,129.984739 L118,129.984739 L118,129 L119,129 L119,130 L118.039312,130 Z M112,134 L112,136 L114,136 L114,134 L112,134 Z M115,134 L115,136 L117,136 L117,134 L115,134 Z M118,134 L118,136 L120,136 L120,134 L118,134 Z M112,137 L112,139 L114,139 L114,137 L112,137 Z M115,137 L115,139 L117,139 L117,137 L115,137 Z M118,137 L118,139 L120,139 L120,137 L118,137 Z" id="Path-1" fill="#0E63C1" sketch:type="MSShapeGroup"></path>
            <path d="M110.980287,151.965135 L116.034306,150.024048 L121.021286,151.965135" id="Path-2" stroke="#0E63C1" sketch:type="MSShapeGroup"></path>
            <path d="M110.980287,154.965135 L116.034306,153.024048 L121.021286,154.965135" id="Path-2" stroke="#0E63C1" sketch:type="MSShapeGroup"></path>
            <path d="M129.980287,154.965135 L135.034306,153.024048 L140.021286,154.965135" id="Path-2" stroke="#0E63C1" sketch:type="MSShapeGroup"></path>
            <rect id="Rectangle-60" fill-opacity="0.33" fill="#888888" sketch:type="MSShapeGroup" x="18" y="128" width="1" height="14"></rect>
            <rect id="Rectangle-60" fill-opacity="0.33" fill="#888888" sketch:type="MSShapeGroup" x="37" y="128" width="1" height="14"></rect>
            <rect id="Rectangle-60" fill-opacity="0.33" fill="#888888" sketch:type="MSShapeGroup" x="57" y="128" width="1" height="14"></rect>
            <rect id="Rectangle-60" fill-opacity="0.33" fill="#888888" sketch:type="MSShapeGroup" x="99" y="126" width="1" height="34"></rect>
        </g>
    </g>
</svg>