<?xml version="1.0" encoding="UTF-8" standalone="no"?>
<svg width="100px" height="100px" viewBox="0 0 100 100" version="1.1" xmlns="http://www.w3.org/2000/svg" xmlns:xlink="http://www.w3.org/1999/xlink" xmlns:sketch="http://www.bohemiancoding.com/sketch/ns">
    <!-- Generator: Sketch 3.0.1 (7597) - http://www.bohemiancoding.com/sketch -->
    <title>Artboard 1</title>
    <description>Created with Sketch.</description>
    <defs></defs>
    <g id="Page-1" stroke="none" stroke-width="1" fill="none" fill-rule="evenodd" sketch:type="MSPage">
        <g id="Artboard-1" sketch:type="MSArtboardGroup" fill="#000000" fill-opacity="0.049999997">
            <rect id="Rectangle-1" sketch:type="MSShapeGroup" transform="translate(-55.000000, 42.000000) rotate(-315.000000) translate(55.000000, -42.000000) " x="-60" y="-73" width="10" height="230"></rect>
            <rect id="Rectangle-2" sketch:type="MSShapeGroup" transform="translate(-35.000000, 42.000000) rotate(-315.000000) translate(35.000000, -42.000000) " x="-40" y="-73" width="10" height="230"></rect>
            <rect id="Rectangle-3" sketch:type="MSShapeGroup" transform="translate(-15.000000, 42.000000) rotate(-315.000000) translate(15.000000, -42.000000) " x="-20" y="-73" width="10" height="230"></rect>
            <rect id="Rectangle-4" sketch:type="MSShapeGroup" transform="translate(5.000000, 42.000000) rotate(-315.000000) translate(-5.000000, -42.000000) " x="0" y="-73" width="10" height="230"></rect>
            <rect id="Rectangle-5" sketch:type="MSShapeGroup" transform="translate(25.000000, 42.000000) rotate(-315.000000) translate(-25.000000, -42.000000) " x="20" y="-73" width="10" height="230"></rect>
            <rect id="Rectangle-6" sketch:type="MSShapeGroup" transform="translate(45.000000, 42.000000) rotate(-315.000000) translate(-45.000000, -42.000000) " x="40" y="-73" width="10" height="230"></rect>
            <rect id="Rectangle-12" sketch:type="MSShapeGroup" transform="translate(65.000000, 42.000000) rotate(-315.000000) translate(-65.000000, -42.000000) " x="60" y="-73" width="10" height="230"></rect>
            <rect id="Rectangle-7" sketch:type="MSShapeGroup" transform="translate(85.000000, 42.000000) rotate(-315.000000) translate(-85.000000, -42.000000) " x="80" y="-73" width="10" height="230"></rect>
            <rect id="Rectangle-8" sketch:type="MSShapeGroup" transform="translate(105.000000, 42.000000) rotate(-315.000000) translate(-105.000000, -42.000000) " x="100" y="-73" width="10" height="230"></rect>
            <rect id="Rectangle-9" sketch:type="MSShapeGroup" transform="translate(125.000000, 42.000000) rotate(-315.000000) translate(-125.000000, -42.000000) " x="120" y="-73" width="10" height="230"></rect>
            <rect id="Rectangle-10" sketch:type="MSShapeGroup" transform="translate(145.000000, 42.000000) rotate(-315.000000) translate(-145.000000, -42.000000) " x="140" y="-73" width="10" height="230"></rect>
            <rect id="Rectangle-11" sketch:type="MSShapeGroup" transform="translate(165.000000, 42.000000) rotate(-315.000000) translate(-165.000000, -42.000000) " x="160" y="-73" width="10" height="230"></rect>
        </g>
    </g>
</svg>