<?xml version="1.0" encoding="UTF-8" standalone="no"?>
<svg width="12px" height="12px" viewBox="0 0 12 12" version="1.1" xmlns="http://www.w3.org/2000/svg" xmlns:xlink="http://www.w3.org/1999/xlink" xmlns:sketch="http://www.bohemiancoding.com/sketch/ns">
    <!-- Generator: Sketch 3.3 (11970) - http://www.bohemiancoding.com/sketch -->
    <title>Shape</title>
    <desc>Created with Sketch.</desc>
    <defs></defs>
    <g id="Page-1" stroke="none" stroke-width="1" fill="none" fill-rule="evenodd" sketch:type="MSPage">
        <g id="Finder" sketch:type="MSArtboardGroup" transform="translate(-25.000000, -293.000000)" fill-opacity="0.3" fill="#000000">
            <path d="M26,295.997152 L26,295.997152 L26,302.002848 C26,303.105994 26.894057,304 27.997152,304 L34.002848,304 C35.1059941,304 36,303.105943 36,302.002848 L36,295.997152 C36,294.894006 35.105943,294 34.002848,294 L27.997152,294 C26.8940059,294 26,294.894057 26,295.997152 L26,295.997152 Z M27.997152,293 L34.002848,293 C35.6581293,293 37,294.341623 37,295.997152 L37,302.002848 C37,303.658129 35.6583772,305 34.002848,305 L27.997152,305 C26.3418707,305 25,303.658377 25,302.002848 L25,295.997152 C25,294.341871 26.3416228,293 27.997152,293 Z" id="Shape" sketch:type="MSShapeGroup"></path>
        </g>
    </g>
</svg>