<?xml version="1.0" encoding="UTF-8" standalone="no"?>
<svg width="100px" height="100px" viewBox="0 0 100 100" version="1.1" xmlns="http://www.w3.org/2000/svg" xmlns:xlink="http://www.w3.org/1999/xlink">
    <!-- Generator: Sketch 40.2 (33826) - http://www.bohemiancoding.com/sketch -->
    <title>conflict-med</title>
    <desc>Created with Sketch.</desc>
    <defs>
        <path d="M50,100.003399 C77.6142375,100.003399 100,77.6168752 100,50.0016993 C100,22.3865233 77.6142375,0 50,0 C22.3857625,0 0,22.3865233 0,50.0016993 C0,77.6168752 22.3857625,100.003399 50,100.003399 Z" id="path-1"></path>
        <mask id="mask-2" maskContentUnits="userSpaceOnUse" maskUnits="objectBoundingBox" x="0" y="0" width="100" height="100.003399" fill="white">
            <use xlink:href="#path-1"></use>
        </mask>
    </defs>
    <g id="Symbols" stroke="none" stroke-width="1" fill="none" fill-rule="evenodd">
        <g id="conflict-med">
            <use id="Oval-3-Copy" stroke="#BFA630" mask="url(#mask-2)" stroke-width="13.5" fill="#FFDD40" xlink:href="#path-1"></use>
            <path d="M57.8520408,57 L43,57 L43,17 L57.8520408,17 L57.8520408,57 Z M50,83.9460379 C53.8659932,83.9460379 57,80.8120312 57,76.9460379 C57,73.0800447 53.8659932,69.9460379 50,69.9460379 C46.1340068,69.9460379 43,73.0800447 43,76.9460379 C43,80.8120312 46.1340068,83.9460379 50,83.9460379 Z" id="Combined-Shape" fill="#403710"></path>
        </g>
    </g>
</svg>