<?xml version="1.0" encoding="UTF-8" standalone="no"?>
<svg width="100px" height="100px" viewBox="0 0 100 100" version="1.1" xmlns="http://www.w3.org/2000/svg" xmlns:xlink="http://www.w3.org/1999/xlink">
    <!-- Generator: Sketch 40 (33762) - http://www.bohemiancoding.com/sketch -->
    <title>conflict</title>
    <desc>Created with Sketch.</desc>
    <defs>
        <path d="M50,100.003399 C77.6142375,100.003399 100,77.6168752 100,50.0016993 C100,22.3865233 77.6142375,0 50,0 C22.3857625,0 0,22.3865233 0,50.0016993 C0,77.6168752 22.3857625,100.003399 50,100.003399 Z" id="path-1"></path>
        <mask id="mask-2" maskContentUnits="userSpaceOnUse" maskUnits="objectBoundingBox" x="0" y="0" width="100" height="100.003399" fill="white">
            <use xlink:href="#path-1"></use>
        </mask>
    </defs>
    <g id="Symbols" stroke="none" stroke-width="1" fill="none" fill-rule="evenodd">
        <g id="conflict">
            <use id="Oval-3-Copy" stroke="#FFEB8C" mask="url(#mask-2)" stroke-width="13.5" fill="#FFDD40" xlink:href="#path-1"></use>
            <path d="M57.6760204,56.7613636 L42.8239796,56.7613636 L42.8239796,16.7613636 L57.6760204,16.7613636 L57.6760204,56.7613636 Z M49.8239796,83.7074016 C53.6899728,83.7074016 56.8239796,80.5733948 56.8239796,76.7074016 C56.8239796,72.8414083 53.6899728,69.7074016 49.8239796,69.7074016 C45.9579863,69.7074016 42.8239796,72.8414083 42.8239796,76.7074016 C42.8239796,80.5733948 45.9579863,83.7074016 49.8239796,83.7074016 Z" id="Combined-Shape" fill="#403710"></path>
        </g>
        <g id="slices" transform="translate(-257.000000, 0.000000)"></g>
    </g>
</svg>