<?xml version="1.0" encoding="UTF-8" standalone="no"?>
<svg width="16px" height="18px" viewBox="0 0 16 18" version="1.1" xmlns="http://www.w3.org/2000/svg" xmlns:xlink="http://www.w3.org/1999/xlink" xmlns:sketch="http://www.bohemiancoding.com/sketch/ns">
    <title>contract-success</title>
    <description>Created with Sketch (http://www.bohemiancoding.com/sketch)</description>
    <defs></defs>
    <g id="Page-1" stroke="none" stroke-width="1" fill="none" fill-rule="evenodd" sketch:type="MSPage">
        <path d="M4.02757316,1.04320107 L4.02757316,14.9269892 L15.0227523,14.9269892 L15.0227523,5.06141721 L11.0154305,1.04320107 L4.02757316,1.04320107 Z M5,2 L5,14 L10,14 L10,2 L5,2 Z M14,6 L14,14 L10,14 L10,6 L14,6 Z" id="Path-5" fill="#777777" sketch:type="MSShapeGroup"></path>
        <path d="M5.5,17 C7.9852815,17 10,14.9852815 10,12.5 C10,10.0147185 7.9852815,8 5.5,8 C3.0147185,8 1,10.0147185 1,12.5 C1,14.9852815 3.0147185,17 5.5,17 Z" id="Oval-1" fill="#5DB200" sketch:type="MSShapeGroup"></path>
        <path d="M3.0419309,10.0211386 L3.0419309,13.0257571 L7.02493228,13.0257571 L7.02493228,12.0120732 L4.05145404,12.0120732 L4.05145404,10.0279828 L3.0419309,10.0211386 Z" id="Path-4" fill="#FFFFFF" sketch:type="MSShapeGroup" transform="translate(5.000000, 11.500000) rotate(-46.000000) translate(-5.000000, -11.500000) "></path>
    </g>
</svg>