<?xml version="1.0" encoding="UTF-8" standalone="no"?>
<svg width="10px" height="38px" viewBox="0 0 10 38" version="1.1" xmlns="http://www.w3.org/2000/svg" xmlns:xlink="http://www.w3.org/1999/xlink" xmlns:sketch="http://www.bohemiancoding.com/sketch/ns">
    <title>date-picker</title>
    <description>Created with Sketch (http://www.bohemiancoding.com/sketch)</description>
    <defs></defs>
    <g id="Page-1" stroke="none" stroke-width="1" fill="none" fill-rule="evenodd" sketch:type="MSPage">
        <g id="date-picker" sketch:type="MSArtboardGroup">
            <path d="M0,0 L0,4 L10,4 L10,0 L0,0 Z M0,4 L0,10 L1,10 L1,4 L0,4 Z M1,6 L1,7 L3,7 L3,6 L1,6 Z M4,6 L4,7 L6,7 L6,6 L4,6 Z M7,6 L7,7 L9,7 L9,6 L7,6 Z M1,9 L1,10 L3,10 L3,9 L1,9 Z M4,9 L4,10 L6,10 L6,9 L4,9 Z M3,4 L3,10 L4,10 L4,4 L3,4 Z M6,4 L6,10 L7,10 L7,4 L6,4 Z M9,4 L9,7 L10,7 L10,4 L9,4 Z M8,8 L8,10 L9,10 L9,8 L8,8 Z M9,8 L9,9 L10,9 L10,8 L9,8 Z" id="Rectangle-1" fill="#000000" sketch:type="MSShapeGroup"></path>
            <path d="M0,14 L0,18 L10,18 L10,14 L0,14 Z M0,18 L0,24 L1,24 L1,18 L0,18 Z M1,20 L1,21 L3,21 L3,20 L1,20 Z M4,20 L4,21 L6,21 L6,20 L4,20 Z M7,20 L7,21 L9,21 L9,20 L7,20 Z M1,23 L1,24 L3,24 L3,23 L1,23 Z M4,23 L4,24 L6,24 L6,23 L4,23 Z M3,18 L3,24 L4,24 L4,18 L3,18 Z M6,18 L6,24 L7,24 L7,18 L6,18 Z M9,18 L9,21 L10,21 L10,18 L9,18 Z M8,22 L8,24 L9,24 L9,22 L8,22 Z M9,22 L9,23 L10,23 L10,22 L9,22 Z" id="Rectangle-1" fill="#FCFCFC" sketch:type="MSShapeGroup"></path>
            <path d="M0,28 L0,32 L10,32 L10,28 L0,28 Z M0,32 L0,38 L1,38 L1,32 L0,32 Z M1,34 L1,35 L3,35 L3,34 L1,34 Z M4,34 L4,35 L6,35 L6,34 L4,34 Z M7,34 L7,35 L9,35 L9,34 L7,34 Z M1,37 L1,38 L3,38 L3,37 L1,37 Z M4,37 L4,38 L6,38 L6,37 L4,37 Z M3,32 L3,38 L4,38 L4,32 L3,32 Z M6,32 L6,38 L7,38 L7,32 L6,32 Z M9,32 L9,35 L10,35 L10,32 L9,32 Z M8,36 L8,38 L9,38 L9,36 L8,36 Z M9,36 L9,37 L10,37 L10,36 L9,36 Z" id="Rectangle-1" fill="#818181" sketch:type="MSShapeGroup"></path>
        </g>
    </g>
</svg>