<?xml version="1.0" encoding="UTF-8" standalone="no"?>
<svg width="36px" height="36px" viewBox="0 0 36 36" version="1.1" xmlns="http://www.w3.org/2000/svg" xmlns:xlink="http://www.w3.org/1999/xlink">
    <!-- Generator: Sketch 39.1 (31720) - http://www.bohemiancoding.com/sketch -->
    <title>dock-resources</title>
    <desc>Created with Sketch.</desc>
    <defs></defs>
    <g id="scrap" stroke="none" stroke-width="1" fill="none" fill-rule="evenodd">
        <g id="iconset" transform="translate(-1095.000000, -52.000000)" fill="#FFFFFF">
            <g id="dock-resources" transform="translate(1104.000000, 56.000000)">
                <path d="M3.617,25.6666667 C2.57166667,25.6666667 1.34316667,27.4388333 0.980333333,28 L15.2556667,28 C14.8531667,27.4388333 13.5033333,25.6666667 12.458,25.6666667 L9.378,25.6666667 L9.378,22.1666667 C9.378,22.1666667 15.2113333,22.3125 15.2113333,16.8805 L15.2113333,9.33333333 L12.878,9.33333333 L12.878,17.5 C12.878,17.5 12.605,19.8333333 9.96016667,19.8333333 L6.11716667,19.8333333 C3.47233333,19.8333333 3.54466667,17.5 3.54466667,17.5 L3.54466667,9.33333333 L1.21133333,9.33333333 L1.21133333,16.8805 C1.21133333,22.3136667 7.04466667,22.1666667 7.04466667,22.1666667 L7.04466667,25.6666667 L3.617,25.6666667 L3.617,25.6666667 Z M8.21133333,18.6666667 C8.21133333,18.6666667 11.7113333,18.9583333 11.7113333,15.1666667 L11.7113333,9.33333333 L4.71133333,9.33333333 L4.71133333,15.1666667 C4.71133333,18.9583333 8.21133333,18.6666667 8.21133333,18.6666667 L8.21133333,18.6666667 Z M11.7113333,2.33333333 C11.7113333,2.33333333 11.5853333,0 8.84133333,0 L8.21133333,0 C8.21133333,0 8.21133333,0 7.58133333,0 C4.83733333,0 4.71133333,2.33333333 4.71133333,2.33333333 L4.71133333,8.16666667 L11.7113333,8.16666667 L11.7113333,2.33333333 L11.7113333,2.33333333 Z"></path>
            </g>
        </g>
    </g>
</svg>