<?xml version="1.0" encoding="UTF-8" standalone="no"?>
<svg width="36px" height="36px" viewBox="0 0 36 36" version="1.1" xmlns="http://www.w3.org/2000/svg" xmlns:xlink="http://www.w3.org/1999/xlink">
    <!-- Generator: Sketch 39.1 (31720) - http://www.bohemiancoding.com/sketch -->
    <title>dock-teams</title>
    <desc>Created with Sketch.</desc>
    <defs></defs>
    <g id="main-nav" stroke="none" stroke-width="1" fill="none" fill-rule="evenodd">
        <g transform="translate(-591.000000, -52.000000)" id="dock-teams" fill="#FFFFFF">
            <g transform="translate(591.000000, 59.000000)">
                <path d="M10.688041,16.0195996 C10.688041,16.0195996 10.5116595,14.3202755 11.1301255,12.8889041 C11.7485914,11.4575328 11.8808775,11.0544586 11.8808775,9.98150261 C11.8808775,8.90854663 11.306507,6 8.47988024,6 C5.47687198,6 5.07888294,8.90740153 5.07888294,9.98150261 C5.07888294,11.0556037 5.21116907,11.4575328 5.829635,12.8889041 C6.44810093,14.3202755 6.27171942,16.0195996 6.27171942,16.0195996 C6.27171942,16.0195996 4.68202454,16.1982347 3.00300825,16.8246029 C1.32399197,17.450971 0,18.8823423 0,18.8823423 L0,21.0293994 L16.9597605,21.0293994 L16.9597605,18.8823423 C16.9597605,18.8823423 15.6346379,17.450971 13.9567522,16.8246029 C12.2788666,16.1982347 10.688041,16.0195996 10.688041,16.0195996 Z M34.6195949,16.8246029 C32.9417093,16.1982347 31.3508837,16.0195996 31.3508837,16.0195996 C31.3508837,16.0195996 31.1745022,14.3202755 31.7929682,12.8889041 C32.4114341,11.4575328 32.5437202,11.0544586 32.5437202,9.98150261 C32.5437202,8.90854663 31.9693497,6 29.1427229,6 C26.1397147,6 25.7417256,8.90740153 25.7417256,9.98150261 C25.7417256,11.0556037 25.8740118,11.4575328 26.4924777,12.8889041 C27.1109436,14.3202755 26.9345621,16.0195996 26.9345621,16.0195996 C26.9345621,16.0195996 25.3448672,16.1982347 23.6658509,16.8246029 C21.9868347,17.450971 20.6628427,18.8823423 20.6628427,18.8823423 L20.6628427,21.0293994 L37.6226032,21.0293994 L37.6226032,18.8823423 C37.6226032,18.8823423 36.2974805,17.450971 34.6195949,16.8246029 Z" id="Shape-Copy" fill-opacity="0.5"></path>
                <path d="M22.1010918,16.0313594 C22.1010918,16.0313594 21.8184291,13.3117537 22.8077485,11.0215596 C23.7970679,8.73136536 24.0084995,8.08782079 24.0084995,6.37017515 C24.0084995,4.6525295 23.0904112,0 18.5678084,0 C13.7625429,0 13.1271172,4.65138441 13.1271172,6.36903005 C13.1271172,8.0866757 13.3396795,8.73022026 14.3278683,11.0204145 C15.316057,13.3106087 15.0345249,16.0313594 15.0345249,16.0313594 C15.0345249,16.0313594 12.4905609,16.3176336 9.80526547,17.3195936 C7.11997006,18.3215535 5,20.6117477 5,20.6117477 L5,24.047039 L32.1356168,24.047039 L32.1356168,20.6117477 C32.1356168,20.6117477 30.0156467,18.3215535 27.3303513,17.3195936 C24.6450559,16.3176336 22.1010918,16.0313594 22.1010918,16.0313594 Z" id="Shape-Copy-2"></path>
            </g>
        </g>
    </g>
</svg>