<?xml version="1.0" encoding="UTF-8" standalone="no"?>
<svg width="36px" height="36px" viewBox="0 0 36 36" version="1.1" xmlns="http://www.w3.org/2000/svg" xmlns:xlink="http://www.w3.org/1999/xlink">
    <!-- Generator: Sketch 39.1 (31720) - http://www.bohemiancoding.com/sketch -->
    <title>dock-contacts</title>
    <desc>Created with Sketch.</desc>
    <defs></defs>
    <g id="scrap" stroke="none" stroke-width="1" fill="none" fill-rule="evenodd">
        <g id="iconset" transform="translate(-951.000000, -52.000000)" fill="#FFFFFF">
            <g id="dock-contacts" transform="translate(955.000000, 58.000000)">
                <path d="M26.923105,2.92310499 L10.7029124,2.92310499 L9.69278491,0.769314984 L1.01085737,0.769314984 C1.01085737,0.769314984 0.000729859129,0.769314984 0.000729859129,1.84620999 L0.000729859129,22.2404476 C0.000729859129,22.2404476 -0.0660376312,23.3841101 1.07762486,23.3841101 L6.46209989,23.3841101 L6.46209989,22.3072151 L4.30830988,22.3072151 L4.30830988,20.1534251 L9.69278491,20.1534251 L9.69278491,22.3072151 L7.5389949,22.3072151 L7.5389949,23.3841101 L20.461735,23.3841101 L20.461735,22.3072151 L18.307945,22.3072151 L18.307945,20.1534251 L23.69242,20.1534251 L23.69242,22.3072151 L21.53863,22.3072151 L21.53863,23.3841101 L26.923105,23.3841101 C28,23.3841101 28,22.3072151 28,22.3072151 L28,3.93323251 C28,2.99202627 26.923105,2.92310499 26.923105,2.92310499 L26.923105,2.92310499 Z M20.461735,17.9996351 L7.5389949,17.9996351 L7.5389949,16.4262915 C7.5389949,16.4262915 8.75804004,15.3773957 10.0029307,14.9186385 C11.2488982,14.4598812 12.5465567,14.3285 12.5465567,14.3285 C12.5465567,14.3285 12.7360902,13.0825325 12.2773329,12.0336367 C11.8185756,10.984741 11.7496544,10.6896718 11.7496544,9.90353842 C11.7496544,9.11740507 12.0598001,6.98622985 14.2878959,6.98622985 C16.3856874,6.98622985 16.8185992,9.11632817 16.8185992,9.90353842 C16.8185992,10.6907487 16.7238324,10.984741 16.2650751,12.0336367 C15.8063179,13.0825325 15.9387759,14.3285 15.9387759,14.3285 C15.9387759,14.3285 17.0522854,14.4598812 18.2982529,14.9186385 C19.5442204,15.3773957 20.4606581,16.4262915 20.4606581,16.4262915 L20.4606581,17.9996351 L20.461735,17.9996351 Z"></path>
            </g>
        </g>
    </g>
</svg>