<?xml version="1.0" encoding="UTF-8" standalone="no"?>
<svg width="36px" height="36px" viewBox="0 0 36 36" version="1.1" xmlns="http://www.w3.org/2000/svg" xmlns:xlink="http://www.w3.org/1999/xlink">
    <!-- Generator: Sketch 39.1 (31720) - http://www.bohemiancoding.com/sketch -->
    <title>dock-updates</title>
    <desc>Created with Sketch.</desc>
    <defs></defs>
    <g id="scrap" stroke="none" stroke-width="1" fill="none" fill-rule="evenodd">
        <g id="iconset" transform="translate(-1167.000000, -52.000000)" fill="#FFFFFF">
            <g id="dock-updates" transform="translate(1173.000000, 58.000000)">
                <path d="M15,4 L15,6 L18,6 L21.875,16 L17,16 L15,19 L9,19 L7,16 L2.125,16 L6,6 L9,6 L9,4 L5.125,4 L0,16 L0,24 L24,24 L24,16 L18.875,4 L15,4 Z M7,10 L10.875,14 L13.125,14 L17,10 L17,9 L14,9 L14,0 L10,0 L10,9 L7,9 L7,10 L7,10 Z"></path>
            </g>
        </g>
    </g>
</svg>