<?xml version="1.0" encoding="UTF-8" standalone="no"?>
<svg width="36px" height="36px" viewBox="0 0 36 36" version="1.1" xmlns="http://www.w3.org/2000/svg" xmlns:xlink="http://www.w3.org/1999/xlink">
    <!-- Generator: Sketch 39.1 (31720) - http://www.bohemiancoding.com/sketch -->
    <title>dock-user</title>
    <desc>Created with Sketch.</desc>
    <defs></defs>
    <g id="scrap" stroke="none" stroke-width="1" fill="none" fill-rule="evenodd">
        <g id="iconset" transform="translate(-735.000000, -52.000000)" fill="#FFFFFF">
            <g id="dock-user" transform="translate(739.000000, 58.000000)">
                <path d="M23.0642086,17.3195936 C20.3059722,16.3176336 17.6929062,16.0313594 17.6929062,16.0313594 C17.6929062,16.0313594 17.4025655,13.3117537 18.4187579,11.0215596 C19.4349502,8.73136536 19.6521251,8.08782079 19.6521251,6.37017515 C19.6521251,4.6525295 18.7090986,-7.10542736e-15 14.0636478,-7.10542736e-15 C9.12785644,-7.10542736e-15 8.47517062,4.65138441 8.47517062,6.36903005 C8.47517062,8.0866757 8.6935068,8.73022026 9.70853778,11.0204145 C10.7235688,13.3106087 10.4343895,16.0313594 10.4343895,16.0313594 C10.4343895,16.0313594 7.82132343,16.3176336 5.06308706,17.3195936 C2.3048507,18.3215535 0.12729567,20.6117477 0.12729567,20.6117477 L0.12729567,24.047039 L28,24.047039 L28,20.6117477 C28,20.6117477 25.822445,18.3215535 23.0642086,17.3195936 L23.0642086,17.3195936 Z"></path>
            </g>
        </g>
    </g>
</svg>