<?xml version="1.0" encoding="UTF-8" standalone="no"?>
<svg width="36px" height="36px" viewBox="0 0 36 36" version="1.1" xmlns="http://www.w3.org/2000/svg" xmlns:xlink="http://www.w3.org/1999/xlink">
    <!-- Generator: Sketch 39.1 (31720) - http://www.bohemiancoding.com/sketch -->
    <title>dock-reports</title>
    <desc>Created with Sketch.</desc>
    <defs></defs>
    <g id="scrap" stroke="none" stroke-width="1" fill="none" fill-rule="evenodd">
        <g id="iconset" transform="translate(-879.000000, -52.000000)" fill="#FFFFFF">
            <g id="dock-reports" transform="translate(883.000000, 56.000000)">
                <path d="M3.36,24.64 L3.36,-2.27373675e-13 L2.24,-2.27373675e-13 L2.24,1.12 L1.12,1.12 L1.12,2.24 L2.24,2.24 L2.24,4.48 L1.12,4.48 L1.12,5.6 L2.24,5.6 L2.24,7.84 L1.12,7.84 L1.12,8.96 L2.24,8.96 L2.24,11.2 L1.12,11.2 L1.12,12.32 L2.24,12.32 L2.24,14.56 L1.12,14.56 L1.12,15.68 L2.24,15.68 L2.24,17.92 L1.12,17.92 L1.12,19.04 L2.24,19.04 L2.24,21.28 L1.12,21.28 L1.12,22.4 L2.24,22.4 L2.24,24.64 L0,24.64 L0,25.76 L2.24,25.76 L2.24,28 L3.36,28 L3.36,25.76 L5.6,25.76 L5.6,26.88 L6.72,26.88 L6.72,25.76 L8.96,25.76 L8.96,26.88 L10.08,26.88 L10.08,25.76 L12.32,25.76 L12.32,26.88 L13.44,26.88 L13.44,25.76 L15.68,25.76 L15.68,26.88 L16.8,26.88 L16.8,25.76 L19.04,25.76 L19.04,26.88 L20.16,26.88 L20.16,25.76 L22.4,25.76 L22.4,26.88 L23.52,26.88 L23.52,25.76 L25.76,25.76 L25.76,26.88 L26.88,26.88 L26.88,25.76 L28,25.76 L28,24.64 L3.36,24.64 L3.36,24.64 Z M6.65056,23.45056 C7.88816,23.45056 8.89056,22.44816 8.89056,21.21056 C8.89056,20.56544 8.61392,19.98864 8.17824,19.57984 L12.82736,11.05664 C13.00208,11.10032 13.1824,11.13056 13.37056,11.13056 C13.78496,11.13056 14.16912,11.0096 14.50176,10.8136 L18.16752,14.47936 C17.97152,14.812 17.85056,15.19616 17.85056,15.61056 C17.85056,16.84816 18.85296,17.85056 20.09056,17.85056 C21.32816,17.85056 22.33056,16.84816 22.33056,15.61056 C22.33056,15.0136 22.09312,14.47376 21.71232,14.07168 L25.02192,8.77744 C25.23472,8.84464 25.45648,8.89056 25.69056,8.89056 C26.92816,8.89056 27.93056,7.88816 27.93056,6.65056 C27.93056,5.41296 26.92816,4.41056 25.69056,4.41056 C24.45296,4.41056 23.45056,5.41296 23.45056,6.65056 C23.45056,7.24752 23.688,7.78736 24.0688,8.18832 L20.7592,13.48368 C20.5464,13.41648 20.32464,13.37056 20.09056,13.37056 C19.67616,13.37056 19.292,13.49152 18.95936,13.68752 L15.2936,10.02176 C15.4896,9.68912 15.61056,9.30496 15.61056,8.89056 C15.61056,7.65296 14.60816,6.65056 13.37056,6.65056 C12.13296,6.65056 11.13056,7.65296 11.13056,8.89056 C11.13056,9.53568 11.4072,10.11248 11.84288,10.52128 L7.19376,19.04448 C7.01904,19.0008 6.83872,18.97056 6.65056,18.97056 C5.41296,18.97056 4.41056,19.97296 4.41056,21.21056 C4.41056,22.44704 5.41296,23.45056 6.65056,23.45056 L6.65056,23.45056 Z"></path>
            </g>
        </g>
    </g>
</svg>