<?xml version="1.0" encoding="UTF-8" standalone="no"?>
<svg width="36px" height="36px" viewBox="0 0 36 36" version="1.1" xmlns="http://www.w3.org/2000/svg" xmlns:xlink="http://www.w3.org/1999/xlink">
    <!-- Generator: Sketch 39.1 (31720) - http://www.bohemiancoding.com/sketch -->
    <title>dock-events</title>
    <desc>Created with Sketch.</desc>
    <defs></defs>
    <g id="main-nav" stroke="none" stroke-width="1" fill="none" fill-rule="evenodd">
        <g transform="translate(-519.000000, -52.000000)" id="dock-events" fill="#FFFFFF">
            <g transform="translate(525.000000, 55.000000)">
                <g>
                    <path d="M5.52613636,22.57472 C5.53863636,21.44464 6.04204545,20.3784 6.93068182,19.62912 C7.70340909,18.96832 8.57954545,18.51136 9.275,18.07904 C9.95795455,17.63552 10.4477273,17.2032 10.4477273,16.60624 C10.4477273,15.9208 9.98409091,15.50192 9.2875,15.50192 C8.12727273,15.50192 7.80568182,16.32736 7.79318182,17.29168 L5.74431818,17.29168 C5.61590909,15.09536 7.03295455,13.61024 9.27386364,13.61024 C11.0511364,13.61024 12.6363636,14.52416 12.6363636,16.41584 C12.6363636,18.11712 11.4,18.75216 10.0852273,19.55184 C9.40227273,19.97072 9.04204545,20.18576 8.4625,20.74464 L12.7272727,20.74464 L12.7272727,22.5736 L5.52613636,22.5736 L5.52613636,22.57472 Z M13.0329545,13.72448 L19.5659091,13.72448 L19.5659091,15.46384 C19.1784091,15.7808 18.2511364,16.99936 17.6465909,18.32096 C16.9125,19.88336 16.7193182,21.42 16.7056818,22.57472 L14.3488636,22.57472 C14.4,21.53312 14.7215909,19.86992 15.5340909,18.32096 C16.1522727,16.9624 17.0670455,15.88272 17.3375,15.70576 L17.3375,15.68 L13.0340909,15.68 L13.0340909,13.72448 L13.0329545,13.72448 Z M20.4545455,0 L18.1818182,0 L18.1818182,6.72 L20.4545455,6.72 L20.4545455,0 Z M6.81818182,0 L4.54545455,0 L4.54545455,6.72 L6.81818182,6.72 L6.81818182,0 L6.81818182,0 Z M21.5909091,3.36 L21.5909091,7.84 L17.0454545,7.84 L17.0454545,3.36 L7.95454545,3.36 L7.95454545,7.84 L3.40909091,7.84 L3.40909091,3.36 L0,3.36 L0,28 L25,28 L25,3.36 L21.5909091,3.36 L21.5909091,3.36 Z M23.8636364,25.76 L1.13636364,25.76 L1.13636364,8.96 L23.8636364,8.96 L23.8636364,25.76 L23.8636364,25.76 Z"></path>
                </g>
            </g>
        </g>
    </g>
</svg>