<?xml version="1.0" encoding="UTF-8" standalone="no"?>
<svg width="36px" height="36px" viewBox="0 0 36 36" version="1.1" xmlns="http://www.w3.org/2000/svg" xmlns:xlink="http://www.w3.org/1999/xlink">
    <!-- Generator: Sketch 39.1 (31720) - http://www.bohemiancoding.com/sketch -->
    <title>dock-todo</title>
    <desc>Created with Sketch.</desc>
    <defs></defs>
    <g id="scrap" stroke="none" stroke-width="1" fill="none" fill-rule="evenodd">
        <g id="iconset" transform="translate(-1239.000000, -52.000000)" fill="#FFFFFF">
            <g id="dock-todo" transform="translate(1248.000000, 60.000000)">
                <path d="M15.75,18.75 L2.25,18.75 L2.25,5.25 L9.8235,5.25 L11.469375,3 L3.375,3 C1.510875,3 0,4.510875 0,6.375 L0,17.625 C0,19.489125 1.510875,21 3.375,21 L14.625,21 C16.489125,21 18,19.489125 18,17.625 L18,10.227 L15.75,13.026 L15.75,18.75 L15.75,18.75 Z M10.1912598,11.0846807 C10.1912598,11.0846807 8.49271653,9.51948862 7.36035419,8.41778595 C6.22799184,7.31608327 3.9632677,9.51948862 5.09562987,10.6211908 C6.22799203,11.7228929 9.05889757,14.3897871 9.05889757,14.3897871 C9.05889757,14.3897871 9.97497858,15.3736071 10.5683364,15.4914893 C11.6791399,15.7121721 12.3813477,14.9846191 13,14 C13,14 17.834705,6.0396602 19.6747931,3.37276566 C21.5148813,0.705871118 18.2593404,-1.30946846 16.8438877,1.0316486 C15.4284349,3.37276566 10.1912598,11.0846807 10.1912598,11.0846807 Z" id="dock-todo's"></path>
            </g>
        </g>
    </g>
</svg>