<?xml version="1.0" encoding="UTF-8" standalone="no"?>
<svg width="36px" height="36px" viewBox="0 0 36 36" version="1.1" xmlns="http://www.w3.org/2000/svg" xmlns:xlink="http://www.w3.org/1999/xlink">
    <!-- Generator: Sketch 39.1 (31720) - http://www.bohemiancoding.com/sketch -->
    <title>dock-search</title>
    <desc>Created with Sketch.</desc>
    <defs></defs>
    <g id="main-nav" stroke="none" stroke-width="1" fill="none" fill-rule="evenodd">
        <g transform="translate(-663.000000, -52.000000)" id="dock-search" fill="#FFFFFF">
            <g transform="translate(668.000000, 57.000000)">
                <path d="M25.5149959,22.3607196 L18.8190755,15.6988776 C19.879879,14.0997796 20.5013599,12.1872585 20.5013599,10.1276203 C20.5013599,4.53397571 15.9441907,0 10.321932,0 C4.69967328,0 0.14250416,4.53397571 0.14250416,10.1276203 C0.14250416,15.7212649 4.69967328,20.2552406 10.321932,20.2552406 C12.3224575,20.2552406 14.1815424,19.673169 15.7556034,18.6817283 L22.4836695,25.3755523 C23.3205256,26.2081492 24.6770683,26.2081492 25.5139244,25.3755523 C26.3518521,24.5429553 26.3518521,23.1933166 25.5149959,22.3607196 L25.5149959,22.3607196 Z M10.3230035,17.078366 C6.46446461,17.078366 3.33670147,13.9665214 3.33670147,10.1276203 C3.33670147,6.28871918 6.46446461,3.17687458 10.3230035,3.17687458 C14.1815424,3.17687458 17.3093056,6.28871918 17.3093056,10.1276203 C17.3093056,13.9665214 14.1815424,17.078366 10.3230035,17.078366 L10.3230035,17.078366 Z"></path>
            </g>
        </g>
    </g>
</svg>