<?xml version="1.0" encoding="UTF-8" standalone="no"?>
<svg width="12px" height="10px" viewBox="0 0 12 10" version="1.1" xmlns="http://www.w3.org/2000/svg" xmlns:xlink="http://www.w3.org/1999/xlink" xmlns:sketch="http://www.bohemiancoding.com/sketch/ns">
    <!-- Generator: Sketch 3.3 (11970) - http://www.bohemiancoding.com/sketch -->
    <title>dragging-multiple</title>
    <desc>Created with Sketch.</desc>
    <defs></defs>
    <g id="Page-1" stroke="none" stroke-width="1" fill="none" fill-rule="evenodd" sketch:type="MSPage">
        <path d="M2,3 L2,3 L3,2 L3,10 L2,9 L12,9 L11,10 L11,2 L12,3 L2,3 L2,3 Z M2,2 L12,2 L12,10 L2,10 L2,2 Z M10,2 L10,0 L0,0 L0,8 L2,8 L2,7 L0,7 L1,8 L1,0 L0,1 L10,1 L9,0 L9,2 L10,2 Z" id="dragging-multiple" fill="#FFFFFF" sketch:type="MSShapeGroup"></path>
    </g>
</svg>