<?xml version="1.0" encoding="UTF-8" standalone="no"?>
<svg width="16px" height="40px" viewBox="0 0 16 40" version="1.1" xmlns="http://www.w3.org/2000/svg" xmlns:xlink="http://www.w3.org/1999/xlink" xmlns:sketch="http://www.bohemiancoding.com/sketch/ns">
    <title>drop-box</title>
    <description>Created with Sketch (http://www.bohemiancoding.com/sketch)</description>
    <defs></defs>
    <g id="Page-1" stroke="none" stroke-width="1" fill="none" fill-rule="evenodd" sketch:type="MSPage">
        <g id="drop-box" sketch:type="MSArtboardGroup">
            <path d="M10,1.06321843 L12.0025861,1.07517276 L16,8.15177484 L16,15.9484595 L0,16.0643499 L0,8.10802299 L4.28064413,1.02907705 L6,1.03934065 L6,2.92620996 L5.06687538,2.92577204 L2.0310696,9.00102959 L5.13927428,9.0669178 L6.0624905,11.0552833 L10.1116205,11.0321053 L11.2145318,9.06978251 L14.0594441,9.1335873 L11.1710404,2.92863675 L10,2.92808718 L10,1.06321843 L10,1.06321843 Z M7.22686278,0 L9.00975086,0 L8.97172842,6.07252003 L11.0499415,6.07252003 L8,9.95679928 L5.05333314,6.04934196 L7.13415052,6.04934196 L7.22686278,0 Z" id="Path-1" fill="#000000" sketch:type="MSShapeGroup"></path>
            <path d="M10,25.0632184 L12.0025861,25.0751728 L16,32.1517748 L16,39.9484595 L0,40.0643499 L0,32.108023 L4.28064413,25.0290771 L6,25.0393407 L6,26.92621 L5.06687538,26.925772 L2.0310696,33.0010296 L5.13927428,33.0669178 L6.0624905,35.0552833 L10.1116205,35.0321053 L11.2145318,33.0697825 L14.0594441,33.1335873 L11.1710404,26.9286367 L10,26.9280872 L10,25.0632184 L10,25.0632184 Z M7.22686278,24 L9.00975086,24 L8.97172842,30.07252 L11.0499415,30.07252 L8,33.9567993 L5.05333314,30.049342 L7.13415052,30.049342 L7.22686278,24 Z" id="Path-1" fill="#FC0D1B" sketch:type="MSShapeGroup"></path>
        </g>
    </g>
</svg>