<?xml version="1.0" encoding="UTF-8" standalone="no"?>
<svg width="13px" height="13px" viewBox="0 0 13 13" version="1.1" xmlns="http://www.w3.org/2000/svg" xmlns:xlink="http://www.w3.org/1999/xlink" xmlns:sketch="http://www.bohemiancoding.com/sketch/ns">
    <title>events-blue</title>
    <description>Created with Sketch (http://www.bohemiancoding.com/sketch)</description>
    <defs></defs>
    <g id="Page-1" stroke="none" stroke-width="1" fill="none" fill-rule="evenodd" sketch:type="MSPage">
        <g id="events-blue" sketch:type="MSArtboardGroup" fill="#0D5CB5">
            <path d="M2,2 L2,12 L12,12 L12,2 L2,2 Z M4,2 L4,3 L5,3 L5,2 L4,2 Z M9,2 L9,3 L10,3 L10,2 L9,2 Z M4,1 L4,2 L5,2 L5,1 L4,1 Z M9,1 L9,2 L10,2 L10,1 L9,1 Z M3,6 L3,8 L5,8 L5,6 L3,6 Z M6,6 L6,8 L8,8 L8,6 L6,6 Z M9,6 L9,8 L11,8 L11,6 L9,6 Z M3,9 L3,11 L5,11 L5,9 L3,9 Z M6,9 L6,11 L8,11 L8,9 L6,9 Z M9,9 L9,11 L11,11 L11,9 L9,9 Z" id="Rectangle-1" sketch:type="MSShapeGroup"></path>
        </g>
    </g>
</svg>