<?xml version="1.0" encoding="UTF-8" standalone="no"?>
<svg width="10px" height="27px" viewBox="0 0 10 27" version="1.1" xmlns="http://www.w3.org/2000/svg" xmlns:xlink="http://www.w3.org/1999/xlink" xmlns:sketch="http://www.bohemiancoding.com/sketch/ns">
    <title>event</title>
    <description>Created with Sketch (http://www.bohemiancoding.com/sketch)</description>
    <defs></defs>
    <g id="Page-1" stroke="none" stroke-width="1" fill="none" fill-rule="evenodd" sketch:type="MSPage">
        <g id="event" sketch:type="MSArtboardGroup">
            <path d="M0,2 L0,12 L10,12 L10,2 L0,2 Z M1,4 L1,11 L9,11 L9,4 L1,4 Z M7,2 L7,3 L8,3 L8,2 L7,2 Z M2,2 L2,3 L3,3 L3,2 L2,2 Z M2,1 L2,2 L3,2 L3,1 L2,1 Z M7,1 L7,2 L8,2 L8,1 L7,1 Z" id="Rectangle-1" fill="#3A3A3A" sketch:type="MSShapeGroup"></path>
            <path d="M2.38378906,9.16503906 C2.50293028,8.88183452 2.78417747,8.58203283 3.22753906,8.265625 C3.61230661,7.990233 3.86132756,7.79296935 3.97460938,7.67382812 C4.14843837,7.48828032 4.23535156,7.28515735 4.23535156,7.06445312 C4.23535156,6.88476473 4.18554737,6.73535216 4.0859375,6.61621094 C3.98632763,6.49706972 3.84375093,6.4375 3.65820312,6.4375 C3.40429561,6.4375 3.23144577,6.53222562 3.13964844,6.72167969 C3.0869138,6.83105523 3.05566411,7.00488162 3.04589844,7.24316406 L2.234375,7.24316406 C2.24804694,6.88183413 2.31347598,6.58984486 2.43066406,6.3671875 C2.65332143,5.94335726 3.04882528,5.73144531 3.6171875,5.73144531 C4.0664085,5.73144531 4.4238268,5.85595579 4.68945312,6.10498047 C4.95507945,6.35400515 5.08789062,6.6835917 5.08789062,7.09375 C5.08789062,7.4082047 4.99414156,7.68749878 4.80664062,7.93164062 C4.68359313,8.09375081 4.48144672,8.27441307 4.20019531,8.47363281 L3.86621094,8.7109375 C3.65722552,8.85937574 3.51416054,8.96679654 3.43701172,9.03320312 C3.3598629,9.09960971 3.29492214,9.17675737 3.2421875,9.26464844 L5.09667969,9.26464844 L5.09667969,10 L2.1875,10 C2.19531254,9.69531098 2.26074157,9.41699345 2.38378906,9.16503906 L2.38378906,9.16503906 Z M8.50097656,6.4609375 C8.37597594,6.58398499 8.20214955,6.80322108 7.97949219,7.11865234 C7.75683482,7.43408361 7.57031325,7.75976395 7.41992188,8.09570312 C7.30078065,8.35937632 7.19335985,8.68163872 7.09765625,9.0625 C7.00195265,9.44336128 6.95410156,9.75585815 6.95410156,10 L6.08691406,10 C6.11230481,9.23827744 6.36230231,8.44629317 6.83691406,7.62402344 C7.14355622,7.11425526 7.40038959,6.75879007 7.60742188,6.55761719 L5.48925781,6.55761719 L5.50097656,5.80761719 L8.50097656,5.80761719 L8.50097656,6.4609375 Z" id="27" fill="#000000" sketch:type="MSShapeGroup"></path>
            <path d="M0,17 L0,27 L10,27 L10,17 L0,17 Z M1,19 L1,26 L9,26 L9,19 L1,19 Z M7,17 L7,18 L8,18 L8,17 L7,17 Z M2,17 L2,18 L3,18 L3,17 L2,17 Z M2,16 L2,17 L3,17 L3,16 L2,16 Z M7,16 L7,17 L8,17 L8,16 L7,16 Z" id="Rectangle-1" fill="#2254A2" sketch:type="MSShapeGroup"></path>
            <path d="M2.38378906,24.1650391 C2.50293028,23.8818345 2.78417747,23.5820328 3.22753906,23.265625 C3.61230661,22.990233 3.86132756,22.7929693 3.97460938,22.6738281 C4.14843837,22.4882803 4.23535156,22.2851574 4.23535156,22.0644531 C4.23535156,21.8847647 4.18554737,21.7353522 4.0859375,21.6162109 C3.98632763,21.4970697 3.84375093,21.4375 3.65820312,21.4375 C3.40429561,21.4375 3.23144577,21.5322256 3.13964844,21.7216797 C3.0869138,21.8310552 3.05566411,22.0048816 3.04589844,22.2431641 L2.234375,22.2431641 C2.24804694,21.8818341 2.31347598,21.5898449 2.43066406,21.3671875 C2.65332143,20.9433573 3.04882528,20.7314453 3.6171875,20.7314453 C4.0664085,20.7314453 4.4238268,20.8559558 4.68945312,21.1049805 C4.95507945,21.3540052 5.08789062,21.6835917 5.08789062,22.09375 C5.08789062,22.4082047 4.99414156,22.6874988 4.80664062,22.9316406 C4.68359313,23.0937508 4.48144672,23.2744131 4.20019531,23.4736328 L3.86621094,23.7109375 C3.65722552,23.8593757 3.51416054,23.9667965 3.43701172,24.0332031 C3.3598629,24.0996097 3.29492214,24.1767574 3.2421875,24.2646484 L5.09667969,24.2646484 L5.09667969,25 L2.1875,25 C2.19531254,24.695311 2.26074157,24.4169934 2.38378906,24.1650391 L2.38378906,24.1650391 Z M8.50097656,21.4609375 C8.37597594,21.583985 8.20214955,21.8032211 7.97949219,22.1186523 C7.75683482,22.4340836 7.57031325,22.7597639 7.41992188,23.0957031 C7.30078065,23.3593763 7.19335985,23.6816387 7.09765625,24.0625 C7.00195265,24.4433613 6.95410156,24.7558582 6.95410156,25 L6.08691406,25 C6.11230481,24.2382774 6.36230231,23.4462932 6.83691406,22.6240234 C7.14355622,22.1142553 7.40038959,21.7587901 7.60742188,21.5576172 L5.48925781,21.5576172 L5.50097656,20.8076172 L8.50097656,20.8076172 L8.50097656,21.4609375 Z" id="27" fill="#2254A2" sketch:type="MSShapeGroup"></path>
        </g>
    </g>
</svg>