<?xml version="1.0" encoding="UTF-8" standalone="no"?>
<svg width="16px" height="16px" viewBox="0 0 16 16" version="1.1" xmlns="http://www.w3.org/2000/svg" xmlns:xlink="http://www.w3.org/1999/xlink" xmlns:sketch="http://www.bohemiancoding.com/sketch/ns">
    <!-- Generator: Sketch 3.3 (11970) - http://www.bohemiancoding.com/sketch -->
    <title>finder-settings</title>
    <desc>Created with Sketch.</desc>
    <defs></defs>
    <g id="Page-1" stroke="none" stroke-width="1" fill="none" fill-rule="evenodd" sketch:type="MSPage">
        <g id="Finder" sketch:type="MSArtboardGroup" transform="translate(-1186.000000, -46.000000)" fill="#000000">
            <path d="M1193.99889,51.1071429 C1192.40234,51.1071429 1191.10714,52.4023393 1191.10714,54 C1191.10714,55.5959821 1192.40234,56.8939643 1193.99889,56.8939643 C1195.596,56.8939643 1196.88171,55.5959643 1196.88171,54 C1196.8817,52.4023393 1195.59598,51.1071429 1193.99889,51.1071429 L1193.99889,51.1071429 Z M1199.79688,55.6618214 L1199.27566,56.9173929 L1200.20534,58.7432857 L1200.32811,58.9843571 L1199.03904,60.2734286 L1196.92411,59.2745536 L1195.66854,59.7901786 L1195.03125,61.7410714 L1194.94979,62 L1193.12779,62 L1192.33929,59.798 L1191.08371,59.2801429 L1189.25507,60.2076071 L1189.014,60.3281429 L1187.7255,59.0401964 L1188.72327,56.924125 L1188.20596,55.6696607 L1186.25837,55.0334821 L1186,54.9497857 L1186,53.1289107 L1188.20368,52.3392857 L1188.72098,51.0859286 L1187.79409,49.256125 L1187.67188,49.0161607 L1188.9587,47.7293393 L1191.07645,48.7265536 L1192.33036,48.2081429 L1192.96707,46.2583571 L1193.04911,46 L1194.87054,46 L1195.65961,48.2048036 L1196.91184,48.7232143 L1198.74107,47.7951964 L1198.98438,47.6729821 L1200.27232,48.9598036 L1199.27455,51.0741964 L1199.79018,52.3303571 L1201.7433,52.9670714 L1202,53.0491071 L1202,54.8694286 L1199.79688,55.6618214 L1199.79688,55.6618214 Z" id="finder-settings" sketch:type="MSShapeGroup"></path>
        </g>
    </g>
</svg>