<?xml version="1.0" encoding="UTF-8" standalone="no"?>
<svg width="19px" height="16px" viewBox="0 0 19 16" version="1.1" xmlns="http://www.w3.org/2000/svg" xmlns:xlink="http://www.w3.org/1999/xlink" xmlns:sketch="http://www.bohemiancoding.com/sketch/ns">
    <!-- Generator: Sketch 3.3 (11970) - http://www.bohemiancoding.com/sketch -->
    <title>finder-lock-open</title>
    <desc>Created with Sketch.</desc>
    <defs></defs>
    <g id="Page-1" stroke="none" stroke-width="1" fill="none" fill-rule="evenodd" sketch:type="MSPage">
        <g id="Finder" sketch:type="MSArtboardGroup" transform="translate(-1250.000000, -46.000000)" fill="#000000">
            <path d="M1259.67843,53.2285123 L1259.67843,50.6805123 C1259.67843,49.4100123 1259.17496,48.2450123 1258.34539,47.3945123 C1257.51791,46.5450123 1256.33774,45.9970123 1255.03757,46.0000123 C1253.73635,45.9970123 1252.55617,46.5450123 1251.72974,47.3945123 C1250.89965,48.2450123 1250.39617,49.4100123 1250.39617,50.6805123 L1250.39617,54.2285123 L1252.59896,54.2285123 L1252.59896,54.2285123 L1252.59896,50.6805123 C1252.59896,49.9480123 1252.89061,49.2975123 1253.33983,48.8375123 C1253.79217,48.3765123 1254.3833,48.1110123 1255.03757,48.1110123 C1255.69078,48.1110123 1256.28191,48.3765123 1256.73322,48.8375123 C1257.18452,49.2975123 1257.47409,49.9480123 1257.47409,50.6805123 L1257.47409,53.2285123 L1256.59739,53.2285123 C1256.26922,53.2285123 1256,53.4845123 1256,53.8010123 L1256,60.5365123 C1256,60.8550123 1256.26922,61.1105123 1256.59739,61.1105123 L1267.4767,61.1105123 C1267.808,61.1105123 1268.07565,60.8545123 1268.07565,60.5365123 L1268.07565,53.8010123 C1268.07565,53.4845123 1267.80748,53.2285123 1267.47617,53.2285123 L1259.67843,53.2285123 Z" id="finder-lock-open" sketch:type="MSShapeGroup"></path>
        </g>
    </g>
</svg>