<?xml version="1.0" encoding="UTF-8" standalone="no"?>
<svg width="13px" height="16px" viewBox="0 0 13 16" version="1.1" xmlns="http://www.w3.org/2000/svg" xmlns:xlink="http://www.w3.org/1999/xlink" xmlns:sketch="http://www.bohemiancoding.com/sketch/ns">
    <!-- Generator: Sketch 3.3 (11970) - http://www.bohemiancoding.com/sketch -->
    <title>finder-lock</title>
    <desc>Created with Sketch.</desc>
    <defs></defs>
    <g id="Page-1" stroke="none" stroke-width="1" fill="none" fill-rule="evenodd" sketch:type="MSPage">
        <g id="Finder" sketch:type="MSArtboardGroup" transform="translate(-1219.000000, -46.000000)" fill="#000000">
            <path d="M1229.67843,53.2285123 L1229.67843,50.6805123 C1229.67843,49.4100123 1229.17496,48.2450123 1228.34539,47.3945123 C1227.51791,46.5450123 1226.33774,45.9970123 1225.03757,46.0000123 C1223.73635,45.9970123 1222.55617,46.5450123 1221.72974,47.3945123 C1220.89965,48.2450123 1220.39617,49.4100123 1220.39617,50.6805123 L1220.39617,53.2285123 L1219.59739,53.2285123 C1219.26922,53.2285123 1219,53.4845123 1219,53.8010123 L1219,60.5365123 C1219,60.8550123 1219.26922,61.1105123 1219.59739,61.1105123 L1230.4767,61.1105123 C1230.808,61.1105123 1231.07565,60.8545123 1231.07565,60.5365123 L1231.07565,53.8010123 C1231.07565,53.4845123 1230.80748,53.2285123 1230.47617,53.2285123 L1229.67843,53.2285123 Z M1222.59896,50.6805123 C1222.59896,49.9480123 1222.89061,49.2975123 1223.33983,48.8375123 C1223.79217,48.3765123 1224.3833,48.1110123 1225.03757,48.1110123 C1225.69078,48.1110123 1226.28191,48.3765123 1226.73322,48.8375123 C1227.18452,49.2975123 1227.47409,49.9480123 1227.47409,50.6805123 L1227.47409,53.2285123 L1222.59896,53.2285123 L1222.59896,50.6805123 L1222.59896,50.6805123 Z" id="finder-lock" sketch:type="MSShapeGroup"></path>
        </g>
    </g>
</svg>