<?xml version="1.0" encoding="UTF-8" standalone="no"?>
<svg width="25px" height="25px" viewBox="0 0 25 25" version="1.1" xmlns="http://www.w3.org/2000/svg" xmlns:xlink="http://www.w3.org/1999/xlink">
    <!-- Generator: Sketch 40 (33762) - http://www.bohemiancoding.com/sketch -->
    <title>formvalidation_input_error</title>
    <desc>Created with Sketch.</desc>
    <defs></defs>
    <g id="Symbols" stroke="none" stroke-width="1" fill="none" fill-rule="evenodd">
        <g id="formvalidation_input_error" fill="#F00000">
            <path d="M12.2843049,8.96517901 L4.12916247,0.953761562 C3.14166595,-0.0163314756 1.54605561,-0.0105217034 0.567047126,0.96848678 L0.76318734,0.772346566 C-0.215759419,1.75129332 -0.20829415,3.33204871 0.779999349,4.30292468 L8.96517901,12.34385 L0.953761562,20.4989924 C-0.0163314756,21.4864889 -0.0105217034,23.0820993 0.96848678,24.0611078 L0.772346566,23.8649675 C1.75129332,24.8439143 3.33204871,24.836449 4.30292468,23.8481555 L12.34385,15.6629759 L20.4989924,23.6743933 C21.4864889,24.6444864 23.0820993,24.6386766 24.0611078,23.6596681 L23.8649675,23.8558083 C24.8439143,22.8768616 24.836449,21.2961062 23.8481555,20.3252302 L15.6629759,12.2843049 L23.6743933,4.12916247 C24.6444864,3.14166595 24.6386766,1.54605561 23.6596681,0.567047126 L23.8558083,0.76318734 C22.8768616,-0.215759419 21.2961062,-0.20829415 20.3252302,0.779999349 L12.2843049,8.96517901 Z" id="formvalidation_error"></path>
        </g>
        <g id="slices"></g>
    </g>
</svg>