<?xml version="1.0" encoding="UTF-8" standalone="no"?>
<svg width="714px" height="42px" viewBox="0 0 714 42" version="1.1" xmlns="http://www.w3.org/2000/svg" xmlns:xlink="http://www.w3.org/1999/xlink">
    <!-- Generator: Sketch 40.3 (33839) - http://www.bohemiancoding.com/sketch -->
    <title>icns</title>
    <desc>Created with Sketch.</desc>
    <defs>
        <circle id="path-1" cx="21" cy="7" r="5"></circle>
        <mask id="mask-2" maskContentUnits="userSpaceOnUse" maskUnits="objectBoundingBox" x="-1" y="-1" width="12" height="12">
            <rect x="15" y="1" width="12" height="12" fill="white"></rect>
            <use xlink:href="#path-1" fill="black"></use>
        </mask>
        <circle id="path-3" cx="21" cy="21" r="5"></circle>
        <mask id="mask-4" maskContentUnits="userSpaceOnUse" maskUnits="objectBoundingBox" x="-1" y="-1" width="12" height="12">
            <rect x="15" y="15" width="12" height="12" fill="white"></rect>
            <use xlink:href="#path-3" fill="black"></use>
        </mask>
        <circle id="path-5" cx="21" cy="35" r="5"></circle>
        <mask id="mask-6" maskContentUnits="userSpaceOnUse" maskUnits="objectBoundingBox" x="-1" y="-1" width="12" height="12">
            <rect x="15" y="29" width="12" height="12" fill="white"></rect>
            <use xlink:href="#path-5" fill="black"></use>
        </mask>
    </defs>
    <g id="Page-1" stroke="none" stroke-width="1" fill="none" fill-rule="evenodd">
        <g id="icns">
            <g id="company-bl" transform="translate(687.000000, 29.000000)" fill="#0D5CB5">
                <path d="M3,0 L12,0 L12,12 L3,12 L3,0 Z M3,6 L4,6 L4,12 L3,12 L3,6 Z M4,1 L11,1 L11,12 L4,12 L4,1 Z M8,10 L10,10 L10,11 L8,11 L8,10 Z M8,8 L10,8 L10,9 L8,9 L8,8 Z M8,6 L10,6 L10,7 L8,7 L8,6 Z M8,4 L10,4 L10,5 L8,5 L8,4 Z M5,4 L7,4 L7,5 L5,5 L5,4 Z M8,2 L10,2 L10,3 L8,3 L8,2 Z M5,2 L7,2 L7,3 L5,3 L5,2 Z" id="tall"></path>
                <path d="M0,6 L9,6 L9,12 L0,12 L0,6 Z M1,7 L8,7 L8,12 L1,12 L1,7 Z M5,10 L7,10 L7,11 L5.97265625,11 L5,11 L5,10 Z M2,10 L4,10 L4,11 L2.97265625,11 L2,11 L2,10 Z M5,8 L7,8 L7,9 L5,9 L5,8 Z M2,8 L4,8 L4,9 L2,9 L2,8 Z" id="small"></path>
            </g>
            <g id="company-wh" transform="translate(687.000000, 15.000000)" fill="#FFFFFF">
                <path d="M3,0 L12,0 L12,12 L3,12 L3,0 Z M3,6 L4,6 L4,12 L3,12 L3,6 Z M4,1 L11,1 L11,12 L4,12 L4,1 Z M8,10 L10,10 L10,11 L8,11 L8,10 Z M8,8 L10,8 L10,9 L8,9 L8,8 Z M8,6 L10,6 L10,7 L8,7 L8,6 Z M8,4 L10,4 L10,5 L8,5 L8,4 Z M5,4 L7,4 L7,5 L5,5 L5,4 Z M8,2 L10,2 L10,3 L8,3 L8,2 Z M5,2 L7,2 L7,3 L5,3 L5,2 Z" id="tall"></path>
                <path d="M0,6 L9,6 L9,12 L0,12 L0,6 Z M1,7 L8,7 L8,12 L1,12 L1,7 Z M5,10 L7,10 L7,11 L5.97265625,11 L5,11 L5,10 Z M2,10 L4,10 L4,11 L2.97265625,11 L2,11 L2,10 Z M5,8 L7,8 L7,9 L5,9 L5,8 Z M2,8 L4,8 L4,9 L2,9 L2,8 Z" id="small"></path>
            </g>
            <g id="company-bk" transform="translate(687.000000, 1.000000)" fill="#000000">
                <path d="M3,0 L12,0 L12,12 L3,12 L3,0 Z M3,6 L4,6 L4,12 L3,12 L3,6 Z M4,1 L11,1 L11,12 L4,12 L4,1 Z M8,10 L10,10 L10,11 L8,11 L8,10 Z M8,8 L10,8 L10,9 L8,9 L8,8 Z M8,6 L10,6 L10,7 L8,7 L8,6 Z M8,4 L10,4 L10,5 L8,5 L8,4 Z M5,4 L7,4 L7,5 L5,5 L5,4 Z M8,2 L10,2 L10,3 L8,3 L8,2 Z M5,2 L7,2 L7,3 L5,3 L5,2 Z" id="tall"></path>
                <path d="M0,6 L9,6 L9,12 L0,12 L0,6 Z M1,7 L8,7 L8,12 L1,12 L1,7 Z M5,10 L7,10 L7,11 L5.97265625,11 L5,11 L5,10 Z M2,10 L4,10 L4,11 L2.97265625,11 L2,11 L2,10 Z M5,8 L7,8 L7,9 L5,9 L5,8 Z M2,8 L4,8 L4,9 L2,9 L2,8 Z" id="small"></path>
            </g>
            <path d="M2,2 L2,12 L12,12 L12,2 L2,2 Z M4,2 L4,3 L5,3 L5,2 L4,2 Z M9,2 L9,3 L10,3 L10,2 L9,2 Z M4,1 L4,2 L5,2 L5,1 L4,1 Z M9,1 L9,2 L10,2 L10,1 L9,1 Z M3,6 L3,8 L5,8 L5,6 L3,6 Z M6,6 L6,8 L8,8 L8,6 L6,6 Z M9,6 L9,8 L11,8 L11,6 L9,6 Z M3,9 L3,11 L5,11 L5,9 L3,9 Z M6,9 L6,11 L8,11 L8,9 L6,9 Z M9,9 L9,11 L11,11 L11,9 L9,9 Z" id="Rectangle-1" fill="#000000"></path>
            <use id="Oval-1" stroke="#000000" mask="url(#mask-2)" stroke-width="2" xlink:href="#path-1"></use>
            <path d="M20,4 L20,8 L21,8 L21,4 L20,4 Z M21,7 L21,8 L24,8 L24,7 L21,7 Z" id="Rectangle-12" fill="#000000"></path>
            <polygon id="Path-1" fill="#000000" points="33.6402454 6.86627389 31.0155014 9.94738522 29.1331444 8.97080978 29.0768886 12.8480355 33.0350215 12.9042913 32.2136236 10.9757919 35.0580181 8.00087126"></polygon>
            <polygon id="Path-1" fill="#000000" transform="translate(37.766400, 4.020760) rotate(-180.000000) translate(-37.766400, -4.020760) " points="39.3391919 1.0017515 36.7144479 4.08286283 34.8320908 3.10628739 34.775835 6.98351313 38.733968 7.03976893 37.91257 5.11126946 40.7569645 2.13634887"></polygon>
            <circle id="Oval-2" stroke="#000000" stroke-width="2" cx="48" cy="6" r="4"></circle>
            <polygon id="Path-3" fill="#000000" points="50.0492115 9.28829894 53.1307731 12.9332367 54.9781333 12.8755701 55.0806267 11.2381526 52.0639401 7.820953"></polygon>
            <path d="M57,3 L57,5 L60,5 L60,3 L57,3 Z M57,6 L57,8 L60,8 L60,6 L57,6 Z M57,9 L57,11 L60,11 L60,9 L57,9 Z M61,3 L61,5 L69,5 L69,3 L61,3 Z M61,6 L61,8 L69,8 L69,6 L61,6 Z M61,9 L61,11 L69,11 L69,9 L61,9 Z" id="list" fill="#000000"></path>
            <rect id="Rectangle-14" fill="#000000" x="71" y="3" width="3" height="2"></rect>
            <rect id="Rectangle-14" fill="#000000" x="75" y="3" width="8" height="2"></rect>
            <rect id="Rectangle-14" fill="#000000" x="75" y="6" width="8" height="2"></rect>
            <rect id="Rectangle-14" fill="#000000" x="75" y="9" width="8" height="2"></rect>
            <rect id="Rectangle-17" fill="#000000" x="254" y="3" width="10" height="2"></rect>
            <rect id="Rectangle-16" fill="#000000" x="254" y="6" width="8" height="2"></rect>
            <rect id="Rectangle-15" fill="#000000" x="254" y="9" width="6" height="2"></rect>
            <rect id="Rectangle-29" fill="#FFFFFF" x="254" y="17" width="10" height="2"></rect>
            <rect id="Rectangle-26" fill="#FFFFFF" x="254" y="20" width="8" height="2"></rect>
            <rect id="Rectangle-21" fill="#FFFFFF" x="254" y="23" width="6" height="2"></rect>
            <rect id="Rectangle-20" fill="#0D5CB5" x="254" y="31" width="10" height="2"></rect>
            <rect id="Rectangle-19" fill="#0D5CB5" x="254" y="34" width="8" height="2"></rect>
            <rect id="Rectangle-18" fill="#0D5CB5" x="254" y="37" width="6" height="2"></rect>
            <polygon id="Path-4" fill="#000000" points="88.1040888 5.11967113 94.1212534 5.05546932 91.0997555 8.92688887"></polygon>
            <polygon id="Path-5" fill="#000000" points="102.144474 8.88575958 105.023273 5.00882269 107.999378 8.92764124"></polygon>
            <polygon id="Path-6" fill="#000000" points="120.922415 4.0712656 117.067954 7.06429773 120.922414 10.0563022"></polygon>
            <polygon id="Path-7" fill="#000000" points="131.106174 4.08950639 130.949201 9.88802445 135.032056 7.06686686"></polygon>
            <path d="M155.054542,11.9633647 C155.054542,11.9633647 155.205349,9.89316266 157.229821,9.11934186 C159.254293,8.34552104 160.119574,8.88529442 160.119574,7.61460459 C160.119574,6.34391476 158.203777,7.10334857 158.203777,4.81913826 C158.203777,2.53492796 159.80871,1.98693314 161.173687,1.98693343 C162.538664,1.98693368 164.025931,2.84553561 164.025931,4.91034225 C164.025931,6.97514888 162.155864,6.73210979 162.155864,7.52596973 C162.155864,8.31982967 163.360014,8.72832054 165.084925,9.13938104 C166.809836,9.55044147 166.949597,11.9004211 166.949597,11.9004211 L155.054542,11.9633647 Z" id="Path-9" fill="#000000"></path>
            <path d="M168.193923,9.98168234 C168.193923,9.98168234 168.270723,8.94658133 169.301704,8.55967093 C170.332685,8.17276052 170.773338,8.44264721 170.773338,7.80730229 C170.773338,7.17195738 169.7977,7.55167428 169.7977,6.40956913 C169.7977,5.26746398 170.615027,4.99346657 171.310154,4.99346672 C172.005281,4.99346684 172.762686,5.42276781 172.762686,6.45517112 C172.762686,7.48757444 171.810337,7.3660549 171.810337,7.76298487 C171.810337,8.15991483 172.423561,8.36416027 173.301988,8.56969052 C174.180415,8.77522073 174.25159,9.95021054 174.25159,9.95021054 L168.193923,9.98168234 Z" id="Path-9" fill-opacity="0.245433134" fill="#000000"></path>
            <path d="M175.193923,9.98168234 C175.193923,9.98168234 175.270723,8.94658133 176.301704,8.55967093 C177.332685,8.17276052 177.773338,8.44264721 177.773338,7.80730229 C177.773338,7.17195738 176.7977,7.55167428 176.7977,6.40956913 C176.7977,5.26746398 177.615027,4.99346657 178.310154,4.99346672 C179.005281,4.99346684 179.762686,5.42276781 179.762686,6.45517112 C179.762686,7.48757444 178.810337,7.3660549 178.810337,7.76298487 C178.810337,8.15991483 179.423561,8.36416027 180.301988,8.56969052 C181.180415,8.77522073 181.25159,9.95021054 181.25159,9.95021054 L175.193923,9.98168234 Z" id="Path-9" fill-opacity="0.245433134" fill="#000000"></path>
            <path d="M170.210588,10.9706917 C170.210588,10.9706917 170.333469,9.31453012 171.983038,8.69547349 C173.632608,8.07641683 174.337652,8.50823553 174.337652,7.49168367 C174.337652,6.47513181 172.776632,7.08267885 172.776632,5.25531061 C172.776632,3.42794237 174.084355,2.98954651 175.196558,2.98954675 C176.308762,2.98954695 177.520609,3.67642849 177.520609,5.3282738 C177.520609,6.9801191 175.996851,6.78568784 175.996851,7.42077578 C175.996851,8.05586373 176.97801,8.38265643 178.383493,8.71150484 C179.788976,9.04035317 179.902855,10.9203369 179.902855,10.9203369 L170.210588,10.9706917 Z" id="Path-9" fill="#000000"></path>
            <path d="M188,3 L188,11 L190,11 L190,3 L188,3 Z M185,6 L185,8 L188,8 L188,6 L185,6 Z M190,6 L190,8 L193,8 L193,6 L190,6 Z" id="Rectangle-24" fill="#000000"></path>
            <path d="M188,17 L188,25 L190,25 L190,17 L188,17 Z M185,20 L185,22 L188,22 L188,20 L185,20 Z M190,20 L190,22 L193,22 L193,20 L190,20 Z" id="Rectangle-24" fill="#FFFFFF"></path>
            <path d="M188,31 L188,39 L190,39 L190,31 L188,31 Z M185,34 L185,36 L188,36 L188,34 L185,34 Z M190,34 L190,36 L193,36 L193,34 L190,34 Z" id="Rectangle-24" fill="#0D5CB5"></path>
            <rect id="Rectangle-27" fill="#000000" x="199" y="6" width="8" height="2"></rect>
            <path d="M220.749033,2.31519645 C219.721983,1.49222956 218.418475,1 217,1 C213.686291,1 211,3.68629134 211,7 C211,10.3137087 213.686291,13 217,13 C220.294091,13 222.968171,10.3454213 222.999718,7.05878701 L220.999776,7.04281905 C220.976813,9.23223387 219.194848,11 217,11 C214.790861,11 213,9.20913911 213,7 C213,4.79086089 214.790861,3 217,3 C217.854721,3 218.646828,3.26808002 219.296827,3.7247446 L218.100056,4.88636145 L222.023654,5.05380383 L222.044898,1.05739646 L220.749033,2.31519645 Z" id="Oval-3" fill="#000000"></path>
            <path d="M231,13 C234.313709,13 237,10.3137087 237,7 C237,3.68629134 234.313709,1 231,1 C227.686291,1 225,3.68629134 225,7 C225,10.3137087 227.686291,13 231,13 Z M229.950225,8.85360642 C228.681763,7.8790803 227.769805,7.39432773 228.010057,5.83597412 C228.250309,4.27762051 229.175394,4.29249143 229.175394,3.48772509 C229.175394,2.68295875 230.237987,3.14839835 230.237987,3.97054626 C230.237987,4.79269416 230.950824,4.03717586 231.669841,4.03717558 C232.388859,4.03717531 232.886937,4.26854349 232.491989,5.0522588 C232.097041,5.83597411 230.9487,6.17935665 230.9487,6.91556225 C230.9487,7.65176786 229.711712,6.99223413 230.184297,7.79313801 C230.656883,8.59404195 231.156699,9.33642774 231.993911,9.33642759 C232.831123,9.33642734 233.910904,8.53784163 234.357224,9.11741991 C234.803544,9.69699825 233.36126,10.2887444 233.36126,11.0017744 C233.361261,11.7148043 232.190129,12.2468738 231.929985,11.2895358 C231.669841,10.3321978 231.218688,9.82813262 229.950225,8.85360642 Z" id="Oval-5" fill="#000000"></path>
            <path d="M240,2 L240,4 L246,4 L246,2 L240,2 Z M242,4 L242,11 L243,11 L243,4 L242,4 Z M243,6 L243,7 L245,7 L245,6 L243,6 Z M243,10 L243,11 L245,11 L245,10 L243,10 Z M245,5 L245,8 L250,8 L250,5 L245,5 Z M245,9 L245,12 L250,12 L250,9 L245,9 Z" id="Rectangle-28" fill="#000000"></path>
            <path d="M2,16 L2,26 L12,26 L12,16 L2,16 Z M4,16 L4,17 L5,17 L5,16 L4,16 Z M9,16 L9,17 L10,17 L10,16 L9,16 Z M4,15 L4,16 L5,16 L5,15 L4,15 Z M9,15 L9,16 L10,16 L10,15 L9,15 Z M3,20 L3,22 L5,22 L5,20 L3,20 Z M6,20 L6,22 L8,22 L8,20 L6,20 Z M9,20 L9,22 L11,22 L11,20 L9,20 Z M3,23 L3,25 L5,25 L5,23 L3,23 Z M6,23 L6,25 L8,25 L8,23 L6,23 Z M9,23 L9,25 L11,25 L11,23 L9,23 Z" id="Rectangle-1" fill="#FFFFFF"></path>
            <use id="Oval-1" stroke="#FFFFFF" mask="url(#mask-4)" stroke-width="2" xlink:href="#path-3"></use>
            <path d="M20,18 L20,22 L21,22 L21,18 L20,18 Z M21,21 L21,22 L24,22 L24,21 L21,21 Z" id="Rectangle-12" fill="#FFFFFF"></path>
            <polygon id="Path-1" fill="#FFFFFF" points="33.6402454 20.8662739 31.0155014 23.9473852 29.1331444 22.9708098 29.0768886 26.8480355 33.0350215 26.9042913 32.2136236 24.9757919 35.0580181 22.0008713"></polygon>
            <polygon id="Path-1" fill="#FFFFFF" transform="translate(37.766400, 18.020760) rotate(-180.000000) translate(-37.766400, -18.020760) " points="39.3391919 15.0017515 36.7144479 18.0828628 34.8320908 17.1062874 34.775835 20.9835131 38.733968 21.0397689 37.91257 19.1112695 40.7569645 16.1363489"></polygon>
            <circle id="Oval-2" stroke="#FFFFFF" stroke-width="2" cx="48" cy="20" r="4"></circle>
            <polygon id="Path-3" fill="#FFFFFF" points="50.0492115 23.2882989 53.1307731 26.9332367 54.9781333 26.8755701 55.0806267 25.2381526 52.0639401 21.820953"></polygon>
            <rect id="Rectangle-14" fill="#FFFFFF" x="57" y="17" width="3" height="2"></rect>
            <rect id="Rectangle-14" fill="#FFFFFF" x="57" y="20" width="3" height="2"></rect>
            <rect id="Rectangle-14" fill="#FFFFFF" x="57" y="23" width="3" height="2"></rect>
            <rect id="Rectangle-14" fill="#FFFFFF" x="61" y="17" width="8" height="2"></rect>
            <rect id="Rectangle-14" fill="#FFFFFF" x="61" y="20" width="8" height="2"></rect>
            <rect id="Rectangle-14" fill="#FFFFFF" x="61" y="23" width="8" height="2"></rect>
            <rect id="Rectangle-14" fill="#FFFFFF" x="71" y="17" width="3" height="2"></rect>
            <rect id="Rectangle-14" fill="#FFFFFF" x="75" y="17" width="8" height="2"></rect>
            <rect id="Rectangle-14" fill="#FFFFFF" x="75" y="20" width="8" height="2"></rect>
            <rect id="Rectangle-14" fill="#FFFFFF" x="75" y="23" width="8" height="2"></rect>
            <polygon id="Path-4" fill="#FFFFFF" points="88.1040888 19.1196711 94.1212534 19.0554693 91.0997555 22.9268889"></polygon>
            <polygon id="Path-5" fill="#FFFFFF" points="102.144474 22.8857596 105.023273 19.0088227 107.999378 22.9276412"></polygon>
            <polygon id="Path-6" fill="#FFFFFF" points="120.922415 18.0712656 117.067954 21.0642977 120.922414 24.0563022"></polygon>
            <polygon id="Path-7" fill="#FFFFFF" points="131.106174 18.0895064 130.949201 23.8880244 135.032056 21.0668669"></polygon>
            <path d="M155.054542,25.9633647 C155.054542,25.9633647 155.205349,23.8931627 157.229821,23.1193419 C159.254293,22.345521 160.119574,22.8852944 160.119574,21.6146046 C160.119574,20.3439148 158.203777,21.1033486 158.203777,18.8191383 C158.203777,16.534928 159.80871,15.9869331 161.173687,15.9869334 C162.538664,15.9869337 164.025931,16.8455356 164.025931,18.9103422 C164.025931,20.9751489 162.155864,20.7321098 162.155864,21.5259697 C162.155864,22.3198297 163.360014,22.7283205 165.084925,23.139381 C166.809836,23.5504415 166.949597,25.9004211 166.949597,25.9004211 L155.054542,25.9633647 Z" id="Path-9" fill="#FFFFFF"></path>
            <path d="M168.193923,23.9816823 C168.193923,23.9816823 168.270723,22.9465813 169.301704,22.5596709 C170.332685,22.1727605 170.773338,22.4426472 170.773338,21.8073023 C170.773338,21.1719574 169.7977,21.5516743 169.7977,20.4095691 C169.7977,19.267464 170.615027,18.9934666 171.310154,18.9934667 C172.005281,18.9934668 172.762686,19.4227678 172.762686,20.4551711 C172.762686,21.4875744 171.810337,21.3660549 171.810337,21.7629849 C171.810337,22.1599148 172.423561,22.3641603 173.301988,22.5696905 C174.180415,22.7752207 174.25159,23.9502105 174.25159,23.9502105 L168.193923,23.9816823 Z" id="Path-9" fill-opacity="0.25" fill="#FFFFFF"></path>
            <path d="M175.193923,23.9816823 C175.193923,23.9816823 175.270723,22.9465813 176.301704,22.5596709 C177.332685,22.1727605 177.773338,22.4426472 177.773338,21.8073023 C177.773338,21.1719574 176.7977,21.5516743 176.7977,20.4095691 C176.7977,19.267464 177.615027,18.9934666 178.310154,18.9934667 C179.005281,18.9934668 179.762686,19.4227678 179.762686,20.4551711 C179.762686,21.4875744 178.810337,21.3660549 178.810337,21.7629849 C178.810337,22.1599148 179.423561,22.3641603 180.301988,22.5696905 C181.180415,22.7752207 181.25159,23.9502105 181.25159,23.9502105 L175.193923,23.9816823 Z" id="Path-9" fill-opacity="0.25" fill="#FFFFFF"></path>
            <path d="M170.210588,24.9706917 C170.210588,24.9706917 170.333469,23.3145301 171.983038,22.6954735 C173.632608,22.0764168 174.337652,22.5082355 174.337652,21.4916837 C174.337652,20.4751318 172.776632,21.0826789 172.776632,19.2553106 C172.776632,17.4279424 174.084355,16.9895465 175.196558,16.9895467 C176.308762,16.9895469 177.520609,17.6764285 177.520609,19.3282738 C177.520609,20.9801191 175.996851,20.7856878 175.996851,21.4207758 C175.996851,22.0558637 176.97801,22.3826564 178.383493,22.7115048 C179.788976,23.0403532 179.902855,24.9203369 179.902855,24.9203369 L170.210588,24.9706917 Z" id="Path-9" fill="#FFFFFF"></path>
            <rect id="Rectangle-27" fill="#FFFFFF" x="199" y="20" width="8" height="2"></rect>
            <path d="M220.749033,16.3151965 C219.721983,15.4922296 218.418475,15 217,15 C213.686291,15 211,17.6862913 211,21 C211,24.3137087 213.686291,27 217,27 C220.294091,27 222.968171,24.3454213 222.999718,21.058787 L220.999776,21.042819 C220.976813,23.2322339 219.194848,25 217,25 C214.790861,25 213,23.2091391 213,21 C213,18.7908609 214.790861,17 217,17 C217.854721,17 218.646828,17.26808 219.296827,17.7247446 L218.100056,18.8863614 L222.023654,19.0538038 L222.044898,15.0573965 L220.749033,16.3151965 Z" id="Oval-3" fill="#FFFFFF"></path>
            <path d="M231,27 C234.313709,27 237,24.3137087 237,21 C237,17.6862913 234.313709,15 231,15 C227.686291,15 225,17.6862913 225,21 C225,24.3137087 227.686291,27 231,27 Z M229.950225,22.8536064 C228.681763,21.8790803 227.769805,21.3943277 228.010057,19.8359741 C228.250309,18.2776205 229.175394,18.2924914 229.175394,17.4877251 C229.175394,16.6829587 230.237987,17.1483984 230.237987,17.9705463 C230.237987,18.7926942 230.950824,18.0371759 231.669841,18.0371756 C232.388859,18.0371753 232.886937,18.2685435 232.491989,19.0522588 C232.097041,19.8359741 230.9487,20.1793566 230.9487,20.9155623 C230.9487,21.6517679 229.711712,20.9922341 230.184297,21.793138 C230.656883,22.594042 231.156699,23.3364277 231.993911,23.3364276 C232.831123,23.3364273 233.910904,22.5378416 234.357224,23.1174199 C234.803544,23.6969982 233.36126,24.2887444 233.36126,25.0017744 C233.361261,25.7148043 232.190129,26.2468738 231.929985,25.2895358 C231.669841,24.3321978 231.218688,23.8281326 229.950225,22.8536064 Z" id="Oval-5" fill="#FFFFFF"></path>
            <path d="M240,16 L240,18 L246,18 L246,16 L240,16 Z M242,18 L242,25 L243,25 L243,18 L242,18 Z M243,20 L243,21 L245,21 L245,20 L243,20 Z M243,24 L243,25 L245,25 L245,24 L243,24 Z M245,19 L245,22 L250,22 L250,19 L245,19 Z M245,23 L245,26 L250,26 L250,23 L245,23 Z" id="Rectangle-28" fill="#FFFFFF"></path>
            <path d="M2,30 L2,40 L12,40 L12,30 L2,30 Z M4,30 L4,31 L5,31 L5,30 L4,30 Z M9,30 L9,31 L10,31 L10,30 L9,30 Z M4,29 L4,30 L5,30 L5,29 L4,29 Z M9,29 L9,30 L10,30 L10,29 L9,29 Z M3,34 L3,36 L5,36 L5,34 L3,34 Z M6,34 L6,36 L8,36 L8,34 L6,34 Z M9,34 L9,36 L11,36 L11,34 L9,34 Z M3,37 L3,39 L5,39 L5,37 L3,37 Z M6,37 L6,39 L8,39 L8,37 L6,37 Z M9,37 L9,39 L11,39 L11,37 L9,37 Z" id="Rectangle-1" fill="#0D5CB5"></path>
            <use id="Oval-1" stroke="#0D5CB5" mask="url(#mask-6)" stroke-width="2" xlink:href="#path-5"></use>
            <path d="M20,32 L20,36 L21,36 L21,32 L20,32 Z M21,35 L21,36 L24,36 L24,35 L21,35 Z" id="Rectangle-12" fill="#0D5CB5"></path>
            <circle id="Oval-7" stroke="#000000" cx="315.5" cy="7.5" r="5.5"></circle>
            <rect id="Rectangle-117" fill="#000000" transform="translate(311.500000, 2.000000) rotate(-30.000000) translate(-311.500000, -2.000000) " x="310" y="1" width="3" height="2"></rect>
            <rect id="Rectangle-120" fill="#000000" transform="translate(319.500000, 2.000000) rotate(30.000000) translate(-319.500000, -2.000000) " x="318" y="1" width="3" height="2"></rect>
            <rect id="Rectangle-22" fill="#000000" x="315" y="4" width="1" height="4"></rect>
            <circle id="Oval-8" stroke="#FFFFFF" cx="315.5" cy="21.5" r="5.5"></circle>
            <rect id="Rectangle-118" fill="#FFFFFF" transform="translate(311.500000, 16.000000) rotate(-30.000000) translate(-311.500000, -16.000000) " x="310" y="15" width="3" height="2"></rect>
            <rect id="Rectangle-121" fill="#FFFFFF" transform="translate(319.500000, 16.000000) rotate(30.000000) translate(-319.500000, -16.000000) " x="318" y="15" width="3" height="2"></rect>
            <rect id="Rectangle-23" fill="#FFFFFF" x="315" y="18" width="1" height="4"></rect>
            <circle id="Oval-9" stroke="#0D5CB5" cx="315.5" cy="35.5" r="5.5"></circle>
            <rect id="Rectangle-119" fill="#0D5CB5" transform="translate(311.500000, 30.000000) rotate(-30.000000) translate(-311.500000, -30.000000) " x="310" y="29" width="3" height="2"></rect>
            <rect id="Rectangle-122" fill="#0D5CB5" transform="translate(319.500000, 30.000000) rotate(30.000000) translate(-319.500000, -30.000000) " x="318" y="29" width="3" height="2"></rect>
            <rect id="Rectangle-25" fill="#0D5CB5" x="315" y="32" width="1" height="4"></rect>
            <path d="M33.6402454,34.8662739 L31.0155014,37.9473852 L29.1331444,36.9708098 L29.0768886,40.8480355 L33.0350215,40.9042913 L32.2136236,38.9757919 L35.0580181,36.0008713 L33.6402454,34.8662739 Z M36.3597546,35.1337261 L38.9844986,32.0526148 L40.8668556,33.0291902 L40.9231114,29.1519645 L36.9649785,29.0957087 L37.7863764,31.0242081 L34.9419819,33.9991287 L36.3597546,35.1337261 Z" id="Path-1" fill="#0D5CB5"></path>
            <circle id="Oval-2" stroke="#0D5CB5" stroke-width="2" cx="48" cy="34" r="4"></circle>
            <polygon id="Path-3" fill="#0D5CB5" points="50.0492115 37.2882989 53.1307731 40.9332367 54.9781333 40.8755701 55.0806267 39.2381526 52.0639401 35.820953"></polygon>
            <rect id="Rectangle-14" fill="#0D5CB5" x="57" y="31" width="3" height="2"></rect>
            <rect id="Rectangle-14" fill="#0D5CB5" x="57" y="34" width="3" height="2"></rect>
            <rect id="Rectangle-14" fill="#0D5CB5" x="57" y="37" width="3" height="2"></rect>
            <rect id="Rectangle-14" fill="#0D5CB5" x="61" y="31" width="8" height="2"></rect>
            <rect id="Rectangle-14" fill="#0D5CB5" x="61" y="34" width="8" height="2"></rect>
            <rect id="Rectangle-14" fill="#0D5CB5" x="61" y="37" width="8" height="2"></rect>
            <rect id="Rectangle-14" fill="#0D5CB5" x="71" y="31" width="3" height="2"></rect>
            <rect id="Rectangle-14" fill="#0D5CB5" x="75" y="31" width="8" height="2"></rect>
            <rect id="Rectangle-14" fill="#0D5CB5" x="75" y="34" width="8" height="2"></rect>
            <rect id="Rectangle-14" fill="#0D5CB5" x="75" y="37" width="8" height="2"></rect>
            <polygon id="Path-4" fill="#0D5CB5" points="88.1040888 33.1196711 94.1212534 33.0554693 91.0997555 36.9268889"></polygon>
            <polygon id="Path-5" fill="#0D5CB5" points="102.144474 36.8857596 105.023273 33.0088227 107.999378 36.9276412"></polygon>
            <polygon id="Path-6" fill="#0D5CB5" points="120.922415 32.0712656 117.067954 35.0642977 120.922414 38.0563022"></polygon>
            <polygon id="Path-7" fill="#0D5CB5" points="131.106174 32.0895064 130.949201 37.8880244 135.032056 35.0668669"></polygon>
            <path d="M155.054542,39.9633647 C155.054542,39.9633647 155.205349,37.8931627 157.229821,37.1193419 C159.254293,36.345521 160.119574,36.8852944 160.119574,35.6146046 C160.119574,34.3439148 158.203777,35.1033486 158.203777,32.8191383 C158.203777,30.534928 159.80871,29.9869331 161.173687,29.9869334 C162.538664,29.9869337 164.025931,30.8455356 164.025931,32.9103422 C164.025931,34.9751489 162.155864,34.7321098 162.155864,35.5259697 C162.155864,36.3198297 163.360014,36.7283205 165.084925,37.139381 C166.809836,37.5504415 166.949597,39.9004211 166.949597,39.9004211 L155.054542,39.9633647 Z" id="Path-9" fill="#0D5CB5"></path>
            <path d="M168.027776,37.9816823 C168.027776,37.9816823 168.104576,36.9465813 169.135557,36.5596709 C170.166538,36.1727605 170.607191,36.4426472 170.607191,35.8073023 C170.607191,35.1719574 169.631553,35.5516743 169.631553,34.4095691 C169.631553,33.267464 170.44888,32.9934666 171.144007,32.9934667 C171.839134,32.9934668 172.596539,33.4227678 172.596539,34.4551711 C172.596539,35.4875744 171.64419,35.3660549 171.64419,35.7629849 C171.64419,36.1599148 172.257414,36.3641603 173.135841,36.5696905 C174.014268,36.7752207 174.085443,37.9502105 174.085443,37.9502105 L168.027776,37.9816823 Z" id="Path-9" fill-opacity="0.249597886" fill="#0D5CB5"></path>
            <path d="M175.027776,37.9816823 C175.027776,37.9816823 175.104576,36.9465813 176.135557,36.5596709 C177.166538,36.1727605 177.607191,36.4426472 177.607191,35.8073023 C177.607191,35.1719574 176.631553,35.5516743 176.631553,34.4095691 C176.631553,33.267464 177.44888,32.9934666 178.144007,32.9934667 C178.839134,32.9934668 179.596539,33.4227678 179.596539,34.4551711 C179.596539,35.4875744 178.64419,35.3660549 178.64419,35.7629849 C178.64419,36.1599148 179.257414,36.3641603 180.135841,36.5696905 C181.014268,36.7752207 181.085443,37.9502105 181.085443,37.9502105 L175.027776,37.9816823 Z" id="Path-9" fill-opacity="0.249597886" fill="#0D5CB5"></path>
            <path d="M170.044442,38.9706917 C170.044442,38.9706917 170.167322,37.3145301 171.816891,36.6954735 C173.466461,36.0764168 174.171505,36.5082355 174.171505,35.4916837 C174.171505,34.4751318 172.610485,35.0826789 172.610485,33.2553106 C172.610485,31.4279424 173.918208,30.9895465 175.030412,30.9895467 C176.142615,30.9895469 177.354462,31.6764285 177.354462,33.3282738 C177.354462,34.9801191 175.830704,34.7856878 175.830704,35.4207758 C175.830704,36.0558637 176.811863,36.3826564 178.217346,36.7115048 C179.622829,37.0403532 179.736708,38.9203369 179.736708,38.9203369 L170.044442,38.9706917 Z" id="Path-9" fill="#0D5CB5"></path>
            <rect id="Rectangle-27" fill="#0D5CB5" x="199" y="34" width="8" height="2"></rect>
            <path d="M220.749033,30.3151965 C219.721983,29.4922296 218.418475,29 217,29 C213.686291,29 211,31.6862913 211,35 C211,38.3137087 213.686291,41 217,41 C220.294091,41 222.968171,38.3454213 222.999718,35.058787 L220.999776,35.042819 C220.976813,37.2322339 219.194848,39 217,39 C214.790861,39 213,37.2091391 213,35 C213,32.7908609 214.790861,31 217,31 C217.854721,31 218.646828,31.26808 219.296827,31.7247446 L218.100056,32.8863614 L222.023654,33.0538038 L222.044898,29.0573965 L220.749033,30.3151965 Z" id="Oval-3" fill="#0D5CB5"></path>
            <path d="M231,41 C234.313709,41 237,38.3137087 237,35 C237,31.6862913 234.313709,29 231,29 C227.686291,29 225,31.6862913 225,35 C225,38.3137087 227.686291,41 231,41 Z M229.950225,36.8536064 C228.681763,35.8790803 227.769805,35.3943277 228.010057,33.8359741 C228.250309,32.2776205 229.175394,32.2924914 229.175394,31.4877251 C229.175394,30.6829587 230.237987,31.1483984 230.237987,31.9705463 C230.237987,32.7926942 230.950824,32.0371759 231.669841,32.0371756 C232.388859,32.0371753 232.886937,32.2685435 232.491989,33.0522588 C232.097041,33.8359741 230.9487,34.1793566 230.9487,34.9155623 C230.9487,35.6517679 229.711712,34.9922341 230.184297,35.793138 C230.656883,36.594042 231.156699,37.3364277 231.993911,37.3364276 C232.831123,37.3364273 233.910904,36.5378416 234.357224,37.1174199 C234.803544,37.6969982 233.36126,38.2887444 233.36126,39.0017744 C233.361261,39.7148043 232.190129,40.2468738 231.929985,39.2895358 C231.669841,38.3321978 231.218688,37.8281326 229.950225,36.8536064 Z" id="Oval-5" fill="#0D5CB5"></path>
            <path d="M240,30 L240,32 L246,32 L246,30 L240,30 Z M242,32 L242,39 L243,39 L243,32 L242,32 Z M243,34 L243,35 L245,35 L245,34 L243,34 Z M243,38 L243,39 L245,39 L245,38 L243,38 Z M245,33 L245,36 L250,36 L250,33 L245,33 Z M245,37 L245,40 L250,40 L250,37 L245,37 Z" id="Rectangle-28" fill="#0D5CB5"></path>
            <path d="M272.99975,31 C269.0315,31 266.994,35.5 266.994,36 C266.994,35.5 268.5315,40 272.99975,40 C277.0465,40 279.0055,35.5174375 279.0055,36 C279.0055,35.5174375 277.031,31 272.99975,31 L272.99975,31 Z M273.509,38.3125 C271.558,38.3125 270.509,37.08175 270.509,35.5 C270.509,33.9176875 271.558,32.6875 273.509,32.6875 C274.46,32.6875 275.509,33.9176875 275.509,35.5 C275.509,37.08175 274.46,38.3125 273.509,38.3125 L273.509,38.3125 Z M273.509,33.8124973 C272.18,33.8141875 271.509,34.5960625 271.509,36.0624991 C271.509,36.403375 272.18,37.1875 273.509,37.1875 C273.838,37.1875 274.509,36.4028125 274.509,36.0624991 C274.509,34.5955 273.838,33.8108125 273.509,33.8124973 L273.509,33.8124973 Z" id="Shape" fill="#0D5CB5"></path>
            <path d="M272.99975,3 C269.0315,3 266.994,7.5 266.994,8 C266.994,7.5 268.5315,12 272.99975,12 C277.0465,12 279.0055,7.5174375 279.0055,8 C279.0055,7.5174375 277.031,3 272.99975,3 L272.99975,3 Z M273.509,10.3125 C271.558,10.3125 270.509,9.08175 270.509,7.5 C270.509,5.9176875 271.558,4.6875 273.509,4.6875 C274.46,4.6875 275.509,5.9176875 275.509,7.5 C275.509,9.08175 274.46,10.3125 273.509,10.3125 L273.509,10.3125 Z M273.509,5.81249728 C272.18,5.8141875 271.509,6.5960625 271.509,8.06249909 C271.509,8.403375 272.18,9.1875 273.509,9.1875 C273.838,9.1875 274.509,8.4028125 274.509,8.06249909 C274.509,6.5955 273.838,5.8108125 273.509,5.81249728 L273.509,5.81249728 Z" id="Shape-2" fill="#000000"></path>
            <path d="M272.99975,17 C269.0315,17 266.994,21.5 266.994,22 C266.994,21.5 268.5315,26 272.99975,26 C277.0465,26 279.0055,21.5174375 279.0055,22 C279.0055,21.5174375 277.031,17 272.99975,17 L272.99975,17 Z M273.509,24.3125 C271.558,24.3125 270.509,23.08175 270.509,21.5 C270.509,19.9176875 271.558,18.6875 273.509,18.6875 C274.46,18.6875 275.509,19.9176875 275.509,21.5 C275.509,23.08175 274.46,24.3125 273.509,24.3125 L273.509,24.3125 Z M273.509,19.8124973 C272.18,19.8141875 271.509,20.5960625 271.509,22.0624991 C271.509,22.403375 272.18,23.1875 273.509,23.1875 C273.838,23.1875 274.509,22.4028125 274.509,22.0624991 C274.509,20.5955 273.838,19.8108125 273.509,19.8124973 L273.509,19.8124973 Z" id="Shape-5" fill="#FFFFFF"></path>
            <g id="shift" transform="translate(281.000000, 2.000000)" fill="#000000">
                <polygon id="Rectangle-115" points="6 1 5 1 5 9 6 9"></polygon>
                <rect id="Rectangle-113" x="0" y="9" width="11" height="1"></rect>
                <rect id="Rectangle-114" x="0" y="0" width="11" height="1"></rect>
                <polygon id="Path-103" points="5.5 1 3 4 8 4"></polygon>
                <polygon id="Path-104" points="5.5 9 3 6 8 6"></polygon>
            </g>
            <g id="shift-2" transform="translate(281.000000, 16.000000)" fill="#FFFFFF">
                <polygon id="Rectangle-115" points="6 1 5 1 5 9 6 9"></polygon>
                <rect id="Rectangle-113" x="0" y="9" width="11" height="1"></rect>
                <rect id="Rectangle-114" x="0" y="0" width="11" height="1"></rect>
                <polygon id="Path-103" points="5.5 1 3 4 8 4"></polygon>
                <polygon id="Path-104" points="5.5 9 3 6 8 6"></polygon>
            </g>
            <g id="shift-3" transform="translate(281.000000, 30.000000)" fill="#0D5CB5">
                <polygon id="Rectangle-115" points="6 1 5 1 5 9 6 9"></polygon>
                <rect id="Rectangle-113" x="0" y="9" width="11" height="1"></rect>
                <rect id="Rectangle-114" x="0" y="0" width="11" height="1"></rect>
                <polygon id="Path-103" points="5.5 1 3 4 8 4"></polygon>
                <polygon id="Path-104" points="5.5 9 3 6 8 6"></polygon>
            </g>
            <path d="M301.112404,4.55555556 C299.688368,4.55555556 298.398676,5.10555556 297.404538,6 L295.47,4 L295.47,9 L300.306346,9 L298.36106,6.98888889 C299.108007,6.34444444 300.059155,5.94444444 301.112404,5.94444444 C303.0147,5.94444444 304.632189,7.22777778 305.196429,9 L306.47,8.56666667 C305.723053,6.23888889 303.611182,4.55555556 301.112404,4.55555556 L301.112404,4.55555556 Z" id="Shape" fill="#000000"></path>
            <path d="M301.112404,18.5555556 C299.688368,18.5555556 298.398676,19.1055556 297.404538,20 L295.47,18 L295.47,23 L300.306346,23 L298.36106,20.9888889 C299.108007,20.3444444 300.059155,19.9444444 301.112404,19.9444444 C303.0147,19.9444444 304.632189,21.2277778 305.196429,23 L306.47,22.5666667 C305.723053,20.2388889 303.611182,18.5555556 301.112404,18.5555556 L301.112404,18.5555556 Z" id="Shape-3" fill="#FFFFFF"></path>
            <path d="M301.112404,32.5555556 C299.688368,32.5555556 298.398676,33.1055556 297.404538,34 L295.47,32 L295.47,37 L300.306346,37 L298.36106,34.9888889 C299.108007,34.3444444 300.059155,33.9444444 301.112404,33.9444444 C303.0147,33.9444444 304.632189,35.2277778 305.196429,37 L306.47,36.5666667 C305.723053,34.2388889 303.611182,32.5555556 301.112404,32.5555556 L301.112404,32.5555556 Z" id="Shape-4" fill="#0D5CB5"></path>
            <path d="M324,9 L331,2 L335,2 L335,6 L328,13 L324,9 Z M332,3 L332,5 L334,5 L334,3 L332,3 Z" id="Path-67" fill="#000000"></path>
            <path d="M324,23 L331,16 L335,16 L335,20 L328,27 L324,23 Z M332,17 L332,19 L334,19 L334,17 L332,17 Z" id="Path-68" fill="#FFFFFF"></path>
            <path d="M324,37 L331,30 L335,30 L335,34 L328,41 L324,37 Z M332,31 L332,33 L334,33 L334,31 L332,31 Z" id="Path-69" fill="#0D5CB5"></path>
            <path d="M338,11 L338,13 L348,13 L348,11 L338,11 Z M343,11 L339,6 L341,6 L341,1 L345,1 L345,6 L347,6 L343,11 Z" id="import" fill="#000000"></path>
            <path d="M338,25 L338,27 L348,27 L348,25 L338,25 Z M343,25 L339,20 L341,20 L341,15 L345,15 L345,20 L347,20 L343,25 Z" id="import-2" fill="#FFFFFF"></path>
            <path d="M338,39 L338,41 L348,41 L348,39 L338,39 Z M343,39 L339,34 L341,34 L341,29 L345,29 L345,34 L347,34 L343,39 Z" id="import-3" fill="#0D5CB5"></path>
            <path d="M145.160002,9.57421595 L143.292893,7.70710678 L142.585786,7 L144,5.58578644 L144.707107,6.29289322 L146.417081,8.00286755 L149.719131,3.87530495 L150.343826,3.09443614 L151.905564,4.34382624 L151.280869,5.12469505 L147.839998,9.42578405 L147.914214,9.5 L147.24627,10.1679436 L146.656174,10.9055639 L146.574216,10.8399976 L146.5,10.9142136 L145.832056,10.24627 L145.094436,9.65617376 L145.160002,9.57421595 Z" id="Line" fill="#000000"></path>
            <path d="M145.160002,23.574216 L143.292893,21.7071068 L142.585786,21 L144,19.5857864 L144.707107,20.2928932 L146.417081,22.0028676 L149.719131,17.875305 L150.343826,17.0944361 L151.905564,18.3438262 L151.280869,19.124695 L147.839998,23.425784 L147.914214,23.5 L147.24627,24.1679436 L146.656174,24.9055639 L146.574216,24.8399976 L146.5,24.9142136 L145.832056,24.24627 L145.094436,23.6561738 L145.160002,23.574216 Z" id="Line-2" fill="#FFFFFF"></path>
            <path d="M145.160002,37.574216 L143.292893,35.7071068 L142.585786,35 L144,33.5857864 L144.707107,34.2928932 L146.417081,36.0028676 L149.719131,31.875305 L150.343826,31.0944361 L151.905564,32.3438262 L151.280869,33.124695 L147.839998,37.425784 L147.914214,37.5 L147.24627,38.1679436 L146.656174,38.9055639 L146.574216,38.8399976 L146.5,38.9142136 L145.832056,38.24627 L145.094436,37.6561738 L145.160002,37.574216 Z" id="Line-3" fill="#0D5CB5"></path>
            <polygon id="filter" fill="#000000" points="355 12 358 11 358 8 362 3 357 3 351 3 355 8"></polygon>
            <polygon id="filter" fill="#FFFFFF" points="355 26 358 25 358 22 362 17 357 17 351 17 355 22"></polygon>
            <polygon id="filter" fill="#0D5CB5" points="355 40 358 39 358 36 362 31 357 31 351 31 355 36"></polygon>
            <path d="M370.374836,4.12494526 L369.865236,4.30099919 L368.687418,3.84370894 L367.843709,4.68741789 L368.300999,5.86523557 L368.124945,6.37483578 L367,6.9373084 L367,8.06225366 L368.124945,8.62472629 C368.181193,8.79346808 368.240815,8.96558471 368.353309,9.13432649 L367.843709,10.3121442 L368.687418,11.1558531 L369.865236,10.6985629 L370.374836,10.8746168 L370.937308,11.9995621 L372.062254,11.9995621 L372.624726,10.8746168 C372.793468,10.8183695 372.965585,10.7587474 373.134326,10.6462529 L374.312144,11.1035432 L375.155853,10.2598342 L374.698563,9.08201654 C374.75481,8.91327475 374.87068,8.74115813 374.926927,8.57241634 L375.999,8.06281614 L375.999,6.93787088 L374.874054,6.37539825 C374.817807,6.20665646 374.758185,6.03453983 374.64569,5.86579805 L375.155291,4.68798036 L374.311582,3.84427142 L373.133764,4.30156166 L372.624164,4.12550773 L372.061691,3.00056247 L370.936746,3.00056247 L370.374836,4.12494526 Z M371.499781,5.81236315 C372.455985,5.81236315 373.187199,6.54357756 373.187199,7.49978103 C373.187199,8.4559845 372.455985,9.18719892 371.499781,9.18719892 C370.543578,9.18719892 369.812363,8.4559845 369.812363,7.49978103 C369.812363,6.54357756 370.543578,5.81236315 371.499781,5.81236315 L371.499781,5.81236315 Z" id="component-structure-config" fill="#000000"></path>
            <path d="M370.374836,18.1249453 L369.865236,18.3009992 L368.687418,17.8437089 L367.843709,18.6874179 L368.300999,19.8652356 L368.124945,20.3748358 L367,20.9373084 L367,22.0622537 L368.124945,22.6247263 C368.181193,22.7934681 368.240815,22.9655847 368.353309,23.1343265 L367.843709,24.3121442 L368.687418,25.1558531 L369.865236,24.6985629 L370.374836,24.8746168 L370.937308,25.9995621 L372.062254,25.9995621 L372.624726,24.8746168 C372.793468,24.8183695 372.965585,24.7587474 373.134326,24.6462529 L374.312144,25.1035432 L375.155853,24.2598342 L374.698563,23.0820165 C374.75481,22.9132748 374.87068,22.7411581 374.926927,22.5724163 L375.999,22.0628161 L375.999,20.9378709 L374.874054,20.3753982 C374.817807,20.2066565 374.758185,20.0345398 374.64569,19.865798 L375.155291,18.6879804 L374.311582,17.8442714 L373.133764,18.3015617 L372.624164,18.1255077 L372.061691,17.0005625 L370.936746,17.0005625 L370.374836,18.1249453 Z M371.499781,19.8123631 C372.455985,19.8123631 373.187199,20.5435776 373.187199,21.499781 C373.187199,22.4559845 372.455985,23.1871989 371.499781,23.1871989 C370.543578,23.1871989 369.812363,22.4559845 369.812363,21.499781 C369.812363,20.5435776 370.543578,19.8123631 371.499781,19.8123631 L371.499781,19.8123631 Z" id="component-structure-config" fill="#FFFFFF"></path>
            <path d="M370.374836,32.1249453 L369.865236,32.3009992 L368.687418,31.8437089 L367.843709,32.6874179 L368.300999,33.8652356 L368.124945,34.3748358 L367,34.9373084 L367,36.0622537 L368.124945,36.6247263 C368.181193,36.7934681 368.240815,36.9655847 368.353309,37.1343265 L367.843709,38.3121442 L368.687418,39.1558531 L369.865236,38.6985629 L370.374836,38.8746168 L370.937308,39.9995621 L372.062254,39.9995621 L372.624726,38.8746168 C372.793468,38.8183695 372.965585,38.7587474 373.134326,38.6462529 L374.312144,39.1035432 L375.155853,38.2598342 L374.698563,37.0820165 C374.75481,36.9132748 374.87068,36.7411581 374.926927,36.5724163 L375.999,36.0628161 L375.999,34.9378709 L374.874054,34.3753982 C374.817807,34.2066565 374.758185,34.0345398 374.64569,33.865798 L375.155291,32.6879804 L374.311582,31.8442714 L373.133764,32.3015617 L372.624164,32.1255077 L372.061691,31.0005625 L370.936746,31.0005625 L370.374836,32.1249453 Z M371.499781,33.8123631 C372.455985,33.8123631 373.187199,34.5435776 373.187199,35.499781 C373.187199,36.4559845 372.455985,37.1871989 371.499781,37.1871989 C370.543578,37.1871989 369.812363,36.4559845 369.812363,35.499781 C369.812363,34.5435776 370.543578,33.8123631 371.499781,33.8123631 L371.499781,33.8123631 Z" id="component-structure-config" fill="#0D5CB5"></path>
            <path d="M408,2 L408,12 L418,12 L418,2 L408,2 Z M409,6 L409,8 L411,8 L411,6 L409,6 Z M412,6 L412,8 L414,8 L414,6 L412,6 Z M415,6 L415,8 L417,8 L417,6 L415,6 Z M409,9 L409,11 L411,11 L411,9 L409,9 Z M412,9 L412,11 L414,11 L414,9 L412,9 Z M415,9 L415,11 L417,11 L417,9 L415,9 Z" id="table" fill="#000000"></path>
            <path d="M408,16 L408,26 L418,26 L418,16 L408,16 Z M409,20 L409,22 L411,22 L411,20 L409,20 Z M412,20 L412,22 L414,22 L414,20 L412,20 Z M415,20 L415,22 L417,22 L417,20 L415,20 Z M409,23 L409,25 L411,25 L411,23 L409,23 Z M412,23 L412,25 L414,25 L414,23 L412,23 Z M415,23 L415,25 L417,25 L417,23 L415,23 Z" id="table" fill="#FFFFFF"></path>
            <path d="M408,30 L408,40 L418,40 L418,30 L408,30 Z M409,34 L409,36 L411,36 L411,34 L409,34 Z M412,34 L412,36 L414,36 L414,34 L412,34 Z M415,34 L415,36 L417,36 L417,34 L415,34 Z M409,37 L409,39 L411,39 L411,37 L409,37 Z M412,37 L412,39 L414,39 L414,37 L412,37 Z M415,37 L415,39 L417,39 L417,37 L415,37 Z" id="table" fill="#0D5CB5"></path>
            <path d="M423,3 L431,3 L431,6 C430.493397,4.72759637 430.135546,4.07948146 430,4 C429.212879,3.55491236 428.717061,4.45303477 428,4 L428,10 C428.057397,10.9356961 428.142548,11.2608373 428,11 C428.483159,11.5816482 428.837777,11.6618497 429,12 L425,12 C425.173002,11.6618497 425.516841,11.5805644 426,11 C425.857452,11.2554183 425.942603,10.9313608 426,10 L426,4 C425.295874,4.45303477 424.800056,3.55491236 424,4 C423.821339,4.08815202 423.463487,4.73626693 423,6 L423,3 Z" id="text" fill="#000000"></path>
            <path d="M423,17 L431,17 L431,20 C430.493397,18.7275964 430.135546,18.0794815 430,18 C429.212879,17.5549124 428.717061,18.4530348 428,18 L428,24 C428.057397,24.9356961 428.142548,25.2608373 428,25 C428.483159,25.5816482 428.837777,25.6618497 429,26 L425,26 C425.173002,25.6618497 425.516841,25.5805644 426,25 C425.857452,25.2554183 425.942603,24.9313608 426,24 L426,18 C425.295874,18.4530348 424.800056,17.5549124 424,18 C423.821339,18.088152 423.463487,18.7362669 423,20 L423,17 Z" id="text" fill="#FFFFFF"></path>
            <path d="M423,31 L431,31 L431,34 C430.493397,32.7275964 430.135546,32.0794815 430,32 C429.212879,31.5549124 428.717061,32.4530348 428,32 L428,38 C428.057397,38.9356961 428.142548,39.2608373 428,39 C428.483159,39.5816482 428.837777,39.6618497 429,40 L425,40 C425.173002,39.6618497 425.516841,39.5805644 426,39 C425.857452,39.2554183 425.942603,38.9313608 426,38 L426,32 C425.295874,32.4530348 424.800056,31.5549124 424,32 C423.821339,32.088152 423.463487,32.7362669 423,34 L423,31 Z" id="text" fill="#0D5CB5"></path>
            <path d="M436,2 L436,12 L446,12 L446,2 L436,2 Z M440,6 L440,8 L442,8 L442,6 L440,6 Z M443,6 L443,8 L445,8 L445,6 L443,6 Z M440,9 L440,11 L442,11 L442,9 L440,9 Z M443,9 L443,11 L445,11 L445,9 L443,9 Z" id="grid" fill="#000000"></path>
            <path d="M436,16 L436,26 L446,26 L446,16 L436,16 Z M440,20 L440,22 L442,22 L442,20 L440,20 Z M443,20 L443,22 L445,22 L445,20 L443,20 Z M440,23 L440,25 L442,25 L442,23 L440,23 Z M443,23 L443,25 L445,25 L445,23 L443,23 Z" id="grid" fill="#FFFFFF"></path>
            <path d="M436,30 L436,40 L446,40 L446,30 L436,30 Z M440,34 L440,36 L442,36 L442,34 L440,34 Z M443,34 L443,36 L445,36 L445,34 L443,34 Z M440,37 L440,39 L442,39 L442,37 L440,37 Z M443,37 L443,39 L445,39 L445,37 L443,37 Z" id="grid" fill="#0D5CB5"></path>
            <path d="M459.706365,3.75449973 L458.418685,5.04218032 L456.964167,4.89510598 L456.800867,3.42415454 L458.079811,2.14521103 C457.164912,1.83150791 456.109805,2.02351586 455.387331,2.74619799 C454.645718,3.48781047 454.46536,4.58285904 454.763253,5.46176865 L450.150486,10.0741199 C449.896694,10.3281195 449.988642,10.7335621 450.242433,10.9875618 L450.855486,11.6001982 C451.109277,11.8541979 451.51472,11.9459373 451.76872,11.6921457 L456.381071,7.07979444 C457.260396,7.37747956 458.360646,7.20273777 459.10205,6.46091726 C459.831805,5.73116225 460.028806,4.67064599 459.706365,3.75449973 L459.706365,3.75449973 Z" id="custom" fill="#000000"></path>
            <path d="M459.706365,17.7544997 L458.418685,19.0421803 L456.964167,18.895106 L456.800867,17.4241545 L458.079811,16.145211 C457.164912,15.8315079 456.109805,16.0235159 455.387331,16.746198 C454.645718,17.4878105 454.46536,18.582859 454.763253,19.4617687 L450.150486,24.0741199 C449.896694,24.3281195 449.988642,24.7335621 450.242433,24.9875618 L450.855486,25.6001982 C451.109277,25.8541979 451.51472,25.9459373 451.76872,25.6921457 L456.381071,21.0797944 C457.260396,21.3774796 458.360646,21.2027378 459.10205,20.4609173 C459.831805,19.7311622 460.028806,18.670646 459.706365,17.7544997 L459.706365,17.7544997 Z" id="custom" fill="#FFFFFF"></path>
            <path d="M459.706365,31.7544997 L458.418685,33.0421803 L456.964167,32.895106 L456.800867,31.4241545 L458.079811,30.145211 C457.164912,29.8315079 456.109805,30.0235159 455.387331,30.746198 C454.645718,31.4878105 454.46536,32.582859 454.763253,33.4617687 L450.150486,38.0741199 C449.896694,38.3281195 449.988642,38.7335621 450.242433,38.9875618 L450.855486,39.6001982 C451.109277,39.8541979 451.51472,39.9459373 451.76872,39.6921457 L456.381071,35.0797944 C457.260396,35.3774796 458.360646,35.2027378 459.10205,34.4609173 C459.831805,33.7311622 460.028806,32.670646 459.706365,31.7544997 L459.706365,31.7544997 Z" id="custom" fill="#0D5CB5"></path>
            <path d="M469,12 C471.761424,12 474,9.76142375 474,7 C474,4.23857625 471.761424,2 469,2 C466.238576,2 464,4.23857625 464,7 C464,9.76142375 466.238576,12 469,12 Z M466,6 L472,6 L472,8 L466,8 L466,6 Z" id="Oval-19" fill="#000000"></path>
            <path d="M511,13 C514.313708,13 517,10.3137085 517,7 C517,3.6862915 514.313708,1 511,1 C507.686292,1 505,3.6862915 505,7 C505,10.3137085 507.686292,13 511,13 Z M507.464466,9.12132034 L508.87868,10.5355339 L511,8.41421356 L513.12132,10.5355339 L514.535534,9.12132034 L512.414214,7 L514.535534,4.87867966 L513.12132,3.46446609 L511,5.58578644 L508.87868,3.46446609 L507.464466,4.87867966 L509.585786,7 L507.464466,9.12132034 Z" id="close" fill="#000000"></path>
            <path d="M511,27 C514.313708,27 517,24.3137085 517,21 C517,17.6862915 514.313708,15 511,15 C507.686292,15 505,17.6862915 505,21 C505,24.3137085 507.686292,27 511,27 Z M507.464466,23.1213203 L508.87868,24.5355339 L511,22.4142136 L513.12132,24.5355339 L514.535534,23.1213203 L512.414214,21 L514.535534,18.8786797 L513.12132,17.4644661 L511,19.5857864 L508.87868,17.4644661 L507.464466,18.8786797 L509.585786,21 L507.464466,23.1213203 Z" id="close" fill="#FFFFFF"></path>
            <path d="M511,41 C514.313708,41 517,38.3137085 517,35 C517,31.6862915 514.313708,29 511,29 C507.686292,29 505,31.6862915 505,35 C505,38.3137085 507.686292,41 511,41 Z M507.464466,37.1213203 L508.87868,38.5355339 L511,36.4142136 L513.12132,38.5355339 L514.535534,37.1213203 L512.414214,35 L514.535534,32.8786797 L513.12132,31.4644661 L511,33.5857864 L508.87868,31.4644661 L507.464466,32.8786797 L509.585786,35 L507.464466,37.1213203 Z" id="close" fill="#0D5CB5"></path>
            <path d="M469,26 C471.761424,26 474,23.7614237 474,21 C474,18.2385763 471.761424,16 469,16 C466.238576,16 464,18.2385763 464,21 C464,23.7614237 466.238576,26 469,26 Z M466,20 L472,20 L472,22 L466,22 L466,20 Z" id="Oval-19" fill="#FFFFFF"></path>
            <path d="M469,40 C471.761424,40 474,37.7614237 474,35 C474,32.2385763 471.761424,30 469,30 C466.238576,30 464,32.2385763 464,35 C464,37.7614237 466.238576,40 469,40 Z M466,34 L472,34 L472,36 L466,36 L466,34 Z" id="Oval-19" fill="#0D5CB5"></path>
            <path d="M481.66225,9.93368002 L481.15625,10.43618 C480.717625,10.87093 480.00425,10.871305 479.565875,10.43618 C479.355125,10.227055 479.239375,9.94930502 479.239375,9.65405502 C479.239375,9.35880502 479.35525,9.08093002 479.56575,8.87180502 L481.42825,7.02393002 C481.81425,6.64118002 482.540375,6.07755502 483.069625,6.60243002 C483.3125,6.84368002 483.70475,6.84205502 483.945875,6.59930502 C484.187125,6.35655502 484.185625,5.96418002 483.94275,5.72318002 C483.043125,4.83043002 481.7135,4.99543002 480.5555,6.14443002 L478.692875,7.99243002 C478.246,8.43605502 478,9.02605502 478,9.65405502 C478,10.282055 478.246,10.87193 478.693,11.315555 C479.152875,11.771805 479.75675,11.999805 480.360875,11.999805 C480.965125,11.999805 481.56925,11.771805 482.029375,11.315305 L482.53575,10.81268 C482.7785,10.57168 482.779875,10.17943 482.538625,9.93655502 C482.29775,9.69393002 481.905125,9.69255502 481.66225,9.93368002 L481.66225,9.93368002 Z M487.30675,2.75530502 C486.3405,1.79655502 484.9895,1.74455502 484.095,2.63205502 L483.46425,3.25818002 C483.221375,3.49930502 483.219875,3.89143002 483.461125,4.13430502 C483.702375,4.37718002 484.094625,4.37855502 484.3375,4.13743002 L484.968,3.51168002 C485.431375,3.05155502 486.038125,3.24230502 486.433875,3.63493002 C486.644875,3.84405502 486.76075,4.12193002 486.76075,4.41718002 C486.76075,4.71255502 486.64475,4.99043002 486.434125,5.19955502 L484.447,7.17080502 C483.538375,8.07230502 483.112125,7.64918002 482.93025,7.46868002 C482.687375,7.22755502 482.29525,7.22905502 482.054,7.47180502 C481.81275,7.71455502 481.81425,8.10693002 482.057125,8.34793002 C482.47425,8.76193002 482.950375,8.96718002 483.4495,8.96718002 C484.060625,8.96718002 484.706125,8.65943002 485.319875,8.05005502 L487.307,6.07880502 C487.75375,5.63518002 488,5.04505502 488,4.41705502 C488,3.78930502 487.75375,3.19918002 487.30675,2.75530502 L487.30675,2.75530502 Z" id="link" fill="#000000"></path>
            <path d="M481.66225,23.93368 L481.15625,24.43618 C480.717625,24.87093 480.00425,24.871305 479.565875,24.43618 C479.355125,24.227055 479.239375,23.949305 479.239375,23.654055 C479.239375,23.358805 479.35525,23.08093 479.56575,22.871805 L481.42825,21.02393 C481.81425,20.64118 482.540375,20.077555 483.069625,20.60243 C483.3125,20.84368 483.70475,20.842055 483.945875,20.599305 C484.187125,20.356555 484.185625,19.96418 483.94275,19.72318 C483.043125,18.83043 481.7135,18.99543 480.5555,20.14443 L478.692875,21.99243 C478.246,22.436055 478,23.026055 478,23.654055 C478,24.282055 478.246,24.87193 478.693,25.315555 C479.152875,25.771805 479.75675,25.999805 480.360875,25.999805 C480.965125,25.999805 481.56925,25.771805 482.029375,25.315305 L482.53575,24.81268 C482.7785,24.57168 482.779875,24.17943 482.538625,23.936555 C482.29775,23.69393 481.905125,23.692555 481.66225,23.93368 L481.66225,23.93368 Z M487.30675,16.755305 C486.3405,15.796555 484.9895,15.744555 484.095,16.632055 L483.46425,17.25818 C483.221375,17.499305 483.219875,17.89143 483.461125,18.134305 C483.702375,18.37718 484.094625,18.378555 484.3375,18.13743 L484.968,17.51168 C485.431375,17.051555 486.038125,17.242305 486.433875,17.63493 C486.644875,17.844055 486.76075,18.12193 486.76075,18.41718 C486.76075,18.712555 486.64475,18.99043 486.434125,19.199555 L484.447,21.170805 C483.538375,22.072305 483.112125,21.64918 482.93025,21.46868 C482.687375,21.227555 482.29525,21.229055 482.054,21.471805 C481.81275,21.714555 481.81425,22.10693 482.057125,22.34793 C482.47425,22.76193 482.950375,22.96718 483.4495,22.96718 C484.060625,22.96718 484.706125,22.65943 485.319875,22.050055 L487.307,20.078805 C487.75375,19.63518 488,19.045055 488,18.417055 C488,17.789305 487.75375,17.19918 487.30675,16.755305 L487.30675,16.755305 Z" id="link" fill="#FFFFFF"></path>
            <path d="M481.66225,37.93368 L481.15625,38.43618 C480.717625,38.87093 480.00425,38.871305 479.565875,38.43618 C479.355125,38.227055 479.239375,37.949305 479.239375,37.654055 C479.239375,37.358805 479.35525,37.08093 479.56575,36.871805 L481.42825,35.02393 C481.81425,34.64118 482.540375,34.077555 483.069625,34.60243 C483.3125,34.84368 483.70475,34.842055 483.945875,34.599305 C484.187125,34.356555 484.185625,33.96418 483.94275,33.72318 C483.043125,32.83043 481.7135,32.99543 480.5555,34.14443 L478.692875,35.99243 C478.246,36.436055 478,37.026055 478,37.654055 C478,38.282055 478.246,38.87193 478.693,39.315555 C479.152875,39.771805 479.75675,39.999805 480.360875,39.999805 C480.965125,39.999805 481.56925,39.771805 482.029375,39.315305 L482.53575,38.81268 C482.7785,38.57168 482.779875,38.17943 482.538625,37.936555 C482.29775,37.69393 481.905125,37.692555 481.66225,37.93368 L481.66225,37.93368 Z M487.30675,30.755305 C486.3405,29.796555 484.9895,29.744555 484.095,30.632055 L483.46425,31.25818 C483.221375,31.499305 483.219875,31.89143 483.461125,32.134305 C483.702375,32.37718 484.094625,32.378555 484.3375,32.13743 L484.968,31.51168 C485.431375,31.051555 486.038125,31.242305 486.433875,31.63493 C486.644875,31.844055 486.76075,32.12193 486.76075,32.41718 C486.76075,32.712555 486.64475,32.99043 486.434125,33.199555 L484.447,35.170805 C483.538375,36.072305 483.112125,35.64918 482.93025,35.46868 C482.687375,35.227555 482.29525,35.229055 482.054,35.471805 C481.81275,35.714555 481.81425,36.10693 482.057125,36.34793 C482.47425,36.76193 482.950375,36.96718 483.4495,36.96718 C484.060625,36.96718 484.706125,36.65943 485.319875,36.050055 L487.307,34.078805 C487.75375,33.63518 488,33.045055 488,32.417055 C488,31.789305 487.75375,31.19918 487.30675,30.755305 L487.30675,30.755305 Z" id="link" fill="#0D5CB5"></path>
            <path d="M391,5 L391,2.99539757 C391,2.4556644 390.551177,2 389.997527,2 L380.002473,2 C379.455761,2 379,2.44565467 379,2.99539757 L379,11.0046024 C379,11.5443356 379.448823,12 380.002473,12 L384.915137,12 C384.898396,11.596026 384.908764,11.1824727 385,11 C385.127466,10.7450684 386,11 386,11 L386,9.93190382 L380.054542,9.96336467 C380.054542,9.96336467 380.155276,8.58054603 381.507548,8.06366226 C382.859821,7.54677848 383.437797,7.9073272 383.437797,7.05855323 C383.437797,6.20977926 382.158115,6.71705305 382.158115,5.19128476 C382.158115,3.66551648 383.230151,3.29947614 384.141905,3.29947633 C385.053659,3.2994765 386.047099,3.87299094 386.047099,5.25220566 C386.047099,6.63142039 384.797963,6.46907924 384.797963,6.99934841 C384.797963,7.52961759 385.602291,7.80247443 386.754468,8.0770477 C386.79956,8.08779343 386.84303,8.10052283 386.884936,8.11506416 L387,8 L387,5 L391,5 Z M382,11 L383,11 L383,12 L382,12 L382,11 Z M385.945458,12.0130666 L385.945458,13.0130666 L391.945458,13.0130666 L391.945458,12.0130666 L385.945458,12.0130666 Z M388.945458,12.0130666 L386.945458,9.01306657 L387.945458,9.01306657 L387.945458,6.01306657 L389.945458,6.01306657 L389.945458,9.01306657 L390.945458,9.01306657 L388.945458,12.0130666 Z" id="Rectangle-172" fill="#000000"></path>
            <path d="M491,2.99539757 C491,2.44565467 491.455761,2 492.002473,2 L501.997527,2 C502.551177,2 503,2.4556644 503,2.99539757 L503,11.0046024 C503,11.5543453 502.544239,12 501.997527,12 L492.002473,12 C491.448823,12 491,11.5443356 491,11.0046024 L491,2.99539757 Z M494,11 L495,11 L495,12 L494,12 L494,11 Z M499,11 L500,11 L500,12 L499,12 L499,11 Z M493.054542,9.96336467 C493.054542,9.96336467 493.155276,8.58054603 494.507548,8.06366226 C495.859821,7.54677848 496.437797,7.9073272 496.437797,7.05855323 C496.437797,6.20977926 495.158115,6.71705305 495.158115,5.19128476 C495.158115,3.66551648 496.230151,3.29947614 497.141905,3.29947633 C498.053659,3.2994765 499.047099,3.87299094 499.047099,5.25220566 C499.047099,6.63142039 497.797963,6.46907924 497.797963,6.99934841 C497.797963,7.52961759 498.602291,7.80247443 499.754468,8.0770477 C500.906645,8.35162091 501,9.92132067 501,9.92132067 L493.054542,9.96336467 Z" id="Rectangle-172" fill="#000000"></path>
            <path d="M491,16.9953976 C491,16.4456547 491.455761,16 492.002473,16 L501.997527,16 C502.551177,16 503,16.4556644 503,16.9953976 L503,25.0046024 C503,25.5543453 502.544239,26 501.997527,26 L492.002473,26 C491.448823,26 491,25.5443356 491,25.0046024 L491,16.9953976 Z M494,25 L495,25 L495,26 L494,26 L494,25 Z M499,25 L500,25 L500,26 L499,26 L499,25 Z M493.054542,23.9633647 C493.054542,23.9633647 493.155276,22.580546 494.507548,22.0636623 C495.859821,21.5467785 496.437797,21.9073272 496.437797,21.0585532 C496.437797,20.2097793 495.158115,20.7170531 495.158115,19.1912848 C495.158115,17.6655165 496.230151,17.2994761 497.141905,17.2994763 C498.053659,17.2994765 499.047099,17.8729909 499.047099,19.2522057 C499.047099,20.6314204 497.797963,20.4690792 497.797963,20.9993484 C497.797963,21.5296176 498.602291,21.8024744 499.754468,22.0770477 C500.906645,22.3516209 501,23.9213207 501,23.9213207 L493.054542,23.9633647 Z" id="Rectangle-172" fill="#FFFFFF"></path>
            <path d="M491,30.9953976 C491,30.4456547 491.455761,30 492.002473,30 L501.997527,30 C502.551177,30 503,30.4556644 503,30.9953976 L503,39.0046024 C503,39.5543453 502.544239,40 501.997527,40 L492.002473,40 C491.448823,40 491,39.5443356 491,39.0046024 L491,30.9953976 Z M494,39 L495,39 L495,40 L494,40 L494,39 Z M499,39 L500,39 L500,40 L499,40 L499,39 Z M493.054542,37.9633647 C493.054542,37.9633647 493.155276,36.580546 494.507548,36.0636623 C495.859821,35.5467785 496.437797,35.9073272 496.437797,35.0585532 C496.437797,34.2097793 495.158115,34.7170531 495.158115,33.1912848 C495.158115,31.6655165 496.230151,31.2994761 497.141905,31.2994763 C498.053659,31.2994765 499.047099,31.8729909 499.047099,33.2522057 C499.047099,34.6314204 497.797963,34.4690792 497.797963,34.9993484 C497.797963,35.5296176 498.602291,35.8024744 499.754468,36.0770477 C500.906645,36.3516209 501,37.9213207 501,37.9213207 L493.054542,37.9633647 Z" id="Rectangle-172" fill="#0D5CB5"></path>
            <path d="M391,19 L391,16.9953976 C391,16.4556644 390.551177,16 389.997527,16 L380.002473,16 C379.455761,16 379,16.4456547 379,16.9953976 L379,25.0046024 C379,25.5443356 379.448823,26 380.002473,26 L384.915137,26 C384.898396,25.596026 384.908764,25.1824727 385,25 C385.127466,24.7450684 386,25 386,25 L386,23.9319038 L380.054542,23.9633647 C380.054542,23.9633647 380.155276,22.580546 381.507548,22.0636623 C382.859821,21.5467785 383.437797,21.9073272 383.437797,21.0585532 C383.437797,20.2097793 382.158115,20.7170531 382.158115,19.1912848 C382.158115,17.6655165 383.230151,17.2994761 384.141905,17.2994763 C385.053659,17.2994765 386.047099,17.8729909 386.047099,19.2522057 C386.047099,20.6314204 384.797963,20.4690792 384.797963,20.9993484 C384.797963,21.5296176 385.602291,21.8024744 386.754468,22.0770477 C386.79956,22.0877934 386.84303,22.1005228 386.884936,22.1150642 L387,22 L387,19 L391,19 Z M382,25 L383,25 L383,26 L382,26 L382,25 Z M385.945458,26.0130666 L385.945458,27.0130666 L391.945458,27.0130666 L391.945458,26.0130666 L385.945458,26.0130666 Z M388.945458,26.0130666 L386.945458,23.0130666 L387.945458,23.0130666 L387.945458,20.0130666 L389.945458,20.0130666 L389.945458,23.0130666 L390.945458,23.0130666 L388.945458,26.0130666 Z" id="Rectangle-172" fill="#FFFFFF"></path>
            <path d="M391,33 L391,30.9953976 C391,30.4556644 390.551177,30 389.997527,30 L380.002473,30 C379.455761,30 379,30.4456547 379,30.9953976 L379,39.0046024 C379,39.5443356 379.448823,40 380.002473,40 L384.915137,40 C384.898396,39.596026 384.908764,39.1824727 385,39 C385.127466,38.7450684 386,39 386,39 L386,37.9319038 L380.054542,37.9633647 C380.054542,37.9633647 380.155276,36.580546 381.507548,36.0636623 C382.859821,35.5467785 383.437797,35.9073272 383.437797,35.0585532 C383.437797,34.2097793 382.158115,34.7170531 382.158115,33.1912848 C382.158115,31.6655165 383.230151,31.2994761 384.141905,31.2994763 C385.053659,31.2994765 386.047099,31.8729909 386.047099,33.2522057 C386.047099,34.6314204 384.797963,34.4690792 384.797963,34.9993484 C384.797963,35.5296176 385.602291,35.8024744 386.754468,36.0770477 C386.79956,36.0877934 386.84303,36.1005228 386.884936,36.1150642 L387,36 L387,33 L391,33 Z M382,39 L383,39 L383,40 L382,40 L382,39 Z M385.945458,40.0130666 L385.945458,41.0130666 L391.945458,41.0130666 L391.945458,40.0130666 L385.945458,40.0130666 Z M388.945458,40.0130666 L386.945458,37.0130666 L387.945458,37.0130666 L387.945458,34.0130666 L389.945458,34.0130666 L389.945458,37.0130666 L390.945458,37.0130666 L388.945458,40.0130666 Z" id="Rectangle-172" fill="#0D5CB5"></path>
            <path d="M580.559478,3 L577,6.375 L580.559478,9.75 L580.559478,7.519125 C584.700615,7.42701562 584.522994,10.1891719 583.468813,12 C586.070847,9.33327539 585.518294,5.06041992 580.559478,5.18295703" id="Shape-2" fill="#000000"></path>
            <path d="M580.559478,17 L577,20.375 L580.559478,23.75 L580.559478,21.519125 C584.700615,21.4270156 584.522994,24.1891719 583.468813,26 C586.070847,23.3332754 585.518294,19.0604199 580.559478,19.182957" id="Shape-2" fill="#FFFFFF"></path>
            <path d="M580.559478,31 L577,34.375 L580.559478,37.75 L580.559478,35.519125 C584.700615,35.4270156 584.522994,38.1891719 583.468813,40 C586.070847,37.3332754 585.518294,33.0604199 580.559478,33.182957" id="Shape-2" fill="#0D5CB5"></path>
            <path d="M519,3.99961498 C519,2.89525812 519.90195,2 521.00853,2 L528.99147,2 C530.10075,2 531,2.88743329 531,3.99961498 L531,10.000385 C531,11.1047419 530.09805,12 528.99147,12 L521.00853,12 C519.89925,12 519,11.1125667 519,10.000385 L519,3.99961498 Z M522.5,6 L524.285714,8.75 L527,5 L530,10 L520,10 L522.5,6 Z" id="Rectangle-191" fill="#000000"></path>
            <path d="M519,17.999615 C519,16.8952581 519.90195,16 521.00853,16 L528.99147,16 C530.10075,16 531,16.8874333 531,17.999615 L531,24.000385 C531,25.1047419 530.09805,26 528.99147,26 L521.00853,26 C519.89925,26 519,25.1125667 519,24.000385 L519,17.999615 Z M522.5,20 L524.285714,22.75 L527,19 L530,24 L520,24 L522.5,20 Z" id="Rectangle-191" fill="#FFFFFF"></path>
            <path d="M519,31.999615 C519,30.8952581 519.90195,30 521.00853,30 L528.99147,30 C530.10075,30 531,30.8874333 531,31.999615 L531,38.000385 C531,39.1047419 530.09805,40 528.99147,40 L521.00853,40 C519.89925,40 519,39.1125667 519,38.000385 L519,31.999615 Z M522.5,34 L524.285714,36.75 L527,33 L530,38 L520,38 L522.5,34 Z" id="Rectangle-191" fill="#0D5CB5"></path>
            <path d="M544,1 L544,12 L534,12 L534,1 L544,1 Z M535,2 L540,2 L540,5 L543,5 L543,11 L535,11 L535,2 Z M544,4 L544,1 L541,1 L544,4 Z M536,7 L542,7 L542,8 L536,8 L536,7 Z M536,5 L538,5 L538,6 L536,6 L536,5 Z M536,3 L538,3 L538,4 L536,4 L536,3 Z M536,9 L542,9 L542,10 L536,10 L536,9 Z" id="Rectangle-194" fill="#000000"></path>
            <path d="M544,15 L544,26 L534,26 L534,15 L544,15 Z M535,16 L540,16 L540,19 L543,19 L543,25 L535,25 L535,16 Z M544,18 L544,15 L541,15 L544,18 Z M536,21 L542,21 L542,22 L536,22 L536,21 Z M536,19 L538,19 L538,20 L536,20 L536,19 Z M536,17 L538,17 L538,18 L536,18 L536,17 Z M536,23 L542,23 L542,24 L536,24 L536,23 Z" id="Rectangle-194" fill="#FFFFFF"></path>
            <path d="M544,30 L544,41 L534,41 L534,30 L544,30 Z M535,31 L540,31 L540,34 L543,34 L543,40 L535,40 L535,31 Z M544,33 L544,30 L541,30 L544,33 Z M536,36 L542,36 L542,37 L536,37 L536,36 Z M536,34 L538,34 L538,35 L536,35 L536,34 Z M536,32 L538,32 L538,33 L536,33 L536,32 Z M536,38 L542,38 L542,39 L536,39 L536,38 Z" id="Rectangle-194" fill="#0D5CB5"></path>
            <path d="M548,2 L548,12 L558,12 L558,2 L548,2 Z M549,4 L549,11 L557,11 L557,4 L549,4 Z M555,2 L555,3 L556,3 L556,2 L555,2 Z M550,2 L550,3 L551,3 L551,2 L550,2 Z M550,1 L550,2 L551,2 L551,1 L550,1 Z M555,1 L555,2 L556,2 L556,1 L555,1 Z M550,5 L551,5 L551,10 L550,10 L550,5 Z M552,5 L556,5 L556,6 L552,6 L552,5 L552,5 Z M552,7 L556,7 L556,8 L552,8 L552,7 L552,7 Z M552,9 L556,9 L556,10 L552,10 L552,9 L552,9 Z M552,8 L553,8 L553,9 L552,9 L552,8 L552,8 Z M555,6 L556,6 L556,7 L555,7 L555,6 L555,6 Z" id="Rectangle-1" fill="#000000"></path>
            <path d="M548,16 L548,26 L558,26 L558,16 L548,16 Z M549,18 L549,25 L557,25 L557,18 L549,18 Z M555,16 L555,17 L556,17 L556,16 L555,16 Z M550,16 L550,17 L551,17 L551,16 L550,16 Z M550,15 L550,16 L551,16 L551,15 L550,15 Z M555,15 L555,16 L556,16 L556,15 L555,15 Z M550,19 L551,19 L551,24 L550,24 L550,19 Z M552,19 L556,19 L556,20 L552,20 L552,19 L552,19 Z M552,21 L556,21 L556,22 L552,22 L552,21 L552,21 Z M552,23 L556,23 L556,24 L552,24 L552,23 L552,23 Z M552,22 L553,22 L553,23 L552,23 L552,22 L552,22 Z M555,20 L556,20 L556,21 L555,21 L555,20 L555,20 Z" id="Rectangle-1" fill="#FFFFFF"></path>
            <path d="M548,30 L548,40 L558,40 L558,30 L548,30 Z M549,32 L549,39 L557,39 L557,32 L549,32 Z M555,30 L555,31 L556,31 L556,30 L555,30 Z M550,30 L550,31 L551,31 L551,30 L550,30 Z M550,29 L550,30 L551,30 L551,29 L550,29 Z M555,29 L555,30 L556,30 L556,29 L555,29 Z M550,33 L551,33 L551,38 L550,38 L550,33 Z M552,33 L556,33 L556,34 L552,34 L552,33 L552,33 Z M552,35 L556,35 L556,36 L552,36 L552,35 L552,35 Z M552,37 L556,37 L556,38 L552,38 L552,37 L552,37 Z M552,36 L553,36 L553,37 L552,37 L552,36 L552,36 Z M555,34 L556,34 L556,35 L555,35 L555,34 L555,34 Z" id="Rectangle-1" fill="#0D5CB5"></path>
            <path d="M571,6 C571,8.209139 569.209139,10 567,10 C564.790861,10 563,8.209139 563,6 L564,6 C564,7.65685425 565.343146,9 567,9 C568.656854,9 570,7.65685425 570,6 L571,6 L571,6 Z M563,4 L564,4 L564,6 L563,6 L563,4 L563,4 Z M570,4 L571,4 L571,6 L570,6 L570,4 L570,4 Z M566,10 L568,10 L568,12 L566,12 L566,10 L566,10 Z M565,12 L569,12 L569,13 L565,13 L565,12 L565,12 Z M565,3.00591905 C565,1.89808055 565.88773,1 567,1 C568.104569,1 569,1.88655484 569,3.00591905 L569,5.99408095 C569,7.10191945 568.11227,8 567,8 C565.895431,8 565,7.11344516 565,5.99408095 L565,3.00591905 L565,3.00591905 Z" id="Oval-22" fill="#000000"></path>
            <path d="M571,20 C571,22.209139 569.209139,24 567,24 C564.790861,24 563,22.209139 563,20 L564,20 C564,21.6568542 565.343146,23 567,23 C568.656854,23 570,21.6568542 570,20 L571,20 L571,20 Z M563,18 L564,18 L564,20 L563,20 L563,18 L563,18 Z M570,18 L571,18 L571,20 L570,20 L570,18 L570,18 Z M566,24 L568,24 L568,26 L566,26 L566,24 L566,24 Z M565,26 L569,26 L569,27 L565,27 L565,26 L565,26 Z M565,17.0059191 C565,15.8980806 565.88773,15 567,15 C568.104569,15 569,15.8865548 569,17.0059191 L569,19.9940809 C569,21.1019194 568.11227,22 567,22 C565.895431,22 565,21.1134452 565,19.9940809 L565,17.0059191 L565,17.0059191 Z" id="Oval-22" fill="#FFFFFF"></path>
            <path d="M571,34 C571,36.209139 569.209139,38 567,38 C564.790861,38 563,36.209139 563,34 L564,34 C564,35.6568542 565.343146,37 567,37 C568.656854,37 570,35.6568542 570,34 L571,34 L571,34 Z M563,32 L564,32 L564,34 L563,34 L563,32 L563,32 Z M570,32 L571,32 L571,34 L570,34 L570,32 L570,32 Z M566,38 L568,38 L568,40 L566,40 L566,38 L566,38 Z M565,40 L569,40 L569,41 L565,41 L565,40 L565,40 Z M565,31.0059191 C565,29.8980806 565.88773,29 567,29 C568.104569,29 569,29.8865548 569,31.0059191 L569,33.9940809 C569,35.1019194 568.11227,36 567,36 C565.895431,36 565,35.1134452 565,33.9940809 L565,31.0059191 L565,31.0059191 Z" id="Oval-22" fill="#0D5CB5"></path>
            <path d="M591,5 L599,5 L599,7 L591,7 L591,5 L591,5 Z M591,7 C591,8.1045695 592.790861,9 595,9 C597.209139,9 599,8.1045695 599,7 L591,7 L591,7 Z M591,5 C591,6.1045695 592.790861,7 595,7 C597.209139,7 599,6.1045695 599,5 L591,5 L591,5 Z" id="Rectangle-224" fill="#000000"></path>
            <path d="M591,8 L599,8 L599,10 L591,10 L591,8 L591,8 Z M591,10 C591,11.1045695 592.790861,12 595,12 C597.209139,12 599,11.1045695 599,10 L591,10 L591,10 Z M591,8 C591,9.1045695 592.790861,10 595,10 C597.209139,10 599,9.1045695 599,8 L591,8 L591,8 Z" id="Rectangle-224" fill="#000000"></path>
            <path d="M599,4 C599,2.8954305 597.209139,2 595,2 C592.790861,2 591,2.8954305 591,4 L599,4 L599,4 Z" id="Oval-22" fill="#000000"></path>
            <path d="M591,4 C591,5.1045695 592.790861,6 595,6 C597.209139,6 599,5.1045695 599,4 L591,4 L591,4 Z" id="Oval-22" fill="#000000"></path>
            <path d="M591,19 L599,19 L599,21 L591,21 L591,19 L591,19 Z M591,21 C591,22.1045695 592.790861,23 595,23 C597.209139,23 599,22.1045695 599,21 L591,21 L591,21 Z M591,19 C591,20.1045695 592.790861,21 595,21 C597.209139,21 599,20.1045695 599,19 L591,19 L591,19 Z" id="Rectangle-224" fill="#FFFFFF"></path>
            <path d="M591,22 L599,22 L599,24 L591,24 L591,22 L591,22 Z M591,24 C591,25.1045695 592.790861,26 595,26 C597.209139,26 599,25.1045695 599,24 L591,24 L591,24 Z M591,22 C591,23.1045695 592.790861,24 595,24 C597.209139,24 599,23.1045695 599,22 L591,22 L591,22 Z" id="Rectangle-224" fill="#FFFFFF"></path>
            <path d="M599,18 C599,16.8954305 597.209139,16 595,16 C592.790861,16 591,16.8954305 591,18 L599,18 L599,18 Z" id="Oval-22" fill="#FFFFFF"></path>
            <path d="M591,18 C591,19.1045695 592.790861,20 595,20 C597.209139,20 599,19.1045695 599,18 L591,18 L591,18 Z" id="Oval-22" fill="#FFFFFF"></path>
            <path d="M591,33 L599,33 L599,35 L591,35 L591,33 L591,33 Z M591,35 C591,36.1045695 592.790861,37 595,37 C597.209139,37 599,36.1045695 599,35 L591,35 L591,35 Z M591,33 C591,34.1045695 592.790861,35 595,35 C597.209139,35 599,34.1045695 599,33 L591,33 L591,33 Z" id="Rectangle-224" fill="#0D5CB5"></path>
            <path d="M591,36 L599,36 L599,38 L591,38 L591,36 L591,36 Z M591,38 C591,39.1045695 592.790861,40 595,40 C597.209139,40 599,39.1045695 599,38 L591,38 L591,38 Z M591,36 C591,37.1045695 592.790861,38 595,38 C597.209139,38 599,37.1045695 599,36 L591,36 L591,36 Z" id="Rectangle-224" fill="#0D5CB5"></path>
            <path d="M599,32 C599,30.8954305 597.209139,30 595,30 C592.790861,30 591,30.8954305 591,32 L599,32 L599,32 Z" id="Oval-22" fill="#0D5CB5"></path>
            <path d="M591,32 C591,33.1045695 592.790861,34 595,34 C597.209139,34 599,33.1045695 599,32 L591,32 L591,32 Z" id="Oval-22" fill="#0D5CB5"></path>
            <path d="M611.850354,2.08400899 L611,2.91538023 L613.419474,5.33453159 L614.269829,4.50324113 C614.477671,3.81832112 614.291881,3.0736251 613.786047,2.56787157 C613.279566,2.06163338 612.535274,1.87560073 611.850354,2.08400899 Z M612.565822,6.40986184 L610.12898,4 L605.43414,8.71156142 L604,12.5726879 L607.871224,11.1220695 L612.565822,6.40986184 Z" id="Shape" fill="#000000"></path>
            <path d="M611.850354,16.084009 L611,16.9153802 L613.419474,19.3345316 L614.269829,18.5032411 C614.477671,17.8183211 614.291881,17.0736251 613.786047,16.5678716 C613.279566,16.0616334 612.535274,15.8756007 611.850354,16.084009 Z M612.565822,20.4098618 L610.12898,18 L605.43414,22.7115614 L604,26.5726879 L607.871224,25.1220695 L612.565822,20.4098618 Z" id="Shape" fill="#FFFFFF"></path>
            <path d="M611.850354,30.084009 L611,30.9153802 L613.419474,33.3345316 L614.269829,32.5032411 C614.477671,31.8183211 614.291881,31.0736251 613.786047,30.5678716 C613.279566,30.0616334 612.535274,29.8756007 611.850354,30.084009 Z M612.565822,34.4098618 L610.12898,32 L605.43414,36.7115614 L604,40.5726879 L607.871224,39.1220695 L612.565822,34.4098618 Z" id="Shape" fill="#0D5CB5"></path>
            <path d="M400,16 L400,21 L396,21 L400,16 Z M398,26 L398,21 L402,21 L398,26 Z" id="Path" fill="#FFFFFF"></path>
            <path d="M400,30 L400,35 L396,35 L400,30 Z M398,40 L398,35 L402,35 L398,40 Z" id="Path" fill="#0D5CB5"></path>
            <path d="M400,2 L400,7 L396,7 L400,2 Z M398,12 L398,7 L402,7 L398,12 Z" id="Path" fill="#000000"></path>
            <path d="M619.592925,6.04103484 C618.683578,6.22744514 618,7.0278008 618,8.00591905 L618,10.9940809 C618,12.1019194 618.887433,13 619.999615,13 L626.000385,13 C627.104742,13 628,12.1134452 628,10.9940809 L628,8.00591905 C628,7.01993245 627.297049,6.20009861 626.358335,6.03167887 L626.455268,6.03167887 L626.455268,4.17376967 C626.455268,2.38010132 624.841907,0.990447957 622.984519,0.990448193 C621.18219,0.990448465 619.892739,1.93272648 619.618716,3.67649086 C619.491513,4.48595503 619.491513,5.22931037 619.569199,5.86693399 C619.57701,5.9310429 619.585022,5.98916354 619.592925,6.04103484 Z M624.455268,6 L620.751203,6 L621.583429,5.81769019 C621.578788,5.79650652 621.567363,5.73047697 621.554518,5.62504958 C621.498001,5.16117317 621.498001,4.60085528 621.59447,3.98696977 C621.704665,3.28573498 622.108747,2.99044833 622.984519,2.99044819 C623.79812,2.99044809 624.455268,3.55647599 624.455268,4.17376973 L624.455268,6 Z M623.023463,7.97161946 C624.004078,7.97162056 623.935526,8.64873773 623.804573,9.00838777 C623.673619,9.36803784 623.697654,9.65480194 623.804573,10.0486694 C623.911491,10.4425369 624.186498,11.0556714 623.105785,11.0556716 C622.025073,11.0556718 621.970581,10.4308125 622.135852,10.0486694 C622.301123,9.66652641 622.254288,9.28588816 622.135852,9.00838777 C622.017416,8.73088738 622.042849,7.97161837 623.023463,7.97161946 Z" id="Rectangle-1" fill="#000000"></path>
            <path d="M637.751203,6 L639.000385,6 C640.112567,6 641,6.89808055 641,8.00591905 L641,10.9940809 C641,12.1134452 640.104742,13 639.000385,13 L632.999615,13 C631.887433,13 631,12.1019194 631,10.9940809 L631,8.00591905 C631,6.88655484 631.895258,6 632.999615,6 L636.586843,6 C636.580936,5.95903255 636.575011,5.91464134 636.569199,5.86693399 C636.491513,5.22931037 636.491513,4.48595503 636.618716,3.67649086 C636.892739,1.93272648 638.18219,0.990448465 639.984519,0.990448193 C641.841907,0.990447957 643.455268,2.38010132 643.455268,4.17376967 L643.455268,6.03167887 L641.455268,6.03167887 L641.455268,4.17376973 C641.455268,3.55647599 640.79812,2.99044809 639.984519,2.99044819 C639.108747,2.99044833 638.704665,3.28573498 638.59447,3.98696977 C638.498001,4.60085528 638.498001,5.16117317 638.554518,5.62504958 C638.567363,5.73047697 638.578788,5.79650652 638.583429,5.81769019 L637.751203,6 Z M636.023463,7.97161946 C637.004078,7.97162056 636.935526,8.64873773 636.804573,9.00838777 C636.673619,9.36803784 636.697654,9.65480194 636.804573,10.0486694 C636.911491,10.4425369 637.186498,11.0556714 636.105785,11.0556716 C635.025073,11.0556718 634.970581,10.4308125 635.135852,10.0486694 C635.301123,9.66652641 635.254288,9.28588816 635.135852,9.00838777 C635.017416,8.73088738 635.042849,7.97161837 636.023463,7.97161946 Z" id="Rectangle-1" fill="#000000"></path>
            <path d="M637.751203,20 L639.000385,20 C640.112567,20 641,20.8980806 641,22.0059191 L641,24.9940809 C641,26.1134452 640.104742,27 639.000385,27 L632.999615,27 C631.887433,27 631,26.1019194 631,24.9940809 L631,22.0059191 C631,20.8865548 631.895258,20 632.999615,20 L636.586843,20 C636.580936,19.9590325 636.575011,19.9146413 636.569199,19.866934 C636.491513,19.2293104 636.491513,18.485955 636.618716,17.6764909 C636.892739,15.9327265 638.18219,14.9904485 639.984519,14.9904482 C641.841907,14.990448 643.455268,16.3801013 643.455268,18.1737697 L643.455268,20.0316789 L641.455268,20.0316789 L641.455268,18.1737697 C641.455268,17.556476 640.79812,16.9904481 639.984519,16.9904482 C639.108747,16.9904483 638.704665,17.285735 638.59447,17.9869698 C638.498001,18.6008553 638.498001,19.1611732 638.554518,19.6250496 C638.567363,19.730477 638.578788,19.7965065 638.583429,19.8176902 L637.751203,20 Z M636.023463,21.9716195 C637.004078,21.9716206 636.935526,22.6487377 636.804573,23.0083878 C636.673619,23.3680378 636.697654,23.6548019 636.804573,24.0486694 C636.911491,24.4425369 637.186498,25.0556714 636.105785,25.0556716 C635.025073,25.0556718 634.970581,24.4308125 635.135852,24.0486694 C635.301123,23.6665264 635.254288,23.2858882 635.135852,23.0083878 C635.017416,22.7308874 635.042849,21.9716184 636.023463,21.9716195 Z" id="Rectangle-1" fill="#FFFFFF"></path>
            <path d="M637.751203,34 L639.000385,34 C640.112567,34 641,34.8980806 641,36.0059191 L641,38.9940809 C641,40.1134452 640.104742,41 639.000385,41 L632.999615,41 C631.887433,41 631,40.1019194 631,38.9940809 L631,36.0059191 C631,34.8865548 631.895258,34 632.999615,34 L636.586843,34 C636.580936,33.9590325 636.575011,33.9146413 636.569199,33.866934 C636.491513,33.2293104 636.491513,32.485955 636.618716,31.6764909 C636.892739,29.9327265 638.18219,28.9904485 639.984519,28.9904482 C641.841907,28.990448 643.455268,30.3801013 643.455268,32.1737697 L643.455268,34.0316789 L641.455268,34.0316789 L641.455268,32.1737697 C641.455268,31.556476 640.79812,30.9904481 639.984519,30.9904482 C639.108747,30.9904483 638.704665,31.285735 638.59447,31.9869698 C638.498001,32.6008553 638.498001,33.1611732 638.554518,33.6250496 C638.567363,33.730477 638.578788,33.7965065 638.583429,33.8176902 L637.751203,34 Z M636.023463,35.9716195 C637.004078,35.9716206 636.935526,36.6487377 636.804573,37.0083878 C636.673619,37.3680378 636.697654,37.6548019 636.804573,38.0486694 C636.911491,38.4425369 637.186498,39.0556714 636.105785,39.0556716 C635.025073,39.0556718 634.970581,38.4308125 635.135852,38.0486694 C635.301123,37.6665264 635.254288,37.2858882 635.135852,37.0083878 C635.017416,36.7308874 635.042849,35.9716184 636.023463,35.9716195 Z" id="Rectangle-1" fill="#0D5CB5"></path>
            <path d="M619.592925,20.0410348 C618.683578,20.2274451 618,21.0278008 618,22.0059191 L618,24.9940809 C618,26.1019194 618.887433,27 619.999615,27 L626.000385,27 C627.104742,27 628,26.1134452 628,24.9940809 L628,22.0059191 C628,21.0199325 627.297049,20.2000986 626.358335,20.0316789 L626.455268,20.0316789 L626.455268,18.1737697 C626.455268,16.3801013 624.841907,14.990448 622.984519,14.9904482 C621.18219,14.9904485 619.892739,15.9327265 619.618716,17.6764909 C619.491513,18.485955 619.491513,19.2293104 619.569199,19.866934 C619.57701,19.9310429 619.585022,19.9891635 619.592925,20.0410348 Z M624.455268,20 L620.751203,20 L621.583429,19.8176902 C621.578788,19.7965065 621.567363,19.730477 621.554518,19.6250496 C621.498001,19.1611732 621.498001,18.6008553 621.59447,17.9869698 C621.704665,17.285735 622.108747,16.9904483 622.984519,16.9904482 C623.79812,16.9904481 624.455268,17.556476 624.455268,18.1737697 L624.455268,20 Z M623.023463,21.9716195 C624.004078,21.9716206 623.935526,22.6487377 623.804573,23.0083878 C623.673619,23.3680378 623.697654,23.6548019 623.804573,24.0486694 C623.911491,24.4425369 624.186498,25.0556714 623.105785,25.0556716 C622.025073,25.0556718 621.970581,24.4308125 622.135852,24.0486694 C622.301123,23.6665264 622.254288,23.2858882 622.135852,23.0083878 C622.017416,22.7308874 622.042849,21.9716184 623.023463,21.9716195 Z" id="Rectangle-1" fill="#FFFFFF"></path>
            <path d="M619.592925,34.0410348 C618.683578,34.2274451 618,35.0278008 618,36.0059191 L618,38.9940809 C618,40.1019194 618.887433,41 619.999615,41 L626.000385,41 C627.104742,41 628,40.1134452 628,38.9940809 L628,36.0059191 C628,35.0199325 627.297049,34.2000986 626.358335,34.0316789 L626.455268,34.0316789 L626.455268,32.1737697 C626.455268,30.3801013 624.841907,28.990448 622.984519,28.9904482 C621.18219,28.9904485 619.892739,29.9327265 619.618716,31.6764909 C619.491513,32.485955 619.491513,33.2293104 619.569199,33.866934 C619.57701,33.9310429 619.585022,33.9891635 619.592925,34.0410348 Z M624.455268,34 L620.751203,34 L621.583429,33.8176902 C621.578788,33.7965065 621.567363,33.730477 621.554518,33.6250496 C621.498001,33.1611732 621.498001,32.6008553 621.59447,31.9869698 C621.704665,31.285735 622.108747,30.9904483 622.984519,30.9904482 C623.79812,30.9904481 624.455268,31.556476 624.455268,32.1737697 L624.455268,34 Z M623.023463,35.9716195 C624.004078,35.9716206 623.935526,36.6487377 623.804573,37.0083878 C623.673619,37.3680378 623.697654,37.6548019 623.804573,38.0486694 C623.911491,38.4425369 624.186498,39.0556714 623.105785,39.0556716 C622.025073,39.0556718 621.970581,38.4308125 622.135852,38.0486694 C622.301123,37.6665264 622.254288,37.2858882 622.135852,37.0083878 C622.017416,36.7308874 622.042849,35.9716184 623.023463,35.9716195 Z" id="Rectangle-1" fill="#0D5CB5"></path>
            <path d="M655.041093,6.00761387 L655.041093,6 L656,6 L656,5 L655.041093,5 L655.041093,3.99673691 L647.004566,3.99673691 L647.004566,10.989123 L654.307841,10.989123 L652.97717,9.00435078 L653.981736,9.00435078 L653.981736,6.00761387 L655.041093,6.00761387 Z M654.977551,11.9880353 L646,11.9880353 L646,1.9989123 L656.045659,1.9989123 L656.045659,9.00435078 L656.995434,9.00435078 L656.045659,10.4209954 L656.045659,11.9880353 L654.995053,11.9880353 L654.995053,11.9880353 L656.045659,11.9880353 L656.045659,10.989123 L655.664764,10.989123 L654.995053,11.9880353 Z M654.307841,10.989123 L651.02283,10.989123 L651.02283,11.9880353 L654.977551,11.9880353 L654.977551,11.9880353 Z M653.031961,1.9989123 L653.031961,2.99782461 L654.036527,2.99782461 L654.036527,1.9989123 L653.031961,1.9989123 Z M648.009132,1.9989123 L648.009132,2.99782461 L649.013698,2.99782461 L649.013698,1.9989123 L648.009132,1.9989123 Z M648.009132,1 L648.009132,1.9989123 L649.013698,1.9989123 L649.013698,1 L648.009132,1 Z M653.031961,1 L653.031961,1.9989123 L654.036527,1.9989123 L654.036527,1 L653.031961,1 Z M651.972605,12.0010877 L651.972605,13 L658,13 L658,12.0010877 L651.972605,12.0010877 Z" id="Rectangle-1" fill="#000000"></path>
            <path d="M655.041093,20.0076139 L655.041093,20 L656,20 L656,19 L655.041093,19 L655.041093,17.9967369 L647.004566,17.9967369 L647.004566,24.989123 L654.307841,24.989123 L652.97717,23.0043508 L653.981736,23.0043508 L653.981736,20.0076139 L655.041093,20.0076139 Z M654.977551,25.9880353 L646,25.9880353 L646,15.9989123 L656.045659,15.9989123 L656.045659,23.0043508 L656.995434,23.0043508 L656.045659,24.4209954 L656.045659,25.9880353 L654.995053,25.9880353 L654.995053,25.9880353 L656.045659,25.9880353 L656.045659,24.989123 L655.664764,24.989123 L654.995053,25.9880353 Z M654.307841,24.989123 L651.02283,24.989123 L651.02283,25.9880353 L654.977551,25.9880353 L654.977551,25.9880353 Z M653.031961,15.9989123 L653.031961,16.9978246 L654.036527,16.9978246 L654.036527,15.9989123 L653.031961,15.9989123 Z M648.009132,15.9989123 L648.009132,16.9978246 L649.013698,16.9978246 L649.013698,15.9989123 L648.009132,15.9989123 Z M648.009132,15 L648.009132,15.9989123 L649.013698,15.9989123 L649.013698,15 L648.009132,15 Z M653.031961,15 L653.031961,15.9989123 L654.036527,15.9989123 L654.036527,15 L653.031961,15 Z M651.972605,26.0010877 L651.972605,27 L658,27 L658,26.0010877 L651.972605,26.0010877 Z" id="Rectangle-1" fill="#FFFFFF"></path>
            <path d="M655.041093,34.0076139 L655.041093,34 L656,34 L656,33 L655.041093,33 L655.041093,31.9967369 L647.004566,31.9967369 L647.004566,38.989123 L654.307841,38.989123 L652.97717,37.0043508 L653.981736,37.0043508 L653.981736,34.0076139 L655.041093,34.0076139 Z M654.977551,39.9880353 L646,39.9880353 L646,29.9989123 L656.045659,29.9989123 L656.045659,37.0043508 L656.995434,37.0043508 L656.045659,38.4209954 L656.045659,39.9880353 L654.995053,39.9880353 L654.995053,39.9880353 L656.045659,39.9880353 L656.045659,38.989123 L655.664764,38.989123 L654.995053,39.9880353 Z M654.307841,38.989123 L651.02283,38.989123 L651.02283,39.9880353 L654.977551,39.9880353 L654.977551,39.9880353 Z M653.031961,29.9989123 L653.031961,30.9978246 L654.036527,30.9978246 L654.036527,29.9989123 L653.031961,29.9989123 Z M648.009132,29.9989123 L648.009132,30.9978246 L649.013698,30.9978246 L649.013698,29.9989123 L648.009132,29.9989123 Z M648.009132,29 L648.009132,29.9989123 L649.013698,29.9989123 L649.013698,29 L648.009132,29 Z M653.031961,29 L653.031961,29.9989123 L654.036527,29.9989123 L654.036527,29 L653.031961,29 Z M651.972605,40.0010877 L651.972605,41 L658,41 L658,40.0010877 L651.972605,40.0010877 Z" id="Rectangle-1" fill="#0D5CB5"></path>
            <path d="M660,2 L668,2 L668,10 L660,10 L660,2 L660,2 Z M661,3 L667,3 L667,9 L661,9 L661,3 L661,3 Z" id="Rectangle-276" fill="#000000"></path>
            <path d="M668,5 L669,5 L669,11 L663,11 L663,10 L662,10 L662,4 L668,4 L668,5 L668,5 Z M662,4 L670,4 L670,12 L662,12 L662,4 L662,4 Z" id="Rectangle-276" fill="#000000"></path>
            <path d="M660,16 L668,16 L668,24 L660,24 L660,16 L660,16 Z M661,17 L667,17 L667,23 L661,23 L661,17 L661,17 Z" id="Rectangle-276" fill="#FFFFFF"></path>
            <path d="M668,19 L669,19 L669,25 L663,25 L663,24 L662,24 L662,18 L668,18 L668,19 L668,19 Z M662,18 L670,18 L670,26 L662,26 L662,18 L662,18 Z" id="Rectangle-276" fill="#FFFFFF"></path>
            <path d="M660,30 L668,30 L668,38 L660,38 L660,30 L660,30 Z M661,31 L667,31 L667,37 L661,37 L661,31 L661,31 Z" id="Rectangle-276" fill="#0D5CB5"></path>
            <path d="M668,33 L669,33 L669,39 L663,39 L663,38 L662,38 L662,32 L668,32 L668,33 L668,33 Z M662,32 L670,32 L670,40 L662,40 L662,32 L662,32 Z" id="Rectangle-276" fill="#0D5CB5"></path>
            <path d="M674,4.00591905 C674,2.89808055 674.887433,2 675.999615,2 L682.000385,2 C683.104742,2 684,2.88655484 684,4.00591905 L684,6.99408095 C684,8.10191945 683.112567,9 682.000385,9 L675.999615,9 C674.895258,9 674,8.11344516 674,6.99408095 L674,4.00591905 Z M678,9 L678,12 L681,9 L678,9 Z" id="Combined-Shape" fill="#000000"></path>
            <path d="M674,18.0059191 C674,16.8980806 674.887433,16 675.999615,16 L682.000385,16 C683.104742,16 684,16.8865548 684,18.0059191 L684,20.9940809 C684,22.1019194 683.112567,23 682.000385,23 L675.999615,23 C674.895258,23 674,22.1134452 674,20.9940809 L674,18.0059191 Z M678,23 L678,26 L681,23 L678,23 Z" id="Combined-Shape" fill="#FFFFFF"></path>
            <path d="M674,32.0059191 C674,30.8980806 674.887433,30 675.999615,30 L682.000385,30 C683.104742,30 684,30.8865548 684,32.0059191 L684,34.9940809 C684,36.1019194 683.112567,37 682.000385,37 L675.999615,37 C674.895258,37 674,36.1134452 674,34.9940809 L674,32.0059191 Z M678,37 L678,40 L681,37 L678,37 Z" id="Combined-Shape" fill="#0D5CB5"></path>
            <g id="eye-hidden-white" transform="translate(701.000000, 17.000000)">
                <path d="M6.00575,0 C2.0375,0 0,4.5 0,5 C0,4.5 1.5375,9 6.00575,9 C10.0525,9 12.0115,4.5174375 12.0115,5 C12.0115,4.5174375 10.037,0 6.00575,0 L6.00575,0 Z M6.515,7.3125 C4.564,7.3125 3.515,6.08175 3.515,4.5 C3.515,2.9176875 4.564,1.6875 6.515,1.6875 C7.466,1.6875 8.515,2.9176875 8.515,4.5 C8.515,6.08175 7.466,7.3125 6.515,7.3125 L6.515,7.3125 Z M6.515,2.81249728 C5.186,2.8141875 4.515,3.5960625 4.515,5.06249909 C4.515,5.403375 5.186,6.1875 6.515,6.1875 C6.844,6.1875 7.515,5.4028125 7.515,5.06249909 C7.515,3.5955 6.844,2.8108125 6.515,2.81249728 L6.515,2.81249728 Z" id="Shape-5" fill="#FFFFFF"></path>
                <path d="M1,9 L10.5,0.5" id="Line-Copy" stroke="#FFFFFF" stroke-width="2" stroke-linecap="square"></path>
            </g>
            <g id="eye-hidden-blue" transform="translate(701.000000, 31.000000)">
                <path d="M6.00575,0 C2.0375,0 0,4.5 0,5 C0,4.5 1.5375,9 6.00575,9 C10.0525,9 12.0115,4.5174375 12.0115,5 C12.0115,4.5174375 10.037,0 6.00575,0 L6.00575,0 Z M6.515,7.3125 C4.564,7.3125 3.515,6.08175 3.515,4.5 C3.515,2.9176875 4.564,1.6875 6.515,1.6875 C7.466,1.6875 8.515,2.9176875 8.515,4.5 C8.515,6.08175 7.466,7.3125 6.515,7.3125 L6.515,7.3125 Z M6.515,2.81249728 C5.186,2.8141875 4.515,3.5960625 4.515,5.06249909 C4.515,5.403375 5.186,6.1875 6.515,6.1875 C6.844,6.1875 7.515,5.4028125 7.515,5.06249909 C7.515,3.5955 6.844,2.8108125 6.515,2.81249728 L6.515,2.81249728 Z" id="Shape" fill="#0D5CB5"></path>
                <path d="M1,9 L10.5,0.5" id="Line-Copy-2" stroke="#0D5CB5" stroke-width="2" stroke-linecap="square"></path>
            </g>
            <g id="eye-hidden-black" transform="translate(701.000000, 3.000000)">
                <path d="M6.00575,0 C2.0375,0 0,4.5 0,5 C0,4.5 1.5375,9 6.00575,9 C10.0525,9 12.0115,4.5174375 12.0115,5 C12.0115,4.5174375 10.037,0 6.00575,0 L6.00575,0 Z M6.515,7.3125 C4.564,7.3125 3.515,6.08175 3.515,4.5 C3.515,2.9176875 4.564,1.6875 6.515,1.6875 C7.466,1.6875 8.515,2.9176875 8.515,4.5 C8.515,6.08175 7.466,7.3125 6.515,7.3125 L6.515,7.3125 Z M6.515,2.81249728 C5.186,2.8141875 4.515,3.5960625 4.515,5.06249909 C4.515,5.403375 5.186,6.1875 6.515,6.1875 C6.844,6.1875 7.515,5.4028125 7.515,5.06249909 C7.515,3.5955 6.844,2.8108125 6.515,2.81249728 L6.515,2.81249728 Z" id="Shape-2" fill="#000000"></path>
                <path d="M1,9 L10.5,0.5" id="Line" stroke="#000000" stroke-width="2" stroke-linecap="square"></path>
            </g>
        </g>
    </g>
</svg>