<?xml version="1.0" encoding="UTF-8" standalone="no"?>
<svg width="14px" height="14px" viewBox="0 0 14 14" version="1.1" xmlns="http://www.w3.org/2000/svg" xmlns:xlink="http://www.w3.org/1999/xlink" xmlns:sketch="http://www.bohemiancoding.com/sketch/ns">
    <!-- Generator: Sketch 3.3 (11970) - http://www.bohemiancoding.com/sketch -->
    <title>icon-lock-actual</title>
    <desc>Created with Sketch.</desc>
    <defs></defs>
    <g id="Page-1" stroke="none" stroke-width="1" fill="none" fill-rule="evenodd" sketch:type="MSPage">
        <g id="icon-lock-actual" sketch:type="MSArtboardGroup" fill="#1DAEF0">
            <path d="M3.59292484,6.05058664 C2.68357813,6.23699694 2,7.03735261 2,8.01547086 L2,11.0036328 C2,12.1114713 2.88743329,13.0095518 3.99961498,13.0095518 L10.000385,13.0095518 C11.1047419,13.0095518 12,12.122997 12,11.0036328 L12,8.01547086 C12,7.02948426 11.2970494,6.20965042 10.3583351,6.04123068 L10.4552678,6.04123068 L10.4552678,4.18332148 C10.4552677,2.38965313 8.84190657,0.999999764 6.98451892,1 C5.18218999,1.00000027 3.89273884,1.94227829 3.61871578,3.68604266 C3.49151291,4.49550684 3.4915129,5.23886218 3.56919876,5.8764858 C3.57700957,5.9405947 3.58502237,5.99871535 3.59292484,6.05058664 Z M8.45526782,6.00955181 L4.75120339,6.00955181 L5.58342877,5.827242 C5.57878821,5.80605833 5.56736277,5.74002877 5.55451786,5.63460139 C5.49800076,5.17072497 5.49800077,4.61040708 5.59446952,3.99652158 C5.70466474,3.29528679 6.10874688,3.00000013 6.9845192,3 C7.79812015,2.9999999 8.45526778,3.5660278 8.45526782,4.18332154 L8.45526782,6.00955181 Z M7.02346349,7.98117126 C8.00407791,7.98117237 7.935526,8.65828953 7.80457263,9.01793958 C7.67361927,9.37758965 7.69765393,9.66435374 7.80457263,10.0582212 C7.91149132,10.4520887 8.18649805,11.0652232 7.10578542,11.0652234 C6.0250728,11.0652236 5.97058071,10.4403643 6.13585205,10.0582212 C6.3011234,9.67607821 6.25428817,9.29543997 6.13585206,9.01793958 C6.01741594,8.74043919 6.04284908,7.98117018 7.02346349,7.98117126 Z" id="Rectangle-1" sketch:type="MSShapeGroup"></path>
        </g>
    </g>
</svg>