<?xml version="1.0" encoding="UTF-8" standalone="no"?>
<svg width="21px" height="19px" viewBox="0 0 21 19" version="1.1" xmlns="http://www.w3.org/2000/svg" xmlns:xlink="http://www.w3.org/1999/xlink" xmlns:sketch="http://www.bohemiancoding.com/sketch/ns">
    <title>icon-toolbox</title>
    <description>Created with Sketch (http://www.bohemiancoding.com/sketch)</description>
    <defs></defs>
    <g id="Page-1" stroke="none" stroke-width="1" fill="none" fill-rule="evenodd" sketch:type="MSPage">
        <path d="M19,6 L19,9 L2,9 L2,6 L6.0455714,6 C6.35750473,4.30385286 8.23298222,3 10.5,3 C12.7670178,3 14.6424953,4.30385286 14.9544286,6 L14,6 C14,4.89543045 12.4329967,4 10.5,4 C8.56700328,4 7,4.89543045 7,6 L6.0455714,6 L19,6 Z M7.99999424,10 C7.99737587,11.1087175 7.10295126,12 6,12 C4.88936462,12 4.00261031,11.1050209 4.00000575,10 L3,10 L3,12 C3.00000191,12.0016267 3,12.9951185 3,12.9951185 C3,14.102384 3.89339733,15 4.99188419,15 L16.0081158,15 C17.1082031,15 18,14.1061002 18,12.9951185 L18,12.0048815 L18,10 L16.9999942,10 C16.9973759,11.1087175 16.1029513,12 15,12 C13.8893646,12 13.0026103,11.1050209 13.0000058,10 L7.99999424,10 Z M5,10 L5,11 L7,11 L7,10 L5,10 Z M14,10 L14,11 L16,11 L16,10 L14,10 Z" id="Rectangle-1" fill="#D8D8D8" sketch:type="MSShapeGroup"></path>
    </g>
</svg>