<?xml version="1.0" encoding="UTF-8" standalone="no"?>
<svg width="60px" height="15px" viewBox="0 0 60 15" version="1.1" xmlns="http://www.w3.org/2000/svg" xmlns:xlink="http://www.w3.org/1999/xlink" xmlns:sketch="http://www.bohemiancoding.com/sketch/ns">
    <!-- Generator: Sketch 3.1 (8751) - http://www.bohemiancoding.com/sketch -->
    <title>icons-cd-semantics</title>
    <desc>Created with Sketch.</desc>
    <defs></defs>
    <g id="Page-1" stroke="none" stroke-width="1" fill="none" fill-rule="evenodd" sketch:type="MSPage">
        <g id="Group" sketch:type="MSLayerGroup" fill="#FFFFFF">
            <rect id="Rectangle-11" sketch:type="MSShapeGroup" x="20" y="4" width="1" height="4"></rect>
            <rect id="Rectangle-10" sketch:type="MSShapeGroup" x="24" y="4" width="1" height="4"></rect>
            <path d="M18,8 L23,8 L20.5,11 L18,8 Z" id="Path-10" sketch:type="MSShapeGroup"></path>
            <path d="M22,8 L27,8 L24.5,11 L22,8 Z" id="Path-9" sketch:type="MSShapeGroup"></path>
            <rect id="Rectangle-12" sketch:type="MSShapeGroup" transform="translate(35.500000, 9.000000) scale(1, -1) translate(-35.500000, -9.000000) " x="35" y="7" width="1" height="4"></rect>
            <rect id="Rectangle-11" sketch:type="MSShapeGroup" transform="translate(39.500000, 9.000000) scale(1, -1) translate(-39.500000, -9.000000) " x="39" y="7" width="1" height="4"></rect>
            <path d="M33,4 L38,4 L35.5,7 L33,4 Z" id="Path-11" sketch:type="MSShapeGroup" transform="translate(35.500000, 5.500000) scale(1, -1) translate(-35.500000, -5.500000) "></path>
            <path d="M37,4 L42,4 L39.5,7 L37,4 Z" id="Path-10" sketch:type="MSShapeGroup" transform="translate(39.500000, 5.500000) scale(1, -1) translate(-39.500000, -5.500000) "></path>
            <path d="M51.5594779,3 L48,6.375 L51.5594779,9.75 L51.5594779,7.519125 C55.7006152,7.42701562 55.5229936,10.1891719 54.4688134,12 C57.0708474,9.33327539 56.518294,5.06041992 51.5594779,5.18295703" id="Shape-2" sketch:type="MSShapeGroup"></path>
            <path d="M4,5 L5,4 L11,10 L10,11 L4,5 Z" id="Path-8" sketch:type="MSShapeGroup"></path>
            <path d="M4,5 L5,4 L11,10 L10,11 L4,5 Z" id="Path-7" sketch:type="MSShapeGroup" transform="translate(7.500000, 7.500000) scale(-1, 1) translate(-7.500000, -7.500000) "></path>
        </g>
    </g>
</svg>