<?xml version="1.0" encoding="UTF-8" standalone="no"?>
<svg width="32px" height="16px" viewBox="0 0 32 16" version="1.1" xmlns="http://www.w3.org/2000/svg" xmlns:xlink="http://www.w3.org/1999/xlink" xmlns:sketch="http://www.bohemiancoding.com/sketch/ns">
    <!-- Generator: Sketch 3.1 (8751) - http://www.bohemiancoding.com/sketch -->
    <title>icon-inspector</title>
    <desc>Created with Sketch.</desc>
    <defs></defs>
    <g id="Page-1" stroke="none" stroke-width="1" fill="none" fill-rule="evenodd" sketch:type="MSPage">
        <g id="icon-inspector" sketch:type="MSArtboardGroup">
            <g id="Group" sketch:type="MSLayerGroup" transform="translate(16.000000, 0.000000)">
                <circle id="Oval-4" fill="#0059B8" sketch:type="MSShapeGroup" cx="8" cy="8" r="8"></circle>
                <rect id="Rectangle-17" fill="#FFFFFF" sketch:type="MSShapeGroup" x="7" y="6" width="2" height="7"></rect>
                <path d="M6,6 L6,7 L7,8 L7,6 L6,6 Z" id="Rectangle-16" fill="#FFFFFF" sketch:type="MSShapeGroup"></path>
                <path d="M7,11 L6,13 L10,13 L9,11 L7,11 Z" id="Rectangle-15" fill="#FFFFFF" sketch:type="MSShapeGroup"></path>
                <rect id="Rectangle-14" fill="#FFFFFF" sketch:type="MSShapeGroup" x="7" y="3" width="2" height="2"></rect>
            </g>
            <g id="Group-2" sketch:type="MSLayerGroup">
                <circle id="Oval-4" fill="#000000" sketch:type="MSShapeGroup" cx="8" cy="8" r="8"></circle>
                <rect id="Rectangle-17" fill="#FFFFFF" sketch:type="MSShapeGroup" x="7" y="6" width="2" height="7"></rect>
                <path d="M6,6 L6,7 L7,8 L7,6 L6,6 Z" id="Rectangle-16" fill="#FFFFFF" sketch:type="MSShapeGroup"></path>
                <path d="M7,11 L6,13 L10,13 L9,11 L7,11 Z" id="Rectangle-15" fill="#FFFFFF" sketch:type="MSShapeGroup"></path>
                <rect id="Rectangle-14" fill="#FFFFFF" sketch:type="MSShapeGroup" x="7" y="3" width="2" height="2"></rect>
            </g>
        </g>
    </g>
</svg>