<?xml version="1.0" encoding="UTF-8" standalone="no"?>
<svg width="21px" height="18px" viewBox="0 0 21 18" version="1.1" xmlns="http://www.w3.org/2000/svg" xmlns:xlink="http://www.w3.org/1999/xlink" xmlns:sketch="http://www.bohemiancoding.com/sketch/ns">
    <title>icon-clock</title>
    <description>Created with Sketch (http://www.bohemiancoding.com/sketch)</description>
    <defs></defs>
    <g id="Page-1" stroke="none" stroke-width="1" fill="none" fill-rule="evenodd" sketch:type="MSPage">
        <path d="M11,17 C15.4182782,17 19,13.4182782 19,9 C19,4.58172178 15.4182782,1 11,1 C6.58172178,1 3,4.58172178 3,9 C3,13.4182782 6.58172178,17 11,17 Z M11,15 C14.3137087,15 17,12.3137087 17,9 C17,5.68629134 14.3137087,3 11,3 C7.68629134,3 5,5.68629134 5,9 C5,12.3137087 7.68629134,15 11,15 Z" id="Oval-1" fill="#D8D8D8" sketch:type="MSShapeGroup"></path>
        <rect id="Rectangle-1" fill="#D8D8D8" sketch:type="MSShapeGroup" x="10" y="4" width="1" height="5"></rect>
        <path d="M13.6813896,11.6894728 L14.3374487,10.9347633 L11.3186104,8.31052715 L10.6625513,9.06523673 L13.6813896,11.6894728 Z" id="Rectangle-2" fill="#D8D8D8" sketch:type="MSShapeGroup"></path>
    </g>
</svg>