<?xml version="1.0" encoding="UTF-8" standalone="no"?>
<svg width="18px" height="7px" viewBox="0 0 18 7" version="1.1" xmlns="http://www.w3.org/2000/svg" xmlns:xlink="http://www.w3.org/1999/xlink" xmlns:sketch="http://www.bohemiancoding.com/sketch/ns">
    <title>link</title>
    <description>Created with Sketch (http://www.bohemiancoding.com/sketch)</description>
    <defs></defs>
    <g id="Page-1" stroke="none" stroke-width="1" fill="none" fill-rule="evenodd" sketch:type="MSPage">
        <g id="link" sketch:type="MSArtboardGroup" fill="#858585">
            <path d="M17.4398164,3.46127679 C17.4398164,1.65296423 15.9603438,0.173491654 14.1520312,0.173491654 L9.9622411,0.173798981 C8.15392854,0.173798981 6.67445596,1.65327156 6.67476329,3.46127679 L6.67476329,3.53872321 C6.67476329,3.68931348 6.68674905,3.83713781 6.70611065,3.98250352 L8.2396728,3.98250352 C8.20310087,3.84021108 8.18158798,3.69269408 8.18158798,3.53903054 L8.18158798,3.46158411 C8.18158798,2.47998141 8.98033107,1.68123832 9.96193377,1.68123832 L14.1514166,1.68123832 C15.1330193,1.68123832 15.9317624,2.47998141 15.9317624,3.46158411 L15.9317624,3.53903054 C15.9317624,4.52063324 15.1327119,5.31968366 14.1514166,5.31937633 L12.2558231,5.31937633 C12.0139567,5.89008272 11.6589939,6.40116766 11.2201308,6.82650835 L14.1514166,6.82650835 C15.9597291,6.82650835 17.4392017,5.34703577 17.4388944,3.53903054 L17.4398164,3.46127679 Z M11.2938893,3.01749648 L9.7603272,3.01749648 C9.79689913,3.15978892 9.81841202,3.30730592 9.81841202,3.46096946 L9.81841202,3.53841589 C9.81841202,4.52001859 9.01966893,5.31876168 8.03806623,5.31876168 L3.84796878,5.31876168 C2.86636608,5.31876168 2.06762299,4.52001859 2.06762299,3.53841589 L2.06762299,3.46096946 C2.06793032,2.47905943 2.86636608,1.68062367 3.84796878,1.68062367 L5.74356223,1.68062367 C5.98542864,1.10991728 6.34039142,0.598832336 6.7792545,0.173491654 L3.84796878,0.173491654 C2.03965622,0.173491654 0.560183647,1.65296423 0.560183647,3.46127679 L0.560183647,3.53872321 C0.560183647,5.34703577 2.03965622,6.82650835 3.84796878,6.82650835 L8.03745158,6.82650835 C9.84576413,6.82650835 11.3252367,5.34703577 11.3252367,3.53872321 L11.3252367,3.46127679 C11.325544,3.31037919 11.3135583,3.16255486 11.2938893,3.01749648 Z" id="Shape" sketch:type="MSShapeGroup"></path>
        </g>
    </g>
</svg>