<?xml version="1.0" encoding="UTF-8" standalone="no"?>
<svg width="10px" height="12px" viewBox="0 0 10 12" version="1.1" xmlns="http://www.w3.org/2000/svg" xmlns:xlink="http://www.w3.org/1999/xlink" xmlns:sketch="http://www.bohemiancoding.com/sketch/ns">
    <!-- Generator: Sketch 3.0.3 (7892) - http://www.bohemiancoding.com/sketch -->
    <title>lock-white</title>
    <desc>Created with Sketch.</desc>
    <defs>
        <path id="path-1" d="M2.60659263,5.03167887 C2.60659263,5.03167887 2.40528819,4.112745 2.60659264,2.83173032 C2.80789712,1.55071564 3.71634753,0.990448384 4.98451905,0.990448193 C6.28799039,0.990448027 7.45526774,1.94070597 7.45526782,3.17376967 L7.45526782,5.03167887"></path>
    </defs>
    <g id="Page-1" stroke="none" stroke-width="1" fill="none" fill-rule="evenodd" sketch:type="MSPage">
        <g id="lock-white" sketch:type="MSArtboardGroup">
            <path d="M1.99961498,5 C0.895258123,5 0,5.88655484 0,7.00591905 L0,9.99408095 C0,11.1019194 0.88743329,12 1.99961498,12 L8.00038502,12 C9.10474188,12 10,11.1134452 10,9.99408095 L10,7.00591905 C10,5.89808055 9.11256671,5 8.00038502,5 L1.99961498,5 Z M5.02346349,6.97161946 C6.00407791,6.97162056 5.935526,7.64873773 5.80457263,8.00838777 C5.67361927,8.36803784 5.69765393,8.65480194 5.80457263,9.04866943 C5.91149132,9.44253692 6.18649805,10.0556714 5.10578542,10.0556716 C4.0250728,10.0556718 3.97058071,9.43081246 4.13585205,9.04866943 C4.3011234,8.66652641 4.25428817,8.28588816 4.13585206,8.00838777 C4.01741594,7.73088738 4.04284908,6.97161837 5.02346349,6.97161946 Z" id="Rectangle-1" fill="#FFFFFF" sketch:type="MSShapeGroup"></path>
            <g id="Path-1">
                <use stroke="#FFFFFF" stroke-width="2" sketch:type="MSShapeGroup" xlink:href="#path-1"></use>
                <use stroke="none" xlink:href="#path-1"></use>
            </g>
        </g>
    </g>
</svg>