<?xml version="1.0" encoding="UTF-8" standalone="no"?>
<svg width="10px" height="10px" viewBox="0 0 10 10" version="1.1" xmlns="http://www.w3.org/2000/svg" xmlns:xlink="http://www.w3.org/1999/xlink" xmlns:sketch="http://www.bohemiancoding.com/sketch/ns">
    <title>production-white-sm</title>
    <description>Created with Sketch (http://www.bohemiancoding.com/sketch)</description>
    <defs></defs>
    <g id="Page-1" stroke="none" stroke-width="1" fill="none" fill-rule="evenodd" sketch:type="MSPage">
        <g id="production-white-sm" sketch:type="MSArtboardGroup" fill="#FFFFFF">
            <path d="M5,10 C7.76142389,10 10,7.76142389 10,5 C10,2.23857611 7.76142389,0 5,0 C2.23857611,0 0,2.23857611 0,5 C0,7.76142389 2.23857611,10 5,10 Z M3,3 L3,7 L4,7 L4,3 L3,3 Z M4,3 L4,4 L7,4 L7,3 L4,3 Z M6,4 L6,5 L7,5 L7,4 L6,4 Z M4,5 L4,6 L7,6 L7,5 L4,5 Z" id="Oval-1" sketch:type="MSShapeGroup"></path>
        </g>
    </g>
</svg>