<?xml version="1.0" encoding="UTF-8" standalone="no"?>
<svg width="14px" height="14px" viewBox="0 0 14 14" version="1.1" xmlns="http://www.w3.org/2000/svg" xmlns:xlink="http://www.w3.org/1999/xlink" xmlns:sketch="http://www.bohemiancoding.com/sketch/ns">
    <title>production-grey-med</title>
    <description>Created with Sketch (http://www.bohemiancoding.com/sketch)</description>
    <defs></defs>
    <g id="Page-1" stroke="none" stroke-width="1" fill="none" fill-rule="evenodd" sketch:type="MSPage">
        <path d="M7,13 C10.3137087,13 13,10.3137087 13,7 C13,3.68629134 10.3137087,1 7,1 C3.68629134,1 1,3.68629134 1,7 C1,10.3137087 3.68629134,13 7,13 Z" id="Oval-1" fill="#9B9B9B" sketch:type="MSShapeGroup"></path>
        <path d="M5,5 L5,9 L6,9 L6,5 L5,5 Z M6,5 L6,6 L9,6 L9,5 L6,5 Z M8,6 L8,7 L9,7 L9,6 L8,6 Z M6,7 L6,8 L9,8 L9,7 L6,7 Z" id="Rectangle-1" fill="#FFFFFF" sketch:type="MSShapeGroup"></path>
    </g>
</svg>