<?xml version="1.0" encoding="UTF-8" standalone="no"?>
<svg width="16px" height="32px" viewBox="0 0 16 32" version="1.1" xmlns="http://www.w3.org/2000/svg" xmlns:xlink="http://www.w3.org/1999/xlink" xmlns:sketch="http://www.bohemiancoding.com/sketch/ns">
    <title>recurrence</title>
    <description>Created with Sketch (http://www.bohemiancoding.com/sketch)</description>
    <defs></defs>
    <g id="Page-1" stroke="none" stroke-width="1" fill="none" fill-rule="evenodd" sketch:type="MSPage">
        <g id="recurrence" sketch:type="MSArtboardGroup">
            <path d="M8,0 C6.22533688,0 4.6049194,0.660403742 3.37109668,1.74886212 L4.72095558,3.2252651 C5.59879319,2.46205133 6.74543763,2 8,2 C10.7614239,2 13,4.23857611 13,7 C13,7.00218072 11.8725586,7 11.8725586,7 L14.1694336,10.0844727 L16.0805664,7.02441406 L14.999977,7.01814469 C15,3.13400656 11.8659934,0 8,0 Z M8,14 C9.93907965,14 11.694009,13.2115594 12.9616922,11.9377742 L11.5258239,10.5452176 C10.6217795,11.4443473 9.37577962,12 8,12 C5.2549694,12 3.0265972,9.78792377 3.00023632,7.04912423 L4.12744141,7.05566406 L1.83056641,3.97119141 L-0.0805664062,7.03125 L1.00009844,7.03751981 C1.02029736,10.8862503 4.14652086,14 8,14 Z" id="Oval-1" fill="#000000" sketch:type="MSShapeGroup"></path>
            <path d="M8,18 C6.22533688,18 4.6049194,18.6604037 3.37109668,19.7488621 L4.72095558,21.2252651 C5.59879319,20.4620513 6.74543763,20 8,20 C10.7614239,20 13,22.2385761 13,25 C13,25.0021807 11.8725586,25 11.8725586,25 L14.1694336,28.0844727 L16.0805664,25.0244141 L14.999977,25.0181447 C15,21.1340066 11.8659934,18 8,18 Z M8,32 C9.93907965,32 11.694009,31.2115594 12.9616922,29.9377742 L11.5258239,28.5452176 C10.6217795,29.4443473 9.37577962,30 8,30 C5.2549694,30 3.0265972,27.7879238 3.00023632,25.0491242 L4.12744141,25.0556641 L1.83056641,21.9711914 L-0.0805664062,25.03125 L1.00009844,25.0375198 C1.02029736,28.8862503 4.14652086,32 8,32 Z" id="Oval-1" fill="#FFFFFF" sketch:type="MSShapeGroup"></path>
        </g>
    </g>
</svg>