<?xml version="1.0" encoding="UTF-8" standalone="no"?>
<svg width="12px" height="8px" viewBox="0 0 12 8" version="1.1" xmlns="http://www.w3.org/2000/svg" xmlns:xlink="http://www.w3.org/1999/xlink" xmlns:sketch="http://www.bohemiancoding.com/sketch/ns">
    <title>recurrence-xsm-white</title>
    <description>Created with Sketch (http://www.bohemiancoding.com/sketch)</description>
    <defs></defs>
    <g id="Page-1" stroke="none" stroke-width="1" fill="none" fill-rule="evenodd" sketch:type="MSPage">
        <g id="recurrence-xsm-white" sketch:type="MSArtboardGroup" fill="#FFFFFF">
            <path d="M2.12601747,5 C2.57006023,6.72522727 4.13616046,8 6,8 C7.01444654,8 7.94069128,7.62236342 8.64582448,7 L8.64582448,7 L7,7 L7,6.82929431 C6.68722108,6.93984579 6.35063543,7 6,7 C4.6937811,7 3.58254207,6.16519241 3.17070569,5 L2.12601746,5 L2.12601747,5 Z M3.35417552,1 C4.05930872,0.377636581 4.98555346,0 6,0 C7.86383954,0 9.42993977,1.27477273 9.87398253,3 L8.82929431,3 C8.41745793,1.83480759 7.3062189,1 6,1 L3.35417552,1 Z M4.99212646,4.9855957 L0.0158691406,4.9855957 L2.5039978,1.98779297 L4.99212646,4.9855957 Z M6.99700928,3.04138184 L12.006958,3.04138184 L9.50198364,5.97467041 L6.99700928,3.04138184 Z" id="Oval-2" sketch:type="MSShapeGroup"></path>
        </g>
    </g>
</svg>