<?xml version="1.0" encoding="UTF-8" standalone="no"?>
<svg width="16px" height="12px" viewBox="0 0 16 12" version="1.1" xmlns="http://www.w3.org/2000/svg" xmlns:xlink="http://www.w3.org/1999/xlink" xmlns:sketch="http://www.bohemiancoding.com/sketch/ns">
    <title>recurrence-sm-blue</title>
    <description>Created with Sketch (http://www.bohemiancoding.com/sketch)</description>
    <defs></defs>
    <g id="Page-1" stroke="none" stroke-width="1" fill="none" fill-rule="evenodd" sketch:type="MSPage">
        <g id="recurrence-sm-blue" sketch:type="MSArtboardGroup" fill="#0D5CB5">
            <path d="M2.08295843,7 C2.55903648,9.83771345 5.02700355,12 8,12 C10.2208472,12 12.1598787,10.7934042 13.1973069,9 L13.1973069,9 L12.0003663,9 C11.08816,10.2144467 9.63581794,11 8,11 C5.58104196,11 3.5632884,9.28224041 3.1000181,7 L2.08295843,7 L2.08295843,7 Z M2.80269309,3 C3.84012131,1.20659585 5.77915279,0 8,0 C10.9729964,0 13.4409635,2.16228655 13.9170416,5 L12.8999819,5 C12.4367116,2.71775959 10.418958,1 8,1 C6.36418206,1 4.91184003,1.78555328 3.99963373,3 L2.80269309,3 L2.80269309,3 Z M4.99212646,6.9855957 L0.0158691406,6.9855957 L2.5039978,3.98779297 L4.99212646,6.9855957 Z M10.9970093,5.04138184 L16.006958,5.04138184 L13.5019836,7.97467041 L10.9970093,5.04138184 Z" id="Oval-2" sketch:type="MSShapeGroup"></path>
        </g>
    </g>
</svg>