<?xml version="1.0" encoding="UTF-8" standalone="no"?>
<svg width="18px" height="14px" viewBox="0 0 18 14" version="1.1" xmlns="http://www.w3.org/2000/svg" xmlns:xlink="http://www.w3.org/1999/xlink" xmlns:sketch="http://www.bohemiancoding.com/sketch/ns">
    <title>recurrence-med</title>
    <description>Created with Sketch (http://www.bohemiancoding.com/sketch)</description>
    <defs></defs>
    <g id="Page-1" stroke="none" stroke-width="1" fill="none" fill-rule="evenodd" sketch:type="MSPage">
        <g id="recurrence-med" sketch:type="MSArtboardGroup" fill="#000000">
            <path d="M15.9349043,6.04138184 C15.4675752,2.62893612 12.5407982,0 9,0 C7.51206409,0 6.13255819,0.464243816 4.99842722,1.25578654 L4.99842722,1.25578654 L6.44427161,2.70163092 C7.19215803,2.25599326 8.06618378,2 9,2 C10.9305382,2 12.6055323,3.09411385 13.43873,4.69608934 L14.7840225,6.04138184 L11.2457841,6.04138184 L14.6263711,10 L18.006958,6.04138184 L15.9349043,6.04138184 Z M2.06884376,7.9855957 C2.54786382,11.3849096 5.46853819,14 9,14 C10.4879359,14 11.8674418,13.5357562 13.0015728,12.7442135 L13.0015728,12.7442135 L11.5557284,11.2983691 C10.807842,11.7440067 9.93381622,12 9,12 C7.06946178,12 5.3944677,10.9058861 4.56126997,9.30391066 L3.24295502,7.9855957 L6.63183142,7.9855957 L3.32385028,4 L0.0158691406,7.9855957 L2.06884376,7.9855957 L2.06884376,7.9855957 Z" id="Oval-2" sketch:type="MSShapeGroup"></path>
        </g>
    </g>
</svg>