<?xml version="1.0" encoding="UTF-8" standalone="no"?>
<svg width="12px" height="11px" viewBox="0 0 12 11" version="1.1" xmlns="http://www.w3.org/2000/svg" xmlns:xlink="http://www.w3.org/1999/xlink" xmlns:sketch="http://www.bohemiancoding.com/sketch/ns">
    <title>resource-user</title>
    <description>Created with Sketch (http://www.bohemiancoding.com/sketch)</description>
    <defs></defs>
    <g id="Page-1" stroke="none" stroke-width="1" fill="none" fill-rule="evenodd" sketch:type="MSPage">
        <g id="resource-user" sketch:type="MSArtboardGroup" fill="#444444">
            <path d="M9.875,7.92261905 C8.6875,7.46428571 7.5625,7.33333333 7.5625,7.33333333 C7.5625,7.33333333 7.4375,6.08928571 7.875,5.04166667 C8.3125,3.99404762 8.406,3.69966667 8.406,2.91395238 C8.406,2.1282381 8,0 6,0 C3.875,0 3.594,2.12771429 3.594,2.91342857 C3.594,3.69914286 3.688,3.99352381 4.125,5.04114286 C4.562,6.0887619 4.4375,7.33333333 4.4375,7.33333333 C4.4375,7.33333333 3.3125,7.46428571 2.125,7.92261905 C0.9375,8.38095238 0,9.42857143 0,9.42857143 L0,11 L12,11 L12,9.42857143 C12,9.42857143 11.0625,8.38095238 9.875,7.92261905 L9.875,7.92261905 Z" id="Shape" sketch:type="MSShapeGroup"></path>
        </g>
    </g>
</svg>