<?xml version="1.0" encoding="UTF-8" standalone="no"?>
<svg width="11px" height="11px" viewBox="0 0 11 11" version="1.1" xmlns="http://www.w3.org/2000/svg" xmlns:xlink="http://www.w3.org/1999/xlink" xmlns:sketch="http://www.bohemiancoding.com/sketch/ns">
    <title>resource-placeholder</title>
    <description>Created with Sketch (http://www.bohemiancoding.com/sketch)</description>
    <defs></defs>
    <g id="Page-1" stroke="none" stroke-width="1" fill="none" fill-rule="evenodd" sketch:type="MSPage">
        <g id="resource-placeholder" sketch:type="MSArtboardGroup">
            <path d="M5.5,11 C8.53756627,11 11,8.53756627 11,5.5 C11,2.46243373 8.53756627,0 5.5,0 C2.46243373,0 0,2.46243373 0,5.5 C0,8.53756627 2.46243373,11 5.5,11 Z" id="Oval-1" fill="#ED0C19" sketch:type="MSShapeGroup"></path>
            <path d="M7.99648165,5 L8,5 L8,4.02371115 L8.00222892,4.0237319 C8.00222892,4.0237319 7.993128,3.01509245 7,3.00351835 L7,3 L4,3 L4,4 L6.98299634,4 L6.98299634,4 C6.98281179,4.00926092 6.98270866,4.01424093 6.98270866,4.01424093 L7,4.0144019 L7,4.98299634 C6.99073908,4.98281179 6.98575907,4.98270866 6.98575907,4.98270866 L6.9855981,5 L4,5 L4,6 L6.97628885,6 L6.9762681,6.00222892 C6.9762681,6.00222892 7.98490755,5.993128 7.99648165,5 Z M3,3 L3,8 L4,8 L4,3 L3,3 Z" id="Rectangle-18" fill="#FFFFFF" sketch:type="MSShapeGroup"></path>
        </g>
    </g>
</svg>