<?xml version="1.0" encoding="UTF-8" standalone="no"?>
<svg width="13px" height="13px" viewBox="0 0 13 13" version="1.1" xmlns="http://www.w3.org/2000/svg" xmlns:xlink="http://www.w3.org/1999/xlink" xmlns:sketch="http://www.bohemiancoding.com/sketch/ns">
    <title>resources-blue</title>
    <description>Created with Sketch (http://www.bohemiancoding.com/sketch)</description>
    <defs></defs>
    <g id="Page-1" stroke="none" stroke-width="1" fill="none" fill-rule="evenodd" sketch:type="MSPage">
        <g id="resources-blue" sketch:type="MSArtboardGroup">
            <path d="M6.5,12 C9.53756627,12 12,9.53756627 12,6.5 C12,3.46243373 9.53756627,1 6.5,1 C3.46243373,1 1,3.46243373 1,6.5 C1,9.53756627 3.46243373,12 6.5,12 Z" id="Oval-1" fill="#0D5CB5" sketch:type="MSShapeGroup"></path>
            <path d="M7.48814442,7 L5,7 L5,6 L7.9855981,6 L7.98575907,5.98270866 C7.98575907,5.98270866 7.99073908,5.98281179 8,5.98299634 L8,5.0144019 L7.98270866,5.01424093 C7.98270866,5.01424093 7.98281179,5.00926092 7.98299634,5 L7.98299634,5 L5,5 L5,4 L8,4 L8,4.00351835 C8.993128,4.01509245 9.00222892,5.0237319 9.00222892,5.0237319 L9,5.02371115 L9,6 L8.99648165,6 L8.99648165,6 C8.98596508,6.90238581 8.15226306,6.99235068 8,7.00125731 L8,8 L7,8 L7,7 L7.48814442,7 L7.48814442,7 Z M4,4 L4,9 L5,9 L5,4 L4,4 Z M8,8 L8,9 L9,9 L9,8 L8,8 Z" id="Rectangle-18" fill="#FFFFFF" sketch:type="MSShapeGroup"></path>
        </g>
    </g>
</svg>