<?xml version="1.0" encoding="UTF-8" standalone="no"?>
<svg width="11px" height="11px" viewBox="0 0 11 11" version="1.1" xmlns="http://www.w3.org/2000/svg" xmlns:xlink="http://www.w3.org/1999/xlink" xmlns:sketch="http://www.bohemiancoding.com/sketch/ns">
    <title>resource-external</title>
    <description>Created with Sketch (http://www.bohemiancoding.com/sketch)</description>
    <defs></defs>
    <g id="Page-1" stroke="none" stroke-width="1" fill="none" fill-rule="evenodd" sketch:type="MSPage">
        <g id="resource-external" sketch:type="MSArtboardGroup">
            <path d="M5.5,11 C8.53756627,11 11,8.53756627 11,5.5 C11,2.46243373 8.53756627,0 5.5,0 C2.46243373,0 0,2.46243373 0,5.5 C0,8.53756627 2.46243373,11 5.5,11 Z" id="Oval-1" fill="#FD8B25" sketch:type="MSShapeGroup"></path>
            <path d="M3,3 L3,4 L8,4 L8,3 L3,3 Z M3,4 L3,8 L4,8 L4,4 L3,4 Z M4,5 L4,6 L7,6 L7,5 L4,5 Z M4,7 L4,8 L8,8 L8,7 L4,7 Z" id="Rectangle-11" fill="#FFFFFF" sketch:type="MSShapeGroup"></path>
        </g>
    </g>
</svg>