<?xml version="1.0" encoding="UTF-8" standalone="no"?>
<svg width="11px" height="11px" viewBox="0 0 11 11" version="1.1" xmlns="http://www.w3.org/2000/svg" xmlns:xlink="http://www.w3.org/1999/xlink" xmlns:sketch="http://www.bohemiancoding.com/sketch/ns">
    <title>resource-adhoc-financial</title>
    <description>Created with Sketch (http://www.bohemiancoding.com/sketch)</description>
    <defs></defs>
    <g id="Page-1" stroke="none" stroke-width="1" fill="none" fill-rule="evenodd" sketch:type="MSPage">
        <g id="resource-adhoc-financial" sketch:type="MSArtboardGroup">
            <path d="M5.5,11 C8.53756627,11 11,8.53756627 11,5.5 C11,2.46243373 8.53756627,0 5.5,0 C2.46243373,0 0,2.46243373 0,5.5 C0,8.53756627 2.46243373,11 5.5,11 Z" id="Oval-1" fill="#68A81E" sketch:type="MSShapeGroup"></path>
            <path d="M4,3 L4,4 L8,4 L8,3 L4,3 Z M3,4 L3,5 L4,5 L4,4 L3,4 Z M4,5 L4,6 L7,6 L7,5 L4,5 Z M7,6 L7,7 L8,7 L8,6 L7,6 Z M3,7 L3,8 L7,8 L7,7 L3,7 Z M5,2 L5,3 L6,3 L6,2 L5,2 Z M5,4 L5,5 L6,5 L6,4 L5,4 Z M5,6 L5,7 L6,7 L6,6 L5,6 Z M5,8 L5,9 L6,9 L6,8 L5,8 Z" id="Rectangle-1" fill="#FFFFFF" sketch:type="MSShapeGroup"></path>
            <path d="M4.0237319,4.99777108 C4.0237319,4.99777108 3.00341792,5.00697734 3.00341797,6.01729136 C3.00132996,5.99631631 4.01424093,6.01729134 4.01424093,6.01729134 L4.0237319,4.99777108 Z" id="Path-1" fill="#FFFFFF" sketch:type="MSShapeGroup" transform="translate(3.500000, 5.500000) rotate(-90.000000) translate(-3.500000, -5.500000) "></path>
            <path d="M8.0237319,4.99777108 C8.0237319,4.99777108 7.00341792,5.00697734 7.00341797,6.01729136 C7.00132996,5.99631631 8.01424093,6.01729134 8.01424093,6.01729134 L8.0237319,4.99777108 Z" id="Path-1" fill="#FFFFFF" sketch:type="MSShapeGroup" transform="translate(7.500000, 5.500000) rotate(-270.000000) translate(-7.500000, -5.500000) "></path>
            <path d="M8.0237319,6.99777108 C8.0237319,6.99777108 7.00341792,7.00697734 7.00341797,8.01729136 C7.00132996,7.99631631 8.01424093,8.01729134 8.01424093,8.01729134 L8.0237319,6.99777108 Z" id="Path-1" fill="#FFFFFF" sketch:type="MSShapeGroup" transform="translate(7.500000, 7.500000) rotate(-180.000000) translate(-7.500000, -7.500000) "></path>
            <path d="M4.0237319,2.99777108 C4.0237319,2.99777108 3.00341792,3.00697734 3.00341797,4.01729136 C3.00132996,3.99631631 4.01424093,4.01729134 4.01424093,4.01729134 L4.0237319,2.99777108 Z" id="Path-1" fill="#FFFFFF" sketch:type="MSShapeGroup"></path>
        </g>
    </g>
</svg>