<?xml version="1.0" encoding="utf-8"?>
<!-- Generator: Adobe Illustrator 17.0.2, SVG Export Plug-In . SVG Version: 6.00 Build 0)  -->
<!DOCTYPE svg PUBLIC "-//W3C//DTD SVG 1.1//EN" "http://www.w3.org/Graphics/SVG/1.1/DTD/svg11.dtd">
<svg version="1.1" id="Layer_1" xmlns="http://www.w3.org/2000/svg" xmlns:xlink="http://www.w3.org/1999/xlink" x="0px" y="0px"
	 width="12px" height="84px" viewBox="0 0 12 84" enable-background="new 0 0 12 84" xml:space="preserve">
<path fill="#909090" d="M6,0C2.686,0,0,2.686,0,6s2.686,6,6,6s6-2.686,6-6S9.314,0,6,0z M6,11c-2.757,0-5-2.243-5-5s2.243-5,5-5
	s5,2.243,5,5S8.757,11,6,11z M6,3H5v4h4V6H6V3z"/>
<path fill="#B0C1E5" d="M6,18c-3.314,0-6,2.686-6,6s2.686,6,6,6s6-2.686,6-6S9.314,18,6,18z M6,29c-2.757,0-5-2.243-5-5s2.243-5,5-5
	s5,2.243,5,5S8.757,29,6,29z M6,21H5v4h4v-1H6V21z"/>
<path fill="#F0F0F0" d="M6,36c-3.314,0-6,2.686-6,6s2.686,6,6,6s6-2.686,6-6S9.314,36,6,36z M6,47c-2.757,0-5-2.243-5-5s2.243-5,5-5
	s5,2.243,5,5S8.757,47,6,47z M6,39H5v4h4v-1H6V39z"/>
<path fill="#9FCEFF" d="M6,54c-3.314,0-6,2.686-6,6s2.686,6,6,6s6-2.686,6-6S9.314,54,6,54z M6,65c-2.757,0-5-2.243-5-5s2.243-5,5-5
	s5,2.243,5,5S8.757,65,6,65z M6,57H5v4h4v-1H6V57z"/>
<path fill="#D6DFF2" d="M6,72c-3.314,0-6,2.686-6,6s2.686,6,6,6s6-2.686,6-6S9.314,72,6,72z M6,83c-2.757,0-5-2.243-5-5s2.243-5,5-5
	s5,2.243,5,5S8.757,83,6,83z M6,75H5v4h4v-1H6V75z"/>
</svg>
