<?xml version="1.0" encoding="utf-8"?>
<!-- Generator: Adobe Illustrator 17.0.2, SVG Export Plug-In . SVG Version: 6.00 Build 0)  -->
<!DOCTYPE svg PUBLIC "-//W3C//DTD SVG 1.1//EN" "http://www.w3.org/Graphics/SVG/1.1/DTD/svg11.dtd">
<svg version="1.1" id="Layer_1" xmlns="http://www.w3.org/2000/svg" xmlns:xlink="http://www.w3.org/1999/xlink" x="0px" y="0px"
	 width="13px" height="13px" viewBox="0 0 13 13" enable-background="new 0 0 13 13" xml:space="preserve">
<g>
	<polygon fill="#F0F0F0" points="6.5,9.411 3.239,11.233 3.965,7.57 1.224,5.032 4.934,4.59 6.5,1.199 8.066,4.59 11.775,5.032 
		9.035,7.57 9.761,11.234 	"/>
	<path fill="#C5C5C5" d="M6.5,2.391l0.996,2.155L7.73,5.053l0.555,0.066L10.642,5.4L8.9,7.013l-0.41,0.38l0.109,0.548l0.461,2.328
		L6.988,9.111L6.5,8.839L6.012,9.111L3.94,10.269l0.461-2.328L4.51,7.393L4.1,7.013L2.358,5.4l2.357-0.281L5.27,5.053l0.234-0.507
		L6.5,2.391 M6.5,0.007l-1.903,4.12L0.091,4.664l3.33,3.083l-0.882,4.452L6.5,9.984l3.961,2.214L9.58,7.747l3.33-3.083L8.403,4.126
		L6.5,0.007L6.5,0.007z"/>
</g>
</svg>
