<?xml version="1.0" encoding="UTF-8" standalone="no"?>
<svg width="18px" height="18px" viewBox="0 0 18 18" version="1.1" xmlns="http://www.w3.org/2000/svg" xmlns:xlink="http://www.w3.org/1999/xlink" xmlns:sketch="http://www.bohemiancoding.com/sketch/ns">
    <!-- Generator: Sketch 3.1 (8751) - http://www.bohemiancoding.com/sketch -->
    <title>structure</title>
    <desc>Created with Sketch.</desc>
    <defs></defs>
    <g id="Page-1" stroke="none" stroke-width="1" fill="none" fill-rule="evenodd" sketch:type="MSPage">
        <g id="structure" sketch:type="MSArtboardGroup">
            <circle id="Oval-3" stroke="#FFFFFF" stroke-width="2" fill="#0059B8" sketch:type="MSShapeGroup" cx="9" cy="9" r="8"></circle>
            <path d="M6,4 L6,7 L9,7 L9,4 L6,4 Z M7,7 L7,13 L8,13 L8,7 L7,7 Z M8,8 L8,9 L10,9 L10,8 L8,8 Z M8,12 L8,13 L10,13 L10,12 L8,12 Z M10,7 L10,10 L13,10 L13,7 L10,7 Z M10,11 L10,14 L13,14 L13,11 L10,11 Z" id="Rectangle-28" fill="#FFFFFF" sketch:type="MSShapeGroup"></path>
        </g>
    </g>
</svg>