<?xml version="1.0" standalone="no"?>
<!DOCTYPE svg PUBLIC "-//W3C//DTD SVG 1.1//EN"
  "http://www.w3.org/Graphics/SVG/1.1/DTD/svg11.dtd">


<!-- Icon set. #SVG-ICON
   ==========================================================================

  >>>>> DOCUMETATION <<<<<


  * Can We Use SVG ? Overall support [http://caniuse.com/#feat=svg]
  * Symbol:
    * Not in render tree. 'Instance Of' are rendered.
    * Has a variable aspect ratio 'viewBox' attribute, unlike other svg container elements.
  * The symbol has a default viewBox 24/24.
  * Resizing the icon happens through css rules width and height, do not use the svg
  attributes width, height, viewBox for resizing
  * Title ( <title> ):
    * Strongly recommended for accessibility reasons
    * Must be first tag in Symbol
    * Content rich title
    * If supported, printed in tooltip
    * Not wide supported, certainly not in combination with symbol
  * Description ( <desc> ):
    * Appearance of one is strongly recommended for accessibility reasons
    * No specific order in symbol, except after <title>
  * Path must be optimized, use [TODO]
  * see styleguide > Basics > SVG Icons for list of implemented and printed svg icons
  * To add a filter:
    * Define filter in <defs>
    * add css rule ` filter:url(#[defined-filter]) `
  * If a reference svg has an id, you can use a reference for that id to create
    a deep clone of that svg deep clone.


-->



<svg version="1.1" xmlns="http://www.w3.org/2000/svg" style="display:none;">

  <defs>

    <symbol id="trash" viewBox="0 0 24 24">
      <title>Trash can icon</title>
      <desc>Icon indicates deletable content</desc>
      <path d="M6 19c0 1.1.9 2 2 2h8c1.1 0 2-.9 2-2V7H6v12zM19 4h-3.5l-1-1h-5l-1 1H5v2h14V4z"/>
      <path d="M0 0h24v24H0z" fill="none"/>
    </symbol>

    <symbol id="lock" viewBox="0 0 24 24">
      <title>Closed Lock Icon</title>
      <desc>Icon indicates protected content</desc>
      <path d="M5.994 10h12.012c1.1 0 1.994.892 1.994 1.992v7.016C20 20.1 19.107 21 18.006 21H5.994C4.894 21 4 20.108 4 19.008v-7.016C4 10.9 4.893 10 5.994 10zm6.044 3.098c-1.57 0-1.61 1.193-1.42 1.63.19.436.264 1.034 0 1.634-.265.6-.178 1.583 1.55 1.583 1.73 0 1.29-.964 1.12-1.583-.172-.62-.21-1.07 0-1.635s.32-1.63-1.25-1.63z"/>
      <path d="M8.81 10.606c-.012-.06-.034-.192-.057-.39-.097-.83-.097-1.82.066-2.905.237-1.572 1.22-2.32 2.962-2.32 1.69 0 3.1 1.263 3.1 2.753v3.038h1.573V7.744c0-2.452-2.162-4.387-4.673-4.387-2.47 0-4.15 1.276-4.516 3.7-.188 1.245-.188 2.385-.074 3.357.03.252.06.435.082.543l1.537-.35z"/>
    </symbol>

    <symbol id="px-lock" viewBox="0 0 24 24">
      <title>Closed Lock Icon</title>
      <desc>Icon indicates protected content, printed for pixel size</desc>
      <path d="M15,10 L15,5 L17,5 L17,10 L18,10 L18,11 L6,11 L6,10 L15,10 L15,10 Z M5,11 L19,11 L19,20 L5,20 L5,11 Z M10,13.0234563 L10,18.082097 L14,18.082097 L14,13.0234563 L10,13.0234563 Z M6,20 L18,20 L18,21 L6,21 L6,20 Z M16,4 L16,5 L15,5 L15,4 L16,4 Z M9,4 L9,5 L8,5 L8,4 L9,4 Z M9,5 L9,10 L7,10 L7,5 L9,5 Z M15,3 L15,5 L9,5 L9,3 L15,3 Z"></path>
    </symbol>

    <symbol id="lock-open" viewBox="0 0 24 24">
      <title>Open Lock Icon</title>
      <desc>Icon indicates editable protected content</desc>
      <path d="M13.113671,9.92946616 L13.113671,7.74337276 C13.1136711,5.29141302 15.2751306,3.35586421 17.7859529,3.35586454 C20.2562747,3.35586493 21.9361561,4.63211251 22.3027137,7.05718675 C22.4906892,8.30079657 22.4906892,9.44143816 22.3768312,10.4129951 C22.3473567,10.6645027 22.316766,10.8482994 22.2940315,10.9561933 L20.7577004,10.6062997 C20.7701442,10.5472434 20.7923208,10.4140011 20.8156136,10.2152421 C20.912825,9.38573247 20.912825,8.39473347 20.7490182,7.31101932 C20.5112917,5.73826695 19.5276478,4.99096827 17.7859527,4.99096799 C16.0959446,4.99096777 14.6864334,6.25316016 14.6864333,7.74337281 L14.6864333,9.92946616 L17.8239788,9.92946616 C18.9323222,9.92946616 19.8286938,10.8278157 19.8286938,11.9359861 L19.8286938,19.0030319 C19.8286938,20.1215517 18.9311523,21.0095518 17.8239788,21.0095518 L6.00471501,21.0095518 C4.89637162,21.0095518 4,20.1112022 4,19.0030319 L4,11.9359861 C4,10.8174663 4.89754148,9.92946616 6.00471501,9.92946616 L13.113671,9.92946616 Z M11.9514865,13.0502822 C10.399302,13.0502805 10.3590447,14.2521042 10.5465136,14.691351 C10.7339825,15.1305979 10.8081165,15.7330985 10.5465136,16.337981 C10.2849106,16.9428635 10.3711645,17.9319342 12.0817914,17.9319339 C13.7924183,17.9319336 13.3571186,16.9614218 13.1878803,16.337981 C13.0186419,15.7145402 12.9805982,15.2606301 13.1878803,14.691351 C13.3951624,14.122072 13.5036711,13.050284 11.9514865,13.0502822 Z" ></path>
    </symbol>

    <symbol id="px-lock-open" viewBox="0 0 24 24">
      <title>Open Lock Icon</title>
      <desc>Icon indicates editable protected content, printed for pixel size</desc>
      <path d="M15,10 L15,5 L13,5 L13,10 L6,10 L6,11 L18,11 L18,10 L15,10 Z M5,11 L19,11 L19,20 L5,20 L5,11 Z M10,13.0234563 L10,18.082097 L14,18.082097 L14,13.0234563 L10,13.0234563 Z M15,3 L21,3 L21,5 L15,5 L15,3 Z M21,5 L23,5 L23,9 L21,9 L21,5 Z M21,4 L22,4 L22,5 L21,5 L21,4 Z M14,4 L15,4 L15,5 L14,5 L14,4 Z M6,20 L18,20 L18,21 L6,21 L6,20 Z" ></path>
    </symbol>

    <symbol id="ic-lock-open-24" viewBox="0 0 24 24">
      <title>Open Lock Icon</title>
      <desc>Icon indicates editable protected content</desc>
      <path fill-rule="nonzero" d="M14.8168421,7.28571429 L12.9410526,7.28571429 C12.9410526,4.92 15.0419368,3 17.6305263,3 C20.2191158,3 22.5,4.89428571 22.5,7.26 L20.7178054,7.26 C20.7178054,6.47277728 20.339134,5.89372958 20.0310139,5.55197911 C19.592449,5.06554635 18.6555639,4.62903704 17.6305263,4.62903704 C17.0296159,4.62903704 16.22211,4.83401054 15.5645418,5.49989973 C15.0216298,6.04968183 14.8168421,6.66864885 14.8168421,7.28571429 Z M14.8168421,7.28571429 L12.9410526,7.28571429 L12.9410526,9 L6.37578947,9 C5.34410526,9 4.5,9.77142857 4.5,10.7142857 L4.5,19.2857143 C4.5,20.2285714 5.34410526,21 6.37578947,21 L17.6305263,21 C18.6622105,21 19.5063158,20.2285714 19.5063158,19.2857143 L19.5063158,10.7142857 C19.5063158,9.77142857 18.6622105,9 17.6305263,9 L14.8168421,9 L14.8168421,7.28571429 Z M12.0031579,16.7142857 C10.9714737,16.7142857 10.1273684,15.9428571 10.1273684,15 C10.1273684,14.0571429 10.9714737,13.2857143 12.0031579,13.2857143 C13.0348421,13.2857143 13.8789474,14.0571429 13.8789474,15 C13.8789474,15.9428571 13.0348421,16.7142857 12.0031579,16.7142857 Z"/>
      <path d="M0 0h24v24H0z" fill="none"/>
    </symbol>

    <symbol id="ic-lock-24" viewBox="0 0 24 24">
      <title>Lock Icon</title>
      <desc>Icon indicates protected content</desc>
      <path fill-rule="nonzero" d="M17.625,9 L16.6875,9 L16.6875,7.28571429 C16.6875,4.92 14.5875,3 12,3 C9.4125,3 7.3125,4.92 7.3125,7.28571429 L7.3125,9 L6.375,9 C5.34375,9 4.5,9.77142857 4.5,10.7142857 L4.5,19.2857143 C4.5,20.2285714 5.34375,21 6.375,21 L17.625,21 C18.65625,21 19.5,20.2285714 19.5,19.2857143 L19.5,10.7142857 C19.5,9.77142857 18.65625,9 17.625,9 Z M12,16.7142857 C10.96875,16.7142857 10.125,15.9428571 10.125,15 C10.125,14.0571429 10.96875,13.2857143 12,13.2857143 C13.03125,13.2857143 13.875,14.0571429 13.875,15 C13.875,15.9428571 13.03125,16.7142857 12,16.7142857 Z M14.90625,9 L9.09375,9 L9.09375,7.28571429 C9.09375,5.82 10.396875,4.62857143 12,4.62857143 C13.603125,4.62857143 14.90625,5.82 14.90625,7.28571429 L14.90625,9 Z"/>
      <path d="M0 0h24v24H0z" fill="none"/>
    </symbol>

    <symbol id="expand-less" viewBox="0 0 24 24">
      <title>Expand Less Icon</title>
      <desc>Icon indicates content to be hidden</desc>
      <path d="M12 8l-6 6 1.41 1.41L12 10.83l4.59 4.58L18 14z"/>
      <path d="M0 0h24v24H0z" fill="none"/>
    </symbol>

    <symbol id="expand-more" viewBox="0 0 24 24">
      <title>Expand More Icon</title>
      <desc>Icon indicates content to be shown</desc>
      <path d="M16.59 8.59L12 13.17 7.41 8.59 6 10l6 6 6-6z"/>
      <path d="M0 0h24v24H0z" fill="none"/>
    </symbol>

    <symbol id="dummy" viewBox="0 0 24 24">
      <title>Dummy icon</title>
      <desc>Icon indicates dummy icon, use this as a placeholder that should be replaced be a meaningfull icon later on</desc>
      <path d="M12 7.77L18.39 18H5.61L12 7.77M12 4L2 20h20L12 4z"/>
      <path d="M0 0h24v24H0V0z" fill="none"/>
    </symbol>


    <symbol id="drag_handle" viewBox="0 0 24 24">
      <title>Drag Handle icon</title>
      <desc>Icon indicates drag handle icon, drag an element from 1 place to another </desc>
      <path d="M20 9H4v2h16V9zM4 15h16v-2H4v2z"/>
    </symbol>

    <symbol id="reorder" viewBox="0 0 24 24">
      <title>Reorder Handle icon</title>
      <desc>Reorder vertically </desc>
      <path d="M5,9 L5,7 L19,7 L19,9 L5,9 Z M5,13 L5,11 L19,11 L19,13 L5,13 Z M5,17 L5,15 L19,15 L19,17 L5,17 Z"/>
    </symbol>

    <symbol id="create" viewBox="0 0 24 24">
      <title>Create icon</title>
      <desc>Icon indicates create icon, edit or create content </desc>
      <path d="M3 17.25V21h3.75L17.81 9.94l-3.75-3.75L3 17.25zM20.71 7.04c.39-.39.39-1.02 0-1.41l-2.34-2.34c-.39-.39-1.02-.39-1.41 0l-1.83 1.83 3.75 3.75 1.83-1.83z"/>
      <path d="M0 0h24v24H0z" fill="none"/>
    </symbol>

    <symbol id="warning" viewBox="0 0 24 24">
        <title>Warning icon</title>
        <desc>Icon indicates warning icon, the user has to be aware of a situation </desc>
        <path d="M0 0h24v24H0z" fill="none"/>
        <path d="M1 21h22L12 2 1 21zm12-3h-2v-2h2v2zm0-4h-2v-4h2v4z"/>
    </symbol>

    <symbol id="browse-deep" viewBox="0 0 24 24">
        <title>Browse Deep</title>
        <desc>Navigate deeper in a tree structure</desc>
        <path d="M0 0h24v24H0z" fill="none"/>
        <path transform="translate(12.000000, 12.000000) rotate(90.000000) translate(-12.000000, -12.000000) " d="M12 7 17 17 7 17z"></path>
    </symbol>

     <symbol id="arrow-content-closed" viewBox="0 0 24 24">
        <title>Arrow Content Closed</title>
        <desc></desc>
        <path d="M0 0h24v24H0z" fill="none"/>
        <path fill-rule="evenodd" d="M12 7 17 17 7 17z" transform="rotate(90 12 12)"/>
    </symbol>

    <symbol id="arrow-content-open" viewBox="0 0 24 24">
        <title>Arrow Content Closed</title>
        <desc></desc>
        <path d="M0 0h24v24H0z" fill="none"/>
        <path fill-rule="evenodd" d="M12 7 17 17 7 17z" transform="rotate(180 12 12)"/>
    </symbol>

    <symbol id="add-circle" viewBox="0 0 24 24">
        <title>Add Circle</title>
        <desc>Add an item</desc>
        <path d="M0 0h24v24H0z" fill="none"/>
        <path d="M12 2C6.48 2 2 6.48 2 12s4.48 10 10 10 10-4.48 10-10S17.52 2 12 2zm5 11h-4v4h-2v-4H7v-2h4V7h2v4h4v2z"/>
    </symbol>

    <symbol id="add-circle-outline" viewBox="0 0 24 24">
        <title>Add Circle</title>
        <desc>Add an item</desc>
        <path d="M13 7h-2v4H7v2h4v4h2v-4h4v-2h-4V7zm-1-5C6.48 2 2 6.48 2 12s4.48 10 10 10 10-4.48 10-10S17.52 2 12 2zm0 18c-4.41 0-8-3.59-8-8s3.59-8 8-8 8 3.59 8 8-3.59 8-8 8z"/>
        <path d="M0 0h24v24H0z" fill="none"/>
    </symbol>

    <symbol id="navigate-next" viewBox="0 0 24 24">
        <title>Navigate Next</title>
        <desc>navigate to next</desc>
        <path d="M0 0h24v24H0z" fill="none"/>
        <path d="M10 6L8.59 7.41 13.17 12l-4.58 4.59L10 18l6-6z"/>
    </symbol>


    <symbol id="navigate-prev" viewBox="0 0 24 24">
        <title>Navigate Prev</title>
        <desc>Navigate back in a tree structure</desc>
        <path d="M0 0h24v24H0z" fill="none"/>
        <svg width="24" height="24" viewBox="0 0 24 24">
          <path d="M13.6680162 6 15 7.41 10.6734143 12 15 16.59 13.6680162 18 8 12z"/>
        </svg>
    </symbol>

    <symbol id="remove-circle" viewBox="0 0 24 24">
        <title>Remove Circle</title>
        <desc>Remove an item</desc>
        <path d="M0 0h24v24H0z" fill="none"/>
        <path d="M12 2C6.48 2 2 6.48 2 12s4.48 10 10 10 10-4.48 10-10S17.52 2 12 2zm5 11H7v-2h10v2z"/>
    </symbol>

    <symbol id="remove-circle-outline" viewBox="0 0 24 24">
        <title>Remove Circle</title>
        <desc>Remove an item</desc>
        <path d="M0 0h24v24H0z" fill="none"/>
        <path d="M7 11v2h10v-2H7zm5-9C6.48 2 2 6.48 2 12s4.48 10 10 10 10-4.48 10-10S17.52 2 12 2zm0 18c-4.41 0-8-3.59-8-8s3.59-8 8-8 8 3.59 8 8-3.59 8-8 8z"/>
    </symbol>

    <symbol id="bullet" viewBox="0 0 24 24">
      <title>Bullet</title>
      <desc>bullet</desc>
      <path d="M0 0h24v24H0z" fill="none"/>
      <path d="M7,12a5,5 0 1,0 10,0a5,5 0 1,0 -10,0"/>
    </symbol>

    <symbol id="or-merger" viewBox="0 0 24 24">
      <title>or merger</title>
      <desc>or merger</desc>
      <path d="M0 0h24v24H0z" fill="none"/>
      <path d="M11.6114152,12.2032086 C11.6114152,12.9661357 11.4764152,13.6354695 11.2064113,14.2112299 C10.9364073,14.7869904 10.5505628,15.2290537 10.0488663,15.5374332 C9.54716976,15.8458126 8.96977131,16 8.31665364,16 C7.67083336,16 7.09525924,15.8458126 6.589914,15.5374332 C6.08456875,15.2290537 5.69416348,14.7896642 5.41868647,14.2192513 C5.14320946,13.6488385 5.0036487,12.9910911 5,12.2459893 L5,11.8074866 C5,11.0481245 5.13773644,10.3778995 5.41321345,9.79679144 C5.68869046,9.21568337 6.0772714,8.77094628 6.57896794,8.46256684 C7.08066448,8.15418741 7.65623861,8 8.30570758,8 C8.95517656,8 9.53075068,8.15240489 10.0324472,8.45721925 C10.5341438,8.76203361 10.9218125,9.2005319 11.1954652,9.77272727 C11.4691179,10.3449226 11.6077665,11.0106914 11.6114152,11.7700535 L11.6114152,12.2032086 Z M10.2267396,11.7967914 C10.2267396,10.934042 10.059814,10.2727296 9.72595778,9.81283422 C9.39210154,9.35293888 8.91868954,9.12299465 8.30570758,9.12299465 C7.70732044,9.12299465 7.23938141,9.35204762 6.90187647,9.81016043 C6.56437152,10.2682732 6.39197293,10.9162168 6.38467553,11.7540107 L6.38467553,12.2032086 C6.38467553,13.0588278 6.55524979,13.7201403 6.89640344,14.1871658 C7.23755709,14.6541913 7.71096909,14.8877005 8.31665364,14.8877005 C8.92963559,14.8877005 9.40122326,14.6595388 9.73143081,14.2032086 C10.0616383,13.7468783 10.2267396,13.0802183 10.2267396,12.2032086 L10.2267396,11.7967914 Z M15.9186865,12.8930481 L14.3752932,12.8930481 L14.3752932,15.8930481 L12.9906177,15.8930481 L12.9906177,8.10695187 L15.7928069,8.10695187 C16.7122798,8.10695187 17.4219417,8.30837588 17.9218139,8.71122995 C18.4216861,9.11408401 18.6716185,9.69696588 18.6716185,10.459893 C18.6716185,10.9803948 18.5430036,11.4162193 18.2857701,11.7673797 C18.0285366,12.1185401 17.670057,12.3885909 17.2103206,12.5775401 L19,15.8235294 L19,15.8930481 L17.51681,15.8930481 L15.9186865,12.8930481 Z M14.3752932,11.8074866 L15.7982799,11.8074866 C16.2653138,11.8074866 16.6301785,11.6925145 16.8928851,11.4625668 C17.1555916,11.2326192 17.2869429,10.9180056 17.2869429,10.5187166 C17.2869429,10.1016022 17.1656254,9.77896727 16.9229867,9.55080214 C16.680348,9.32263701 16.3182198,9.20499112 15.8365911,9.19786096 L14.3752932,9.19786096 L14.3752932,11.8074866 Z"/>
    </symbol>

    <symbol id="and-merger" viewBox="0 0 24 24">
      <title>and merger</title>
      <desc>and merger</desc>
      <path d="M0 0h24v24H0z" fill="none"/>
      <path d="M6.12221011,14.5097585 L3.32528474,14.5097585 L2.74011242,16.3723958 L1.4358724,16.3723958 L4.16337054,8.37239583 L5.28908341,8.37239583 L8.02154063,16.3723958 L6.71234153,16.3723958 L6.12221011,14.5097585 Z M3.67737996,13.3888793 L5.7701149,13.3888793 L4.72374743,10.070198 L3.67737996,13.3888793 Z M14.5675362,16.3723958 L13.312887,16.3723958 L10.0944392,10.6965717 L10.0944392,16.3723958 L8.83979007,16.3723958 L8.83979007,8.37239583 L10.0944392,8.37239583 L13.3228052,14.070198 L13.3228052,8.37239583 L14.5675362,8.37239583 L14.5675362,16.3723958 Z M16.0503033,16.3723958 L16.0503033,8.37239583 L18.182711,8.37239583 C18.8207834,8.37239583 19.3869403,8.52990342 19.8811985,8.84492331 C20.3754567,9.1599432 20.7581291,9.60682517 21.0292272,10.1855826 C21.3003254,10.7643401 21.4358724,11.4273372 21.4358724,12.1745936 L21.4358724,12.5756925 C21.4358724,13.3339381 21.2994989,14.0005981 21.0267477,14.5756925 C20.7539965,15.150787 20.3655385,15.594006 19.8613621,15.9053629 C19.3571857,16.2167197 18.7794578,16.3723958 18.128161,16.3723958 L16.0503033,16.3723958 Z M17.3049525,9.49327495 L17.3049525,15.2625057 L18.1232019,15.2625057 C18.7811108,15.2625057 19.2861062,15.034486 19.6382032,14.5784398 C19.9903001,14.1223936 20.169652,13.4676382 20.1762642,12.6141541 L20.1762642,12.1690991 C20.1762642,11.3009629 20.0060039,10.6379659 19.6654781,10.1800881 C19.3249524,9.72221039 18.8307017,9.49327495 18.182711,9.49327495 L17.3049525,9.49327495 Z"/>
    </symbol>

    <symbol id="success-circle" viewBox="0 0 24 24">
      <title>success circle</title>
      <desc>success circle</desc>
      <path d="M0 0h24v24H0z" fill="none"/>
      <path fill="#5DB200" d="M10,20 C4.47715222,20 0,15.5228478 0,10 C0,4.47715222 4.47715222,0 10,0 C15.5228478,0 20,4.47715222 20,10 C20,15.5228478 15.5228478,20 10,20 Z M4.50223794,9.62491914 L9.30521939,14.2631044 L15.4537199,7.8961457 L13.8333129,6.3313368 L9.24319833,11.0845396 L6.0715646,8.02172847 L4.50223794,9.62491914 Z" transform="translate(2 2)"/>
    </symbol>

    <symbol id="error-circle" viewBox="0 0 24 24">
      <title>error circle</title>
      <desc>error circle</desc>
      <path d="M0 0h24v24H0z" fill="none"/>
      <path fill="#F00" d="M10,20 C4.4771525,20 0,15.5228475 0,10 C0,4.4771525 4.4771525,0 10,0 C15.5228475,0 20,4.4771525 20,10 C20,15.5228475 15.5228475,20 10,20 Z M15,6.25 L13.75,5 L10,8.75 L6.25,5 L5,6.25 L8.75,10 L5,13.75 L6.25,15 L10,11.25 L13.75,15 L15,13.75 L11.25,10 L15,6.25 Z" transform="translate(2 2)"/>
    </symbol>

    <symbol id="expand-more-horizontal" viewBox="0 0 24 24">
      <title>expand more horizontal</title>
      <desc>expand more horizontal</desc>
      <path d="M0 0h24v24H0z" fill="none"/>
      <path d="M11,6 L13,6 L13,18 L11,18 L11,6 Z M15,7.41421356 L16.4142136,6 L22.1213203,11.7071068 L16.4142136,17.4142136 L15,16 L19.2928932,11.7071068 L15,7.41421356 Z M9.12132034,7.41421356 L4.82842712,11.7071068 L9.12132034,16 L7.70710678,17.4142136 L2,11.7071068 L7.70710678,6 L9.12132034,7.41421356 Z"/>
    </symbol>

    <symbol id="expand-less-horizontal" viewBox="0 0 24 24">
      <title>expand less horizontal</title>
      <desc>expand less horizontal</desc>
      <path d="M0 0h24v24H0z" fill="none"/>
      <path d="M11,6 L13,6 L13,18 L11,18 L11,6 Z M2.58578644,7.70710678 L4,6.29289322 L9.70710678,12 L4,17.7071068 L2.58578644,16.2928932 L6.87867966,12 L2.58578644,7.70710678 Z M21.1213203,7.41421356 L16.8284271,11.7071068 L21.1213203,16 L19.7071068,17.4142136 L14,11.7071068 L19.7071068,6 L21.1213203,7.41421356 Z"/>
    </symbol>

    <symbol id="view-column" viewBox="0 0 24 24">
      <title>view column</title>
      <desc>view column</desc>
      <path d="M0 0h24v24H0z" fill="none"/>
      <path fill-rule="nonzero" d="M10.5,19 L14.5,19 L14.5,5 L10.5,5 L10.5,19 Z M4,19 L8,19 L8,5 L4,5 L4,19 Z M17,5 L17,19 L21,19 L21,5 L17,5 Z"/>
    </symbol>

    <symbol id="drag-handle-vertical" viewBox="0 0 24 24">
      <title>drag-handle-vertical</title>
      <desc>drag-handle-vertical</desc>
      <path d="M0 0h24v24H0z" fill="none"/>
      <path fill-rule="nonzero" d="M20,9 L4,9 L4,11 L20,11 L20,9 Z M4,15 L20,15 L20,13 L4,13 L4,15 Z" transform="rotate(90 12 12)"/>
    </symbol>

     <symbol id="arrow-drop-down" viewBox="0 0 24 24">
      <title>Dropdown arrow</title>
      <desc>Dropdown arrow</desc>
      <path d="M0 0h24v24H0z" fill="none"/>
      <path d="M7 10 12 15 17 10z"/>
    </symbol>


    <symbol id="arrow-drop-down-up-scale" viewBox="0 0 24 24">
      <title>Dropdown arrow</title>
      <desc>Dropdown arrow</desc>
      <path d="M0 0h24v24H0z" fill="none"/>
      <path d="M5 9 12 16 19 9z"/>
    </symbol>

    <symbol id="arrow-lift-up-up-scale" viewBox="0 0 24 24">
      <title>Lift Up arrow</title>
      <desc>Lift Up arrow</desc>
      <path d="M0 0h24v24H0z" fill="none"/>
      <path d="M5 15 12 8 19 15z"/>
    </symbol>

    <symbol id="filter-list" viewBox="0 0 24 24">
      <title>Filter list</title>
      <desc>Filter list</desc>
      <path d="M0 0h24v24H0z" fill="none"/>
      <path fill-rule="nonzero" d="M10,18 L14,18 L14,16 L10,16 L10,18 Z M3,6 L3,8 L21,8 L21,6 L3,6 Z M6,13 L18,13 L18,11 L6,11 L6,13 Z"/>
    </symbol>

    <symbol id="sort-list" viewBox="0 0 24 24">
      <title>Sort list</title>
      <desc>Sort list</desc>
      <path d="M0 0h24v24H0z" fill="none"/>
      <path fill-rule="nonzero" d="M3,18 L7,18 L7,16 L3,16 L3,18 Z M3,6 L3,8 L21,8 L21,6 L3,6 Z M3,13 L15,13 L15,11 L3,11 L3,13 Z"/>
    </symbol>


    <symbol id="info-outline" viewBox="0 0 24 24">
      <title>Info Outline</title>
      <desc>Info Outline</desc>
      <path d="M0 0h24v24H0z" fill="none"/>
      <path fill-rule="nonzero" d="M11,17 L13,17 L13,11 L11,11 L11,17 Z M12,2 C6.48,2 2,6.48 2,12 C2,17.52 6.48,22 12,22 C17.52,22 22,17.52 22,12 C22,6.48 17.52,2 12,2 Z M12,20 C7.59,20 4,16.41 4,12 C4,7.59 7.59,4 12,4 C16.41,4 20,7.59 20,12 C20,16.41 16.41,20 12,20 Z M11,9 L13,9 L13,7 L11,7 L11,9 Z"/>
    </symbol>


    <symbol id="notification-important" viewBox="0 0 24 24">
      <title>Important Notification</title>
      <desc>Important Notification</desc>
      <path d="M0 0h24v24H0z" fill="none"/>
      <path fill-rule="nonzero" d="M18,16 L18,11 C18,7.93 16.36,5.36 13.5,4.68 L13.5,4 C13.5,3.17 12.83,2.5 12,2.5 C11.17,2.5 10.5,3.17 10.5,4 L10.5,4.68 C7.63,5.36 6,7.92 6,11 L6,16 L4,18 L4,19 L20,19 L20,18 L18,16 Z M13,16 L11,16 L11,14 L13,14 L13,16 Z M13,12 L11,12 L11,8 L13,8 L13,12 Z M12,22 C13.1,22 14,21.1 14,20 L10,20 C10,21.1 10.89,22 12,22 Z"/>
    </symbol>


    <symbol id="parameter" viewBox="0 0 24 24">
      <title>Parameter</title>
      <desc>Parameter</desc>
      <path d="M0 0h24v24H0z" fill="none"/>
      <path d="M4.9688979,15.0500338 C4.9688979,14.254898 4.72909863,13.6459341 4.2494929,13.2231237 C3.95920522,12.9643891 3.54271175,12.7592976 3,12.6078431 L3,11.4624746 C3.61212837,11.2542248 4.04439811,11.0238913 4.29682218,10.7714672 C4.7448749,10.3360357 4.9688979,9.67027719 4.9688979,8.77417174 L4.9688979,6.23732252 C4.9688979,5.91548183 5.02253721,5.5778697 5.12981744,5.224476 C5.3191355,4.61234763 5.64097136,4.12643858 6.09533469,3.76673428 C6.5118344,3.43858299 7.0008987,3.22087049 7.56254226,3.11359026 C7.90331475,3.04417364 8.39237905,3.0063106 9.02974983,3 L9.02974983,4.50507099 C8.50596989,4.61866183 8.14942623,4.770114 7.96010818,4.95943205 C7.6698205,5.24971973 7.52467884,5.75771555 7.52467884,6.48343475 L7.52467884,8.67951318 C7.52467884,9.38630058 7.43002123,9.94793571 7.24070318,10.3644354 C6.91886249,11.0649122 6.28781178,11.6328579 5.34753212,12.0682894 C6.19946335,12.4153725 6.77214187,12.8192449 7.06558485,13.2799189 C7.35902784,13.7405928 7.51205763,14.377954 7.52467884,15.1920216 L7.52467884,17.586883 C7.52467884,18.2873598 7.69506253,18.7922004 8.03583502,19.1014199 C8.22515308,19.2844273 8.5564547,19.4453453 9.02974983,19.5841785 L9.02974983,21.0892495 L8.3576741,21.0703178 C7.45525805,21.0450754 6.66486704,20.7753012 5.98647735,20.2609872 C5.30808766,19.7466731 4.9688979,18.9973004 4.9688979,18.0128465 L4.9688979,15.0500338 Z M14.9702502,21.0892495 L14.9702502,19.5841785 C15.4435453,19.4453453 15.7748469,19.2812721 15.964165,19.091954 C16.2860057,18.7764239 16.4532341,18.2747386 16.4658553,17.586883 L16.4658553,15.1920216 C16.4658553,14.2959162 16.6393943,13.6317353 16.9864773,13.1994591 C17.3335604,12.7671829 17.8857298,12.3901301 18.643002,12.0682894 C17.8163132,11.6644109 17.2467899,11.2053215 16.9344151,10.6910074 C16.6220404,10.1766934 16.4658553,9.50620201 16.4658553,8.67951318 L16.4658553,6.48343475 C16.4658553,5.78295796 16.3538438,5.30651467 16.1298174,5.0540906 C15.9057911,4.80166653 15.5192725,4.61866183 14.9702502,4.50507099 L14.9702502,3 C15.6013103,3.0063106 16.0872194,3.04417364 16.4279919,3.11359026 C16.9896354,3.22087049 17.481855,3.43858299 17.9046653,3.76673428 C18.3274756,4.09488557 18.6209142,4.49875803 18.7849899,4.97836376 C18.9490655,5.45796949 19.0311021,5.87761822 19.0311021,6.23732252 L19.0311021,8.77417174 C19.0311021,9.67658779 19.2361936,10.339191 19.6463827,10.7620014 C19.8988068,11.0144254 20.350008,11.2479142 21,11.4624746 L21,12.6078431 C20.4635989,12.7592976 20.0565711,12.9549233 19.7789047,13.1947262 C19.2803671,13.6238471 19.0311021,14.2422768 19.0311021,15.0500338 L19.0311021,18.0128465 C19.0311021,18.972058 18.6998005,19.7151202 18.0371873,20.2420554 C17.3745741,20.7689907 16.576295,21.0450754 15.6423259,21.0703178 L14.9702502,21.0892495 Z"/>
    </symbol>


    <symbol id="more-vert" viewBox="0 0 24 24">
      <title>More vertical</title>
      <desc>More vertical</desc>
      <path d="M0 0h24v24H0z" fill="none"/>
      <path fill-rule="nonzero" d="M12,8 C13.1,8 14,7.1 14,6 C14,4.9 13.1,4 12,4 C10.9,4 10,4.9 10,6 C10,7.1 10.9,8 12,8 Z M12,10 C10.9,10 10,10.9 10,12 C10,13.1 10.9,14 12,14 C13.1,14 14,13.1 14,12 C14,10.9 13.1,10 12,10 Z M12,16 C10.9,16 10,16.9 10,18 C10,19.1 10.9,20 12,20 C13.1,20 14,19.1 14,18 C14,16.9 13.1,16 12,16 Z"/>
    </symbol>


    <symbol id="switch-toggle-on" viewBox="0 0 24 24">
      <title>Switch Toggle On</title>
      <desc>Switch Toggle On</desc>
      <path d="M0 0h24v24H0z" fill="none"/>
      <path fill-rule="nonzero" d="M12,3 C14.7614237,3 17,5.35050506 17,8.25 L17,15.75 C17,18.6494949 14.7614237,21 12,21 C9.23857625,21 7,18.6494949 7,15.75 L7,8.25 C7,5.35050506 9.23857625,3 12,3 Z"/>
      <path fill="#FFF" d="M12,12 C14.209139,12 16,10.209139 16,8 C16,5.790861 14.209139,4 12,4 C9.790861,4 8,5.790861 8,8 C8,10.209139 9.790861,12 12,12 Z"/>
    </symbol>


    <symbol id="switch-toggle-on-green" viewBox="0 0 24 24">
      <title>Switch Toggle On Green</title>
      <desc>Switch Toggle On Green</desc>
      <path d="M0 0h24v24H0z" fill="none"/>
      <path fill="#82B740" d="M12,3 C14.7614237,3 17,5.35050506 17,8.25 L17,15.75 C17,18.6494949 14.7614237,21 12,21 C9.23857625,21 7,18.6494949 7,15.75 L7,8.25 C7,5.35050506 9.23857625,3 12,3 Z"/>
      <path fill="#FFF" d="M12,12 C14.209139,12 16,10.209139 16,8 C16,5.790861 14.209139,4 12,4 C9.790861,4 8,5.790861 8,8 C8,10.209139 9.790861,12 12,12 Z"/>
    </symbol>


    <symbol id="switch-toggle-off" viewBox="0 0 24 24">
      <title>Switch Toggle Off</title>
      <desc>Switch Toggle Off</desc>
      <path d="M0 0h24v24H0z" fill="none"/>
      <path fill-rule="nonzero" d="M12,3 C14.7614237,3 17,5.35050506 17,8.25 L17,15.75 C17,18.6494949 14.7614237,21 12,21 C9.23857625,21 7,18.6494949 7,15.75 L7,8.25 C7,5.35050506 9.23857625,3 12,3 Z"/>
      <path fill="#FFF" d="M12,20 C14.209139,20 16,18.209139 16,16 C16,13.790861 14.209139,12 12,12 C9.790861,12 8,13.790861 8,16 C8,18.209139 9.790861,20 12,20 Z"/>
    </symbol>


     <symbol id="switch-toggle-off-red" viewBox="0 0 24 24">
      <title>Switch Toggle Off Red</title>
      <desc>Switch Toggle Off Red</desc>
      <path d="M0 0h24v24H0z" fill="none"/>
      <path fill="#f00000" d="M12,3 C14.7614237,3 17,5.35050506 17,8.25 L17,15.75 C17,18.6494949 14.7614237,21 12,21 C9.23857625,21 7,18.6494949 7,15.75 L7,8.25 C7,5.35050506 9.23857625,3 12,3 Z"/>
      <path fill="#FFF" d="M12,20 C14.209139,20 16,18.209139 16,16 C16,13.790861 14.209139,12 12,12 C9.790861,12 8,13.790861 8,16 C8,18.209139 9.790861,20 12,20 Z"/>
    </symbol>


    <symbol id="more-hor" viewBox="0 0 24 24">
      <title>More horizontal</title>
      <desc>More horizontal</desc>
      <path d="M0 0h24v24H0z" fill="none"/>
      <path fill-rule="nonzero" d="M8,12 C8,13.1 7.1,14 6,14 C4.9,14 4,13.1 4,12 C4,10.9 4.9,10 6,10 C7.1,10 8,10.9 8,12 Z M10,12 C10,10.9 10.9,10 12,10 C13.1,10 14,10.9 14,12 C14,13.1 13.1,14 12,14 C10.9,14 10,13.1 10,12 Z M16,12 C16,10.9 16.9,10 18,10 C19.1,10 20,10.9 20,12 C20,13.1 19.1,14 18,14 C16.9,14 16,13.1 16,12 Z"/>
    </symbol>

    <symbol id="refresh" viewBox="0 0 24 24">
      <title>Refresh</title>
      <desc>Refresh</desc>
      <path d="M0 0h24v24H0z" fill="none"/>
      <path fill-rule="nonzero" d="M17.65,6.35 C16.2,4.9 14.21,4 12,4 C7.58,4 4.01,7.58 4.01,12 C4.01,16.42 7.58,20 12,20 C15.73,20 18.84,17.45 19.73,14 L17.65,14 C16.83,16.33 14.61,18 12,18 C8.69,18 6,15.31 6,12 C6,8.69 8.69,6 12,6 C13.66,6 15.14,6.69 16.22,7.78 L13,11 L20,11 L20,4 L17.65,6.35 Z"/>
    </symbol>

    <symbol id="calendar-24" viewBox="0 0 24 24">
      <title>Calendar</title>
      <desc>Calendar</desc>
      <path d="M0 0h24v24H0z" fill="none"/>
      <path fill-rule="nonzero" d="M17.4,3.72727273 L21,3.72727273 L21,21 L3,21 L3,3.72727273 L6.6,3.72727273 L6.6,5.45454545 L8.4,5.45454545 L8.4,3.72727273 L15.6,3.72727273 L15.6,5.45454545 L17.4,5.45454545 L17.4,3.72727273 Z M6.6,2 L8.4,2 L8.4,3.72727273 L6.6,3.72727273 L6.6,2 Z M15.6,2 L17.4,2 L17.4,3.72727273 L15.6,3.72727273 L15.6,2 Z M4.8,10.6363636 L4.8,14.0909091 L8.4,14.0909091 L8.4,10.6363636 L4.8,10.6363636 Z M10.2,10.6363636 L10.2,14.0909091 L13.8,14.0909091 L13.8,10.6363636 L10.2,10.6363636 Z M15.6,10.6363636 L15.6,14.0909091 L19.2,14.0909091 L19.2,10.6363636 L15.6,10.6363636 Z M4.8,15.8181818 L4.8,19.2727273 L8.4,19.2727273 L8.4,15.8181818 L4.8,15.8181818 Z M10.2,15.8181818 L10.2,19.2727273 L13.8,19.2727273 L13.8,15.8181818 L10.2,15.8181818 Z M15.6,15.8181818 L15.6,19.2727273 L19.2,19.2727273 L19.2,15.8181818 L15.6,15.8181818 Z"/>
    </symbol>

    <symbol id="clock" viewBox="0 0 24 24">
      <title>Clock</title>
      <desc>Clock</desc>
      <path d="M0 0h24v24H0z" fill="none"/>
      <path fill-rule="nonzero" d="M11.99,2 C6.47,2 2,6.48 2,12 C2,17.52 6.47,22 11.99,22 C17.52,22 22,17.52 22,12 C22,6.48 17.52,2 11.99,2 Z M12,20 C7.58,20 4,16.42 4,12 C4,7.58 7.58,4 12,4 C16.42,4 20,7.58 20,12 C20,16.42 16.42,20 12,20 Z"/>
      <path fill-rule="nonzero" d="M13 7 11 7 11 13 17 13 17 11 13 11z"/>
    </symbol>

    <symbol id="visibility-off" viewBox="0 0 24 24">
      <title>visibility-off</title>
      <desc>visibility-off</desc>
      <path d="M0 0h24v24H0z" fill="none"/>
      <path fill-rule="nonzero" d="M12,7 C14.76,7 17,9.24 17,12 C17,12.65 16.87,13.26 16.64,13.83 L19.56,16.75 C21.07,15.49 22.26,13.86 22.99,12 C21.26,7.61 16.99,4.5 11.99,4.5 C10.59,4.5 9.25,4.75 8.01,5.2 L10.17,7.36 C10.74,7.13 11.35,7 12,7 Z M2,4.27 L4.28,6.55 L4.74,7.01 C3.08,8.3 1.78,10.02 1,12 C2.73,16.39 7,19.5 12,19.5 C13.55,19.5 15.03,19.2 16.38,18.66 L16.8,19.08 L19.73,22 L21,20.73 L3.27,3 L2,4.27 Z M7.53,9.8 L9.08,11.35 C9.03,11.56 9,11.78 9,12 C9,13.66 10.34,15 12,15 C12.22,15 12.44,14.97 12.65,14.92 L14.2,16.47 C13.53,16.8 12.79,17 12,17 C9.24,17 7,14.76 7,12 C7,11.21 7.2,10.47 7.53,9.8 Z M11.84,9.02 L14.99,12.17 L15.01,12.01 C15.01,10.35 13.67,9.01 12.01,9.01 L11.84,9.02 Z"/>
    </symbol>

    <symbol id="search" viewBox="0 0 24 24">
      <title>search</title>
      <desc>search</desc>
      <path d="M0 0h24v24H0z" fill="none"/>
      <path fill-rule="nonzero" d="M15.5,14 L14.71,14 L14.43,13.73 C15.41,12.59 16,11.11 16,9.5 C16,5.91 13.09,3 9.5,3 C5.91,3 3,5.91 3,9.5 C3,13.09 5.91,16 9.5,16 C11.11,16 12.59,15.41 13.73,14.43 L14,14.71 L14,15.5 L19,20.49 L20.49,19 L15.5,14 Z M9.5,14 C7.01,14 5,11.99 5,9.5 C5,7.01 7.01,5 9.5,5 C11.99,5 14,7.01 14,9.5 C14,11.99 11.99,14 9.5,14 Z"/>
    </symbol>

    <symbol id="event" viewBox="0 0 24 24">
      <title>event</title>
      <desc>event</desc>
      <path d="M0 0h24v24H0z" fill="none"/>
      <path fill-rule="nonzero" d="M17,13 L12,13 L12,18 L17,18 L17,13 Z M16,2 L16,4 L8,4 L8,2 L6,2 L6,4 L5,4 C3.89,4 3.01,4.9 3.01,6 L3,20 C3,21.1 3.89,22 5,22 L19,22 C20.1,22 21,21.1 21,20 L21,6 C21,4.9 20.1,4 19,4 L18,4 L18,2 L16,2 Z M19,20 L5,20 L5,9 L19,9 L19,20 Z"/>
    </symbol>

    <symbol id="loader" viewBox="0 0 24 24">
      <title>loader</title>
      <desc>loader</desc>
     <!--  <linearGradient x1="50%" y1="100%" x2="50%" y2="59.7574013%" id="linearGradient-1">
            <stop stop-color="#FFFFFF" stop-opacity="0" offset="0%"></stop>
            <stop stop-color="#000000" offset="100%"></stop>
        </linearGradient> -->
      <path d="M12,20 C16.418278,20 20,16.418278 20,12 C20,7.581722 16.418278,4 12,4 C7.581722,4 4,7.581722 4,12 C4,16.418278 7.581722,20 12,20 Z M12,22 C6.4771525,22 2,17.5228475 2,12 C2,6.4771525 6.4771525,2 12,2 C17.5228475,2 22,6.4771525 22,12 C22,17.5228475 17.5228475,22 12,22 Z" id="Oval" fill-opacity="0.095177" fill="#000000" fill-rule="nonzero"></path>
      <path d="M4,12 C4,7.79951436 7.41870777,4 12,4 L12,2 C6.4771525,2 2,6.4771525 2,12 L4,12 Z M4.35103702,9.64896298 C5.12699923,7.12138944 7.12138944,5.12699923 9.64896298,4.35103702 L12,2 C6.4771525,2 2,6.4771525 2,12 L4.35103702,9.64896298 Z" id="Path" fill-opacity="0.6" fill="#000000" fill-rule="nonzero"></path>
    </symbol>

     <symbol id="contract-conflict-inv" viewBox="0 0 24 24">
        <title>Contract Conflict Inverted</title>
        <desc>Contract Conflict Inverted</desc>
        <path d="M0 0h24v24H0z" fill="none"/>
        <path d="M6,2 L15.9851108,2 L21,6.57159703 L21,20 L6,20 L6,2 Z M14.2918196,7.99323885 L14.2918196,3.44923324 L7.62158,3.44923324 L7.62158,18.5959186 L14.2918196,18.5959186 L19.2944993,18.5959186 L19.2944993,7.99323885 L14.2918196,7.99323885 Z" fill="#FFFFFF" opacity=".6" fill-rule="nonzero"></path>
        <circle id="Oval" fill="#FFFFFF" cx="9.5" cy="15.5" r="6.5"></circle>
        <path d="M9.5,22 C5.91014913,22 3,19.0898509 3,15.5 C3,11.9101491 5.91014913,9 9.5,9 C13.0898509,9 16,11.9101491 16,15.5 C16,19.0898509 13.0898509,22 9.5,22 Z M13.3483085,12.6137686 L12.3862314,11.6516915 L9.5,14.5379229 L6.61376864,11.6516915 L5.65169152,12.6137686 L8.53792288,15.5 L5.65169152,18.3862314 L6.61376864,19.3483085 L9.5,16.4620771 L12.3862314,19.3483085 L13.3483085,18.3862314 L10.4620771,15.5 L13.3483085,12.6137686 Z" fill="#FF0000"></path>
    </symbol>

     <symbol id="contract-conflict" viewBox="0 0 24 24">
        <title>Contract Conflict</title>
        <desc>Contract Conflict</desc>
        <path d="M0 0h24v24H0z" fill="none"/>
        <path d="M6,2 L15.9851108,2 L21,6.57159703 L21,20 L6,20 L6,2 Z M14.2918196,7.99323885 L14.2918196,3.44923324 L7.62158,3.44923324 L7.62158,18.5959186 L14.2918196,18.5959186 L19.2944993,18.5959186 L19.2944993,7.99323885 L14.2918196,7.99323885 Z" fill="#000000" opacity=".6" fill-rule="nonzero"></path>
        <circle id="Oval" fill="#FFFFFF" cx="9.5" cy="15.5" r="6.5"></circle>
        <path d="M9.5,22 C5.91014913,22 3,19.0898509 3,15.5 C3,11.9101491 5.91014913,9 9.5,9 C13.0898509,9 16,11.9101491 16,15.5 C16,19.0898509 13.0898509,22 9.5,22 Z M13.3483085,12.6137686 L12.3862314,11.6516915 L9.5,14.5379229 L6.61376864,11.6516915 L5.65169152,12.6137686 L8.53792288,15.5 L5.65169152,18.3862314 L6.61376864,19.3483085 L9.5,16.4620771 L12.3862314,19.3483085 L13.3483085,18.3862314 L10.4620771,15.5 L13.3483085,12.6137686 Z" fill="#FF0000"></path>
    </symbol>

    <symbol id="icon-read-only-checkbox-checked" viewBox="0 0 24 24">
      <title>read only checked</title>
      <desc>read only checked</desc>
      <path fill="none" d="M0 0h24v24H0z"></path>
      <path d="M10.5 14 5.36842105 9.5 3 12 11 19 21 7 18.6315789 4.5z"></path>
    </symbol>

    <symbol id="icon-read-only-checkbox-unchecked" viewBox="0 0 24 24">
      <title>read only unchecked</title>
      <desc>read only unchecked</desc>
      <path fill="none" d="M0 0h24v24H0z"></path>
      <path d="M17.873494,6.12650602 L17.873494,17.753012 L6.24698795,17.753012 L6.24698795,6.12650602 L17.873494,6.12650602 Z M17.8333333,4.5 L6.16666667,4.5 C5.25,4.5 4.5,5.25 4.5,6.16666667 L4.5,17.8333333 C4.5,18.75 5.25,19.5 6.16666667,19.5 L17.8333333,19.5 C18.75,19.5 19.5,18.75 19.5,17.8333333 L19.5,6.16666667 C19.5,5.25 18.75,4.5 17.8333333,4.5 Z"></path>
    </symbol>

    <symbol id="icon-read-only-checkbox-indeterminate" viewBox="0 0 24 24">
      <title>read only indeterminate</title>
      <desc>read only indeterminate</desc>
      <path fill="none" d="M0 0h24v24H0z"></path>
      <path d="M17.873494,6.12650602 L17.873494,17.753012 L6.24698795,17.753012 L6.24698795,6.12650602 L17.873494,6.12650602 Z M17.8333333,4.5 L6.16666667,4.5 C5.25,4.5 4.5,5.25 4.5,6.16666667 L4.5,17.8333333 C4.5,18.75 5.25,19.5 6.16666667,19.5 L17.8333333,19.5 C18.75,19.5 19.5,18.75 19.5,17.8333333 L19.5,6.16666667 C19.5,5.25 18.75,4.5 17.8333333,4.5 Z"></path>
      <rect x="8.5" y="11" width="7" height="2"></rect>
    </symbol>
    
    <symbol id="icon-tree-view-toggle-closed" viewBox="0 0 24 24">
      <title>tree view closed</title>
      <desc>tree view closed</desc>
      <path fill="none" d="M0 0h24v24H0z"></path>
      <path d="M11.2501255,6 L11.2501255,8.01238494 L7.635,8.012 L7.635,9.982 L9.9948954,9.98284519 L9.9948954,9.01857741 L16.02,9.01857741 L16.02,11.9952301 L9.9948954,11.9952301 L9.9948954,10.9890377 L7.635,10.989 L7.635,14.007 L9.9948954,14.0076151 L9.9948954,13.0433473 L11.9748954,13.0433473 L11.9748954,16.02 L9.9948954,16.02 L9.9948954,15.0138075 L6.43004184,15.0138075 L6.43,8.012 L4.02,8.01238494 L4.02,6 L11.2501255,6 Z"></path>
      <path d="M14.04 19.98 17.76 16.98 14.04 13.98z"></path>
    </symbol>

    <symbol id="icon-tree-view-toggle-open" viewBox="0 0 24 24">
      <title>tree view open</title>
      <desc>tree view open</desc>
      <path fill="none" d="M0 0h24v24H0z"></path>
      <path d="M11.2501255,6 L11.2501255,8.01238494 L7.635,8.012 L7.635,9.982 L9.9948954,9.98284519 L9.9948954,9.01857741 L16.02,9.01857741 L16.02,11.9952301 L9.9948954,11.9952301 L9.9948954,10.9890377 L7.635,10.989 L7.635,14.007 L9.9948954,14.0076151 L9.9948954,13.0433473 L11.9748954,13.0433473 L11.9748954,16.02 L9.9948954,16.02 L9.9948954,15.0138075 L6.43004184,15.0138075 L6.43,8.012 L4.02,8.01238494 L4.02,6 L11.2501255,6 Z"></path>
      <path d="M12.9 15.12 15.9 18.84 18.9 15.12z"></path>
    </symbol>

    <symbol id="icon-open-in-event-calendar" viewBox="0 0 24 24">
      <title>open in event calendar</title>
      <desc>open in event calendar</desc>
      <path fill="none" d="M0 0h24v24H0z"></path>
      <path d="M7,1 L7,2.999 L17,2.999 L17,1 L19,1 L19,3 L19.327,3.002 C20.341,3.01933333 21.8807778,3.18688889 21.9934444,4.80659259 L22,5 L22,21 C22,22.8022989 20.3758594,22.9804571 19.3229683,22.9980682 L15,23 L15,21 L20,21 L20,8 L4,8 L4,21 L9,21 L9,23 L4.78755556,22.9994074 C3.7782682,22.9913972 2.11932461,22.8751109 2.00611481,21.1869553 L2,21 L2,5 C2,3.26666667 3.50222222,3.03555556 4.55377778,3.00474074 L5,3 L5,1 L7,1 Z M12,13 L16,17 L13,17 L13,23 L11,23 L11,17 L8,17 L12,13 Z"></path>
    </symbol>

    <symbol id="icon-tree-view" viewBox="0 0 24 24">
      <title>tree-view</title>
      <desc>tree-view</desc>
      <path fill="none" d="M0 0h24v24H0z"></path>
      <path d="M13.5 3 13.5 6 7.5 6 7.5 10.5 12 10.5 12 8.94 21 8.94 21 13.44 12 13.44 12 12 7.5 12 7.5 18 12 18 12 16.5 21 16.5 21 21 12 21 12 19.5 6 19.5 6 6 3 6 3 3z"></path>
    </symbol>

    <symbol id="icon-human-resource" viewBox="0 0 24 24">
      <title>human-resource</title>
      <desc>human-resource</desc>
      <path fill="none" d="M0 0h24v24H0z"></path>
      <path d="M12,2.94 C16.970563,2.94 21,6.96943701 21,11.94 C21,16.910563 16.970563,20.94 12,20.94 C7.02943701,20.94 3,16.910563 3,11.94 C3,6.96943701 7.02943701,2.94 12,2.94 Z M9.6,7.86 L7.98,7.86 L7.98,16.02 L9.6,16.02 L9.6,12.78 L14.46,12.78 L14.46,16.02 L16.08,16.02 L16.08,7.86 L14.46,7.86 L14.46,11.16 L9.6,11.16 L9.6,7.86 Z"></path>
    </symbol>

    <symbol id="icon-organization" viewBox="0 0 24 24">
      <title>organization</title>
      <desc>organization</desc>
      <path fill="none" d="M0 0h24v24H0z"></path>
      <path d="M21,3 L21,21 L19.5,21 L19.5,4.5 L9,4.5 L9,12 L7.5,12 L7.5,3 L21,3 Z M18,18 L18,19.5 L15,19.5 L15,18 L18,18 Z M18,15 L18,16.5 L15,16.5 L15,15 L18,15 Z M18,12 L18,13.5 L15,13.5 L15,12 L18,12 Z M18,9 L18,10.5 L15,10.5 L15,9 L18,9 Z M13.5,9 L13.5,10.5 L10.5,10.5 L10.5,9 L13.5,9 Z M18,6 L18,7.5 L15,7.5 L15,6 L18,6 Z M13.5,6 L13.5,7.5 L10.5,7.5 L10.5,6 L13.5,6 Z"></path>
      <path d="M16.5,12 L16.5,21 L15,21 L15,13.5 L4.5,13.5 L4.5,21 L3,21 L3,12 L16.5,12 Z M13.5,18 L13.5,19.5 L10.5,19.5 L10.5,18 L13.5,18 Z M9,18 L9,19.5 L6,19.5 L6,18 L9,18 Z M13.5,15 L13.5,16.5 L10.5,16.5 L10.5,15 L13.5,15 Z M9,15 L9,16.5 L6,16.5 L6,15 L9,15 Z"></path>
    </symbol>

    <symbol id="icon-link" viewBox="0 0 24 24">
      <title>link</title>
      <desc>link</desc>
      <path fill="none" d="M0 0h24v24H0z"></path>
      <path d="M9.98811688,16.4041664 L9.22984338,17.1571007 C8.57253564,17.8085199 7.50349738,17.8090818 6.84656428,17.1571007 C6.53074186,16.8437526 6.35728305,16.4275785 6.35728305,15.9851828 C6.35728305,15.542787 6.53092918,15.1264256 6.84637696,14.8130776 L9.63745285,12.0442646 C10.2158986,11.4707609 11.3040436,10.6262383 12.0971587,11.4126988 C12.4611225,11.7741822 13.0489343,11.7717474 13.4102756,11.4080164 C13.7718043,11.0442855 13.7695564,10.4563599 13.4055926,10.0952511 C12.0574468,8.75757524 10.0649183,9.0048074 8.32958091,10.7264423 L5.5383177,13.4954425 C4.8686468,14.1601599 4.5,15.0442022 4.5,15.9851828 C4.5,16.9261633 4.8686468,17.8100183 5.53850502,18.4747357 C6.22765725,19.1583701 7.13260273,19.5 8.03792285,19.5 C8.94343029,19.5 9.84875041,19.1583701 10.5382773,18.4743611 L11.2971127,17.7212395 C11.6608892,17.3601307 11.6629497,16.7723924 11.3014211,16.4084742 C10.9404545,16.0449305 10.3520807,16.0428703 9.98811688,16.4041664 L9.98811688,16.4041664 Z M18.4611415,5.63208766 C17.0131834,4.19549067 14.9886644,4.11757354 13.6482261,5.44740909 L12.7030259,6.3855987 C12.3390696,6.74690191 12.3368218,7.33446446 12.698343,7.69838988 C13.0598643,8.0623153 13.6476641,8.06437561 14.0116205,7.7030724 L14.9564459,6.76544469 C15.650829,6.07599051 16.5600643,6.3618115 17.153109,6.95012326 C17.4692996,7.26347747 17.6429422,7.6798471 17.6429422,8.12225155 C17.6429422,8.5648433 17.4691123,8.98121294 17.1534836,9.29456714 L14.1757099,12.2483005 C12.8141048,13.5991137 12.1753548,12.9651006 11.902809,12.6946382 C11.5388526,12.333335 10.9512401,12.3355826 10.5897189,12.6993208 C10.2281976,13.0630589 10.2304454,13.650996 10.5944018,14.0121119 C11.2194776,14.6324521 11.932967,14.94 12.6809226,14.94 C13.596714,14.94 14.5640174,14.4788655 15.4837425,13.5657742 L18.4615162,10.6120408 C19.1309861,9.94731037 19.5,9.06306338 19.5,8.12206425 C19.5,7.18143973 19.1309861,6.29719274 18.4611415,5.63208766 L18.4611415,5.63208766 Z"></path>
    </symbol>

    <symbol id="icon-user" viewBox="0 0 24 24">
      <title>user icon</title>
      <desc>user icon</desc>
      <path fill="none" d="M0 0h24v24H0z"></path>
      <path d="M12,4.5 C14.4852814,4.5 16.5,6.51471863 16.5,9 C16.5,10.9594399 15.2476459,12.6263768 13.4997012,13.244047 L13.4999419,13.2519266 L13.4999419,13.2519266 L13.5,13.26 C13.5,14.1 14.76,14.7 17.28,15.06 L17.2365978,15.0599912 C19.3714731,15.4115123 21,17.2655747 21,19.5 L3,19.5 C3,17.1879483 4.74364616,15.283147 6.98769248,15.028842 C9.30582584,14.6694526 10.4764677,14.08798 10.4996488,13.2844183 L10.5003589,13.2440683 C8.75238287,12.626415 7.5,10.9594623 7.5,9 C7.5,6.51471863 9.51471863,4.5 12,4.5 Z"></path>
    </symbol>

    <symbol id="icon-suspended-user" viewBox="0 0 24 24">
      <title>suspended user icon</title>
      <desc>suspended user icon</desc>
      <path fill="none" d="M0 0h24v24H0z"></path>
      <path d="M12,4.5 C14.4852814,4.5 16.5,6.51471863 16.5,9 C16.5,9.76966476 16.3067736,10.4941991 15.9661845,11.1277392 C13.2339044,11.3946796 11.1,13.6981398 11.1,16.5 C11.1,17.6105831 11.4352618,18.6428615 12.010098,19.5011479 L3,19.5 L3,19.5 C3,17.1879483 4.74364616,15.283147 6.98769248,15.028842 C9.30582584,14.6694526 10.4764677,14.08798 10.4996488,13.2844183 L10.5003589,13.2440683 C8.75238287,12.626415 7.5,10.9594623 7.5,9 C7.5,6.51471863 9.51471863,4.5 12,4.5 Z"></path>
      <path fill="#F00000" d="M13.913163,15 L18,19.086837 C17.5557321,19.3493556 17.037509,19.5 16.484101,19.5 C14.8360275,19.5 13.5,18.1639725 13.5,16.515899 C13.5,15.962491 13.6506444,15.4442679 13.913163,15 L13.913163,15 Z M16.515899,13.5 C18.1639725,13.5 19.5,14.8360275 19.5,16.484101 C19.5,17.037509 19.3493556,17.5557321 19.086837,18 L15,13.913163 C15.4442679,13.6506444 15.962491,13.5 16.515899,13.5 Z M21,16.5 C21,14.0147186 18.9852814,12 16.5,12 C14.0147186,12 12,14.0147186 12,16.5 C12,18.9852814 14.0147186,21 16.5,21 C18.9852814,21 21,18.9852814 21,16.5 Z"></path>
    </symbol>

    <symbol id="icon-production" viewBox="0 0 24 24">
      <title>production</title>
      <desc>production</desc>
      <path fill="none" d="M0 0h24v24H0z"></path>
      <path d="M12,3 C16.970563,3 21,7.02943701 21,12 C21,16.970563 16.970563,21 12,21 C7.02943701,21 3,16.970563 3,12 C3,7.02943701 7.02943701,3 12,3 Z M10.2,10.2 L13.8,10.2 L13.8,11.4 L10.2,11.4 L10.2,10.2 Z M15,12.6 L15,9 L9,9 L9,15 L10.2,15 L10.2,12.6 L15,12.6 Z"></path>
    </symbol>

    <symbol id="icon-duplicate-contact" viewBox="0 0 24 24">
      <title>duplicate contact</title>
      <desc>duplicate contact</desc>
      <path fill="none" d="M0 0h24v24H0z"></path>
      <path d="M12,3 C16.9705627,3 21,7.02943725 21,12 C21,16.9705627 16.9705627,21 12,21 C7.02943725,21 3,16.9705627 3,12 C3,7.02943725 7.02943725,3 12,3 Z M14.4545455,7.90909091 L7.90909091,7.90909091 L7.90909091,16.0909091 L14.4545455,16.0909091 L14.4545455,14.4545455 L9.54545455,14.4545455 L9.54545455,9.54545455 L14.4545455,9.54545455 L14.4545455,7.90909091 Z M16.0909091,9.54545455 L14.4545455,9.54545455 L14.4545455,14.4545455 L16.0909091,14.4545455 L16.0909091,9.54545455 Z"></path>
    </symbol>


  </defs>

</svg>
