<?xml version="1.0" encoding="UTF-8" standalone="no"?>
<svg width="72px" height="36px" viewBox="0 0 72 36" version="1.1" xmlns="http://www.w3.org/2000/svg" xmlns:xlink="http://www.w3.org/1999/xlink" xmlns:sketch="http://www.bohemiancoding.com/sketch/ns">
    <title>symbols-18</title>
    <description>Created with Sketch (http://www.bohemiancoding.com/sketch)</description>
    <defs></defs>
    <g id="Page-1" stroke="none" stroke-width="1" fill="none" fill-rule="evenodd" sketch:type="MSPage">
        <g id="symbols-18" sketch:type="MSArtboardGroup">
            <circle id="Oval-1" fill="#6F6E68" sketch:type="MSShapeGroup" cx="9" cy="9" r="9"></circle>
            <circle id="Oval-1" fill="#6F6E68" sketch:type="MSShapeGroup" cx="27" cy="9" r="9"></circle>
            <circle id="Oval-1" fill="#B6B5B0" sketch:type="MSShapeGroup" cx="9" cy="27" r="9"></circle>
            <circle id="Oval-1" fill="#B6B5B0" sketch:type="MSShapeGroup" cx="27" cy="27" r="9"></circle>
            <circle id="Oval-1" fill="#6F6E68" sketch:type="MSShapeGroup" cx="45" cy="9" r="9"></circle>
            <circle id="Oval-1" fill="#6F6E68" sketch:type="MSShapeGroup" cx="63" cy="9" r="9"></circle>
            <circle id="Oval-1" fill="#B6B5B0" sketch:type="MSShapeGroup" cx="45" cy="27" r="9"></circle>
            <circle id="Oval-1" fill="#B6B5B0" sketch:type="MSShapeGroup" cx="63" cy="27" r="9"></circle>
            <rect id="Rectangle-1" fill="#FFFFFF" sketch:type="MSShapeGroup" x="8" y="5" width="2" height="8"></rect>
            <rect id="Rectangle-2" fill="#FFFFFF" sketch:type="MSShapeGroup" x="5" y="8" width="8" height="2"></rect>
            <rect id="Rectangle-1" fill="#FFFFFF" sketch:type="MSShapeGroup" x="8" y="23" width="2" height="8"></rect>
            <rect id="Rectangle-2" fill="#FFFFFF" sketch:type="MSShapeGroup" x="5" y="26" width="8" height="2"></rect>
            <rect id="Rectangle-5" fill="#FFFFFF" sketch:type="MSShapeGroup" x="23" y="8" width="8" height="2"></rect>
            <rect id="Rectangle-5" fill="#FFFFFF" sketch:type="MSShapeGroup" x="23" y="26" width="8" height="2"></rect>
            <path d="M68,9 C68,11.7614239 65.7614239,14 63,14 C60.2385761,14 58,11.7614239 58,9 C58,6.23857611 60.2385761,4 63,4 L63,6 C61.3431457,6 60,7.34314567 60,9 C60,10.6568543 61.3431457,12 63,12 C64.6568543,12 66,10.6568543 66,9 L68,9 L68,9 Z M63.0200195,1.99884033 L63.0200195,8.01477051 L67.0163574,5.00680542 L63.0200195,1.99884033 Z" id="Oval-13" fill="#FFFFFF" sketch:type="MSShapeGroup"></path>
            <path d="M68,27 C68,29.7614239 65.7614239,32 63,32 C60.2385761,32 58,29.7614239 58,27 C58,24.2385761 60.2385761,22 63,22 L63,24 C61.3431457,24 60,25.3431457 60,27 C60,28.6568543 61.3431457,30 63,30 C64.6568543,30 66,28.6568543 66,27 L68,27 L68,27 Z M63.0200195,19.9988403 L63.0200195,26.0147705 L67.0163574,23.0068054 L63.0200195,19.9988403 Z" id="Oval-13" fill="#FFFFFF" sketch:type="MSShapeGroup"></path>
            <path d="M40,8.05680339 L44.0192871,13 L49,5 L44.0436198,9.95499674 L40,8.05680339 L40,8.05680339 Z" id="Path-1" fill="#FFFFFF" sketch:type="MSShapeGroup"></path>
            <path d="M40,26.0568034 L44.0192871,31 L49,23 L44.0436198,27.9549967 L40,26.0568034 L40,26.0568034 Z" id="Path-1" fill="#FFFFFF" sketch:type="MSShapeGroup"></path>
        </g>
    </g>
</svg>