<?xml version="1.0" encoding="UTF-8" standalone="no"?>
<svg width="11px" height="12px" viewBox="0 0 11 12" version="1.1" xmlns="http://www.w3.org/2000/svg" xmlns:xlink="http://www.w3.org/1999/xlink" xmlns:sketch="http://www.bohemiancoding.com/sketch/ns">
    <!-- Generator: Sketch 3.0.4 (8054) - http://www.bohemiancoding.com/sketch -->
    <title>trash-m</title>
    <desc>Created with Sketch.</desc>
    <defs></defs>
    <g id="Page-1" stroke="none" stroke-width="1" fill="none" fill-rule="evenodd" sketch:type="MSPage">
        <g id="trash-m" sketch:type="MSArtboardGroup" fill="#000000">
            <path d="M1,1 L1,12 L10,12 L10,1 L1,1 L1,1 Z M2,2 L2,11 L9,11 L9,2 L2,2 L2,2 Z M4,0 L4,1 L7,1 L7,0 L4,0 L4,0 Z M0,1 L0,2 L1,2 L1,1 L0,1 L0,1 Z M10,1 L10,2 L11,2 L11,1 L10,1 L10,1 Z M5,3 L5,10 L6,10 L6,3 L5,3 L5,3 Z M7,3 L7,10 L8,10 L8,3 L7,3 L7,3 Z M3,3 L3,10 L4,10 L4,3 L3,3 L3,3 Z" id="Rectangle-6" sketch:type="MSShapeGroup"></path>
        </g>
    </g>
</svg>