<?xml version="1.0" encoding="UTF-8" standalone="no"?>
<svg width="9px" height="9px" viewBox="0 0 9 9" version="1.1" xmlns="http://www.w3.org/2000/svg" xmlns:xlink="http://www.w3.org/1999/xlink" xmlns:sketch="http://www.bohemiancoding.com/sketch/ns">
    <!-- Generator: Sketch 3.0.4 (8054) - http://www.bohemiancoding.com/sketch -->
    <title>trash-sm</title>
    <desc>Created with Sketch.</desc>
    <defs></defs>
    <g id="Page-1" stroke="none" stroke-width="1" fill="none" fill-rule="evenodd" sketch:type="MSPage">
        <g id="trash-sm" sketch:type="MSArtboardGroup" fill="#000000">
            <path d="M1,1 L1,9 L8,9 L8,1 L1,1 L1,1 Z M2,2 L2,8 L7,8 L7,2 L2,2 L2,2 Z M3,0 L3,1 L6,1 L6,0 L3,0 L3,0 Z M0,1 L0,2 L1,2 L1,1 L0,1 L0,1 Z M8,1 L8,2 L9,2 L9,1 L8,1 L8,1 Z M5,3 L5,7 L6,7 L6,3 L5,3 L5,3 Z M3,3 L3,7 L4,7 L4,3 L3,3 L3,3 Z" id="Rectangle-5" sketch:type="MSShapeGroup"></path>
        </g>
    </g>
</svg>