<?xml version="1.0" encoding="UTF-8" standalone="no"?>
<svg width="33px" height="35px" viewBox="0 0 33 35" version="1.1" xmlns="http://www.w3.org/2000/svg" xmlns:xlink="http://www.w3.org/1999/xlink" xmlns:sketch="http://www.bohemiancoding.com/sketch/ns">
    <!-- Generator: Sketch 3.0.4 (8054) - http://www.bohemiancoding.com/sketch -->
    <title>trash</title>
    <desc>Created with Sketch.</desc>
    <defs></defs>
    <g id="Page-1" stroke="none" stroke-width="1" fill="none" fill-rule="evenodd" sketch:type="MSPage">
        <g id="trash" sketch:type="MSArtboardGroup" fill="#000000">
            <path d="M3,31.0007252 C3,33.2094637 4.79245532,35 6.99847066,35 L26.0015293,35 C28.2098237,35 30,33.2132053 30,31.0007252 L30,5 L3,5 L3,31.0007252 Z M6,29.9926701 C6,31.1012878 6.90234375,32 7.99456145,32 L25.0054385,32 C26.1070044,32 27,31.1016617 27,29.9926701 L27,5 L6,5 L6,29.9926701 Z M15,8 L15,29 L18,29 L18,8 L15,8 L15,8 Z M21,8 L21,29 L24,29 L24,8 L21,8 L21,8 Z M12.0495936,2 L3.00135749,2 C1.34375352,2 1.77635684e-15,3.34651712 1.77635684e-15,5 L0,5 L33,5 C33,3.34314575 31.6654891,2 29.9986425,2 L20.9498818,2 C20.717733,0.858879839 19.7065339,0 18.4929982,0 L14.5070018,0 C13.2931659,0 12.2808157,0.852855166 12.0495936,2 Z M9,8 L9,29 L12,29 L12,8 L9,8 Z" id="Rectangle-6" sketch:type="MSShapeGroup"></path>
        </g>
    </g>
</svg>