<?xml version="1.0" encoding="UTF-8" standalone="no"?>
<svg width="10px" height="90px" viewBox="0 0 10 90" version="1.1" xmlns="http://www.w3.org/2000/svg" xmlns:xlink="http://www.w3.org/1999/xlink" xmlns:sketch="http://www.bohemiancoding.com/sketch/ns">
    <title>tree</title>
    <description>Created with Sketch (http://www.bohemiancoding.com/sketch)</description>
    <defs></defs>
    <g id="Page-1" stroke="none" stroke-width="1" fill="none" fill-rule="evenodd" sketch:type="MSPage">
        <g id="tree" sketch:type="MSArtboardGroup">
            <path d="M0,0 L0,2 L6,2 L6,0 L0,0 Z M2,2 L2,9 L3,9 L3,2 L2,2 Z M3,4 L3,5 L5,5 L5,4 L3,4 Z M3,8 L3,9 L5,9 L5,8 L3,8 Z M5,3 L5,6 L10,6 L10,3 L5,3 Z M5,7 L5,10 L10,10 L10,7 L5,7 Z" id="Rectangle-1" fill="#777777" sketch:type="MSShapeGroup"></path>
            <path d="M0,20 L0,22 L6,22 L6,20 L0,20 Z M2,22 L2,29 L3,29 L3,22 L2,22 Z M3,24 L3,25 L5,25 L5,24 L3,24 Z M3,28 L3,29 L5,29 L5,28 L3,28 Z M5,23 L5,26 L10,26 L10,23 L5,23 Z M5,27 L5,30 L10,30 L10,27 L5,27 Z" id="Rectangle-1" fill="#0D5CB5" sketch:type="MSShapeGroup"></path>
            <path d="M0,40 L0,42 L6,42 L6,40 L0,40 Z M2,42 L2,49 L3,49 L3,42 L2,42 Z M3,44 L3,45 L5,45 L5,44 L3,44 Z M3,48 L3,49 L5,49 L5,48 L3,48 Z M5,43 L5,46 L10,46 L10,43 L5,43 Z M5,47 L5,50 L10,50 L10,47 L5,47 Z" id="Rectangle-1" fill="#AAAAAA" sketch:type="MSShapeGroup"></path>
            <path d="M0,60 L0,62 L6,62 L6,60 L0,60 Z M2,62 L2,69 L3,69 L3,62 L2,62 Z M3,64 L3,65 L5,65 L5,64 L3,64 Z M3,68 L3,69 L5,69 L5,68 L3,68 Z M5,63 L5,66 L10,66 L10,63 L5,63 Z M5,67 L5,70 L10,70 L10,67 L5,67 Z" id="Rectangle-1" fill="#A1CFFD" sketch:type="MSShapeGroup"></path>
            <path d="M0,80 L0,82 L6,82 L6,80 L0,80 Z M2,82 L2,89 L3,89 L3,82 L2,82 Z M3,84 L3,85 L5,85 L5,84 L3,84 Z M3,88 L3,89 L5,89 L5,88 L3,88 Z M5,83 L5,86 L10,86 L10,83 L5,83 Z M5,87 L5,90 L10,90 L10,87 L5,87 Z" id="Rectangle-1" fill="#F0F0F0" sketch:type="MSShapeGroup"></path>
        </g>
    </g>
</svg>