<?xml version="1.0" encoding="UTF-8" standalone="no"?>
<svg width="16px" height="16px" viewBox="0 0 16 16" version="1.1" xmlns="http://www.w3.org/2000/svg" xmlns:xlink="http://www.w3.org/1999/xlink">
    <!-- Generator: Sketch 40.2 (33826) - http://www.bohemiancoding.com/sketch -->
    <title>warning-16</title>
    <desc>Created with Sketch.</desc>
    <defs>
        <path d="M8,16 C12.418278,16 16,12.418278 16,8 C16,3.581722 12.418278,0 8,0 C3.581722,0 0,3.581722 0,8 C0,12.418278 3.581722,16 8,16 Z" id="path-1"></path>
        <mask id="mask-2" maskContentUnits="userSpaceOnUse" maskUnits="objectBoundingBox" x="0" y="0" width="16" height="16" fill="white">
            <use xlink:href="#path-1"></use>
        </mask>
    </defs>
    <g id="Symbols" stroke="none" stroke-width="1" fill="none" fill-rule="evenodd">
        <g id="warning-16">
            <use id="Oval-3-Copy-9" stroke="#BFA630" mask="url(#mask-2)" stroke-width="2" fill="#FFDD40" xlink:href="#path-1"></use>
            <g id="questionmark" transform="translate(5.000000, 3.000000)" fill="#403710">
                <polygon id="!-copy-16" points="4 10 2 10 2 8 4 8"></polygon>
                <path d="M2,7 L2.01171213,5.36170213 C2.01171213,5.19148851 2.02222254,5.04642226 2.04324367,4.92649903 C2.0642648,4.8065758 2.10210226,4.69825967 2.1567572,4.60154739 C2.21141214,4.50483511 2.28288291,4.41199271 2.37117166,4.32301741 C2.45946041,4.23404211 2.56666657,4.12766019 2.69279335,4.00386847 L3.66396472,3.09864603 C4.08263364,2 3.25007659,2 2.98410981,2 C2.71814303,2 2.01171213,2 2.01171213,3 L0,3.01014596 C0,1.32301741 0.651650504,0.816248588 0.908108296,0.615087041 C1.16456609,0.413925493 1.46095958,0.261122379 1.79729767,0.156673114 C2.13363576,0.0522238491 2.5036021,0 2.90720781,0 C3.28558816,0 4.03638577,0.0793031721 4.36011118,0.179883946 C4.68383659,0.28046472 4.96551551,0.425530967 5.2051564,0.615087041 C5.44479728,0.804643114 5.63188254,1.04061754 5.76641777,1.32301741 C5.90095301,1.60541727 5.96821962,1.92843145 5.96821962,2.29206963 C5.96821962,2.54739006 5.93038215,2.77175919 5.85470608,2.96518375 C5.77903001,3.15860832 5.6781301,3.33655625 5.55200331,3.49903288 C5.42587653,3.66150952 5.28083291,3.81624685 5.11686809,3.96324952 C4.95290327,4.11025219 4.77843051,4.26498952 4.59344456,4.42746615 C4.47572623,4.52804692 4.37482631,4.61702089 4.29074179,4.69439072 C4.20665727,4.77176054 4,4.89144127 4,5 L4,6 L4,7 L2,7 Z" id="?-copy-4"></path>
            </g>
        </g>
        <g id="slices" transform="translate(-2629.000000, 0.000000)"></g>
    </g>
</svg>