<?xml version="1.0" encoding="UTF-8" standalone="no"?>
<svg width="100px" height="100px" viewBox="0 0 100 100" version="1.1" xmlns="http://www.w3.org/2000/svg" xmlns:xlink="http://www.w3.org/1999/xlink">
    <!-- Generator: Sketch 40 (33762) - http://www.bohemiancoding.com/sketch -->
    <title>warning</title>
    <desc>Created with Sketch.</desc>
    <defs>
        <path d="M50,100 C77.6142375,100 100,77.6142375 100,50 C100,22.3857625 77.6142375,0 50,0 C22.3857625,0 0,22.3857625 0,50 C0,77.6142375 22.3857625,100 50,100 Z" id="path-1"></path>
        <mask id="mask-2" maskContentUnits="userSpaceOnUse" maskUnits="objectBoundingBox" x="0" y="0" width="100" height="100" fill="white">
            <use xlink:href="#path-1"></use>
        </mask>
    </defs>
    <g id="Symbols" stroke="none" stroke-width="1" fill="none" fill-rule="evenodd">
        <g id="warning">
            <use id="Oval-3" stroke="#FFEB8C" mask="url(#mask-2)" stroke-width="13.5" fill="#FFDD40" xlink:href="#path-1"></use>
            <path d="M44.1625866,62.0542509 L44.1625866,57.2612455 C44.1625866,55.9831043 44.2354387,54.8937958 44.381145,53.9932873 C44.5268514,53.0927787 44.7891189,52.2794284 45.1679554,51.5532118 C45.5467919,50.8269952 46.0421861,50.1298378 46.6541528,49.4617185 C47.2661194,48.7935993 48.0092107,47.994773 48.8834488,47.0652158 L55.6150486,40.2678627 C57.0721121,38.8154295 57.8006329,36.9272948 57.8006329,34.6034017 C57.8006329,32.337606 57.0575417,30.4930436 55.5713369,29.0696591 C54.0851321,27.6462746 52.2055484,26.934593 49.9325293,26.934593 C47.4846626,26.934593 45.4739451,27.7624675 43.9003165,29.4182413 C42.3266879,31.0740151 41.423322,33.0928669 41.1901919,35.4748572 L30,34.6034017 C30.3496952,31.8147301 31.0782161,29.3311067 32.1855844,27.1524569 C33.2929526,24.9738072 34.7354239,23.1292448 36.5130414,21.6187143 C38.2906589,20.1081838 40.3450876,18.9607789 42.6763892,18.176465 C45.0076909,17.3921511 47.5720842,17 50.3696461,17 C52.9923605,17 55.4256201,17.377627 57.6694979,18.1328922 C59.9133757,18.8881574 61.8658115,19.9774659 63.5268639,21.4008504 C65.1879164,22.8242349 66.4846834,24.5961768 67.4172041,26.7167292 C68.3497247,28.8372816 68.8159781,31.2628085 68.8159781,33.9933828 C68.8159781,35.9105946 68.5537106,37.5953918 68.0291677,39.0478249 C67.5046248,40.5002581 66.8052448,41.8364765 65.9310067,43.0565204 C65.0567686,44.2765642 64.0514099,45.4384933 62.9149003,46.5423425 C61.7783908,47.6461917 60.5690462,48.8081208 59.2868303,50.0281646 C58.4708747,50.7834298 57.7714947,51.4515391 57.1886693,52.0325123 C56.6058439,52.6134856 56.1250202,53.2089742 55.7461837,53.8189962 C55.3673471,54.4290181 55.0905092,55.1261755 54.9156616,55.9104894 C54.740814,56.6948033 54.6533915,57.6388707 54.6533915,58.7427199 L54.6533915,62.0542509 L44.1625866,62.0542509 Z M43.5389124,76.9626288 C43.5389124,75.0232251 44.2243222,73.3565751 45.5951624,71.9626288 C46.9660025,70.5686824 48.6139027,69.8717197 50.5389124,69.8717197 C52.4055884,69.8717197 54.0389054,70.5383797 55.4389124,71.8717197 C56.8389194,73.2050597 57.5389124,74.8414069 57.5389124,76.7808106 C57.5389124,78.7202142 56.8535025,80.3868642 55.4826624,81.7808106 C54.1118222,83.1747569 52.463922,83.8717197 50.5389124,83.8717197 C49.6055744,83.8717197 48.7159999,83.6899033 47.8701624,83.3262651 C47.0243248,82.9626269 46.2805822,82.4777833 45.6389124,81.8717197 C44.9972425,81.265656 44.4868309,80.5383906 44.1076624,79.6899015 C43.7284938,78.8414124 43.5389124,77.9323306 43.5389124,76.9626288 L43.5389124,76.9626288 Z" id="?" fill="#403710"></path>
        </g>
        <g id="slices" transform="translate(-425.000000, 0.000000)"></g>
    </g>
</svg>