<?xml version="1.0" encoding="UTF-8" standalone="no"?>
<svg width="50px" height="58px" viewBox="0 0 50 58" version="1.1" xmlns="http://www.w3.org/2000/svg" xmlns:xlink="http://www.w3.org/1999/xlink" xmlns:sketch="http://www.bohemiancoding.com/sketch/ns">
    <title>yp-logo-sm</title>
    <description>Created with Sketch (http://www.bohemiancoding.com/sketch)</description>
    <defs></defs>
    <g id="Page-1" stroke="none" stroke-width="1" fill="none" fill-rule="evenodd" sketch:type="MSPage">
        <g id="yp-logo-sm" sketch:type="MSArtboardGroup">
            <g id="Fill-1-+-Fill-2-+-Fill-8" sketch:type="MSLayerGroup" transform="translate(5.000000, 0.000000)">
                <path d="M38.1422389,7.48582853 C38.1590022,7.49300344 38.174684,7.50257 38.1914473,7.50921344 C38.2052365,7.51638835 38.2195664,7.52064016 38.2333556,7.52701786 C38.2701267,7.54508802 38.3063571,7.56315817 38.3431283,7.58255702 C33.8335261,5.17311409 29.326898,2.76260821 24.818918,0.353431024 C24.8008028,0.342535782 24.7810654,0.334297916 24.7613279,0.325794312 C24.7321273,0.30931858 24.6994118,0.294171536 24.6685889,0.279024493 C24.6099173,0.252982207 24.5480012,0.228002871 24.4877074,0.204352224 C24.4639143,0.193456981 24.4384989,0.18362469 24.4130836,0.174058136 C24.3273744,0.145092736 24.2392318,0.116127336 24.1494669,0.0940711146 L24.1462224,0.0940711146 C24.135137,0.0898193128 24.1237812,0.0884906248 24.1126958,0.085567511 C24.0369905,0.067763091 23.9596629,0.0526160472 23.879902,0.039063429 C23.8498903,0.0348116272 23.8206896,0.0305598254 23.7898668,0.0265737612 C23.7279507,0.0193988457 23.6633308,0.0124896678 23.5976294,0.00876934119 C23.5654546,0.00584622746 23.5316576,0.00318885134 23.498131,0.00159442567 C23.4318889,0 23.3642949,0 23.2969712,0 C23.2661484,0.00159442567 23.2350551,0.00159442567 23.2058545,0.00318885134 C23.107708,0.00876934119 23.0092911,0.0167414696 22.9095223,0.0305598254 L3.61792049,2.69511086 C3.50922932,2.7102579 3.39783439,2.73231413 3.29103584,2.75835641 C3.26021297,2.76553133 3.22803822,2.77350346 3.19694498,2.78174132 C3.11556178,2.80273459 3.03444897,2.82771393 2.95576954,2.85375621 C2.92738005,2.86465146 2.89655718,2.87315506 2.86843807,2.88245588 C2.77056194,2.91992488 2.67187468,2.96005126 2.57697268,3.00549239 C2.57697268,3.00549239 2.56805027,3.00708682 2.56399463,3.00814977 C2.53695703,3.02223386 2.51451582,3.03578648 2.48801896,3.04827615 C2.40798765,3.0868081 2.32849709,3.12693448 2.25116954,3.17237561 C2.21304652,3.19310315 2.17762725,3.21808248 2.14031536,3.2401387 C2.0935403,3.27043279 2.04460223,3.30364999 1.99512342,3.33394408 C1.984038,3.34218195 1.97403408,3.34909112 1.96457092,3.3560003 C1.83073477,3.4471483 1.70446916,3.54520548 1.58415181,3.65123479 C1.57685166,3.65681528 1.57144414,3.66505314 1.56306248,3.67063363 C1.54359541,3.68710937 1.52358758,3.7078369 1.5041205,3.72564132 C1.41705941,3.80589408 1.33243171,3.88986716 1.25131889,3.9770291 C1.23266294,3.99483352 1.21644038,4.01290368 1.20075857,4.03230252 C1.18534713,4.04877826 1.1699357,4.06525399 1.15722802,4.08040103 C1.07016693,4.18111559 0.987431862,4.28342457 0.905778293,4.3910483 C0.897667011,4.40486666 0.886311217,4.41868501 0.876577679,4.43223763 C0.873333167,4.43489501 0.870629406,4.43781812 0.869277526,4.44074123 C0.775457035,4.57281283 0.689747826,4.71099638 0.611068394,4.85157158 C0.60241636,4.86698436 0.594305079,4.88213141 0.585653045,4.89860714 C0.563752584,4.94139089 0.538066859,4.98709776 0.515625647,5.03227316 C0.495888195,5.06974216 0.476150743,5.10561674 0.459387428,5.14414869 C0.417479139,5.2297162 0.382330252,5.31687814 0.347181365,5.40510303 C0.338799707,5.42715925 0.327173537,5.4508099 0.319062255,5.47260038 C0.316088119,5.47844661 0.316088119,5.48110398 0.315276991,5.48641874 C0.289591265,5.5525874 0.268501933,5.62035049 0.246060721,5.68944227 C0.232271542,5.73913521 0.21388597,5.78617076 0.199826415,5.83692665 C0.177385203,5.91133318 0.161703392,5.98866282 0.146291957,6.06466378 C0.133854658,6.11276229 0.121146984,6.15979784 0.111413446,6.20949078 C0.0943797543,6.29505829 0.0862684727,6.3806258 0.0749126784,6.46459889 C0.0692347813,6.50738264 0.0605827475,6.54777476 0.0576086109,6.59029278 C0.0457120645,6.71864404 0.038141535,6.84699531 0.038141535,6.97667526 L1.85113774e-05,27.4411288 C-0.00403712944,28.7892157 0.65865458,29.8808658 1.65553109,30.4147326 L15.1781191,37.6451873 C15.1667633,37.6382781 15.1556779,37.6284459 15.1429702,37.6231311 C15.7018375,37.9321839 16.3699367,38.0671786 17.089137,37.9677928 L36.3785759,35.3035075 C38.3539433,35.0303292 39.9572733,33.1122351 39.9599771,31.0203487 L39.9999927,10.5548322 C40.0026965,9.11958337 39.2510511,7.97584869 38.1422389,7.48582853" id="Fill-1" fill="#FFDA1A" sketch:type="MSShapeGroup"></path>
                <path d="M38.1758092,7.25758878 C38.1731543,7.25625015 38.1702339,7.25330517 38.1665171,7.25330517 C38.0791708,7.21314638 37.9870457,7.18101935 37.8930621,7.14916004 C37.8683715,7.13952193 37.8436809,7.13256107 37.8171319,7.12426159 C37.7401397,7.10204039 37.6642095,7.08249645 37.5842969,7.06616521 C37.5635887,7.06027525 37.541553,7.05599165 37.5208447,7.05197577 C37.4215514,7.03377045 37.322258,7.01851011 37.2216372,7.01021062 C37.2027874,7.00860427 37.1842031,7.00860427 37.1664152,7.00753337 C37.0795999,7.00057251 36.9930501,6.99896616 36.9035799,7.00057251 L36.8356144,7.00057251 C36.7241085,7.00592702 36.6107441,7.01449423 36.4955213,7.0310932 L17.5538527,9.7142359 C17.4463292,9.72922852 17.3388056,9.75144971 17.2342024,9.77795452 C17.2010162,9.786254 17.1696883,9.79321486 17.1378295,9.80151434 C17.0589789,9.82373554 16.9833141,9.84729536 16.905791,9.87540652 C16.8755251,9.88504463 16.8468521,9.89468274 16.8179137,9.9059272 C16.7175584,9.94207011 16.6169376,9.98383525 16.5197681,10.0312226 C16.4910952,10.0451443 16.4621567,10.0617433 16.4316254,10.0770036 C16.3575536,10.1142175 16.2829508,10.1535731 16.2112684,10.1950705 C16.1727723,10.2175594 16.1369312,10.2437965 16.0997625,10.2673563 C16.0429476,10.3034992 15.9850707,10.3409808 15.9301142,10.3800687 C15.8002895,10.4729693 15.6749781,10.57176 15.5563039,10.6788501 C15.5302859,10.7010713 15.5040024,10.7275761 15.4779843,10.7524745 C15.3914345,10.8343984 15.3080705,10.9192674 15.2268305,11.0081522 C15.1981576,11.0400115 15.1676262,11.0750835 15.1386878,11.10962 C15.0518724,11.2097493 14.9708979,11.3157685 14.8907198,11.4268745 C14.8795693,11.4418671 14.8654983,11.4573952 14.8546132,11.4739941 C14.7619571,11.6073213 14.6799206,11.7451998 14.6008045,11.8881651 C14.5678837,11.946797 14.5376178,12.0081061 14.5070864,12.0702183 C14.4892986,12.1079676 14.4688558,12.1438428 14.4508025,12.1831984 C14.4125719,12.2664609 14.3777927,12.3524008 14.3446064,12.4386083 C14.3334558,12.4640422 14.3225707,12.4886729 14.314606,12.5167841 C14.2880569,12.5831799 14.2673487,12.6557335 14.245313,12.7250743 C14.2288526,12.7767453 14.2121267,12.8278808 14.1969938,12.8806227 C14.1752236,12.9585308 14.1600906,13.0391161 14.1417718,13.1199691 C14.1324796,13.1660179 14.1186741,13.2088539 14.110444,13.2546349 C14.0926561,13.3478033 14.0825675,13.4425781 14.0719479,13.5368174 C14.0658416,13.5718894 14.0607973,13.6037487 14.0578769,13.6382853 C14.0453988,13.7678643 14.0387616,13.8971756 14.0387616,14.0291642 L14,34.6464198 C14,34.8008973 14.0106196,34.9510912 14.0273455,35.0986078 C14.0331863,35.1443889 14.040089,35.1872249 14.0453988,35.231935 C14.0607973,35.3344738 14.0785851,35.4362094 14.1019483,35.535 C14.1130989,35.5807811 14.1226565,35.6265621 14.1351345,35.6696658 C14.1627455,35.776756 14.1969938,35.8784916 14.2344279,35.9799594 C14.245313,36.0091415 14.2538087,36.0396622 14.2644283,36.0675056 C14.314606,36.1936042 14.3724828,36.3159547 14.435935,36.4329506 C14.4518644,36.460794 14.4688558,36.4872988 14.4853162,36.5138036 C14.5365558,36.6010821 14.5901849,36.685951 14.6493892,36.7665363 C14.6754072,36.8029469 14.7006288,36.8361449 14.7266469,36.8693428 C14.7845237,36.943235 14.84479,37.0112372 14.9071802,37.0792394 C14.9347912,37.1073506 14.9608093,37.1362649 14.9873583,37.1630374 C15.078156,37.2529931 15.171874,37.3365234 15.2735568,37.4130928 C15.2793976,37.4171087 15.2860349,37.4200537 15.2932031,37.4256759 C15.3869212,37.4963554 15.4888694,37.5606095 15.5921451,37.6203122 C16.1409135,37.9316767 16.79694,38.0676811 17.5031441,37.9675519 L36.4440162,35.2833383 C38.3836881,35.0081167 39.9580454,33.0756757 39.9607003,30.9681423 L39.9999929,10.349548 C40.0026478,8.90356377 39.2645848,7.75127418 38.1758092,7.25758878" id="Fill-2" fill="#EDC81F" sketch:type="MSShapeGroup"></path>
                <path d="M33.6477212,22.4071751 C34.3270567,22.5701526 33.8480381,24.8678092 33.6603895,25.1675036 C33.469046,25.4685515 31.8358962,26.6635387 29.7543428,27.7440086 C29.2214841,30.0373336 28.7751919,31.2453157 28.0755344,32.3209125 C27.121984,33.8247988 25.8337803,34.7669273 24.4550514,34.9659114 C22.8015796,35.2044215 21.6469205,34.1724117 21.6508793,32.4633147 C21.6558938,29.3989603 25.2993381,27.6254304 27.2579038,26.6681411 L27.8387963,26.3849611 L28.4405387,23.1454466 C27.4880439,24.1807051 26.6419097,24.68182 25.6537854,24.82341 C23.7931348,25.0919708 22.3930282,23.7053092 22.3959313,21.6055537 C22.396987,20.7820034 22.6580059,19.2467128 23.0768503,17.5982585 C23.3856391,16.3274679 23.5600916,15.5881135 23.6416435,14.7843263 C23.094797,15.2970824 22.4663985,15.8360991 21.9097869,16.260057 C21.8680872,16.2911905 21.8229565,16.3098707 21.7770341,16.3169095 C21.7538089,16.3198875 21.7295281,16.3198875 21.7044555,16.3169095 C21.6371554,16.3031025 21.5812039,16.2603277 21.5495332,16.1907509 L21.0306624,15.1346465 C20.9665294,15.0109244 21.0058537,14.8414496 21.1219795,14.7461538 C22.1950866,13.8381368 23.3959321,12.6891731 24.6954844,11.3279598 C24.7414068,11.2786875 24.8010532,11.2510734 24.8606996,11.2421394 L26.0420148,11.0710402 C26.1618354,11.0531723 26.2605423,11.1222075 26.2948522,11.241598 C26.3690143,11.5123246 26.3972539,11.6203445 26.3964622,11.9882619 C26.369806,12.8927595 26.2697796,13.4888995 26.0668235,14.5401309 C25.9704919,15.0417873 25.8079159,15.7324108 25.6305603,16.4690579 C25.2534157,18.0528085 24.7899685,20.0239689 24.7870653,21.0584152 C24.784954,22.0292408 25.3513307,22.6500169 26.1380825,22.5373946 C27.0195822,22.4109653 27.8232249,21.7322537 29.0879395,20.0437319 L29.760413,16.8486166 C30.3252062,14.156782 30.9916095,11.8837615 31.6355793,10.4445789 C31.6822935,10.3406198 31.7707074,10.2686066 31.8657194,10.255341 L33.6173702,10.0022116 C33.702617,9.99057036 33.7836411,10.0254941 33.8322028,10.0926343 C33.8810284,10.1635647 33.8915852,10.2596726 33.8644013,10.3500953 C33.066037,13.0121499 32.2423362,15.8905151 31.6527343,18.8471203 L31.1473235,21.3859944 L30.3402498,25.2519703 C31.6965453,24.4519731 32.8245483,22.5027416 33.519983,22.4025728 C33.563794,22.3963461 33.6068133,22.3971583 33.6477212,22.4071751 L33.6477212,22.4071751 Z M25.0885326,32.9869061 C26.3301622,32.8292763 27.2379985,31.5921053 28,29 L27.7463868,29.1198616 C25.0870801,30.3717202 24.0020341,31.2687151 24.0000006,32.2100351 C23.9994196,32.7553136 24.436924,33.0695241 25.0885326,32.9869061 L25.0885326,32.9869061 Z" id="Fill-8" fill="#FFFFFF" sketch:type="MSShapeGroup"></path>
            </g>
            <g id="Group" sketch:type="MSLayerGroup" transform="translate(0.000000, 40.000000)" fill="#111413">
                <path d="M22.1998521,11.6141125 C22.5028327,11.1161112 22.7060482,10.5465533 22.8313468,9.99317466 C22.9140018,9.62631629 22.9642792,9.24722492 22.9888915,8.8724743 C23.0079758,8.58296003 23.004817,8.29028887 22.9608572,8.00327382 C22.8936013,7.56157056 22.7519822,7.13262644 22.5095451,6.75511352 C22.4645324,6.68526706 22.0109828,6.11426233 22.0292775,6.08795481 C22.0632345,6.03849667 22.1020613,5.98522394 22.1626047,5.90472293 C22.2136718,5.83632338 22.2702668,5.76463539 22.3294941,5.68992203 C22.6027294,5.34581966 22.9424309,4.91740169 22.9711233,4.45031167 C22.9856011,4.21538551 22.9121592,4.00558304 22.7593527,3.84300256 C22.5573218,3.62859627 22.2224901,3.50600323 21.840803,3.50600323 C21.6654902,3.50600323 21.493731,3.53270536 21.3447415,3.58334734 C20.5380656,3.85694555 20.1751996,4.91661247 20.1751996,5.58219273 C20.1751996,5.73240867 20.2236344,5.84053258 20.2869418,5.92563741 C20.3061578,5.95168185 20.1064959,6.24829915 20.0901755,6.27592204 C19.7475785,6.84850522 19.3740516,7.4025416 19.0002615,7.95513106 C18.8966795,8.10810929 18.7899387,8.26003522 18.6692467,8.40038584 C18.3869298,8.76303501 18.0968477,9.12318496 17.7774151,9.45452818 C17.4142859,9.83059418 17.0203585,10.1883765 16.6041879,10.5049875 C16.1678801,10.8376461 15.6818214,11.110192 15.1790474,11.3310436 C14.6506082,11.5629444 14.1086125,11.6655437 13.5351606,11.7055312 C13.4657988,11.7105296 13.3953842,11.7194741 13.3258908,11.7194741 C13.1153048,11.7194741 12.9572337,11.6626499 12.8436489,11.5447922 C12.5919987,11.2854001 12.5760731,10.7629327 12.5835752,10.4048874 L12.8323299,10.3055765 C14.034381,9.82506961 16.5344313,8.82551537 16.5344313,6.73091061 C16.5344313,5.70596961 15.8939867,5.09392516 14.8199983,5.09392516 C12.9089306,5.09392516 11.0968382,7.00450882 10.6688223,9.45715893 C9.7984441,10.3096541 9.0987722,10.7677996 7.88842931,11.2569879 L8.55914564,8.40683119 L8.98071244,6.53057884 C9.47361523,4.34389775 10.1619681,2.24916145 10.8329477,0.311349503 C10.8559805,0.244002251 10.845188,0.169683506 10.8041237,0.111543886 C10.7629279,0.0534042662 10.6959352,0.0192044898 10.6244676,0.0192044898 L9.14891799,0.0192044898 C9.06744754,0.0192044898 8.99229467,0.0644534247 8.95478404,0.136799106 C8.41318324,1.1606878 7.85486717,2.81832465 7.38289136,4.80335859 L6.82167974,7.1601178 C5.7584838,8.30515262 5.08289767,8.73225521 4.33979241,8.73225521 C3.67907892,8.73225521 3.19946936,8.1966341 3.19946936,7.45870815 C3.19946936,6.67250791 3.59089604,5.22493661 3.90493237,4.06214421 C4.05076316,3.52244543 4.18830212,3.011948 4.26727187,2.6421958 C4.43824135,1.86441396 4.52102796,1.423763 4.54090202,0.737268256 C4.54090202,0.457093165 4.51984342,0.372777563 4.45495661,0.157187434 C4.42665912,0.0639272743 4.3413718,0 4.24437064,0 L3.24777252,0 C3.19723188,0 3.14787579,0.0178891138 3.10839092,0.049852751 C2.01571295,0.94325614 1.00463704,1.68525975 0.102407756,2.25560679 C0.00619628855,2.31624562 -0.0276290836,2.44015405 0.0242277126,2.541438 L0.464747248,3.4034039 C0.492255041,3.45680817 0.54016335,3.4967956 0.597153179,3.51376395 C0.654669474,3.53152152 0.716265871,3.52441849 0.769175597,3.49521715 C1.23654484,3.23214194 1.76419433,2.89343262 2.22511438,2.5620894 C2.15851656,3.16558392 2.01255416,3.706335 1.75248048,4.64051504 C1.40448716,5.84842484 1.18811007,6.98688278 1.18811007,7.61194946 C1.18811007,9.21092054 2.36989224,10.4172519 3.93744158,10.4172519 C4.76886133,10.4172519 5.479589,10.1301053 6.28218479,9.44939822 L5.77980563,11.844961 L5.29032485,11.9976762 C3.64209475,12.5092259 0.575041652,13.4618212 0.575041652,15.7883268 C0.575041652,17.0908121 1.54794885,18 2.94110669,18 C4.10433097,18 5.18674288,17.4255753 5.98775928,16.3851129 C6.57582061,15.6453454 6.94882102,14.7752242 7.39697429,13.086939 C9.14852314,12.4950198 10.0664148,11.9880739 10.6817206,11.5570252 C10.9333709,12.7394167 11.6110629,13.3851348 12.6167425,13.3851348 C15.3134275,13.3851348 17.8153205,12.0880425 19.4811872,9.82546422 C19.979223,9.14922941 21.0645305,7.54144531 21.0645305,7.54144531 C21.0645305,7.54144531 21.2156259,7.74125092 21.2756429,7.84082489 C21.3648787,7.98801546 21.4194995,8.13888909 21.4524035,8.3085726 C21.5927064,9.02689944 21.3269733,10.2817682 20.2009964,11.0650746 C19.7180964,11.4011531 18.9718324,11.3965493 18.5080168,11.7812968 C18.284664,11.9675541 18.1301466,12.6209013 18.1326473,12.7574374 C18.1389649,13.1020659 18.5502656,13.29148 18.9278726,13.3448843 C19.7400763,13.4590589 20.6069009,13.1196919 21.2528733,12.6456304 C21.428581,12.5164605 21.6091585,12.3696645 21.7560422,12.2082679 C21.9205625,12.0271406 22.0728425,11.8233888 22.1998521,11.6141125 L22.1998521,11.6141125 Z M14.7991445,7 C14.94564,7 15,7.0556559 15,7.20482975 C15,7.80313064 14.2277723,8.48665463 13,9 C13.3616979,7.89490936 14.1423495,7 14.7991445,7 L14.7991445,7 Z M5,14 C4.43101443,16.0703364 3.75115227,17 2.81878096,17 C2.32888219,17 2,16.6948846 2,16.2404782 C2,15.4602446 2.81399957,14.8316653 4.81029507,14.0722825 L5,14 L5,14 Z" id="Fill-3" sketch:type="MSShapeGroup"></path>
                <path d="M25,16 L25,4.22044728 L26.5248334,4.2036413 L26.8538715,4.86537704 C27.0385617,4.62812377 27.3390518,4.42421988 27.7549399,4.25445315 C28.1708279,4.08481772 28.6038715,4 29.0543387,4 C29.9781918,4 30.7003332,4.31393059 31.2202267,4.94205436 C31.7398522,5.57004683 32,6.57420456 32,7.95465885 C32,8.71289772 31.9620702,9.37213882 31.8872827,9.93211957 C31.8119591,10.4922316 31.6647967,10.9589916 31.4455273,11.332531 C31.2259899,11.7058077 30.916922,11.9831065 30.5184575,12.1641647 C30.1199931,12.3448291 29.6030482,12.4358178 28.9676227,12.4358178 C28.6095007,12.4358178 28.2545952,12.3448291 27.9023704,12.1641647 C27.5497434,11.9831065 27.3044727,11.7286533 27.165754,11.4001488 L27.165754,16 L25,16 L25,16 Z M30,8.49130086 C30,8.00695931 29.9761681,7.60639722 29.9291314,7.28881156 C29.8814675,6.97202891 29.8005644,6.71788009 29.6857949,6.52756959 C29.5710254,6.33739293 29.415334,6.20195396 29.2198181,6.12111884 C29.0235183,6.04055139 28.7839448,6 28.5001568,6 C28.1890875,6 27.9357165,6.04055139 27.7398871,6.12111884 C27.5442145,6.20195396 27.3921292,6.34020343 27.2839448,6.53640257 C27.1756036,6.73273555 27.1015992,6.98915953 27.0609909,7.30620985 C27.0203826,7.62352784 27,8.01860278 27,8.49130086 C27,9.37955032 27.1015992,10.0198073 27.3043274,10.4118041 C27.5070555,10.8042024 27.9054563,11 28.5001568,11 C29.1486359,11 29.5605205,10.7955032 29.7364378,10.3857066 C29.9117278,9.97657923 30,9.34502141 30,8.49130086 L30,8.49130086 Z" id="Fill-4" sketch:type="MSShapeGroup"></path>
                <path d="M33,1 L35,1 L35,12 L33,12 L33,1 Z" id="Fill-5" sketch:type="MSShapeGroup"></path>
                <path d="M42,11.8711284 L40.5363031,11.8711284 L40.1661171,11.0824591 C39.9514714,11.3184125 39.7423008,11.4984591 39.5386051,11.6217276 C39.3349095,11.7451206 39.1527406,11.8336498 38.9920986,11.8874397 C38.7988552,11.9515642 38.6160642,11.9892918 38.4448454,12 C38.1658682,12 37.8819138,11.9810739 37.5924843,11.9435953 C37.3028059,11.9059922 37.0398805,11.812358 36.8043302,11.6619455 C36.5682822,11.5119066 36.3749145,11.2891518 36.2249736,10.99393 C36.0746594,10.6989572 36,10.2936654 36,9.77855253 C36,9.38172763 36.0481553,9.04628794 36.1447147,8.772607 C36.2411498,8.49880156 36.4342686,8.26309728 36.7238226,8.06437354 C37.013252,7.86602335 37.4179058,7.69145525 37.938406,7.54129183 C38.4581596,7.39100389 39.1420394,7.24096498 39.9891744,7.09042802 C39.9783488,6.84389105 39.962297,6.62935409 39.9411435,6.44669261 C39.9194923,6.26428016 39.8791763,6.11137743 39.8203198,5.98810895 C39.7612145,5.86471595 39.6756051,5.77058366 39.5629938,5.70621012 C39.4503826,5.64183658 39.2975798,5.60946304 39.1043365,5.60946304 C38.814907,5.60946304 38.5842095,5.69014786 38.4128663,5.85101946 C38.2411498,6.01214008 38.1392397,6.2107393 38.1071362,6.44669261 L36.4342686,5.93170428 C36.4986001,5.56700389 36.6434393,5.24513619 36.8685373,4.96597665 C37.0507062,4.71906615 37.3294345,4.4964358 37.7048466,4.29771206 C38.0801344,4.09923735 38.5949107,4 39.2491756,4 C39.4745225,4 39.7451627,4.03224903 40.061594,4.09649805 C40.3777764,4.16112062 40.6781559,4.2953463 40.9626081,4.49905058 C41.2464381,4.70287938 41.4904498,4.99274708 41.6942699,5.36815564 C41.8979655,5.74393774 42,6.24298833 42,6.86518288 L42,11.8711284 L42,11.8711284 Z M40,8 C39.5669421,8.05332096 39.2224793,8.1267533 38.9659504,8.21988449 C38.7092893,8.31342822 38.5069752,8.41346947 38.358876,8.52000825 C38.2107769,8.62665017 38.1138512,8.73566419 38.0683636,8.84663779 C38.0224793,8.95802393 38,9.06229373 38,9.16006601 C38,9.41790429 38.0511736,9.62231848 38.1539174,9.77330858 C38.2563967,9.92460809 38.4556694,10 38.7521322,10 C39.0940826,10 39.3559008,9.94234736 39.5385124,9.82673267 C39.720595,9.71122112 39.8742479,9.60447607 40,9.5067038 L40,8 L40,8 Z" id="Fill-6" sketch:type="MSShapeGroup"></path>
                <path d="M44.5377081,4.16498134 L45.0618441,4.92392102 C45.2066601,4.81380586 45.3514761,4.7039459 45.4960123,4.59383074 C45.6406884,4.48397078 45.7944592,4.38508405 45.9574647,4.29691537 C46.1201903,4.20900188 46.2978872,4.13767584 46.4909752,4.08255447 C46.6836435,4.02743309 46.9007975,4 47.1422975,4 C47.67245,4.01097324 48.1487337,4.11547418 48.5708689,4.31337523 C48.7519239,4.40154391 48.9265426,4.51114868 49.0957045,4.64321031 C49.2644466,4.77527194 49.4151392,4.94025328 49.5477823,5.13815433 C49.6804254,5.33605538 49.7890024,5.57274554 49.8733734,5.84733165 C49.9576046,6.12230055 50,6.44128999 50,6.80417238 L50,12 L47.7210018,12 L47.7210018,7.38128808 C47.7210018,7.18351463 47.7089688,6.98561358 47.6847628,6.78771253 C47.660417,6.58968388 47.6183014,6.41117739 47.5581363,6.25155507 C47.4975514,6.09231554 47.4043655,5.96293343 47.2777389,5.8639191 C47.1509724,5.76490478 46.9911851,5.71539762 46.7985169,5.71539762 C46.3401427,5.71539762 45.9994403,5.81198762 45.7764097,6.00414686 C45.5529593,6.19668889 45.3814188,6.40288366 45.2609486,6.62273119 L45.2609486,12 L43,12 L43,4.16498134 L44.5377081,4.16498134 Z" id="Fill-7" sketch:type="MSShapeGroup"></path>
            </g>
        </g>
    </g>
</svg>