<?xml version="1.0" encoding="UTF-8" standalone="no"?>
<svg width="146px" height="39px" viewBox="0 0 146 39" version="1.1" xmlns="http://www.w3.org/2000/svg" xmlns:xlink="http://www.w3.org/1999/xlink" xmlns:sketch="http://www.bohemiancoding.com/sketch/ns">
    <!-- Generator: Sketch 3.3 (11970) - http://www.bohemiancoding.com/sketch -->
    <title>yp-logo-inverse</title>
    <desc>Created with Sketch.</desc>
    <defs>
        <path id="path-1" d="M36.0791,7.585 C36.0949333,7.59189368 36.1097436,7.60107553 36.1255769,7.60745803 C36.1385846,7.61434684 36.1520795,7.61842658 36.1651359,7.62455105 C36.1998231,7.64190211 36.2340231,7.65925316 36.268759,7.67787974 C32.0116385,5.36438658 27.7573436,3.04987592 23.5017333,0.736640789 C23.4846333,0.726178553 23.4660231,0.718267368 23.4473641,0.710103026 C23.4197897,0.694285526 23.3889026,0.679738684 23.3598179,0.665196711 C23.3044256,0.6401925 23.2460128,0.616205789 23.1890615,0.593494605 C23.1666026,0.583037237 23.1426333,0.5735925 23.1186154,0.564410658 C23.0376949,0.536597368 22.9544846,0.508784079 22.8697641,0.487606447 L22.8666949,0.487606447 C22.8562205,0.483526711 22.8455026,0.482251184 22.8350769,0.479442105 C22.7636077,0.462349079 22.6905795,0.447802237 22.6153103,0.434788947 C22.5869564,0.430709211 22.5593821,0.426624605 22.5302974,0.422798026 C22.4718359,0.415909211 22.410841,0.409273553 22.3488231,0.405705 C22.3184718,0.402895921 22.2865615,0.400344868 22.2548949,0.398811316 C22.1923897,0.397282632 22.1285692,0.397282632 22.0649923,0.397282632 C22.0359077,0.398811316 22.0065308,0.398811316 21.9790051,0.400344868 C21.8863436,0.405705 21.7934385,0.413358158 21.6992667,0.426624605 L3.48776667,2.9850675 C3.38516667,2.99960947 3.27998462,3.02078711 3.17918718,3.04579132 C3.15010256,3.05268013 3.11970256,3.06033816 3.09037436,3.06824447 C3.01354615,3.08840461 2.93696154,3.11238645 2.86266667,3.13739553 C2.83587179,3.14785289 2.80678718,3.15602211 2.7802359,3.16495079 C2.68786667,3.20092842 2.59466923,3.23945711 2.50507692,3.28308789 C2.50507692,3.28308789 2.49664872,3.28461658 2.49284872,3.28563895 C2.46732051,3.29916342 2.44612821,3.31217671 2.4211359,3.32416763 C2.34557436,3.36116276 2.27054872,3.39969145 2.19752051,3.44332224 C2.16156667,3.46322434 2.12809744,3.48721105 2.09287436,3.50838868 C2.0487359,3.5374775 2.00255128,3.56937053 1.95583077,3.59845934 C1.94535641,3.60637053 1.93590513,3.61300132 1.92698974,3.61963697 C1.80061538,3.70715658 1.68145128,3.80130697 1.56784103,3.90311539 C1.56097179,3.90847066 1.55585641,3.91638184 1.5479641,3.92174197 C1.52959744,3.93755947 1.51069487,3.95746158 1.49232821,3.97455947 C1.41014103,4.05161197 1.33024359,4.13224276 1.25365897,4.21593579 C1.23607179,4.23302882 1.22072564,4.25037987 1.20591538,4.26900645 C1.19139744,4.28482395 1.17683077,4.30064632 1.16484615,4.31518829 C1.08265897,4.41189461 1.0045641,4.51012961 0.927492308,4.61346671 C0.919794872,4.62673316 0.909076923,4.63999961 0.899917949,4.65301289 C0.896848718,4.65556395 0.894266667,4.65837303 0.893,4.66118211 C0.804430769,4.78798987 0.723510256,4.92067382 0.649264103,5.05565079 C0.641079487,5.07045079 0.633430769,5.08499276 0.625246154,5.10081026 C0.604589744,5.14189 0.580328205,5.18577882 0.559184615,5.22915645 C0.540525641,5.26513408 0.521915385,5.29957816 0.506082051,5.33657329 C0.466523077,5.41873763 0.433346154,5.50242579 0.400169231,5.58713632 C0.392228205,5.60831395 0.381266667,5.63102513 0.373617949,5.65194474 C0.370792308,5.65755803 0.370792308,5.66011395 0.370012821,5.66521605 C0.3458,5.72874895 0.325874359,5.79381539 0.304682051,5.8601525 C0.291674359,5.90786789 0.274330769,5.95303224 0.261030769,6.00176513 C0.239838462,6.07320921 0.225076923,6.1474575 0.210510256,6.22043026 C0.198769231,6.26661697 0.186784615,6.31177645 0.177576923,6.35949184 C0.1615,6.44165132 0.153851282,6.52381079 0.143133333,6.60444158 C0.137774359,6.64552132 0.129589744,6.68430316 0.126764103,6.72512974 C0.115558974,6.84836895 0.108397436,6.97160816 0.108397436,7.09612289 L0.0724435897,26.7456204 C0.0685948718,28.0400216 0.694182051,29.0881975 1.63526667,29.6008033 L14.4007333,36.5433207 C14.3900154,36.536687 14.379541,36.5272461 14.3675564,36.5221431 C14.8951231,36.8188884 15.5258256,36.9485072 16.204759,36.8530793 L34.4141641,34.294894 C36.278941,34.0325951 37.7925103,32.1908861 37.7950436,30.1823021 L37.8328487,10.5317871 C37.8353821,9.15369776 37.1258538,8.05550855 36.0791,7.585 L36.0791,7.585 Z"></path>
        <path id="path-3" d="M23.104375,0.285245902 C23.101875,0.283957377 23.0990865,0.28112459 23.0955769,0.28112459 C23.0126923,0.242459016 22.9252885,0.211529508 22.8361058,0.180855738 C22.8126923,0.171580328 22.7892788,0.164877049 22.7640865,0.156885246 C22.6910577,0.135491803 22.6189904,0.11667541 22.5431731,0.100952459 C22.5235577,0.0952819672 22.5026442,0.0911606557 22.4829808,0.0872901639 C22.3887981,0.0697622951 22.2945673,0.0550721311 22.1991346,0.0470803279 C22.18125,0.0455360656 22.1636058,0.0455360656 22.1467308,0.0445032787 C22.064375,0.037804918 21.9822596,0.0362557377 21.8973558,0.037804918 L21.8328846,0.037804918 C21.7271154,0.0429590164 21.6195673,0.0512065574 21.5102404,0.0671852459 L3.53961538,2.65041148 C3.43759615,2.6648459 3.335625,2.68623934 3.23634615,2.7117541 C3.20485577,2.7197459 3.17514423,2.72644918 3.14495192,2.73444098 C3.07014423,2.75583443 2.99831731,2.77851639 2.92480769,2.80558033 C2.89605769,2.81486066 2.86889423,2.82413607 2.84139423,2.83496557 C2.74620192,2.86976066 2.65072115,2.90997049 2.55855769,2.95559016 C2.53134615,2.96899672 2.50389423,2.98497541 2.47495192,2.99967049 C2.40466346,3.03549836 2.33389423,3.07338689 2.26586538,3.11334098 C2.22932692,3.13499016 2.19533654,3.16024918 2.16009615,3.18293115 C2.10620192,3.21773115 2.05125,3.25381475 1.99913462,3.29144754 C1.87596154,3.38088689 1.75706731,3.47600164 1.64447115,3.57910328 C1.61980769,3.60049672 1.59485577,3.62601639 1.57019231,3.64998689 C1.48807692,3.72885738 1.40899038,3.81056557 1.33192308,3.89613934 C1.30471154,3.92681311 1.27572115,3.96058033 1.24826923,3.99383115 C1.16591346,4.09022951 1.08908654,4.19230328 1.01302885,4.29927049 C1.00245192,4.31370492 0.989086538,4.32865574 0.97875,4.34463443 C0.890865385,4.473 0.813028846,4.60574262 0.737980769,4.74338361 C0.706730769,4.79983279 0.678028846,4.85885902 0.649038462,4.91865738 C0.632163462,4.95500164 0.612788462,4.98954098 0.595673077,5.02742951 C0.559375,5.10759344 0.526394231,5.19032951 0.494903846,5.27332623 C0.484326923,5.29781311 0.473990385,5.32152787 0.466442308,5.3485918 C0.44125,5.41251639 0.421586538,5.48236721 0.400721154,5.54912459 C0.385096154,5.59887049 0.369230769,5.64810492 0.354855769,5.69888361 C0.334230769,5.77388852 0.319855769,5.85147541 0.302451923,5.92931311 C0.293653846,5.97364918 0.280576923,6.0148918 0.272740385,6.05896721 C0.255865385,6.14866721 0.246298077,6.23991148 0.23625,6.33063934 C0.230432692,6.36440656 0.225625,6.39508033 0.222884615,6.42833115 C0.211057692,6.55308197 0.204759615,6.67757705 0.204759615,6.8046541 L0.167980769,26.6541295 C0.167980769,26.8028508 0.178028846,26.9474557 0.193894231,27.0894762 C0.199471154,27.1335526 0.206009615,27.1747933 0.211057692,27.2178384 C0.225625,27.316559 0.2425,27.4145061 0.264711538,27.5096174 C0.275288462,27.5536938 0.284326923,27.5977697 0.296153846,27.6392685 C0.322355769,27.7423707 0.354855769,27.8403177 0.390384615,27.9380066 C0.400721154,27.9661023 0.40875,27.9954861 0.418846154,28.0222928 C0.466442308,28.1436954 0.521346154,28.2614897 0.581538462,28.3741289 C0.596682692,28.4009351 0.612788462,28.4264533 0.628413462,28.451971 C0.677019231,28.535999 0.727884615,28.6177072 0.784086538,28.6952916 C0.80875,28.7303464 0.832692308,28.7623082 0.857355769,28.79427 C0.912259615,28.8654103 0.969471154,28.9308802 1.02865385,28.99635 C1.05485577,29.0234144 1.07951923,29.051252 1.10471154,29.0770274 C1.19086538,29.163633 1.27975962,29.2440526 1.37625,29.317771 C1.38177885,29.321637 1.38807692,29.3244723 1.39485577,29.3298851 C1.48379808,29.3979325 1.58052885,29.4597939 1.67850962,29.5172734 C2.19913462,29.8170428 2.82153846,29.9479825 3.49153846,29.8515821 L21.4613462,27.2673275 C23.3015865,27.0023557 24.7952404,25.1418787 24.7977404,23.1128262 L24.8350481,3.2620623 C24.8375481,1.86992951 24.1373558,0.76054918 23.104375,0.285245902 L23.104375,0.285245902 Z"></path>
        <path d="M43.3082152,22.5895687 C43.8981261,21.6250028 44.2937935,20.5218417 44.5377522,19.4500153 C44.698681,18.7394569 44.7965755,18.0052056 44.8444957,17.279359 C44.88165,16.7186056 44.8755016,16.1517368 44.7899087,15.595825 C44.6589636,14.7402986 44.3832261,13.909491 43.9111957,13.1782924 C43.8235533,13.0430076 42.9404821,11.9370417 42.9761005,11.8860875 C43.0422163,11.7902944 43.1178114,11.6871125 43.2356918,11.5311924 C43.3351223,11.3987125 43.4453136,11.2598597 43.560631,11.1151493 C44.0926288,10.4486667 44.7540359,9.618875 44.8098995,8.71417847 C44.838088,8.25915417 44.6950957,7.85279444 44.3975772,7.53789653 C44.0042185,7.12261667 43.3522908,6.88517083 42.6091353,6.88517083 C42.2678005,6.88517083 41.9333772,6.93688819 41.6432935,7.03497569 C40.0726761,7.5649 39.3661663,9.61734375 39.3661663,10.906491 C39.3661663,11.1974431 39.4604707,11.4068646 39.5837315,11.5717 C39.6211451,11.6221437 39.2323989,12.1966542 39.2006201,12.2501604 C38.5335783,13.3591792 37.8063098,14.4322792 37.0785326,15.5025792 C36.8768543,15.7988785 36.6690277,16.093141 36.4340397,16.3649792 C35.8843598,17.0673854 35.3195609,17.7649549 34.6976168,18.4067236 C33.9905984,19.1351174 33.2236125,19.8280979 32.4133141,20.4413319 C31.563812,21.0856528 30.6174473,21.6135403 29.638531,22.0413035 C28.6096451,22.4904653 27.5543707,22.6891875 26.4378424,22.7666347 C26.3027935,22.7763181 26.1656951,22.7936431 26.0303918,22.7936431 C25.6203734,22.7936431 25.3126027,22.6835826 25.0914522,22.4553049 C24.6014853,21.9528944 24.5704745,20.9409424 24.5850848,20.2474514 L25.069412,20.0550972 C27.4098375,19.1244181 32.2774973,17.1884028 32.2774973,13.1314167 C32.2774973,11.1462312 31.0305375,9.96077639 28.939456,9.96077639 C25.2185576,9.96077639 21.6903668,13.661341 20.8570109,18.4118181 C19.1623647,20.0629965 17.8000826,20.9503681 15.4435158,21.8978667 L16.7494158,16.3774674 L17.5702207,12.7433979 C18.5299141,8.50806736 19.8701511,4.45082361 21.1765647,0.697520833 C21.221413,0.567077778 21.2004,0.423135417 21.1204467,0.310522917 C21.0402342,0.197915278 20.9097978,0.131672917 20.77065,0.131672917 L17.8977179,0.131672917 C17.7390929,0.131672917 17.5927696,0.219313889 17.5197326,0.359440278 C16.4652261,2.34258403 15.3781679,5.55322153 14.459219,9.39798611 L13.3665261,13.9627347 C11.2964576,16.1805243 9.98107337,17.0077687 8.53423043,17.0077687 C7.24780272,17.0077687 6.31399402,15.9703396 6.31399402,14.5410708 C6.31399402,13.0182986 7.07610815,10.2145312 7.68754565,7.96234444 C7.97148098,6.91701597 8.239275,5.92824653 8.39303315,5.21208333 C8.72591087,3.70561528 8.88709891,2.85213056 8.92579402,1.52247569 C8.92579402,0.979810417 8.88479511,0.816501389 8.75845761,0.398931944 C8.70336196,0.218297917 8.53730707,0.0944756944 8.34844402,0.0944756944 L6.40803913,0.0944756944 C6.30963587,0.0944756944 6.2135413,0.129125694 6.13665978,0.191036806 C4.0091894,1.92144653 2.04059935,3.35861458 0.283936207,4.46330694 C0.0966100598,4.58075625 0.0307512147,4.82075417 0.13171769,5.01692917 L0.98942038,6.68644861 C1.0429787,6.78988333 1.13625734,6.86733542 1.24721804,6.90020139 C1.35920348,6.93459375 1.47913337,6.92083681 1.58215011,6.86427778 C2.49212935,6.35473611 3.51947641,5.69869514 4.41689918,5.05692639 C4.28723168,6.22581944 4.00303908,7.27318958 3.49666924,9.08257778 C2.81911745,11.4221479 2.39782598,13.6272014 2.39782598,14.8378757 C2.39782598,17.9348847 4.69878554,20.2714021 7.75084402,20.2714021 C9.36964076,20.2714021 10.7534446,19.7152326 12.3161185,18.3967875 L11.3379701,23.0366937 L10.3849386,23.3324875 C7.17579783,24.3232937 1.20416625,26.1683528 1.20416625,30.6745051 C1.20416625,33.1972569 3.09844076,34.9582412 5.81095272,34.9582412 C8.07578315,34.9582412 10.1832652,33.8456519 11.7428625,31.8304053 C12.8878337,30.3975676 13.614075,28.71225 14.4866397,25.4422535 C17.89695,24.2957799 19.6841054,23.3138889 20.8821228,22.4789979 C21.3720946,24.7691451 22.6915777,26.0198215 24.6496598,26.0198215 C29.9001717,26.0198215 34.7714217,23.5075118 38.0149043,19.1251812 C38.9845957,17.8153986 41.0977174,14.7013222 41.0977174,14.7013222 C41.0977174,14.7013222 41.3919,15.0883201 41.5087582,15.2811799 C41.6825022,15.5662694 41.7888489,15.8584951 41.8529152,16.18715 C42.1260848,17.5784583 41.6086973,20.0089847 39.4163902,21.5261521 C38.4761739,22.1770937 37.0231777,22.1681785 36.1201207,22.9133868 C35.6852446,23.2741444 35.3843951,24.5395937 35.3892668,24.8040479 C35.4015636,25.4715514 36.2023777,25.8384243 36.9375897,25.941859 C38.5189679,26.1630007 40.2066978,25.505691 41.4644234,24.5874903 C41.806531,24.3373083 42.1581179,24.0529819 42.4441076,23.7403736 C42.7644293,23.3895569 43.0609255,22.9949125 43.3082152,22.5895687 L43.3082152,22.5895687 L43.3082152,22.5895687 Z M28.6419375,13.0753632 C28.9271543,13.0753632 29.0329875,13.18135 29.0329875,13.4654187 C29.0329875,14.6047611 27.529513,15.9063917 25.1391179,16.8839514 C25.843319,14.7795326 27.3631989,13.0753632 28.6419375,13.0753632 L28.6419375,13.0753632 L28.6419375,13.0753632 Z M10.2109402,26.5680917 C9.0826288,30.3626638 7.73444348,32.066579 5.88552554,32.066579 C4.91404402,32.066579 4.26186196,31.5073544 4.26186196,30.6745051 C4.26186196,29.2444687 5.8760462,28.0923903 9.83475,26.7005715 L10.2109402,26.5680917 L10.2109402,26.5680917 Z" id="path-5"></path>
        <path d="M0.265835,23.8827478 L0.265835,0.852107755 L3.2461,0.819247347 L3.8892,2.11303347 C4.25015,1.64916735 4.83745,1.25050776 5.6503,0.918592653 C6.46315,0.586932245 7.30955,0.421102041 8.18995,0.421102041 C9.9956,0.421102041 11.40705,1.03488 12.42315,2.26294531 C13.43875,3.49075592 13.9472,5.45402449 13.9472,8.15300082 C13.9472,9.63546122 13.8731,10.924369 13.7269,12.0192098 C13.5797,13.1143053 13.29205,14.0268833 12.8635,14.7572033 C12.4344,15.4870139 11.83035,16.029169 11.05155,16.3831641 C10.27275,16.7363853 9.2624,16.9142841 8.0205,16.9142841 C7.32055,16.9142841 6.6269,16.7363853 5.93845,16.3831641 C5.24925,16.029169 4.7699,15.5316784 4.49875,14.889409 L4.49875,23.8827478 L0.265835,23.8827478 L0.265835,23.8827478 Z M9.64615,8.61763592 C9.64615,7.68862531 9.60635,6.92031184 9.52775,6.31115755 C9.44815,5.70354122 9.31295,5.21606204 9.1212,4.85102694 C8.92945,4.48625143 8.66935,4.22646857 8.3427,4.07141878 C8.0147,3.91688327 7.61445,3.83910367 7.1403,3.83910367 C6.6206,3.83910367 6.1973,3.91688327 5.8701,4.07141878 C5.5432,4.22646857 5.2891,4.49164408 5.10835,4.86796898 C4.9273,5.24455347 4.8037,5.73639673 4.73585,6.34452735 C4.668,6.95317224 4.63395,7.71096 4.63395,8.61763592 C4.63395,10.3213763 4.8037,11.5494416 5.1424,12.3013273 C5.4811,13.053982 6.1467,13.429538 7.1403,13.429538 C8.22375,13.429538 8.9119,13.0372947 9.20585,12.2512702 C9.4987,11.466529 9.64615,10.2551461 9.64615,8.61763592 L9.64615,8.61763592 L9.64615,8.61763592 Z" id="path-7"></path>
        <path id="path-9" d="M0.3248,0.400657959 L4.55795,0.400657959 L4.55795,23.9287886 L0.3248,23.9287886 L0.3248,0.400657959 L0.3248,0.400657959 Z"></path>
        <path d="M12.69555,16.4439251 L9.6142,16.4439251 L8.83485,14.831514 C8.383,15.3139157 7.94265,15.6820143 7.51385,15.934032 C7.085,16.1863071 6.7015,16.3672989 6.3633,16.4772743 C5.9565,16.6083734 5.5717,16.6855049 5.21125,16.707396 C4.62395,16.707396 4.02615,16.668704 3.41685,16.5920826 C2.807,16.5152037 2.2535,16.3237691 1.75765,16.0162586 C1.2607,15.7095057 0.85365,15.2540903 0.53795,14.6505223 C0.22155,14.0474594 0.06435,13.2188551 0.06435,12.1657197 C0.06435,11.3544263 0.16575,10.6686317 0.369,10.1090986 C0.572,9.54931286 0.9786,9.06742114 1.58815,8.66114057 C2.19745,8.25561771 3.04935,7.89871971 4.1451,7.59171429 C5.23925,7.28445629 6.679,6.97770829 8.46235,6.66994029 C8.43955,6.1659 8.4058,5.72729029 8.36125,5.353844 C8.31565,4.98090771 8.2308,4.668302 8.1069,4.41628429 C7.98245,4.16400914 7.80225,3.97155943 7.56515,3.83995029 C7.3281,3.70834114 7.0064,3.64215286 6.5996,3.64215286 C5.9903,3.64215286 5.50465,3.80711114 5.1439,4.13600771 C4.7824,4.46541429 4.5679,4.87144229 4.5003,5.353844 L0.9786,4.300966 C1.114,3.555346 1.4189,2.89730029 1.8928,2.32656657 C2.2763,1.82176857 2.8631,1.36660571 3.6534,0.960320286 C4.44345,0.554549714 5.52715,0.351662 6.9045,0.351662 C7.3789,0.351662 7.94865,0.417592857 8.6148,0.548949429 C9.28045,0.681063714 9.9128,0.955487429 10.51165,1.37195343 C11.10915,1.788672 11.62285,2.38129686 12.05195,3.148808 C12.48075,3.91708171 12.69555,4.937378 12.69555,6.20943457 L12.69555,16.4439251 L12.69555,16.4439251 Z M8.46235,8.84187971 C7.60445,8.97348886 6.92205,9.154738 6.4139,9.38460714 C5.9054,9.61550114 5.50465,9.86242857 5.21125,10.1253894 C4.91785,10.3886077 4.72585,10.6576837 4.63575,10.9315974 C4.54485,11.2065263 4.5003,11.4638869 4.5003,11.705214 C4.5003,12.341626 4.60165,12.8461714 4.8052,13.2188551 C5.00825,13.5922966 5.403,13.7783834 5.9903,13.7783834 C6.6677,13.7783834 7.1864,13.6360837 7.54815,13.3507169 C7.90885,13.0656074 8.21325,12.8021317 8.46235,12.5608046 L8.46235,8.84187971 L8.46235,8.84187971 Z" id="path-11"></path>
        <path id="path-13" d="M0.0788185185,0.836315 L2.85109259,0.836315 L3.796,2.394995 C4.05710741,2.168845 4.31816667,1.94322 4.57874444,1.71707 C4.83956296,1.491445 5.1168,1.288355 5.4106963,1.107275 C5.70406296,0.926725 6.02439259,0.780235 6.3725037,0.66703 C6.71989259,0.553825 7.11138519,0.497485 7.54674074,0.497485 C8.50252963,0.52002 9.3612037,0.73464 10.1222333,1.14108 C10.4486778,1.32216 10.7634704,1.54726 11.0684407,1.818485 C11.3726889,2.089705 11.6443407,2.42854 11.8834926,2.83498 C12.1225963,3.24142 12.3183667,3.727525 12.4704667,4.29146 C12.6223259,4.85618 12.6987852,5.51131 12.6987852,6.25658 L12.6987852,16.92757 L8.59006296,16.92757 L8.59006296,7.44184 C8.59006296,7.03566 8.5683963,6.62922 8.52472593,6.22278 C8.48086296,5.816075 8.40493333,5.449465 8.29645556,5.12164 C8.18720741,4.7946 8.01921852,4.52888 7.79094815,4.325525 C7.56238889,4.122175 7.27431852,4.0205 6.92697778,4.0205 C6.10061111,4.0205 5.48633704,4.21887 5.08425185,4.61352 C4.6813963,5.008955 4.37214074,5.43243 4.15494444,5.883945 L4.15494444,16.92757 L0.0788185185,16.92757 L0.0788185185,0.836315 L0.0788185185,0.836315 Z"></path>
        <path d="M12.6503,11.9070563 C13.3246,12.0615918 12.84915,14.2402286 12.6629,14.5243984 C12.47295,14.8098563 10.852,15.9429404 8.78595,16.9674465 C8.25705,19.1419788 7.8141,20.2873861 7.11965,21.3072686 C6.1732,22.7332555 4.8946,23.6265845 3.52615,23.8152588 C1.885,24.0414152 0.73895,23.0628637 0.7429,21.4422955 C0.74785,18.5366694 4.36415,16.855009 6.3081,15.9473045 L6.8847,15.6787935 L7.48195,12.6070824 C6.53655,13.5887167 5.6967,14.0638727 4.71595,14.1981306 C2.8692,14.4527804 1.4795,13.1379478 1.4824,11.1469567 C1.48345,10.3660653 1.7425,8.91029878 2.15825,7.34723755 C2.4647,6.14227102 2.63785,5.44121633 2.7188,4.67906449 C2.17605,5.16526041 1.55235,5.67635265 0.99985,6.07835265 C0.9585,6.10787265 0.9137,6.12558367 0.8681,6.13225959 C0.84505,6.13508082 0.82095,6.13508082 0.79605,6.13225959 C0.72925,6.11916735 0.67375,6.07860735 0.6423,6.01263673 L0.1273,5.01123429 C0.06365,4.89392327 0.1027,4.73322612 0.21795,4.64286857 C1.28305,3.78188571 2.47495,2.69243755 3.7648,1.40173224 C3.8104,1.35501061 3.8696,1.32883102 3.9288,1.32035755 L5.1013,1.15812245 C5.2202,1.14118041 5.3182,1.20663673 5.35225,1.31984327 C5.42585,1.57654531 5.4539,1.67897143 5.4531,2.02783347 C5.42665,2.88547592 5.32735,3.45073959 5.1259,4.44751347 C5.0303,4.92318857 4.86895,5.57803592 4.6929,6.27652408 C4.3186,7.77823837 3.8586,9.64729469 3.8557,10.62816 C3.8536,11.5486971 4.41575,12.1373192 5.19665,12.030529 C6.0716,11.9106465 6.86925,11.2670939 8.1245,9.66603429 L8.792,6.63642612 C9.35255,4.08402612 10.014,1.92874286 10.65315,0.564107755 C10.69955,0.465536327 10.7873,0.397253878 10.8816,0.384675918 L12.6202,0.144656327 C12.7048,0.133616327 12.7852,0.166731429 12.8334,0.230395102 C12.8819,0.297653878 12.89235,0.388780408 12.86535,0.474519184 C12.07295,2.99868245 11.2554,5.72795265 10.6702,8.53140735 L10.16855,10.938769 L9.3675,14.6044898 C10.7137,13.8459331 11.83325,11.9976686 12.5235,11.9026922 C12.567,11.8967853 12.6097,11.8975543 12.6503,11.9070563 L12.6503,11.9070563 L12.6503,11.9070563 Z M3.5746,21.9474857 C4.6942,21.7932098 5.51285,20.5823412 6.19995,18.0453404 L5.97125,18.1626563 C3.5733,19.3879004 2.5949,20.2658253 2.5931,21.1871314 C2.59255,21.720818 2.98705,22.028351 3.5746,21.9474857 L3.5746,21.9474857 L3.5746,21.9474857 Z" id="path-15"></path>
    </defs>
    <g id="Page-1" stroke="none" stroke-width="1" fill="none" fill-rule="evenodd" sketch:type="MSPage">
        <g id="Login-(desktop)" sketch:type="MSArtboardGroup" transform="translate(-527.000000, -376.000000)">
            <g id="Group" sketch:type="MSLayerGroup" transform="translate(425.000000, 376.000000)">
                <g id="yp-logo-inverse" transform="translate(102.000000, 0.000000)">
                    <g id="Group-3" transform="translate(108.000000, 0.000000)">
                        <mask id="mask-2" sketch:name="Clip 2" fill="white">
                            <use xlink:href="#path-1"></use>
                        </mask>
                        <g id="Clip-2"></g>
                        <path d="M-2.36350256,-2.03692789 L40.2687462,-2.03692789 L40.2687462,39.3182143 L-2.36350256,39.3182143 L-2.36350256,-2.03692789 Z" id="Fill-1" fill="#FFDC00" sketch:type="MSShapeGroup" mask="url(#mask-2)"></path>
                    </g>
                    <g id="Group-6" transform="translate(121.000000, 7.000000)">
                        <mask id="mask-4" sketch:name="Clip 5" fill="white">
                            <use xlink:href="#path-3"></use>
                        </mask>
                        <g id="Clip-5"></g>
                        <path d="M-2.23586538,-2.4217623 L27.2388942,-2.4217623 L27.2388942,32.3418381 L-2.23586538,32.3418381 L-2.23586538,-2.4217623 Z" id="Fill-4" fill="#EECA00" sketch:type="MSShapeGroup" mask="url(#mask-4)"></path>
                    </g>
                    <g id="Group-9" transform="translate(0.000000, 4.000000)">
                        <mask id="mask-6" sketch:name="Clip 8" fill="white">
                            <use xlink:href="#path-5"></use>
                        </mask>
                        <g id="Clip-8"></g>
                        <path d="M-2.36110647,-2.33607986 L47.3117772,-2.33607986 L47.3117772,37.3887967 L-2.36110647,37.3887967 L-2.36110647,-2.33607986 Z" id="Fill-7" fill="#FFFFFF" sketch:type="MSShapeGroup" mask="url(#mask-6)"></path>
                    </g>
                    <g id="Group-12" transform="translate(48.000000, 12.000000)">
                        <mask id="mask-8" sketch:name="Clip 11" fill="white">
                            <use xlink:href="#path-7"></use>
                        </mask>
                        <g id="Clip-11"></g>
                        <path d="M-2.234165,-2.02787755 L16.4472,-2.02787755 L16.4472,26.3317273 L-2.234165,26.3317273 L-2.234165,-2.02787755 Z" id="Fill-10" fill="#FFFFFF" sketch:type="MSShapeGroup" mask="url(#mask-8)"></path>
                    </g>
                    <g id="Group-15" transform="translate(64.000000, 5.000000)">
                        <mask id="mask-10" sketch:name="Clip 14" fill="white">
                            <use xlink:href="#path-9"></use>
                        </mask>
                        <g id="Clip-14"></g>
                        <path d="M-2.1752,-2.04832163 L7.05795,-2.04832163 L7.05795,26.3777682 L-2.1752,26.3777682 L-2.1752,-2.04832163 Z" id="Fill-13" fill="#FFFFFF" sketch:type="MSShapeGroup" mask="url(#mask-10)"></path>
                    </g>
                    <g id="Group-18" transform="translate(71.000000, 12.000000)">
                        <mask id="mask-12" sketch:name="Clip 17" fill="white">
                            <use xlink:href="#path-11"></use>
                        </mask>
                        <g id="Clip-17"></g>
                        <path d="M-2.43565,-2.07690943 L15.19555,-2.07690943 L15.19555,19.1359674 L-2.43565,19.1359674 L-2.43565,-2.07690943 Z" id="Fill-16" fill="#FFFFFF" sketch:type="MSShapeGroup" mask="url(#mask-12)"></path>
                    </g>
                    <g id="Group-21" transform="translate(86.000000, 12.000000)">
                        <mask id="mask-14" sketch:name="Clip 20" fill="white">
                            <use xlink:href="#path-13"></use>
                        </mask>
                        <g id="Clip-20"></g>
                        <path d="M-2.32858889,-2.002515 L15.1061926,-2.002515 L15.1061926,19.42757 L-2.32858889,19.42757 L-2.32858889,-2.002515 Z" id="Fill-19" fill="#FFFFFF" sketch:type="MSShapeGroup" mask="url(#mask-14)"></path>
                    </g>
                    <g id="Group-24" transform="translate(128.000000, 10.000000)">
                        <mask id="mask-16" sketch:name="Clip 23" fill="white">
                            <use xlink:href="#path-15"></use>
                        </mask>
                        <g id="Clip-23"></g>
                        <path d="M-2.40315,-2.30641959 L15.49995,-2.30641959 L15.49995,26.296562 L-2.40315,26.296562 L-2.40315,-2.30641959 Z" id="Fill-22" fill="#FFFFFE" sketch:type="MSShapeGroup" mask="url(#mask-16)"></path>
                    </g>
                </g>
            </g>
        </g>
    </g>
</svg>